<?xml version="1.0" encoding="UTF-8" standalone="no"?><svg xmlns="http://www.w3.org/2000/svg" xmlns:xlink="http://www.w3.org/1999/xlink" contentStyleType="text/css" height="646px" preserveAspectRatio="none" style="width:628px;height:646px;background:#FFFFFF;" version="1.1" viewBox="0 0 628 646" width="628px" zoomAndPan="magnify"><defs/><g><!--MD5=[67a5a4491f73fa87afb300e47a08ebe9]
class ReservationManager--><g id="elem_ReservationManager"><rect codeLine="3" fill="#F1F1F1" height="96.8906" id="ReservationManager" rx="2.5" ry="2.5" style="stroke:#181818;stroke-width:0.5;" width="612" x="9" y="7"/><ellipse cx="237.25" cy="23" fill="#ADD1B2" rx="11" ry="11" style="stroke:#181818;stroke-width:1.0;"/><path d="M239.5938,18.6719 C238.6563,18.2344 238.0625,18.0938 237.1875,18.0938 C234.5625,18.0938 232.5625,20.1719 232.5625,22.8906 L232.5625,24.0156 C232.5625,26.5938 234.6719,28.4844 237.5625,28.4844 C238.7813,28.4844 239.9375,28.1875 240.6875,27.6406 C241.2656,27.2344 241.5938,26.7813 241.5938,26.3906 C241.5938,25.9375 241.2031,25.5469 240.7344,25.5469 C240.5156,25.5469 240.3125,25.625 240.125,25.8125 C239.6719,26.2969 239.6719,26.2969 239.4844,26.3906 C239.0625,26.6563 238.375,26.7813 237.6094,26.7813 C235.5625,26.7813 234.2656,25.6875 234.2656,23.9844 L234.2656,22.8906 C234.2656,21.1094 235.5156,19.7969 237.25,19.7969 C237.8281,19.7969 238.4375,19.9531 238.9063,20.2031 C239.3906,20.4844 239.5625,20.7031 239.6563,21.1094 C239.7188,21.5156 239.75,21.6406 239.8906,21.7656 C240.0313,21.9063 240.2656,22.0156 240.4844,22.0156 C240.75,22.0156 241.0156,21.875 241.1875,21.6563 C241.2969,21.5 241.3281,21.3125 241.3281,20.8906 L241.3281,19.4688 C241.3281,19.0313 241.3125,18.9063 241.2188,18.75 C241.0625,18.4844 240.7813,18.3438 240.4844,18.3438 C240.1875,18.3438 239.9844,18.4375 239.7656,18.75 L239.5938,18.6719 Z " fill="#000000"/><text fill="#000000" font-family="sans-serif" font-size="14" lengthAdjust="spacing" textLength="147" x="257.75" y="27.8467">ReservationManager</text><line style="stroke:#181818;stroke-width:0.5;" x1="10" x2="620" y1="39" y2="39"/><ellipse cx="20" cy="52.6484" fill="none" rx="3" ry="3" style="stroke:#038048;stroke-width:1.0;"/><text fill="#000000" font-family="sans-serif" font-size="14" lengthAdjust="spacing" textLength="392" x="29" y="55.9951">Reservations : IReadOnlyList&lt;PublicationReservation&gt;</text><line style="stroke:#181818;stroke-width:1.0;" x1="10" x2="620" y1="63.2969" y2="63.2969"/><ellipse cx="20" cy="76.9453" fill="#84BE84" rx="3" ry="3" style="stroke:#038048;stroke-width:1.0;"/><text fill="#000000" font-family="sans-serif" font-size="14" lengthAdjust="spacing" textLength="435" x="29" y="80.292">bool TryAddReservation(PublicationReservation reservation)</text><ellipse cx="20" cy="93.2422" fill="#84BE84" rx="3" ry="3" style="stroke:#038048;stroke-width:1.0;"/><text fill="#000000" font-family="sans-serif" font-size="14" lengthAdjust="spacing" textLength="586" x="29" y="96.5889">IReadOnlyList&lt;PublicationReservation&gt; GetPendingReservations(DateTime date)</text></g><!--MD5=[5d10358a1382aa9fa2f4f52fbfc40a7f]
class PublicationReservation--><g id="elem_PublicationReservation"><rect codeLine="11" fill="#F1F1F1" height="162.0781" id="PublicationReservation" rx="2.5" ry="2.5" style="stroke:#181818;stroke-width:0.5;" width="336" x="147" y="164"/><ellipse cx="227.75" cy="180" fill="#ADD1B2" rx="11" ry="11" style="stroke:#181818;stroke-width:1.0;"/><path d="M230.0938,175.6719 C229.1563,175.2344 228.5625,175.0938 227.6875,175.0938 C225.0625,175.0938 223.0625,177.1719 223.0625,179.8906 L223.0625,181.0156 C223.0625,183.5938 225.1719,185.4844 228.0625,185.4844 C229.2813,185.4844 230.4375,185.1875 231.1875,184.6406 C231.7656,184.2344 232.0938,183.7813 232.0938,183.3906 C232.0938,182.9375 231.7031,182.5469 231.2344,182.5469 C231.0156,182.5469 230.8125,182.625 230.625,182.8125 C230.1719,183.2969 230.1719,183.2969 229.9844,183.3906 C229.5625,183.6563 228.875,183.7813 228.1094,183.7813 C226.0625,183.7813 224.7656,182.6875 224.7656,180.9844 L224.7656,179.8906 C224.7656,178.1094 226.0156,176.7969 227.75,176.7969 C228.3281,176.7969 228.9375,176.9531 229.4063,177.2031 C229.8906,177.4844 230.0625,177.7031 230.1563,178.1094 C230.2188,178.5156 230.25,178.6406 230.3906,178.7656 C230.5313,178.9063 230.7656,179.0156 230.9844,179.0156 C231.25,179.0156 231.5156,178.875 231.6875,178.6563 C231.7969,178.5 231.8281,178.3125 231.8281,177.8906 L231.8281,176.4688 C231.8281,176.0313 231.8125,175.9063 231.7188,175.75 C231.5625,175.4844 231.2813,175.3438 230.9844,175.3438 C230.6875,175.3438 230.4844,175.4375 230.2656,175.75 L230.0938,175.6719 Z " fill="#000000"/><text fill="#000000" font-family="sans-serif" font-size="14" lengthAdjust="spacing" textLength="166" x="248.25" y="184.8467">PublicationReservation</text><line style="stroke:#181818;stroke-width:0.5;" x1="148" x2="482" y1="196" y2="196"/><ellipse cx="158" cy="209.6484" fill="none" rx="3" ry="3" style="stroke:#038048;stroke-width:1.0;"/><text fill="#000000" font-family="sans-serif" font-size="14" lengthAdjust="spacing" textLength="153" x="167" y="212.9951">Customer : Customer</text><ellipse cx="158" cy="225.9453" fill="none" rx="3" ry="3" style="stroke:#038048;stroke-width:1.0;"/><text fill="#000000" font-family="sans-serif" font-size="14" lengthAdjust="spacing" textLength="173" x="167" y="229.292">Publication : Publication</text><ellipse cx="158" cy="242.2422" fill="none" rx="3" ry="3" style="stroke:#038048;stroke-width:1.0;"/><text fill="#000000" font-family="sans-serif" font-size="14" lengthAdjust="spacing" textLength="207" x="167" y="245.5889">ReservationFrom : DateTime</text><ellipse cx="158" cy="258.5391" fill="none" rx="3" ry="3" style="stroke:#038048;stroke-width:1.0;"/><text fill="#000000" font-family="sans-serif" font-size="14" lengthAdjust="spacing" textLength="175" x="167" y="261.8857">ReturnDate : DateTime?</text><ellipse cx="158" cy="274.8359" fill="none" rx="3" ry="3" style="stroke:#038048;stroke-width:1.0;"/><text fill="#000000" font-family="sans-serif" font-size="14" lengthAdjust="spacing" textLength="310" x="167" y="278.1826">MaxReturnDate : DateTime  &lt;&lt;calculated&gt;</text><ellipse cx="158" cy="291.1328" fill="none" rx="3" ry="3" style="stroke:#038048;stroke-width:1.0;"/><text fill="#000000" font-family="sans-serif" font-size="14" lengthAdjust="spacing" textLength="233" x="167" y="294.4795">IsReturned : bool &lt;&lt;calculated&gt;</text><line style="stroke:#181818;stroke-width:1.0;" x1="148" x2="482" y1="301.7813" y2="301.7813"/><ellipse cx="158" cy="315.4297" fill="#84BE84" rx="3" ry="3" style="stroke:#038048;stroke-width:1.0;"/><text fill="#000000" font-family="sans-serif" font-size="14" lengthAdjust="spacing" textLength="309" x="167" y="318.7764">bool IsPendingReservation(DateTime date)</text></g><!--MD5=[2ce0c9fb7f55b1e256ab28a8ea6b25ec]
class Customer--><g id="elem_Customer"><rect codeLine="24" fill="#F1F1F1" height="96.8906" id="Customer" rx="2.5" ry="2.5" style="stroke:#181818;stroke-width:0.5;" width="153" x="338.5" y="386"/><ellipse cx="376.45" cy="402" fill="#ADD1B2" rx="11" ry="11" style="stroke:#181818;stroke-width:1.0;"/><path d="M378.7938,397.6719 C377.8563,397.2344 377.2625,397.0938 376.3875,397.0938 C373.7625,397.0938 371.7625,399.1719 371.7625,401.8906 L371.7625,403.0156 C371.7625,405.5938 373.8719,407.4844 376.7625,407.4844 C377.9813,407.4844 379.1375,407.1875 379.8875,406.6406 C380.4656,406.2344 380.7938,405.7813 380.7938,405.3906 C380.7938,404.9375 380.4031,404.5469 379.9344,404.5469 C379.7156,404.5469 379.5125,404.625 379.325,404.8125 C378.8719,405.2969 378.8719,405.2969 378.6844,405.3906 C378.2625,405.6563 377.575,405.7813 376.8094,405.7813 C374.7625,405.7813 373.4656,404.6875 373.4656,402.9844 L373.4656,401.8906 C373.4656,400.1094 374.7156,398.7969 376.45,398.7969 C377.0281,398.7969 377.6375,398.9531 378.1063,399.2031 C378.5906,399.4844 378.7625,399.7031 378.8563,400.1094 C378.9188,400.5156 378.95,400.6406 379.0906,400.7656 C379.2313,400.9063 379.4656,401.0156 379.6844,401.0156 C379.95,401.0156 380.2156,400.875 380.3875,400.6563 C380.4969,400.5 380.5281,400.3125 380.5281,399.8906 L380.5281,398.4688 C380.5281,398.0313 380.5125,397.9063 380.4188,397.75 C380.2625,397.4844 379.9813,397.3438 379.6844,397.3438 C379.3875,397.3438 379.1844,397.4375 378.9656,397.75 L378.7938,397.6719 Z " fill="#000000"/><text fill="#000000" font-family="sans-serif" font-size="14" lengthAdjust="spacing" textLength="70" x="395.55" y="406.8467">Customer</text><line style="stroke:#181818;stroke-width:0.5;" x1="339.5" x2="490.5" y1="418" y2="418"/><ellipse cx="349.5" cy="431.6484" fill="none" rx="3" ry="3" style="stroke:#038048;stroke-width:1.0;"/><text fill="#000000" font-family="sans-serif" font-size="14" lengthAdjust="spacing" textLength="79" x="358.5" y="434.9951">CardId : int</text><ellipse cx="349.5" cy="447.9453" fill="none" rx="3" ry="3" style="stroke:#038048;stroke-width:1.0;"/><text fill="#000000" font-family="sans-serif" font-size="14" lengthAdjust="spacing" textLength="127" x="358.5" y="451.292">Firstname : string</text><ellipse cx="349.5" cy="464.2422" fill="none" rx="3" ry="3" style="stroke:#038048;stroke-width:1.0;"/><text fill="#000000" font-family="sans-serif" font-size="14" lengthAdjust="spacing" textLength="125" x="358.5" y="467.5889">Lastname : string</text><line style="stroke:#181818;stroke-width:0.5;" x1="339.5" x2="490.5" y1="474.8906" y2="474.8906"/></g><!--MD5=[bfaa0cf1c94f172be725c75ad56c3fba]
class Publication--><g id="elem_Publication"><rect codeLine="30" fill="#F1F1F1" height="88.8594" id="Publication" rx="2.5" ry="2.5" style="stroke:#181818;stroke-width:0.5;" width="175" x="128.5" y="390"/><ellipse cx="172.75" cy="410.1328" fill="#A9DCDF" rx="11" ry="11" style="stroke:#181818;stroke-width:1.0;"/><path d="M174.8281,411.9453 L175.2188,412.9297 L174.8281,412.9297 C174.375,412.9297 174.2656,412.9453 174.1094,413.0547 C173.8594,413.2109 173.7031,413.4922 173.7031,413.7891 C173.7031,414.0547 173.8438,414.3047 174.0625,414.4609 C174.2031,414.5859 174.4063,414.6328 174.8281,414.6328 L177.1875,414.6328 C177.5469,414.6328 177.7656,414.6016 177.9063,414.5078 C178.1563,414.3672 178.3125,414.0703 178.3125,413.7891 C178.3125,413.5078 178.1719,413.2578 177.9531,413.1016 C177.7813,412.9609 177.625,412.9297 177.1563,412.9297 L173.7656,404.7266 L170.0938,404.7266 C169.6406,404.7266 169.5156,404.7422 169.3594,404.8359 C169.1094,405.0078 168.9531,405.2891 168.9531,405.5703 C168.9531,405.8516 169.0938,406.1016 169.3125,406.2734 C169.4844,406.3828 169.6563,406.4141 170.0938,406.4141 L171.1719,406.4141 L168.5313,412.9297 C168.1094,412.9297 167.9531,412.9453 167.7969,413.0547 C167.5469,413.2109 167.3906,413.4922 167.3906,413.7891 C167.3906,414.3516 167.7656,414.6328 168.5156,414.6328 L170.7813,414.6328 C171.1406,414.6328 171.3594,414.6016 171.4844,414.5078 C171.75,414.3672 171.8906,414.0703 171.8906,413.7891 C171.8906,413.5078 171.7656,413.2578 171.5469,413.0859 C171.375,412.9609 171.2344,412.9297 170.7813,412.9297 L170.3906,412.9297 L170.7813,411.9453 L174.8281,411.9453 Z M174.125,410.2422 L171.4531,410.2422 L172.7969,406.9766 L174.125,410.2422 Z " fill="#000000"/><text fill="#000000" font-family="sans-serif" font-size="12" font-style="italic" lengthAdjust="spacing" textLength="64" x="200.25" y="406.1387">«abstract»</text><text fill="#000000" font-family="sans-serif" font-size="14" font-style="italic" lengthAdjust="spacing" textLength="78" x="193.25" y="421.9639">Publication</text><line style="stroke:#181818;stroke-width:0.5;" x1="129.5" x2="302.5" y1="430.2656" y2="430.2656"/><ellipse cx="139.5" cy="443.9141" fill="none" rx="3" ry="3" style="stroke:#038048;stroke-width:1.0;"/><text fill="#000000" font-family="sans-serif" font-size="14" lengthAdjust="spacing" textLength="121" x="148.5" y="447.2607">Publisher : string</text><ellipse cx="139.5" cy="460.2109" fill="none" rx="3" ry="3" style="stroke:#038048;stroke-width:1.0;"/><text fill="#000000" font-family="sans-serif" font-size="14" font-style="italic" lengthAdjust="spacing" textLength="149" x="148.5" y="463.5576">ReturnAfterDays : int</text><line style="stroke:#181818;stroke-width:0.5;" x1="129.5" x2="302.5" y1="470.8594" y2="470.8594"/></g><!--MD5=[84e3a5e42879fb3231104d3c8e592439]
class Book--><g id="elem_Book"><rect codeLine="35" fill="#F1F1F1" height="96.8906" id="Book" rx="2.5" ry="2.5" style="stroke:#181818;stroke-width:0.5;" width="180" x="7" y="543"/><ellipse cx="74.25" cy="559" fill="#ADD1B2" rx="11" ry="11" style="stroke:#181818;stroke-width:1.0;"/><path d="M76.5938,554.6719 C75.6563,554.2344 75.0625,554.0938 74.1875,554.0938 C71.5625,554.0938 69.5625,556.1719 69.5625,558.8906 L69.5625,560.0156 C69.5625,562.5938 71.6719,564.4844 74.5625,564.4844 C75.7813,564.4844 76.9375,564.1875 77.6875,563.6406 C78.2656,563.2344 78.5938,562.7813 78.5938,562.3906 C78.5938,561.9375 78.2031,561.5469 77.7344,561.5469 C77.5156,561.5469 77.3125,561.625 77.125,561.8125 C76.6719,562.2969 76.6719,562.2969 76.4844,562.3906 C76.0625,562.6563 75.375,562.7813 74.6094,562.7813 C72.5625,562.7813 71.2656,561.6875 71.2656,559.9844 L71.2656,558.8906 C71.2656,557.1094 72.5156,555.7969 74.25,555.7969 C74.8281,555.7969 75.4375,555.9531 75.9063,556.2031 C76.3906,556.4844 76.5625,556.7031 76.6563,557.1094 C76.7188,557.5156 76.75,557.6406 76.8906,557.7656 C77.0313,557.9063 77.2656,558.0156 77.4844,558.0156 C77.75,558.0156 78.0156,557.875 78.1875,557.6563 C78.2969,557.5 78.3281,557.3125 78.3281,556.8906 L78.3281,555.4688 C78.3281,555.0313 78.3125,554.9063 78.2188,554.75 C78.0625,554.4844 77.7813,554.3438 77.4844,554.3438 C77.1875,554.3438 76.9844,554.4375 76.7656,554.75 L76.5938,554.6719 Z " fill="#000000"/><text fill="#000000" font-family="sans-serif" font-size="14" lengthAdjust="spacing" textLength="37" x="94.75" y="563.8467">Book</text><line style="stroke:#181818;stroke-width:0.5;" x1="8" x2="186" y1="575" y2="575"/><ellipse cx="18" cy="588.6484" fill="none" rx="3" ry="3" style="stroke:#038048;stroke-width:1.0;"/><text fill="#000000" font-family="sans-serif" font-size="14" lengthAdjust="spacing" textLength="88" x="27" y="591.9951">Title : string</text><ellipse cx="18" cy="604.9453" fill="none" rx="3" ry="3" style="stroke:#038048;stroke-width:1.0;"/><text fill="#000000" font-family="sans-serif" font-size="14" lengthAdjust="spacing" textLength="65" x="27" y="608.292">Year : int</text><ellipse cx="18" cy="621.2422" fill="none" rx="3" ry="3" style="stroke:#038048;stroke-width:1.0;"/><text fill="#000000" font-family="sans-serif" font-size="14" lengthAdjust="spacing" textLength="154" x="27" y="624.5889">ReturnAfterDays : int</text><line style="stroke:#181818;stroke-width:0.5;" x1="8" x2="186" y1="631.8906" y2="631.8906"/></g><!--MD5=[35c8b0245acaa9e97c7c37c4368336a3]
class Magazine--><g id="elem_Magazine"><rect codeLine="42" fill="#F1F1F1" height="96.8906" id="Magazine" rx="2.5" ry="2.5" style="stroke:#181818;stroke-width:0.5;" width="225" x="222.5" y="543"/><ellipse cx="297.25" cy="559" fill="#ADD1B2" rx="11" ry="11" style="stroke:#181818;stroke-width:1.0;"/><path d="M299.5938,554.6719 C298.6563,554.2344 298.0625,554.0938 297.1875,554.0938 C294.5625,554.0938 292.5625,556.1719 292.5625,558.8906 L292.5625,560.0156 C292.5625,562.5938 294.6719,564.4844 297.5625,564.4844 C298.7813,564.4844 299.9375,564.1875 300.6875,563.6406 C301.2656,563.2344 301.5938,562.7813 301.5938,562.3906 C301.5938,561.9375 301.2031,561.5469 300.7344,561.5469 C300.5156,561.5469 300.3125,561.625 300.125,561.8125 C299.6719,562.2969 299.6719,562.2969 299.4844,562.3906 C299.0625,562.6563 298.375,562.7813 297.6094,562.7813 C295.5625,562.7813 294.2656,561.6875 294.2656,559.9844 L294.2656,558.8906 C294.2656,557.1094 295.5156,555.7969 297.25,555.7969 C297.8281,555.7969 298.4375,555.9531 298.9063,556.2031 C299.3906,556.4844 299.5625,556.7031 299.6563,557.1094 C299.7188,557.5156 299.75,557.6406 299.8906,557.7656 C300.0313,557.9063 300.2656,558.0156 300.4844,558.0156 C300.75,558.0156 301.0156,557.875 301.1875,557.6563 C301.2969,557.5 301.3281,557.3125 301.3281,556.8906 L301.3281,555.4688 C301.3281,555.0313 301.3125,554.9063 301.2188,554.75 C301.0625,554.4844 300.7813,554.3438 300.4844,554.3438 C300.1875,554.3438 299.9844,554.4375 299.7656,554.75 L299.5938,554.6719 Z " fill="#000000"/><text fill="#000000" font-family="sans-serif" font-size="14" lengthAdjust="spacing" textLength="67" x="317.75" y="563.8467">Magazine</text><line style="stroke:#181818;stroke-width:0.5;" x1="223.5" x2="446.5" y1="575" y2="575"/><ellipse cx="233.5" cy="588.6484" fill="none" rx="3" ry="3" style="stroke:#038048;stroke-width:1.0;"/><text fill="#000000" font-family="sans-serif" font-size="14" lengthAdjust="spacing" textLength="96" x="242.5" y="591.9951">Name : string</text><ellipse cx="233.5" cy="604.9453" fill="none" rx="3" ry="3" style="stroke:#038048;stroke-width:1.0;"/><text fill="#000000" font-family="sans-serif" font-size="14" lengthAdjust="spacing" textLength="199" x="242.5" y="608.292">PublicationDate : DateTime</text><ellipse cx="233.5" cy="621.2422" fill="none" rx="3" ry="3" style="stroke:#038048;stroke-width:1.0;"/><text fill="#000000" font-family="sans-serif" font-size="14" lengthAdjust="spacing" textLength="154" x="242.5" y="624.5889">ReturnAfterDays : int</text><line style="stroke:#181818;stroke-width:0.5;" x1="223.5" x2="446.5" y1="631.8906" y2="631.8906"/></g><!--MD5=[bc21c3b4b2532f8b27ead7cb9b856534]
link ReservationManager to PublicationReservation--><g id="link_ReservationManager_PublicationReservation"><path codeLine="9" d="M315,104.299 C315,120.862 315,139.966 315,158.624 " fill="none" id="ReservationManager-to-PublicationReservation" style="stroke:#181818;stroke-width:1.0;"/><polygon fill="#181818" points="315,163.872,319,154.872,315,158.872,311,154.872,315,163.872" style="stroke:#181818;stroke-width:1.0;"/></g><!--MD5=[ab5557a07d65ca1bedb06bdc2e1cd124]
link PublicationReservation to Customer--><g id="link_PublicationReservation_Customer"><path codeLine="21" d="M357.699,326.061 C367.646,344.712 377.988,364.102 387.102,381.192 " fill="none" id="PublicationReservation-to-Customer" style="stroke:#181818;stroke-width:1.0;"/><polygon fill="#181818" points="389.639,385.948,388.933,376.1245,387.286,381.5363,381.8742,379.8893,389.639,385.948" style="stroke:#181818;stroke-width:1.0;"/></g><!--MD5=[2ead6a2f9aaa91d3f4a57867100fbad0]
link PublicationReservation to Publication--><g id="link_PublicationReservation_Publication"><path codeLine="22" d="M272.728,326.061 C262.069,346.248 250.954,367.3 241.415,385.365 " fill="none" id="PublicationReservation-to-Publication" style="stroke:#181818;stroke-width:1.0;"/><polygon fill="#181818" points="239.026,389.891,246.7652,383.7996,241.3604,385.4694,239.6906,380.0646,239.026,389.891" style="stroke:#181818;stroke-width:1.0;"/></g><!--MD5=[d93b48b0e22b084d186da0e92107f5b5]
reverse link Publication to Book--><g id="link_Publication_Book"><path codeLine="40" d="M170.255,495.083 C158.103,510.913 145.14,527.797 133.549,542.8936 " fill="none" id="Publication-backto-Book" style="stroke:#181818;stroke-width:1.0;"/><polygon fill="none" points="164.803,490.69,182.535,479.089,175.908,499.215,164.803,490.69" style="stroke:#181818;stroke-width:1.0;"/></g><!--MD5=[0720e53ec7018f98427d66a9b3a1d53c]
reverse link Publication to Magazine--><g id="link_Publication_Magazine"><path codeLine="47" d="M261.745,495.083 C273.897,510.913 286.86,527.797 298.451,542.8936 " fill="none" id="Publication-backto-Magazine" style="stroke:#181818;stroke-width:1.0;"/><polygon fill="none" points="256.092,499.215,249.465,479.089,267.197,490.69,256.092,499.215" style="stroke:#181818;stroke-width:1.0;"/></g><!--MD5=[60541bcab69dec391de630b9435a3c3a]
@startuml
hide empty fields

class ReservationManager {
    +Reservations : IReadOnlyList<PublicationReservation> 
    - - -
    +bool TryAddReservation(PublicationReservation reservation)
    +IReadOnlyList<PublicationReservation> GetPendingReservations(DateTime date)
}
ReservationManager - -> PublicationReservation

class PublicationReservation {
  +Customer : Customer
  +Publication : Publication
  +ReservationFrom : DateTime 
  +ReturnDate : DateTime? 
  +MaxReturnDate : DateTime  <<calculated>
  +IsReturned : bool <<calculated>
  - - -
  +bool IsPendingReservation(DateTime date)
}
PublicationReservation - -> Customer
PublicationReservation - -> Publication

class Customer {
  +CardId : int
  +Firstname : string
  +Lastname : string
}

abstract class Publication <<abstract>> {
  +Publisher : string
  +{abstract} ReturnAfterDays : int
}

class Book {
  +Title : string
  +Year : int
  +ReturnAfterDays : int
}
Book -up-|> Publication

class Magazine {
  +Name : string
  +PublicationDate : DateTime
  +ReturnAfterDays : int
}
Magazine -up-|> Publication
@enduml

PlantUML version 1.2022.10beta1(Unknown compile time)
(GPL source distribution)
Java Runtime: Java(TM) SE Runtime Environment
JVM: Java HotSpot(TM) 64-Bit Server VM
Default Encoding: UTF-8
Language: en
Country: US
--></g></svg>