<?xml version="1.0" encoding="UTF-8" standalone="no"?><svg xmlns="http://www.w3.org/2000/svg" xmlns:xlink="http://www.w3.org/1999/xlink" contentStyleType="text/css" height="695px" preserveAspectRatio="none" style="width:993px;height:695px;background:#FFFFFF;" version="1.1" viewBox="0 0 993 695" width="993px" zoomAndPan="magnify"><defs/><g><!--MD5=[67a5a4491f73fa87afb300e47a08ebe9]
class ReservationManager--><g id="elem_ReservationManager"><rect codeLine="3" fill="#F1F1F1" height="96.8906" id="ReservationManager" rx="2.5" ry="2.5" style="stroke:#181818;stroke-width:0.5;" width="612" x="283" y="7"/><ellipse cx="511.25" cy="23" fill="#ADD1B2" rx="11" ry="11" style="stroke:#181818;stroke-width:1.0;"/><path d="M513.5938,18.6719 C512.6563,18.2344 512.0625,18.0938 511.1875,18.0938 C508.5625,18.0938 506.5625,20.1719 506.5625,22.8906 L506.5625,24.0156 C506.5625,26.5938 508.6719,28.4844 511.5625,28.4844 C512.7813,28.4844 513.9375,28.1875 514.6875,27.6406 C515.2656,27.2344 515.5938,26.7813 515.5938,26.3906 C515.5938,25.9375 515.2031,25.5469 514.7344,25.5469 C514.5156,25.5469 514.3125,25.625 514.125,25.8125 C513.6719,26.2969 513.6719,26.2969 513.4844,26.3906 C513.0625,26.6563 512.375,26.7813 511.6094,26.7813 C509.5625,26.7813 508.2656,25.6875 508.2656,23.9844 L508.2656,22.8906 C508.2656,21.1094 509.5156,19.7969 511.25,19.7969 C511.8281,19.7969 512.4375,19.9531 512.9063,20.2031 C513.3906,20.4844 513.5625,20.7031 513.6563,21.1094 C513.7188,21.5156 513.75,21.6406 513.8906,21.7656 C514.0313,21.9063 514.2656,22.0156 514.4844,22.0156 C514.75,22.0156 515.0156,21.875 515.1875,21.6563 C515.2969,21.5 515.3281,21.3125 515.3281,20.8906 L515.3281,19.4688 C515.3281,19.0313 515.3125,18.9063 515.2188,18.75 C515.0625,18.4844 514.7813,18.3438 514.4844,18.3438 C514.1875,18.3438 513.9844,18.4375 513.7656,18.75 L513.5938,18.6719 Z " fill="#000000"/><text fill="#000000" font-family="sans-serif" font-size="14" lengthAdjust="spacing" textLength="147" x="531.75" y="27.8467">ReservationManager</text><line style="stroke:#181818;stroke-width:0.5;" x1="284" x2="894" y1="39" y2="39"/><ellipse cx="294" cy="52.6484" fill="none" rx="3" ry="3" style="stroke:#038048;stroke-width:1.0;"/><text fill="#000000" font-family="sans-serif" font-size="14" lengthAdjust="spacing" textLength="478" x="303" y="55.9951">Reservations : IReadOnlyList&lt;PublicationReservation&gt; {readOnly}</text><line style="stroke:#181818;stroke-width:1.0;" x1="284" x2="894" y1="63.2969" y2="63.2969"/><ellipse cx="294" cy="76.9453" fill="#84BE84" rx="3" ry="3" style="stroke:#038048;stroke-width:1.0;"/><text fill="#000000" font-family="sans-serif" font-size="14" lengthAdjust="spacing" textLength="435" x="303" y="80.292">bool TryAddReservation(PublicationReservation reservation)</text><ellipse cx="294" cy="93.2422" fill="#84BE84" rx="3" ry="3" style="stroke:#038048;stroke-width:1.0;"/><text fill="#000000" font-family="sans-serif" font-size="14" lengthAdjust="spacing" textLength="586" x="303" y="96.5889">IReadOnlyList&lt;PublicationReservation&gt; GetPendingReservations(DateTime date)</text></g><!--MD5=[5d10358a1382aa9fa2f4f52fbfc40a7f]
class PublicationReservation--><g id="elem_PublicationReservation"><rect codeLine="11" fill="#F1F1F1" height="178.375" id="PublicationReservation" rx="2.5" ry="2.5" style="stroke:#181818;stroke-width:0.5;" width="719" x="229.5" y="164"/><ellipse cx="501.75" cy="180" fill="#ADD1B2" rx="11" ry="11" style="stroke:#181818;stroke-width:1.0;"/><path d="M504.0938,175.6719 C503.1563,175.2344 502.5625,175.0938 501.6875,175.0938 C499.0625,175.0938 497.0625,177.1719 497.0625,179.8906 L497.0625,181.0156 C497.0625,183.5938 499.1719,185.4844 502.0625,185.4844 C503.2813,185.4844 504.4375,185.1875 505.1875,184.6406 C505.7656,184.2344 506.0938,183.7813 506.0938,183.3906 C506.0938,182.9375 505.7031,182.5469 505.2344,182.5469 C505.0156,182.5469 504.8125,182.625 504.625,182.8125 C504.1719,183.2969 504.1719,183.2969 503.9844,183.3906 C503.5625,183.6563 502.875,183.7813 502.1094,183.7813 C500.0625,183.7813 498.7656,182.6875 498.7656,180.9844 L498.7656,179.8906 C498.7656,178.1094 500.0156,176.7969 501.75,176.7969 C502.3281,176.7969 502.9375,176.9531 503.4063,177.2031 C503.8906,177.4844 504.0625,177.7031 504.1563,178.1094 C504.2188,178.5156 504.25,178.6406 504.3906,178.7656 C504.5313,178.9063 504.7656,179.0156 504.9844,179.0156 C505.25,179.0156 505.5156,178.875 505.6875,178.6563 C505.7969,178.5 505.8281,178.3125 505.8281,177.8906 L505.8281,176.4688 C505.8281,176.0313 505.8125,175.9063 505.7188,175.75 C505.5625,175.4844 505.2813,175.3438 504.9844,175.3438 C504.6875,175.3438 504.4844,175.4375 504.2656,175.75 L504.0938,175.6719 Z " fill="#000000"/><text fill="#000000" font-family="sans-serif" font-size="14" lengthAdjust="spacing" textLength="166" x="522.25" y="184.8467">PublicationReservation</text><line style="stroke:#181818;stroke-width:0.5;" x1="230.5" x2="947.5" y1="196" y2="196"/><ellipse cx="240.5" cy="209.6484" fill="none" rx="3" ry="3" style="stroke:#038048;stroke-width:1.0;"/><text fill="#000000" font-family="sans-serif" font-size="14" lengthAdjust="spacing" textLength="239" x="249.5" y="212.9951">Customer : Customer {readOnly}</text><ellipse cx="240.5" cy="225.9453" fill="none" rx="3" ry="3" style="stroke:#038048;stroke-width:1.0;"/><text fill="#000000" font-family="sans-serif" font-size="14" lengthAdjust="spacing" textLength="259" x="249.5" y="229.292">Publication : Publication {readOnly}</text><ellipse cx="240.5" cy="242.2422" fill="none" rx="3" ry="3" style="stroke:#038048;stroke-width:1.0;"/><text fill="#000000" font-family="sans-serif" font-size="14" lengthAdjust="spacing" textLength="293" x="249.5" y="245.5889">ReservationFrom : DateTime {readOnly}</text><ellipse cx="240.5" cy="258.5391" fill="none" rx="3" ry="3" style="stroke:#038048;stroke-width:1.0;"/><text fill="#000000" font-family="sans-serif" font-size="14" lengthAdjust="spacing" textLength="175" x="249.5" y="261.8857">ReturnDate : DateTime?</text><ellipse cx="240.5" cy="274.8359" fill="none" rx="3" ry="3" style="stroke:#038048;stroke-width:1.0;"/><text fill="#000000" font-family="sans-serif" font-size="14" lengthAdjust="spacing" textLength="282" x="249.5" y="278.1826">MaxReturnDate : DateTime {readOnly}</text><ellipse cx="240.5" cy="291.1328" fill="none" rx="3" ry="3" style="stroke:#038048;stroke-width:1.0;"/><text fill="#000000" font-family="sans-serif" font-size="14" lengthAdjust="spacing" textLength="209" x="249.5" y="294.4795">IsReturned : bool {readOnly}</text><line style="stroke:#181818;stroke-width:1.0;" x1="230.5" x2="947.5" y1="301.7813" y2="301.7813"/><ellipse cx="240.5" cy="315.4297" fill="#84BE84" rx="3" ry="3" style="stroke:#038048;stroke-width:1.0;"/><text fill="#000000" font-family="sans-serif" font-size="14" lengthAdjust="spacing" textLength="693" x="249.5" y="318.7764">PublicationReservation(Customer customer, Publication publication, DateTime reservationFrom)</text><ellipse cx="240.5" cy="331.7266" fill="#84BE84" rx="3" ry="3" style="stroke:#038048;stroke-width:1.0;"/><text fill="#000000" font-family="sans-serif" font-size="14" lengthAdjust="spacing" textLength="309" x="249.5" y="335.0732">bool IsPendingReservation(DateTime date)</text></g><!--MD5=[2ce0c9fb7f55b1e256ab28a8ea6b25ec]
class Customer--><g id="elem_Customer"><rect codeLine="25" fill="#F1F1F1" height="113.1875" id="Customer" rx="2.5" ry="2.5" style="stroke:#181818;stroke-width:0.5;" width="418" x="568" y="402"/><ellipse cx="737.75" cy="418" fill="#ADD1B2" rx="11" ry="11" style="stroke:#181818;stroke-width:1.0;"/><path d="M740.0938,413.6719 C739.1563,413.2344 738.5625,413.0938 737.6875,413.0938 C735.0625,413.0938 733.0625,415.1719 733.0625,417.8906 L733.0625,419.0156 C733.0625,421.5938 735.1719,423.4844 738.0625,423.4844 C739.2813,423.4844 740.4375,423.1875 741.1875,422.6406 C741.7656,422.2344 742.0938,421.7813 742.0938,421.3906 C742.0938,420.9375 741.7031,420.5469 741.2344,420.5469 C741.0156,420.5469 740.8125,420.625 740.625,420.8125 C740.1719,421.2969 740.1719,421.2969 739.9844,421.3906 C739.5625,421.6563 738.875,421.7813 738.1094,421.7813 C736.0625,421.7813 734.7656,420.6875 734.7656,418.9844 L734.7656,417.8906 C734.7656,416.1094 736.0156,414.7969 737.75,414.7969 C738.3281,414.7969 738.9375,414.9531 739.4063,415.2031 C739.8906,415.4844 740.0625,415.7031 740.1563,416.1094 C740.2188,416.5156 740.25,416.6406 740.3906,416.7656 C740.5313,416.9063 740.7656,417.0156 740.9844,417.0156 C741.25,417.0156 741.5156,416.875 741.6875,416.6563 C741.7969,416.5 741.8281,416.3125 741.8281,415.8906 L741.8281,414.4688 C741.8281,414.0313 741.8125,413.9063 741.7188,413.75 C741.5625,413.4844 741.2813,413.3438 740.9844,413.3438 C740.6875,413.3438 740.4844,413.4375 740.2656,413.75 L740.0938,413.6719 Z " fill="#000000"/><text fill="#000000" font-family="sans-serif" font-size="14" lengthAdjust="spacing" textLength="70" x="758.25" y="422.8467">Customer</text><line style="stroke:#181818;stroke-width:0.5;" x1="569" x2="985" y1="434" y2="434"/><ellipse cx="579" cy="447.6484" fill="none" rx="3" ry="3" style="stroke:#038048;stroke-width:1.0;"/><text fill="#000000" font-family="sans-serif" font-size="14" lengthAdjust="spacing" textLength="165" x="588" y="450.9951">CardId : int {readOnly}</text><ellipse cx="579" cy="463.9453" fill="none" rx="3" ry="3" style="stroke:#038048;stroke-width:1.0;"/><text fill="#000000" font-family="sans-serif" font-size="14" lengthAdjust="spacing" textLength="213" x="588" y="467.292">Firstname : string {readOnly}</text><ellipse cx="579" cy="480.2422" fill="none" rx="3" ry="3" style="stroke:#038048;stroke-width:1.0;"/><text fill="#000000" font-family="sans-serif" font-size="14" lengthAdjust="spacing" textLength="211" x="588" y="483.5889">Lastname : string {readOnly}</text><line style="stroke:#181818;stroke-width:1.0;" x1="569" x2="985" y1="490.8906" y2="490.8906"/><ellipse cx="579" cy="504.5391" fill="#84BE84" rx="3" ry="3" style="stroke:#038048;stroke-width:1.0;"/><text fill="#000000" font-family="sans-serif" font-size="14" lengthAdjust="spacing" textLength="392" x="588" y="507.8857">Customer(int cardId, string firstname, string lastname)</text></g><!--MD5=[bfaa0cf1c94f172be725c75ad56c3fba]
class Publication--><g id="elem_Publication"><rect codeLine="33" fill="#F1F1F1" height="105.1563" id="Publication" rx="2.5" ry="2.5" style="stroke:#181818;stroke-width:0.5;" width="262" x="271" y="406"/><ellipse cx="358.75" cy="426.1328" fill="#A9DCDF" rx="11" ry="11" style="stroke:#181818;stroke-width:1.0;"/><path d="M360.8281,427.9453 L361.2188,428.9297 L360.8281,428.9297 C360.375,428.9297 360.2656,428.9453 360.1094,429.0547 C359.8594,429.2109 359.7031,429.4922 359.7031,429.7891 C359.7031,430.0547 359.8438,430.3047 360.0625,430.4609 C360.2031,430.5859 360.4063,430.6328 360.8281,430.6328 L363.1875,430.6328 C363.5469,430.6328 363.7656,430.6016 363.9063,430.5078 C364.1563,430.3672 364.3125,430.0703 364.3125,429.7891 C364.3125,429.5078 364.1719,429.2578 363.9531,429.1016 C363.7813,428.9609 363.625,428.9297 363.1563,428.9297 L359.7656,420.7266 L356.0938,420.7266 C355.6406,420.7266 355.5156,420.7422 355.3594,420.8359 C355.1094,421.0078 354.9531,421.2891 354.9531,421.5703 C354.9531,421.8516 355.0938,422.1016 355.3125,422.2734 C355.4844,422.3828 355.6563,422.4141 356.0938,422.4141 L357.1719,422.4141 L354.5313,428.9297 C354.1094,428.9297 353.9531,428.9453 353.7969,429.0547 C353.5469,429.2109 353.3906,429.4922 353.3906,429.7891 C353.3906,430.3516 353.7656,430.6328 354.5156,430.6328 L356.7813,430.6328 C357.1406,430.6328 357.3594,430.6016 357.4844,430.5078 C357.75,430.3672 357.8906,430.0703 357.8906,429.7891 C357.8906,429.5078 357.7656,429.2578 357.5469,429.0859 C357.375,428.9609 357.2344,428.9297 356.7813,428.9297 L356.3906,428.9297 L356.7813,427.9453 L360.8281,427.9453 Z M360.125,426.2422 L357.4531,426.2422 L358.7969,422.9766 L360.125,426.2422 Z " fill="#000000"/><text fill="#000000" font-family="sans-serif" font-size="12" font-style="italic" lengthAdjust="spacing" textLength="64" x="386.25" y="422.1387">«abstract»</text><text fill="#000000" font-family="sans-serif" font-size="14" font-style="italic" lengthAdjust="spacing" textLength="78" x="379.25" y="437.9639">Publication</text><line style="stroke:#181818;stroke-width:0.5;" x1="272" x2="532" y1="446.2656" y2="446.2656"/><ellipse cx="282" cy="459.9141" fill="none" rx="3" ry="3" style="stroke:#038048;stroke-width:1.0;"/><text fill="#000000" font-family="sans-serif" font-size="14" lengthAdjust="spacing" textLength="207" x="291" y="463.2607">Publisher : string {readOnly}</text><ellipse cx="282" cy="476.2109" fill="none" rx="3" ry="3" style="stroke:#038048;stroke-width:1.0;"/><text fill="#000000" font-family="sans-serif" font-size="14" font-style="italic" lengthAdjust="spacing" textLength="236" x="291" y="479.5576">ReturnAfterDays : int {readOnly}</text><line style="stroke:#181818;stroke-width:1.0;" x1="272" x2="532" y1="486.8594" y2="486.8594"/><ellipse cx="282" cy="500.5078" fill="#84BE84" rx="3" ry="3" style="stroke:#038048;stroke-width:1.0;"/><text fill="#000000" font-family="sans-serif" font-size="14" lengthAdjust="spacing" textLength="203" x="291" y="503.8545">Publication(string publisher)</text></g><!--MD5=[84e3a5e42879fb3231104d3c8e592439]
class Book--><g id="elem_Book"><rect codeLine="40" fill="#F1F1F1" height="113.1875" id="Book" rx="2.5" ry="2.5" style="stroke:#181818;stroke-width:0.5;" width="334" x="7" y="575"/><ellipse cx="151.25" cy="591" fill="#ADD1B2" rx="11" ry="11" style="stroke:#181818;stroke-width:1.0;"/><path d="M153.5938,586.6719 C152.6563,586.2344 152.0625,586.0938 151.1875,586.0938 C148.5625,586.0938 146.5625,588.1719 146.5625,590.8906 L146.5625,592.0156 C146.5625,594.5938 148.6719,596.4844 151.5625,596.4844 C152.7813,596.4844 153.9375,596.1875 154.6875,595.6406 C155.2656,595.2344 155.5938,594.7813 155.5938,594.3906 C155.5938,593.9375 155.2031,593.5469 154.7344,593.5469 C154.5156,593.5469 154.3125,593.625 154.125,593.8125 C153.6719,594.2969 153.6719,594.2969 153.4844,594.3906 C153.0625,594.6563 152.375,594.7813 151.6094,594.7813 C149.5625,594.7813 148.2656,593.6875 148.2656,591.9844 L148.2656,590.8906 C148.2656,589.1094 149.5156,587.7969 151.25,587.7969 C151.8281,587.7969 152.4375,587.9531 152.9063,588.2031 C153.3906,588.4844 153.5625,588.7031 153.6563,589.1094 C153.7188,589.5156 153.75,589.6406 153.8906,589.7656 C154.0313,589.9063 154.2656,590.0156 154.4844,590.0156 C154.75,590.0156 155.0156,589.875 155.1875,589.6563 C155.2969,589.5 155.3281,589.3125 155.3281,588.8906 L155.3281,587.4688 C155.3281,587.0313 155.3125,586.9063 155.2188,586.75 C155.0625,586.4844 154.7813,586.3438 154.4844,586.3438 C154.1875,586.3438 153.9844,586.4375 153.7656,586.75 L153.5938,586.6719 Z " fill="#000000"/><text fill="#000000" font-family="sans-serif" font-size="14" lengthAdjust="spacing" textLength="37" x="171.75" y="595.8467">Book</text><line style="stroke:#181818;stroke-width:0.5;" x1="8" x2="340" y1="607" y2="607"/><ellipse cx="18" cy="620.6484" fill="none" rx="3" ry="3" style="stroke:#038048;stroke-width:1.0;"/><text fill="#000000" font-family="sans-serif" font-size="14" lengthAdjust="spacing" textLength="174" x="27" y="623.9951">Title : string {readOnly}</text><ellipse cx="18" cy="636.9453" fill="none" rx="3" ry="3" style="stroke:#038048;stroke-width:1.0;"/><text fill="#000000" font-family="sans-serif" font-size="14" lengthAdjust="spacing" textLength="151" x="27" y="640.292">Year : int {readOnly}</text><ellipse cx="18" cy="653.2422" fill="none" rx="3" ry="3" style="stroke:#038048;stroke-width:1.0;"/><text fill="#000000" font-family="sans-serif" font-size="14" lengthAdjust="spacing" textLength="240" x="27" y="656.5889">ReturnAfterDays : int {readOnly}</text><line style="stroke:#181818;stroke-width:1.0;" x1="8" x2="340" y1="663.8906" y2="663.8906"/><ellipse cx="18" cy="677.5391" fill="#84BE84" rx="3" ry="3" style="stroke:#038048;stroke-width:1.0;"/><text fill="#000000" font-family="sans-serif" font-size="14" lengthAdjust="spacing" textLength="308" x="27" y="680.8857">Book(string publisher, string title, int year)</text></g><!--MD5=[35c8b0245acaa9e97c7c37c4368336a3]
class Magazine--><g id="elem_Magazine"><rect codeLine="49" fill="#F1F1F1" height="113.1875" id="Magazine" rx="2.5" ry="2.5" style="stroke:#181818;stroke-width:0.5;" width="509" x="376.5" y="575"/><ellipse cx="593.25" cy="591" fill="#ADD1B2" rx="11" ry="11" style="stroke:#181818;stroke-width:1.0;"/><path d="M595.5938,586.6719 C594.6563,586.2344 594.0625,586.0938 593.1875,586.0938 C590.5625,586.0938 588.5625,588.1719 588.5625,590.8906 L588.5625,592.0156 C588.5625,594.5938 590.6719,596.4844 593.5625,596.4844 C594.7813,596.4844 595.9375,596.1875 596.6875,595.6406 C597.2656,595.2344 597.5938,594.7813 597.5938,594.3906 C597.5938,593.9375 597.2031,593.5469 596.7344,593.5469 C596.5156,593.5469 596.3125,593.625 596.125,593.8125 C595.6719,594.2969 595.6719,594.2969 595.4844,594.3906 C595.0625,594.6563 594.375,594.7813 593.6094,594.7813 C591.5625,594.7813 590.2656,593.6875 590.2656,591.9844 L590.2656,590.8906 C590.2656,589.1094 591.5156,587.7969 593.25,587.7969 C593.8281,587.7969 594.4375,587.9531 594.9063,588.2031 C595.3906,588.4844 595.5625,588.7031 595.6563,589.1094 C595.7188,589.5156 595.75,589.6406 595.8906,589.7656 C596.0313,589.9063 596.2656,590.0156 596.4844,590.0156 C596.75,590.0156 597.0156,589.875 597.1875,589.6563 C597.2969,589.5 597.3281,589.3125 597.3281,588.8906 L597.3281,587.4688 C597.3281,587.0313 597.3125,586.9063 597.2188,586.75 C597.0625,586.4844 596.7813,586.3438 596.4844,586.3438 C596.1875,586.3438 595.9844,586.4375 595.7656,586.75 L595.5938,586.6719 Z " fill="#000000"/><text fill="#000000" font-family="sans-serif" font-size="14" lengthAdjust="spacing" textLength="67" x="613.75" y="595.8467">Magazine</text><line style="stroke:#181818;stroke-width:0.5;" x1="377.5" x2="884.5" y1="607" y2="607"/><ellipse cx="387.5" cy="620.6484" fill="none" rx="3" ry="3" style="stroke:#038048;stroke-width:1.0;"/><text fill="#000000" font-family="sans-serif" font-size="14" lengthAdjust="spacing" textLength="182" x="396.5" y="623.9951">Name : string {readOnly}</text><ellipse cx="387.5" cy="636.9453" fill="none" rx="3" ry="3" style="stroke:#038048;stroke-width:1.0;"/><text fill="#000000" font-family="sans-serif" font-size="14" lengthAdjust="spacing" textLength="285" x="396.5" y="640.292">PublicationDate : DateTime {readOnly}</text><ellipse cx="387.5" cy="653.2422" fill="none" rx="3" ry="3" style="stroke:#038048;stroke-width:1.0;"/><text fill="#000000" font-family="sans-serif" font-size="14" lengthAdjust="spacing" textLength="240" x="396.5" y="656.5889">ReturnAfterDays : int {readOnly}</text><line style="stroke:#181818;stroke-width:1.0;" x1="377.5" x2="884.5" y1="663.8906" y2="663.8906"/><ellipse cx="387.5" cy="677.5391" fill="#84BE84" rx="3" ry="3" style="stroke:#038048;stroke-width:1.0;"/><text fill="#000000" font-family="sans-serif" font-size="14" lengthAdjust="spacing" textLength="483" x="396.5" y="680.8857">Magazine(string publisher, string name, DateTime publicationDate)</text></g><!--MD5=[bc21c3b4b2532f8b27ead7cb9b856534]
link ReservationManager to PublicationReservation--><g id="link_ReservationManager_PublicationReservation"><path codeLine="9" d="M589,104.075 C589,120.501 589,139.521 589,158.339 " fill="none" id="ReservationManager-to-PublicationReservation" style="stroke:#181818;stroke-width:1.0;"/><polygon fill="#181818" points="589,163.639,593,154.639,589,158.639,585,154.639,589,163.639" style="stroke:#181818;stroke-width:1.0;"/></g><!--MD5=[ab5557a07d65ca1bedb06bdc2e1cd124]
link PublicationReservation to Customer--><g id="link_PublicationReservation_Customer"><path codeLine="22" d="M670.366,342.074 C687.803,360.949 705.831,380.463 721.99,397.955 " fill="none" id="PublicationReservation-to-Customer" style="stroke:#181818;stroke-width:1.0;"/><polygon fill="#181818" points="725.623,401.887,722.4542,392.5618,722.2302,398.2142,716.5778,397.9902,725.623,401.887" style="stroke:#181818;stroke-width:1.0;"/></g><!--MD5=[2ead6a2f9aaa91d3f4a57867100fbad0]
link PublicationReservation to Publication--><g id="link_PublicationReservation_Publication"><path codeLine="23" d="M508.067,342.074 C489.438,362.347 470.131,383.358 453.177,401.807 " fill="none" id="PublicationReservation-to-Publication" style="stroke:#181818;stroke-width:1.0;"/><polygon fill="#181818" points="449.372,405.948,458.4069,402.0275,452.7551,402.2663,452.5162,396.6145,449.372,405.948" style="stroke:#181818;stroke-width:1.0;"/></g><!--MD5=[d93b48b0e22b084d186da0e92107f5b5]
reverse link Publication to Book--><g id="link_Publication_Book"><path codeLine="47" d="M317.131,523.152 C294.471,540.146 270.166,558.375 248.134,574.9 " fill="none" id="Publication-backto-Book" style="stroke:#181818;stroke-width:1.0;"/><polygon fill="none" points="313.083,517.438,333.283,511.038,321.483,528.638,313.083,517.438" style="stroke:#181818;stroke-width:1.0;"/></g><!--MD5=[0720e53ec7018f98427d66a9b3a1d53c]
reverse link Publication to Magazine--><g id="link_Publication_Magazine"><path codeLine="56" d="M487.242,523.152 C510,540.146 534.412,558.375 556.541,574.9 " fill="none" id="Publication-backto-Magazine" style="stroke:#181818;stroke-width:1.0;"/><polygon fill="none" points="482.855,528.613,471.018,511.038,491.232,517.395,482.855,528.613" style="stroke:#181818;stroke-width:1.0;"/></g><!--MD5=[ffde3ad5fed2dc5828212de3b5140e21]
@startuml
hide empty fields

class ReservationManager {
    +Reservations : IReadOnlyList<PublicationReservation> {readOnly}
    - - -
    +bool TryAddReservation(PublicationReservation reservation)
    +IReadOnlyList<PublicationReservation> GetPendingReservations(DateTime date)
}
ReservationManager - -> PublicationReservation

class PublicationReservation {
  +Customer : Customer {readOnly}
  +Publication : Publication {readOnly}
  +ReservationFrom : DateTime {readOnly}
  +ReturnDate : DateTime?
  +MaxReturnDate : DateTime {readOnly}
  +IsReturned : bool {readOnly}
  - - -
  +PublicationReservation(Customer customer, Publication publication, DateTime reservationFrom)
  +bool IsPendingReservation(DateTime date)
}
PublicationReservation - -> Customer
PublicationReservation - -> Publication

class Customer {
  +CardId : int {readOnly}
  +Firstname : string {readOnly}
  +Lastname : string {readOnly}
  - - -
  +Customer(int cardId, string firstname, string lastname)
}

abstract class Publication <<abstract>> {
  +Publisher : string {readOnly}
  +{abstract} ReturnAfterDays : int {readOnly}
  - - -
  +Publication(string publisher)
}

class Book {
  +Title : string {readOnly}
  +Year : int {readOnly}
  +ReturnAfterDays : int {readOnly}
  - - -
  +Book(string publisher, string title, int year)
}
Book -up-|> Publication

class Magazine {
  +Name : string {readOnly}
  +PublicationDate : DateTime {readOnly}
  +ReturnAfterDays : int {readOnly}
  - - -
  +Magazine(string publisher, string name, DateTime publicationDate)
}
Magazine -up-|> Publication
@enduml

PlantUML version 1.2022.10beta1(Unknown compile time)
(GPL source distribution)
Java Runtime: Java(TM) SE Runtime Environment
JVM: Java HotSpot(TM) 64-Bit Server VM
Default Encoding: UTF-8
Language: en
Country: US
--></g></svg>