<?xml version="1.0" encoding="UTF-8" standalone="no"?><svg xmlns="http://www.w3.org/2000/svg" xmlns:xlink="http://www.w3.org/1999/xlink" contentScriptType="application/ecmascript" contentStyleType="text/css" height="508px" preserveAspectRatio="none" style="width:989px;height:508px;background:#FFFFFF;" version="1.1" viewBox="0 0 989 508" width="989px" zoomAndPan="magnify"><defs><filter height="300%" id="fgbl5pckcso9k" width="300%" x="-1" y="-1"><feGaussianBlur result="blurOut" stdDeviation="2.0"/><feColorMatrix in="blurOut" result="blurOut2" type="matrix" values="0 0 0 0 0 0 0 0 0 0 0 0 0 0 0 0 0 0 .4 0"/><feOffset dx="4.0" dy="4.0" in="blurOut2" result="blurOut3"/><feBlend in="SourceGraphic" in2="blurOut3" mode="normal"/></filter></defs><g><!--MD5=[3fd616f346a44cd59a91eb10b19e157c]
class User--><rect codeLine="4" fill="#FEFECE" filter="url(#fgbl5pckcso9k)" height="99.2188" id="User" style="stroke:#A80036;stroke-width:1.5;" width="318" x="7" y="395"/><ellipse cx="147.25" cy="411" fill="#ADD1B2" rx="11" ry="11" style="stroke:#A80036;stroke-width:1.0;"/><path d="M149.5938,406.6719 C148.6563,406.2344 148.0625,406.0938 147.1875,406.0938 C144.5625,406.0938 142.5625,408.1719 142.5625,410.8906 L142.5625,412.0156 C142.5625,414.5938 144.6719,416.4844 147.5625,416.4844 C148.7813,416.4844 149.9375,416.1875 150.6875,415.6406 C151.2656,415.2344 151.5938,414.7813 151.5938,414.3906 C151.5938,413.9375 151.2031,413.5469 150.7344,413.5469 C150.5156,413.5469 150.3125,413.625 150.125,413.8125 C149.6719,414.2969 149.6719,414.2969 149.4844,414.3906 C149.0625,414.6563 148.375,414.7813 147.6094,414.7813 C145.5625,414.7813 144.2656,413.6875 144.2656,411.9844 L144.2656,410.8906 C144.2656,409.1094 145.5156,407.7969 147.25,407.7969 C147.8281,407.7969 148.4375,407.9531 148.9063,408.2031 C149.3906,408.4844 149.5625,408.7031 149.6563,409.1094 C149.7188,409.5156 149.75,409.6406 149.8906,409.7656 C150.0313,409.9063 150.2656,410.0156 150.4844,410.0156 C150.75,410.0156 151.0156,409.875 151.1875,409.6563 C151.2969,409.5 151.3281,409.3125 151.3281,408.8906 L151.3281,407.4688 C151.3281,407.0313 151.3125,406.9063 151.2188,406.75 C151.0625,406.4844 150.7813,406.3438 150.4844,406.3438 C150.1875,406.3438 149.9844,406.4375 149.7656,406.75 L149.5938,406.6719 Z " fill="#000000"/><text fill="#000000" font-family="sans-serif" font-size="12" lengthAdjust="spacing" textLength="29" x="167.75" y="415.1543">User</text><line style="stroke:#A80036;stroke-width:1.5;" x1="8" x2="324" y1="427" y2="427"/><ellipse cx="18" cy="438" rx="3" ry="3" style="stroke:#038048;stroke-width:1.0;fill:none;"/><text fill="#000000" font-family="sans-serif" font-size="11" lengthAdjust="spacing" textLength="73" x="27" y="441.2104">Email : string</text><ellipse cx="18" cy="450.8047" rx="3" ry="3" style="stroke:#038048;stroke-width:1.0;fill:none;"/><text fill="#000000" font-family="sans-serif" font-size="11" lengthAdjust="spacing" textLength="98" x="27" y="454.0151">Firstname : string</text><ellipse cx="18" cy="463.6094" rx="3" ry="3" style="stroke:#038048;stroke-width:1.0;fill:none;"/><text fill="#000000" font-family="sans-serif" font-size="11" lengthAdjust="spacing" textLength="98" x="27" y="466.8198">Lastname : string</text><line style="stroke:#A80036;stroke-width:1.0;" x1="8" x2="324" y1="473.4141" y2="473.4141"/><ellipse cx="18" cy="484.4141" fill="#84BE84" rx="3" ry="3" style="stroke:#038048;stroke-width:1.0;"/><text fill="#000000" font-family="sans-serif" font-size="11" lengthAdjust="spacing" textLength="292" x="27" y="487.6245">User(string email, string firstname, string lastname)</text><!--MD5=[042fa140da40c49659127f611bcff931]
class Comment--><rect codeLine="13" fill="#FEFECE" filter="url(#fgbl5pckcso9k)" height="99.2188" id="Comment" style="stroke:#A80036;stroke-width:1.5;" width="210" x="140" y="236"/><ellipse cx="212.25" cy="252" fill="#ADD1B2" rx="11" ry="11" style="stroke:#A80036;stroke-width:1.0;"/><path d="M214.5938,247.6719 C213.6563,247.2344 213.0625,247.0938 212.1875,247.0938 C209.5625,247.0938 207.5625,249.1719 207.5625,251.8906 L207.5625,253.0156 C207.5625,255.5938 209.6719,257.4844 212.5625,257.4844 C213.7813,257.4844 214.9375,257.1875 215.6875,256.6406 C216.2656,256.2344 216.5938,255.7813 216.5938,255.3906 C216.5938,254.9375 216.2031,254.5469 215.7344,254.5469 C215.5156,254.5469 215.3125,254.625 215.125,254.8125 C214.6719,255.2969 214.6719,255.2969 214.4844,255.3906 C214.0625,255.6563 213.375,255.7813 212.6094,255.7813 C210.5625,255.7813 209.2656,254.6875 209.2656,252.9844 L209.2656,251.8906 C209.2656,250.1094 210.5156,248.7969 212.25,248.7969 C212.8281,248.7969 213.4375,248.9531 213.9063,249.2031 C214.3906,249.4844 214.5625,249.7031 214.6563,250.1094 C214.7188,250.5156 214.75,250.6406 214.8906,250.7656 C215.0313,250.9063 215.2656,251.0156 215.4844,251.0156 C215.75,251.0156 216.0156,250.875 216.1875,250.6563 C216.2969,250.5 216.3281,250.3125 216.3281,249.8906 L216.3281,248.4688 C216.3281,248.0313 216.3125,247.9063 216.2188,247.75 C216.0625,247.4844 215.7813,247.3438 215.4844,247.3438 C215.1875,247.3438 214.9844,247.4375 214.7656,247.75 L214.5938,247.6719 Z " fill="#000000"/><text fill="#000000" font-family="sans-serif" font-size="12" lengthAdjust="spacing" textLength="57" x="232.75" y="256.1543">Comment</text><line style="stroke:#A80036;stroke-width:1.5;" x1="141" x2="349" y1="268" y2="268"/><ellipse cx="151" cy="279" rx="3" ry="3" style="stroke:#038048;stroke-width:1.0;fill:none;"/><text fill="#000000" font-family="sans-serif" font-size="11" lengthAdjust="spacing" textLength="63" x="160" y="282.2104">User : User</text><ellipse cx="151" cy="291.8047" rx="3" ry="3" style="stroke:#038048;stroke-width:1.0;fill:none;"/><text fill="#000000" font-family="sans-serif" font-size="11" lengthAdjust="spacing" textLength="68" x="160" y="295.0151">Text : string</text><ellipse cx="151" cy="304.6094" rx="3" ry="3" style="stroke:#038048;stroke-width:1.0;fill:none;"/><text fill="#000000" font-family="sans-serif" font-size="11" lengthAdjust="spacing" textLength="114" x="160" y="307.8198">Created : DateTime</text><line style="stroke:#A80036;stroke-width:1.0;" x1="141" x2="349" y1="314.4141" y2="314.4141"/><ellipse cx="151" cy="325.4141" fill="#84BE84" rx="3" ry="3" style="stroke:#038048;stroke-width:1.0;"/><text fill="#000000" font-family="sans-serif" font-size="11" lengthAdjust="spacing" textLength="184" x="160" y="328.6245">Comment(User user, string text)</text><!--MD5=[9bb0bdd047fba1a3c8d48282c35b4537]
class Post--><rect codeLine="23" fill="#FEFECE" filter="url(#fgbl5pckcso9k)" height="169.1797" id="Post" style="stroke:#A80036;stroke-width:1.5;" width="260" x="252" y="7"/><ellipse cx="347.75" cy="25.9688" fill="#A9DCDF" rx="11" ry="11" style="stroke:#A80036;stroke-width:1.0;"/><path d="M349.8281,27.7813 L350.2188,28.7656 L349.8281,28.7656 C349.375,28.7656 349.2656,28.7813 349.1094,28.8906 C348.8594,29.0469 348.7031,29.3281 348.7031,29.625 C348.7031,29.8906 348.8438,30.1406 349.0625,30.2969 C349.2031,30.4219 349.4063,30.4688 349.8281,30.4688 L352.1875,30.4688 C352.5469,30.4688 352.7656,30.4375 352.9063,30.3438 C353.1563,30.2031 353.3125,29.9063 353.3125,29.625 C353.3125,29.3438 353.1719,29.0938 352.9531,28.9375 C352.7813,28.7969 352.625,28.7656 352.1563,28.7656 L348.7656,20.5625 L345.0938,20.5625 C344.6406,20.5625 344.5156,20.5781 344.3594,20.6719 C344.1094,20.8438 343.9531,21.125 343.9531,21.4063 C343.9531,21.6875 344.0938,21.9375 344.3125,22.1094 C344.4844,22.2188 344.6563,22.25 345.0938,22.25 L346.1719,22.25 L343.5313,28.7656 C343.1094,28.7656 342.9531,28.7813 342.7969,28.8906 C342.5469,29.0469 342.3906,29.3281 342.3906,29.625 C342.3906,30.1875 342.7656,30.4688 343.5156,30.4688 L345.7813,30.4688 C346.1406,30.4688 346.3594,30.4375 346.4844,30.3438 C346.75,30.2031 346.8906,29.9063 346.8906,29.625 C346.8906,29.3438 346.7656,29.0938 346.5469,28.9219 C346.375,28.7969 346.2344,28.7656 345.7813,28.7656 L345.3906,28.7656 L345.7813,27.7813 L349.8281,27.7813 Z M349.125,26.0781 L346.4531,26.0781 L347.7969,22.8125 L349.125,26.0781 Z " fill="#000000"/><text fill="#000000" font-family="sans-serif" font-size="12" font-style="italic" lengthAdjust="spacing" textLength="64" x="366.25" y="23.1387">«abstract»</text><text fill="#000000" font-family="sans-serif" font-size="12" font-style="italic" lengthAdjust="spacing" textLength="25" x="385.75" y="37.1074">Post</text><line style="stroke:#A80036;stroke-width:1.5;" x1="253" x2="511" y1="44.9375" y2="44.9375"/><ellipse cx="263" cy="55.9375" rx="3" ry="3" style="stroke:#038048;stroke-width:1.0;fill:none;"/><text fill="#000000" font-family="sans-serif" font-size="11" lengthAdjust="spacing" textLength="62" x="272" y="59.1479">User : user</text><ellipse cx="263" cy="68.7422" rx="3" ry="3" style="stroke:#038048;stroke-width:1.0;fill:none;"/><text fill="#000000" font-family="sans-serif" font-size="11" lengthAdjust="spacing" textLength="67" x="272" y="71.9526">Title : string</text><ellipse cx="263" cy="81.5469" rx="3" ry="3" style="stroke:#038048;stroke-width:1.0;fill:none;"/><text fill="#000000" font-family="sans-serif" font-size="11" font-style="italic" lengthAdjust="spacing" textLength="70" x="272" y="84.7573">Html : string</text><ellipse cx="263" cy="94.3516" rx="3" ry="3" style="stroke:#038048;stroke-width:1.0;fill:none;"/><text fill="#000000" font-family="sans-serif" font-size="11" lengthAdjust="spacing" textLength="146" x="272" y="97.562">AverageRating : decimal?</text><ellipse cx="263" cy="107.1563" rx="3" ry="3" style="stroke:#038048;stroke-width:1.0;fill:none;"/><text fill="#000000" font-family="sans-serif" font-size="11" lengthAdjust="spacing" textLength="93" x="272" y="110.3667">RatingCount : int</text><ellipse cx="263" cy="119.9609" rx="3" ry="3" style="stroke:#038048;stroke-width:1.0;fill:none;"/><text fill="#000000" font-family="sans-serif" font-size="11" lengthAdjust="spacing" textLength="224" x="272" y="123.1714">Comments : IReadOnlyList&lt;Comment&gt;</text><line style="stroke:#A80036;stroke-width:1.0;" x1="253" x2="511" y1="129.7656" y2="129.7656"/><ellipse cx="263" cy="140.7656" fill="#84BE84" rx="3" ry="3" style="stroke:#038048;stroke-width:1.0;"/><text fill="#000000" font-family="sans-serif" font-size="11" lengthAdjust="spacing" textLength="150" x="272" y="143.9761">Post(User user, string title)</text><ellipse cx="263" cy="153.5703" fill="#84BE84" rx="3" ry="3" style="stroke:#038048;stroke-width:1.0;"/><text fill="#000000" font-family="sans-serif" font-size="11" lengthAdjust="spacing" textLength="234" x="272" y="156.7808">void AddComment(User user, string text)</text><ellipse cx="263" cy="166.375" fill="#84BE84" rx="3" ry="3" style="stroke:#038048;stroke-width:1.0;"/><text fill="#000000" font-family="sans-serif" font-size="11" lengthAdjust="spacing" textLength="192" x="272" y="169.5854">bool TryRate(User user, int rating)</text><!--MD5=[19181b36cb099d1fe2e0bd30eb8eaaec]
class ImagePost--><rect codeLine="39" fill="#FEFECE" filter="url(#fgbl5pckcso9k)" height="73.6094" id="ImagePost" style="stroke:#A80036;stroke-width:1.5;" width="268" x="385" y="248.5"/><ellipse cx="483.75" cy="264.5" fill="#ADD1B2" rx="11" ry="11" style="stroke:#A80036;stroke-width:1.0;"/><path d="M486.0938,260.1719 C485.1563,259.7344 484.5625,259.5938 483.6875,259.5938 C481.0625,259.5938 479.0625,261.6719 479.0625,264.3906 L479.0625,265.5156 C479.0625,268.0938 481.1719,269.9844 484.0625,269.9844 C485.2813,269.9844 486.4375,269.6875 487.1875,269.1406 C487.7656,268.7344 488.0938,268.2813 488.0938,267.8906 C488.0938,267.4375 487.7031,267.0469 487.2344,267.0469 C487.0156,267.0469 486.8125,267.125 486.625,267.3125 C486.1719,267.7969 486.1719,267.7969 485.9844,267.8906 C485.5625,268.1563 484.875,268.2813 484.1094,268.2813 C482.0625,268.2813 480.7656,267.1875 480.7656,265.4844 L480.7656,264.3906 C480.7656,262.6094 482.0156,261.2969 483.75,261.2969 C484.3281,261.2969 484.9375,261.4531 485.4063,261.7031 C485.8906,261.9844 486.0625,262.2031 486.1563,262.6094 C486.2188,263.0156 486.25,263.1406 486.3906,263.2656 C486.5313,263.4063 486.7656,263.5156 486.9844,263.5156 C487.25,263.5156 487.5156,263.375 487.6875,263.1563 C487.7969,263 487.8281,262.8125 487.8281,262.3906 L487.8281,260.9688 C487.8281,260.5313 487.8125,260.4063 487.7188,260.25 C487.5625,259.9844 487.2813,259.8438 486.9844,259.8438 C486.6875,259.8438 486.4844,259.9375 486.2656,260.25 L486.0938,260.1719 Z " fill="#000000"/><text fill="#000000" font-family="sans-serif" font-size="12" lengthAdjust="spacing" textLength="62" x="504.25" y="268.6543">ImagePost</text><line style="stroke:#A80036;stroke-width:1.5;" x1="386" x2="652" y1="280.5" y2="280.5"/><ellipse cx="396" cy="291.5" rx="3" ry="3" style="stroke:#038048;stroke-width:1.0;fill:none;"/><text fill="#000000" font-family="sans-serif" font-size="11" lengthAdjust="spacing" textLength="57" x="405" y="294.7104">Url : string</text><line style="stroke:#A80036;stroke-width:1.0;" x1="386" x2="652" y1="301.3047" y2="301.3047"/><ellipse cx="396" cy="312.3047" fill="#84BE84" rx="3" ry="3" style="stroke:#038048;stroke-width:1.0;"/><text fill="#000000" font-family="sans-serif" font-size="11" lengthAdjust="spacing" textLength="242" x="405" y="315.5151">ImagePost(User user, string title, string url)</text><!--MD5=[d338a6009b2a7027a43d5d561990b6ba]
class TextPost--><rect codeLine="47" fill="#FEFECE" filter="url(#fgbl5pckcso9k)" height="73.6094" id="TextPost" style="stroke:#A80036;stroke-width:1.5;" width="287" x="688.5" y="248.5"/><ellipse cx="802.25" cy="264.5" fill="#ADD1B2" rx="11" ry="11" style="stroke:#A80036;stroke-width:1.0;"/><path d="M804.5938,260.1719 C803.6563,259.7344 803.0625,259.5938 802.1875,259.5938 C799.5625,259.5938 797.5625,261.6719 797.5625,264.3906 L797.5625,265.5156 C797.5625,268.0938 799.6719,269.9844 802.5625,269.9844 C803.7813,269.9844 804.9375,269.6875 805.6875,269.1406 C806.2656,268.7344 806.5938,268.2813 806.5938,267.8906 C806.5938,267.4375 806.2031,267.0469 805.7344,267.0469 C805.5156,267.0469 805.3125,267.125 805.125,267.3125 C804.6719,267.7969 804.6719,267.7969 804.4844,267.8906 C804.0625,268.1563 803.375,268.2813 802.6094,268.2813 C800.5625,268.2813 799.2656,267.1875 799.2656,265.4844 L799.2656,264.3906 C799.2656,262.6094 800.5156,261.2969 802.25,261.2969 C802.8281,261.2969 803.4375,261.4531 803.9063,261.7031 C804.3906,261.9844 804.5625,262.2031 804.6563,262.6094 C804.7188,263.0156 804.75,263.1406 804.8906,263.2656 C805.0313,263.4063 805.2656,263.5156 805.4844,263.5156 C805.75,263.5156 806.0156,263.375 806.1875,263.1563 C806.2969,263 806.3281,262.8125 806.3281,262.3906 L806.3281,260.9688 C806.3281,260.5313 806.3125,260.4063 806.2188,260.25 C806.0625,259.9844 805.7813,259.8438 805.4844,259.8438 C805.1875,259.8438 804.9844,259.9375 804.7656,260.25 L804.5938,260.1719 Z " fill="#000000"/><text fill="#000000" font-family="sans-serif" font-size="12" lengthAdjust="spacing" textLength="51" x="822.75" y="268.6543">TextPost</text><line style="stroke:#A80036;stroke-width:1.5;" x1="689.5" x2="974.5" y1="280.5" y2="280.5"/><text fill="#000000" font-family="sans-serif" font-size="11" lengthAdjust="spacing" textLength="87" x="694.5" y="294.7104">Content : string</text><line style="stroke:#A80036;stroke-width:1.0;" x1="689.5" x2="974.5" y1="301.3047" y2="301.3047"/><ellipse cx="699.5" cy="312.3047" fill="#84BE84" rx="3" ry="3" style="stroke:#038048;stroke-width:1.0;"/><text fill="#000000" font-family="sans-serif" font-size="11" lengthAdjust="spacing" textLength="261" x="708.5" y="315.5151">TextPost(User user, string title, string content)</text><!--MD5=[6a06045152f20214b4760875fd259869]
link Comment to User--><path codeLine="21" d="M215.0436,346.0346 C215.0436,346.0346 202.225,371.508 196.258,383.367 " fill="none" id="Comment-User" style="stroke:#A80036;stroke-width:1.0;"/><polygon fill="#A80036" points="190.412,394.9848,198.0303,388.7429,192.6593,390.5183,190.8839,385.1473,190.412,394.9848" style="stroke:#A80036;stroke-width:1.0;"/><line style="stroke:#A80036;stroke-width:1.0;" x1="192.6593" x2="196.2555" y1="390.5183" y2="383.372"/><polygon fill="#FFFFFF" points="220.437,335.315,214.1671,338.877,215.0436,346.0346,221.3135,342.4726,220.437,335.315" style="stroke:#A80036;stroke-width:1.0;"/><!--MD5=[53e973d04dd87d2db99c017d615abca2]
link Post to User--><path codeLine="36" d="M240.9776,137.128 C240.9776,137.128 148.339,191.378 122,236 C95.5642,280.785 111.685,339.305 131.455,382.777 " fill="none" id="Post-User" style="stroke:#A80036;stroke-width:1.0;"/><polygon fill="#A80036" points="137.095,394.6154,136.834,384.77,134.9439,390.1018,129.6122,388.2117,137.095,394.6154" style="stroke:#A80036;stroke-width:1.0;"/><line style="stroke:#A80036;stroke-width:1.0;" x1="134.9439" x2="131.5035" y1="390.1018" y2="382.8795"/><polygon fill="#FFFFFF" points="251.866,132.084,244.7404,130.9765,240.9776,137.128,248.1031,138.2355,251.866,132.084" style="stroke:#A80036;stroke-width:1.0;"/><!--MD5=[22862a66d9a2618d5a0b88147562e253]
link Post to Comment--><path codeLine="37" d="M315.3373,185.9227 C315.3373,185.9227 295.967,213.072 287.375,225.113 " fill="none" id="Post-Comment" style="stroke:#A80036;stroke-width:1.0;"/><polygon fill="#A80036" points="279.684,235.891,288.1677,230.8882,282.5882,231.8209,281.6555,226.2415,279.684,235.891" style="stroke:#A80036;stroke-width:1.0;"/><line style="stroke:#A80036;stroke-width:1.0;" x1="282.5882" x2="287.235" y1="231.8209" y2="225.309"/><polygon fill="#FFFFFF" points="322.308,176.155,315.5667,178.7153,315.3373,185.9227,322.0785,183.3625,322.308,176.155" style="stroke:#A80036;stroke-width:1.0;"/><!--MD5=[ad6e5e1863a6e69ce780b4758ed2d171]
reverse link Post to ImagePost--><path codeLine="45" d="M453.374,192.528 C467.622,212.496 481.704,232.231 493.148,248.27 " fill="none" id="Post-backto-ImagePost" style="stroke:#A80036;stroke-width:1.0;"/><polygon fill="none" points="447.61,196.502,441.692,176.155,459.007,188.37,447.61,196.502" style="stroke:#A80036;stroke-width:1.0;"/><!--MD5=[7af92f437fa605bf33b6260cbdaea3fb]
reverse link Post to TextPost--><path codeLine="53" d="M530.683,155.938 C602.734,186.68 686.631,222.476 747.573,248.478 " fill="none" id="Post-backto-TextPost" style="stroke:#A80036;stroke-width:1.0;"/><polygon fill="none" points="527.807,162.322,512.159,148.034,533.301,149.445,527.807,162.322" style="stroke:#A80036;stroke-width:1.0;"/><!--MD5=[9aebf80335568b347d8041a128ee770b]
@startuml
hide empty fields
hide empty methods

class User
{
    +Email : string
    +Firstname : string
    +Lastname : string
    - - -
    +User(string email, string firstname, string lastname)
}

class Comment
{
    +User : User
    +Text : string
    +Created : DateTime
    - - -
    +Comment(User user, string text)
}
Comment o- -> User

abstract class Post <<abstract>>
{
    +User : user
    +Title : string
    +{abstract} Html : string
    +AverageRating : decimal?
    +RatingCount : int
    +Comments : IReadOnlyList<Comment>
    - - -
    +Post(User user, string title)
    +void AddComment(User user, string text)
    +bool TryRate(User user, int rating)
}
Post o- -> User
Post o- -> Comment

class ImagePost
{
    + Url : string
    - - -
    +ImagePost(User user, string title, string url)
}
ImagePost -up-|> Post

class TextPost
{
    Content : string
    - - -
    +TextPost(User user, string title, string content)
}
TextPost -up-|> Post
@enduml

PlantUML version 1.2021.13beta6(Unknown compile time)
(GPL source distribution)
Java Runtime: Java(TM) SE Runtime Environment
JVM: Java HotSpot(TM) 64-Bit Server VM
Default Encoding: UTF-8
Language: en
Country: US
--></g></svg>