<?xml version="1.0" encoding="UTF-8" standalone="no"?><svg xmlns="http://www.w3.org/2000/svg" xmlns:xlink="http://www.w3.org/1999/xlink" contentStyleType="text/css" height="428px" preserveAspectRatio="none" style="width:1038px;height:428px;background:#FFFFFF;" version="1.1" viewBox="0 0 1038 428" width="1038px" zoomAndPan="magnify"><defs/><g><!--MD5=[a4ea2dcb44ebd57046df9af95d8b8c12]
class Gender--><g id="elem_Gender"><rect codeLine="4" fill="#F1F1F1" height="72.5938" id="Gender" rx="2.5" ry="2.5" style="stroke:#181818;stroke-width:0.5;" width="192" x="553" y="225"/><ellipse cx="618.25" cy="241" fill="#ADD1B2" rx="11" ry="11" style="stroke:#181818;stroke-width:1.0;"/><path d="M620.5938,236.6719 C619.6563,236.2344 619.0625,236.0938 618.1875,236.0938 C615.5625,236.0938 613.5625,238.1719 613.5625,240.8906 L613.5625,242.0156 C613.5625,244.5938 615.6719,246.4844 618.5625,246.4844 C619.7813,246.4844 620.9375,246.1875 621.6875,245.6406 C622.2656,245.2344 622.5938,244.7813 622.5938,244.3906 C622.5938,243.9375 622.2031,243.5469 621.7344,243.5469 C621.5156,243.5469 621.3125,243.625 621.125,243.8125 C620.6719,244.2969 620.6719,244.2969 620.4844,244.3906 C620.0625,244.6563 619.375,244.7813 618.6094,244.7813 C616.5625,244.7813 615.2656,243.6875 615.2656,241.9844 L615.2656,240.8906 C615.2656,239.1094 616.5156,237.7969 618.25,237.7969 C618.8281,237.7969 619.4375,237.9531 619.9063,238.2031 C620.3906,238.4844 620.5625,238.7031 620.6563,239.1094 C620.7188,239.5156 620.75,239.6406 620.8906,239.7656 C621.0313,239.9063 621.2656,240.0156 621.4844,240.0156 C621.75,240.0156 622.0156,239.875 622.1875,239.6563 C622.2969,239.5 622.3281,239.3125 622.3281,238.8906 L622.3281,237.4688 C622.3281,237.0313 622.3125,236.9063 622.2188,236.75 C622.0625,236.4844 621.7813,236.3438 621.4844,236.3438 C621.1875,236.3438 620.9844,236.4375 620.7656,236.75 L620.5938,236.6719 Z " fill="#000000"/><text fill="#000000" font-family="sans-serif" font-size="14" lengthAdjust="spacing" textLength="53" x="638.75" y="245.8467">Gender</text><line style="stroke:#181818;stroke-width:0.5;" x1="554" x2="744" y1="257" y2="257"/><ellipse cx="564" cy="268" fill="none" rx="3" ry="3" style="stroke:#038048;stroke-width:1.0;"/><text fill="#000000" font-family="sans-serif" font-size="14" lengthAdjust="spacing" textLength="166" x="573" y="273.9951">GenderId : int «unique»</text><ellipse cx="564" cy="284.2969" fill="none" rx="3" ry="3" style="stroke:#038048;stroke-width:1.0;"/><text fill="#000000" font-family="sans-serif" font-size="14" lengthAdjust="spacing" textLength="96" x="573" y="290.292">Name : string</text></g><!--MD5=[61a83f88cb8b7d3a80bc8c481f3736bf]
class Teacher--><g id="elem_Teacher"><rect codeLine="9" fill="#F1F1F1" height="105.1875" id="Teacher" rx="2.5" ry="2.5" style="stroke:#181818;stroke-width:0.5;" width="226" x="805" y="222"/><ellipse cx="884.75" cy="238" fill="#ADD1B2" rx="11" ry="11" style="stroke:#181818;stroke-width:1.0;"/><path d="M887.0938,233.6719 C886.1563,233.2344 885.5625,233.0938 884.6875,233.0938 C882.0625,233.0938 880.0625,235.1719 880.0625,237.8906 L880.0625,239.0156 C880.0625,241.5938 882.1719,243.4844 885.0625,243.4844 C886.2813,243.4844 887.4375,243.1875 888.1875,242.6406 C888.7656,242.2344 889.0938,241.7813 889.0938,241.3906 C889.0938,240.9375 888.7031,240.5469 888.2344,240.5469 C888.0156,240.5469 887.8125,240.625 887.625,240.8125 C887.1719,241.2969 887.1719,241.2969 886.9844,241.3906 C886.5625,241.6563 885.875,241.7813 885.1094,241.7813 C883.0625,241.7813 881.7656,240.6875 881.7656,238.9844 L881.7656,237.8906 C881.7656,236.1094 883.0156,234.7969 884.75,234.7969 C885.3281,234.7969 885.9375,234.9531 886.4063,235.2031 C886.8906,235.4844 887.0625,235.7031 887.1563,236.1094 C887.2188,236.5156 887.25,236.6406 887.3906,236.7656 C887.5313,236.9063 887.7656,237.0156 887.9844,237.0156 C888.25,237.0156 888.5156,236.875 888.6875,236.6563 C888.7969,236.5 888.8281,236.3125 888.8281,235.8906 L888.8281,234.4688 C888.8281,234.0313 888.8125,233.9063 888.7188,233.75 C888.5625,233.4844 888.2813,233.3438 887.9844,233.3438 C887.6875,233.3438 887.4844,233.4375 887.2656,233.75 L887.0938,233.6719 Z " fill="#000000"/><text fill="#000000" font-family="sans-serif" font-size="14" lengthAdjust="spacing" textLength="58" x="905.25" y="242.8467">Teacher</text><line style="stroke:#181818;stroke-width:0.5;" x1="806" x2="1030" y1="254" y2="254"/><ellipse cx="816" cy="265" fill="none" rx="3" ry="3" style="stroke:#038048;stroke-width:1.0;"/><text fill="#000000" font-family="sans-serif" font-size="14" lengthAdjust="spacing" textLength="200" x="825" y="270.9951">TeacherNr : string  «unique»</text><ellipse cx="816" cy="281.2969" fill="none" rx="3" ry="3" style="stroke:#038048;stroke-width:1.0;"/><text fill="#000000" font-family="sans-serif" font-size="14" lengthAdjust="spacing" textLength="127" x="825" y="287.292">Firstname : string</text><ellipse cx="816" cy="297.5938" fill="none" rx="3" ry="3" style="stroke:#038048;stroke-width:1.0;"/><text fill="#000000" font-family="sans-serif" font-size="14" lengthAdjust="spacing" textLength="125" x="825" y="303.5889">Lastname : string</text><ellipse cx="816" cy="313.8906" fill="none" rx="3" ry="3" style="stroke:#038048;stroke-width:1.0;"/><text fill="#000000" font-family="sans-serif" font-size="14" lengthAdjust="spacing" textLength="94" x="825" y="319.8857">Email : string</text></g><!--MD5=[276249638cd02b0e73c7054c8117ddf4]
class Schoolclass--><g id="elem_Schoolclass"><rect codeLine="16" fill="#F1F1F1" height="88.8906" id="Schoolclass" rx="2.5" ry="2.5" style="stroke:#181818;stroke-width:0.5;" width="189" x="554.5" y="333"/><ellipse cx="603.75" cy="349" fill="#ADD1B2" rx="11" ry="11" style="stroke:#181818;stroke-width:1.0;"/><path d="M606.0938,344.6719 C605.1563,344.2344 604.5625,344.0938 603.6875,344.0938 C601.0625,344.0938 599.0625,346.1719 599.0625,348.8906 L599.0625,350.0156 C599.0625,352.5938 601.1719,354.4844 604.0625,354.4844 C605.2813,354.4844 606.4375,354.1875 607.1875,353.6406 C607.7656,353.2344 608.0938,352.7813 608.0938,352.3906 C608.0938,351.9375 607.7031,351.5469 607.2344,351.5469 C607.0156,351.5469 606.8125,351.625 606.625,351.8125 C606.1719,352.2969 606.1719,352.2969 605.9844,352.3906 C605.5625,352.6563 604.875,352.7813 604.1094,352.7813 C602.0625,352.7813 600.7656,351.6875 600.7656,349.9844 L600.7656,348.8906 C600.7656,347.1094 602.0156,345.7969 603.75,345.7969 C604.3281,345.7969 604.9375,345.9531 605.4063,346.2031 C605.8906,346.4844 606.0625,346.7031 606.1563,347.1094 C606.2188,347.5156 606.25,347.6406 606.3906,347.7656 C606.5313,347.9063 606.7656,348.0156 606.9844,348.0156 C607.25,348.0156 607.5156,347.875 607.6875,347.6563 C607.7969,347.5 607.8281,347.3125 607.8281,346.8906 L607.8281,345.4688 C607.8281,345.0313 607.8125,344.9063 607.7188,344.75 C607.5625,344.4844 607.2813,344.3438 606.9844,344.3438 C606.6875,344.3438 606.4844,344.4375 606.2656,344.75 L606.0938,344.6719 Z " fill="#000000"/><text fill="#000000" font-family="sans-serif" font-size="14" lengthAdjust="spacing" textLength="82" x="624.25" y="353.8467">Schoolclass</text><line style="stroke:#181818;stroke-width:0.5;" x1="555.5" x2="742.5" y1="365" y2="365"/><ellipse cx="565.5" cy="376" fill="none" rx="3" ry="3" style="stroke:#038048;stroke-width:1.0;"/><text fill="#000000" font-family="sans-serif" font-size="14" lengthAdjust="spacing" textLength="163" x="574.5" y="381.9951">Name : string «unique»</text><ellipse cx="565.5" cy="392.2969" fill="none" rx="3" ry="3" style="stroke:#038048;stroke-width:1.0;"/><text fill="#000000" font-family="sans-serif" font-size="14" lengthAdjust="spacing" textLength="97" x="574.5" y="398.292">Room : string</text><ellipse cx="565.5" cy="408.5938" fill="none" rx="3" ry="3" style="stroke:#038048;stroke-width:1.0;"/><text fill="#000000" font-family="sans-serif" font-size="14" lengthAdjust="spacing" textLength="89" x="574.5" y="414.5889">Kv : Teacher</text></g><!--MD5=[d6181cb537bdc20c0a3007a98a56832d]
class Student--><g id="elem_Student"><rect codeLine="24" fill="#F1F1F1" height="137.7813" id="Student" rx="2.5" ry="2.5" style="stroke:#181818;stroke-width:0.5;" width="205" x="288" y="224.5"/><ellipse cx="357.25" cy="240.5" fill="#ADD1B2" rx="11" ry="11" style="stroke:#181818;stroke-width:1.0;"/><path d="M359.5938,236.1719 C358.6563,235.7344 358.0625,235.5938 357.1875,235.5938 C354.5625,235.5938 352.5625,237.6719 352.5625,240.3906 L352.5625,241.5156 C352.5625,244.0938 354.6719,245.9844 357.5625,245.9844 C358.7813,245.9844 359.9375,245.6875 360.6875,245.1406 C361.2656,244.7344 361.5938,244.2813 361.5938,243.8906 C361.5938,243.4375 361.2031,243.0469 360.7344,243.0469 C360.5156,243.0469 360.3125,243.125 360.125,243.3125 C359.6719,243.7969 359.6719,243.7969 359.4844,243.8906 C359.0625,244.1563 358.375,244.2813 357.6094,244.2813 C355.5625,244.2813 354.2656,243.1875 354.2656,241.4844 L354.2656,240.3906 C354.2656,238.6094 355.5156,237.2969 357.25,237.2969 C357.8281,237.2969 358.4375,237.4531 358.9063,237.7031 C359.3906,237.9844 359.5625,238.2031 359.6563,238.6094 C359.7188,239.0156 359.75,239.1406 359.8906,239.2656 C360.0313,239.4063 360.2656,239.5156 360.4844,239.5156 C360.75,239.5156 361.0156,239.375 361.1875,239.1563 C361.2969,239 361.3281,238.8125 361.3281,238.3906 L361.3281,236.9688 C361.3281,236.5313 361.3125,236.4063 361.2188,236.25 C361.0625,235.9844 360.7813,235.8438 360.4844,235.8438 C360.1875,235.8438 359.9844,235.9375 359.7656,236.25 L359.5938,236.1719 Z " fill="#000000"/><text fill="#000000" font-family="sans-serif" font-size="14" lengthAdjust="spacing" textLength="58" x="377.75" y="245.3467">Student</text><line style="stroke:#181818;stroke-width:0.5;" x1="289" x2="492" y1="256.5" y2="256.5"/><ellipse cx="299" cy="267.5" fill="none" rx="3" ry="3" style="stroke:#038048;stroke-width:1.0;"/><text fill="#000000" font-family="sans-serif" font-size="14" lengthAdjust="spacing" textLength="117" x="308" y="273.4951">Id : int  «unique»</text><ellipse cx="299" cy="283.7969" fill="none" rx="3" ry="3" style="stroke:#038048;stroke-width:1.0;"/><text fill="#000000" font-family="sans-serif" font-size="14" lengthAdjust="spacing" textLength="127" x="308" y="289.792">Firstname : string</text><ellipse cx="299" cy="300.0938" fill="none" rx="3" ry="3" style="stroke:#038048;stroke-width:1.0;"/><text fill="#000000" font-family="sans-serif" font-size="14" lengthAdjust="spacing" textLength="125" x="308" y="306.0889">Lastname : string</text><ellipse cx="299" cy="316.3906" fill="none" rx="3" ry="3" style="stroke:#038048;stroke-width:1.0;"/><text fill="#000000" font-family="sans-serif" font-size="14" lengthAdjust="spacing" textLength="119" x="308" y="322.3857">Gender : Gender</text><ellipse cx="299" cy="332.6875" fill="none" rx="3" ry="3" style="stroke:#038048;stroke-width:1.0;"/><text fill="#000000" font-family="sans-serif" font-size="14" lengthAdjust="spacing" textLength="177" x="308" y="338.6826">Schoolclass : Schoolclass</text><ellipse cx="299" cy="348.9844" fill="none" rx="3" ry="3" style="stroke:#038048;stroke-width:1.0;"/><text fill="#000000" font-family="sans-serif" font-size="14" lengthAdjust="spacing" textLength="179" x="308" y="354.9795">DateOfBirth : DateTime?</text></g><!--MD5=[4ec975f1641a34b3290014bf4027a644]
class Exam--><g id="elem_Exam"><rect codeLine="36" fill="#F1F1F1" height="137.7813" id="Exam" rx="2.5" ry="2.5" style="stroke:#181818;stroke-width:0.5;" width="164" x="35.5" y="163.5"/><ellipse cx="93.75" cy="179.5" fill="#ADD1B2" rx="11" ry="11" style="stroke:#181818;stroke-width:1.0;"/><path d="M96.0938,175.1719 C95.1563,174.7344 94.5625,174.5938 93.6875,174.5938 C91.0625,174.5938 89.0625,176.6719 89.0625,179.3906 L89.0625,180.5156 C89.0625,183.0938 91.1719,184.9844 94.0625,184.9844 C95.2813,184.9844 96.4375,184.6875 97.1875,184.1406 C97.7656,183.7344 98.0938,183.2813 98.0938,182.8906 C98.0938,182.4375 97.7031,182.0469 97.2344,182.0469 C97.0156,182.0469 96.8125,182.125 96.625,182.3125 C96.1719,182.7969 96.1719,182.7969 95.9844,182.8906 C95.5625,183.1563 94.875,183.2813 94.1094,183.2813 C92.0625,183.2813 90.7656,182.1875 90.7656,180.4844 L90.7656,179.3906 C90.7656,177.6094 92.0156,176.2969 93.75,176.2969 C94.3281,176.2969 94.9375,176.4531 95.4063,176.7031 C95.8906,176.9844 96.0625,177.2031 96.1563,177.6094 C96.2188,178.0156 96.25,178.1406 96.3906,178.2656 C96.5313,178.4063 96.7656,178.5156 96.9844,178.5156 C97.25,178.5156 97.5156,178.375 97.6875,178.1563 C97.7969,178 97.8281,177.8125 97.8281,177.3906 L97.8281,175.9688 C97.8281,175.5313 97.8125,175.4063 97.7188,175.25 C97.5625,174.9844 97.2813,174.8438 96.9844,174.8438 C96.6875,174.8438 96.4844,174.9375 96.2656,175.25 L96.0938,175.1719 Z " fill="#000000"/><text fill="#000000" font-family="sans-serif" font-size="14" lengthAdjust="spacing" textLength="39" x="114.25" y="184.3467">Exam</text><line style="stroke:#181818;stroke-width:0.5;" x1="36.5" x2="198.5" y1="195.5" y2="195.5"/><ellipse cx="46.5" cy="206.5" fill="none" rx="3" ry="3" style="stroke:#038048;stroke-width:1.0;"/><text fill="#000000" font-family="sans-serif" font-size="14" lengthAdjust="spacing" textLength="117" x="55.5" y="212.4951">Id : int  «unique»</text><ellipse cx="46.5" cy="222.7969" fill="none" rx="3" ry="3" style="stroke:#038048;stroke-width:1.0;"/><text fill="#000000" font-family="sans-serif" font-size="14" lengthAdjust="spacing" textLength="119" x="55.5" y="228.792">Date : DateTime</text><ellipse cx="46.5" cy="239.0938" fill="none" rx="3" ry="3" style="stroke:#038048;stroke-width:1.0;"/><text fill="#000000" font-family="sans-serif" font-size="14" lengthAdjust="spacing" textLength="110" x="55.5" y="245.0889">Subject : string</text><ellipse cx="46.5" cy="255.3906" fill="none" rx="3" ry="3" style="stroke:#038048;stroke-width:1.0;"/><text fill="#000000" font-family="sans-serif" font-size="14" lengthAdjust="spacing" textLength="129" x="55.5" y="261.3857">Student : Student</text><ellipse cx="46.5" cy="271.6875" fill="none" rx="3" ry="3" style="stroke:#038048;stroke-width:1.0;"/><text fill="#000000" font-family="sans-serif" font-size="14" lengthAdjust="spacing" textLength="138" x="55.5" y="277.6826">Examiner : Teacher</text><ellipse cx="46.5" cy="287.9844" fill="none" rx="3" ry="3" style="stroke:#038048;stroke-width:1.0;"/><text fill="#000000" font-family="sans-serif" font-size="14" lengthAdjust="spacing" textLength="83" x="55.5" y="293.9795">Grade : int?</text></g><!--MD5=[271b9243a8f4da23c824241d99c03b0d]
class SchulDb--><g id="elem_SchulDb"><rect codeLine="48" fill="#F1F1F1" height="121.4844" id="SchulDb" rx="2.5" ry="2.5" style="stroke:#181818;stroke-width:0.5;" width="221" x="7" y="7"/><ellipse cx="83.75" cy="23" fill="#ADD1B2" rx="11" ry="11" style="stroke:#181818;stroke-width:1.0;"/><path d="M86.0938,18.6719 C85.1563,18.2344 84.5625,18.0938 83.6875,18.0938 C81.0625,18.0938 79.0625,20.1719 79.0625,22.8906 L79.0625,24.0156 C79.0625,26.5938 81.1719,28.4844 84.0625,28.4844 C85.2813,28.4844 86.4375,28.1875 87.1875,27.6406 C87.7656,27.2344 88.0938,26.7813 88.0938,26.3906 C88.0938,25.9375 87.7031,25.5469 87.2344,25.5469 C87.0156,25.5469 86.8125,25.625 86.625,25.8125 C86.1719,26.2969 86.1719,26.2969 85.9844,26.3906 C85.5625,26.6563 84.875,26.7813 84.1094,26.7813 C82.0625,26.7813 80.7656,25.6875 80.7656,23.9844 L80.7656,22.8906 C80.7656,21.1094 82.0156,19.7969 83.75,19.7969 C84.3281,19.7969 84.9375,19.9531 85.4063,20.2031 C85.8906,20.4844 86.0625,20.7031 86.1563,21.1094 C86.2188,21.5156 86.25,21.6406 86.3906,21.7656 C86.5313,21.9063 86.7656,22.0156 86.9844,22.0156 C87.25,22.0156 87.5156,21.875 87.6875,21.6563 C87.7969,21.5 87.8281,21.3125 87.8281,20.8906 L87.8281,19.4688 C87.8281,19.0313 87.8125,18.9063 87.7188,18.75 C87.5625,18.4844 87.2813,18.3438 86.9844,18.3438 C86.6875,18.3438 86.4844,18.4375 86.2656,18.75 L86.0938,18.6719 Z " fill="#000000"/><text fill="#000000" font-family="sans-serif" font-size="14" lengthAdjust="spacing" textLength="59" x="104.25" y="27.8467">SchulDb</text><line style="stroke:#181818;stroke-width:0.5;" x1="8" x2="227" y1="39" y2="39"/><ellipse cx="18" cy="50" fill="none" rx="3" ry="3" style="stroke:#038048;stroke-width:1.0;"/><text fill="#000000" font-family="sans-serif" font-size="14" lengthAdjust="spacing" textLength="195" x="27" y="55.9951">Classes : List&lt;Schoolclass&gt;</text><ellipse cx="18" cy="66.2969" fill="none" rx="3" ry="3" style="stroke:#038048;stroke-width:1.0;"/><text fill="#000000" font-family="sans-serif" font-size="14" lengthAdjust="spacing" textLength="146" x="27" y="72.292">Exams : List&lt;Exam&gt;</text><ellipse cx="18" cy="82.5938" fill="none" rx="3" ry="3" style="stroke:#038048;stroke-width:1.0;"/><text fill="#000000" font-family="sans-serif" font-size="14" lengthAdjust="spacing" textLength="174" x="27" y="88.5889">Genders : List&lt;Gender&gt;</text><ellipse cx="18" cy="98.8906" fill="none" rx="3" ry="3" style="stroke:#038048;stroke-width:1.0;"/><text fill="#000000" font-family="sans-serif" font-size="14" lengthAdjust="spacing" textLength="161" x="27" y="104.8857">Pupils : List&lt;Student&gt;</text><ellipse cx="18" cy="115.1875" fill="none" rx="3" ry="3" style="stroke:#038048;stroke-width:1.0;"/><text fill="#000000" font-family="sans-serif" font-size="14" lengthAdjust="spacing" textLength="184" x="27" y="121.1826">Teachers : List&lt;Teacher&gt;</text></g><!--MD5=[ffe155a43fd0dea7be52bd9ef283d027]
link Schoolclass to Teacher--><g id="link_Schoolclass_Teacher"><path codeLine="22" d="M754.9549,337.0122 C754.9549,337.0122 780.256,327.2514 792.492,322.5313 " fill="none" id="Schoolclass-Teacher" style="stroke:#181818;stroke-width:1.0;"/><polygon fill="#181818" points="804.679,317.83,794.8425,317.3371,800.014,319.6295,797.7216,324.801,804.679,317.83" style="stroke:#181818;stroke-width:1.0;"/><line style="stroke:#181818;stroke-width:1.0;" x1="800.014" x2="792.5495" y1="319.6295" y2="322.5091"/><polygon fill="none" points="743.759,341.3309,750.7965,342.9035,754.9549,337.0122,747.9174,335.4396,743.759,341.3309" style="stroke:#181818;stroke-width:1.0;"/><text fill="#000000" font-family="sans-serif" font-size="13" lengthAdjust="spacing" textLength="8" x="789.1631" y="333.1514">1</text></g><!--MD5=[152c2d1def10687f43b15845c3e7e534]
link Student to Schoolclass--><g id="link_Student_Schoolclass"><path codeLine="33" d="M504.6481,330.5542 C504.6481,330.5542 529.942,338.8377 541.925,342.7619 " fill="none" id="Student-Schoolclass" style="stroke:#181818;stroke-width:1.0;"/><polygon fill="#181818" points="554.297,346.8138,546.9888,340.2116,549.5453,345.2578,544.4991,347.8143,554.297,346.8138" style="stroke:#181818;stroke-width:1.0;"/><line style="stroke:#181818;stroke-width:1.0;" x1="549.5453" x2="541.943" y1="345.2578" y2="342.7679"/><polygon fill="none" points="493.244,326.8197,497.7012,332.4883,504.6481,330.5542,500.1909,324.8856,493.244,326.8197" style="stroke:#181818;stroke-width:1.0;"/><text fill="#000000" font-family="sans-serif" font-size="13" lengthAdjust="spacing" textLength="8" x="538.4316" y="357.0427">1</text></g><!--MD5=[db5fb6e4a6db2f4bffdef83a600ca08f]
link Student to Gender--><g id="link_Student_Gender"><path codeLine="34" d="M505.1518,279.3222 C505.1518,279.3222 528.647,276.39 539.736,275.007 " fill="none" id="Student-Gender" style="stroke:#181818;stroke-width:1.0;"/><polygon fill="#181818" points="552.64,273.397,543.2142,270.5414,547.6784,274.0157,544.2041,278.4799,552.64,273.397" style="stroke:#181818;stroke-width:1.0;"/><line style="stroke:#181818;stroke-width:1.0;" x1="547.6784" x2="539.74" y1="274.0157" y2="275.006"/><polygon fill="none" points="493.244,280.807,499.6928,284.0338,505.1518,279.3222,498.7029,276.0953,493.244,280.807" style="stroke:#181818;stroke-width:1.0;"/><text fill="#000000" font-family="sans-serif" font-size="13" lengthAdjust="spacing" textLength="8" x="536.9562" y="286.9696">1</text></g><!--MD5=[bf1e2d23a7ad7631f83e0ca75bf9b61e]
link Exam to Student--><g id="link_Exam_Student"><path codeLine="45" d="M211.5159,253.438 C211.5159,253.438 254.076,263.017 274.792,267.68 " fill="none" id="Exam-Student" style="stroke:#181818;stroke-width:1.0;"/><polygon fill="#181818" points="287.586,270.56,279.6838,264.6816,282.708,269.4622,277.9274,272.4864,287.586,270.56" style="stroke:#181818;stroke-width:1.0;"/><line style="stroke:#181818;stroke-width:1.0;" x1="282.708" x2="274.904" y1="269.4622" y2="267.705"/><polygon fill="none" points="199.809,250.802,204.7838,256.0223,211.5159,253.438,206.5411,248.2177,199.809,250.802" style="stroke:#181818;stroke-width:1.0;"/><text fill="#000000" font-family="sans-serif" font-size="13" lengthAdjust="spacing" textLength="8" x="272.0686" y="281.5536">1</text></g><!--MD5=[52004f01a179e763815172e17c0d286c]
link Exam to Teacher--><g id="link_Exam_Teacher"><path codeLine="46" d="M211.5515,215.8888 C211.5515,215.8888 558.815,172.518 745,207.5 C760.657,210.442 776.719,214.767 792.438,219.829 " fill="none" id="Exam-Teacher" style="stroke:#181818;stroke-width:1.0;"/><polygon fill="#181818" points="804.956,224.033,797.6978,217.3758,800.2162,222.4412,795.1508,224.9595,804.956,224.033" style="stroke:#181818;stroke-width:1.0;"/><line style="stroke:#181818;stroke-width:1.0;" x1="800.2162" x2="792.6325" y1="222.4412" y2="219.894"/><polygon fill="none" points="199.697,217.752,206.2453,220.7719,211.5515,215.8888,205.0032,212.8689,199.697,217.752" style="stroke:#181818;stroke-width:1.0;"/><text fill="#000000" font-family="sans-serif" font-size="13" lengthAdjust="spacing" textLength="8" x="789.0921" y="233.2112">1</text></g><!--MD5=[dd1082baa7b60d0d23a5b47a39be795b]
@startuml
left to right direction
hide empty methods

class Gender {
    +GenderId : int <<unique>>
    +Name : string
}

class Teacher {
    +TeacherNr : string  <<unique>>
    +Firstname : string
    +Lastname : string
    +Email : string
}

class Schoolclass {
    +Name : string <<unique>>
    +Room : string
    +Kv : Teacher
}

Schoolclass o- -> "1" Teacher

class Student {
    +Id : int  <<unique>>
    +Firstname : string
    +Lastname : string
    +Gender : Gender
    +Schoolclass : Schoolclass
    +DateOfBirth : DateTime?
}

Student o- -> "1" Schoolclass
Student o- -> "1" Gender

class Exam {
    +Id : int  <<unique>>
    +Date : DateTime
    +Subject : string
    +Student : Student
    +Examiner : Teacher
    +Grade : int?
}

Exam o- -> "1" Student
Exam o- -> "1" Teacher

class SchulDb {
    +Classes : List<Schoolclass>
    +Exams : List<Exam>
    +Genders : List<Gender>
    +Pupils : List<Student>
    +Teachers : List<Teacher>
}
@enduml

PlantUML version 1.2022.3beta2(Unknown compile time)
(GPL source distribution)
Java Runtime: Java(TM) SE Runtime Environment
JVM: Java HotSpot(TM) 64-Bit Server VM
Default Encoding: UTF-8
Language: en
Country: US
--></g></svg>