<?xml version="1.0" encoding="UTF-8" standalone="no"?><svg xmlns="http://www.w3.org/2000/svg" xmlns:xlink="http://www.w3.org/1999/xlink" contentScriptType="application/ecmascript" contentStyleType="text/css" height="522px" preserveAspectRatio="none" style="width:965px;height:522px;background:#FFFFFF;" version="1.1" viewBox="0 0 965 522" width="965px" zoomAndPan="magnify"><defs><filter height="300%" id="f1a9nbtqkn4bqw" width="300%" x="-1" y="-1"><feGaussianBlur result="blurOut" stdDeviation="2.0"/><feColorMatrix in="blurOut" result="blurOut2" type="matrix" values="0 0 0 0 0 0 0 0 0 0 0 0 0 0 0 0 0 0 .4 0"/><feOffset dx="4.0" dy="4.0" in="blurOut2" result="blurOut3"/><feBlend in="SourceGraphic" in2="blurOut3" mode="normal"/></filter></defs><g><!--MD5=[3aa0d89c6bfdcbf7f32042cedac57549]
class Vehicle--><rect codeLine="1" fill="#FEFECE" filter="url(#f1a9nbtqkn4bqw)" height="130.7656" id="Vehicle" style="stroke:#A80036;stroke-width:1.5;" width="366" x="261" y="205"/><ellipse cx="409.75" cy="223.9688" fill="#ADD1B2" rx="11" ry="11" style="stroke:#A80036;stroke-width:1.0;"/><path d="M412.0938,219.6406 C411.1563,219.2031 410.5625,219.0625 409.6875,219.0625 C407.0625,219.0625 405.0625,221.1406 405.0625,223.8594 L405.0625,224.9844 C405.0625,227.5625 407.1719,229.4531 410.0625,229.4531 C411.2813,229.4531 412.4375,229.1563 413.1875,228.6094 C413.7656,228.2031 414.0938,227.75 414.0938,227.3594 C414.0938,226.9063 413.7031,226.5156 413.2344,226.5156 C413.0156,226.5156 412.8125,226.5938 412.625,226.7813 C412.1719,227.2656 412.1719,227.2656 411.9844,227.3594 C411.5625,227.625 410.875,227.75 410.1094,227.75 C408.0625,227.75 406.7656,226.6563 406.7656,224.9531 L406.7656,223.8594 C406.7656,222.0781 408.0156,220.7656 409.75,220.7656 C410.3281,220.7656 410.9375,220.9219 411.4063,221.1719 C411.8906,221.4531 412.0625,221.6719 412.1563,222.0781 C412.2188,222.4844 412.25,222.6094 412.3906,222.7344 C412.5313,222.875 412.7656,222.9844 412.9844,222.9844 C413.25,222.9844 413.5156,222.8438 413.6875,222.625 C413.7969,222.4688 413.8281,222.2813 413.8281,221.8594 L413.8281,220.4375 C413.8281,220 413.8125,219.875 413.7188,219.7188 C413.5625,219.4531 413.2813,219.3125 412.9844,219.3125 C412.6875,219.3125 412.4844,219.4063 412.2656,219.7188 L412.0938,219.6406 Z " fill="#000000"/><text fill="#000000" font-family="sans-serif" font-size="12" font-style="italic" lengthAdjust="spacing" textLength="64" x="428.25" y="221.1387">«abstract»</text><text fill="#000000" font-family="sans-serif" font-size="12" lengthAdjust="spacing" textLength="44" x="438.25" y="235.1074">Vehicle</text><line style="stroke:#A80036;stroke-width:1.5;" x1="262" x2="626" y1="242.9375" y2="242.9375"/><ellipse cx="272" cy="253.9375" rx="3" ry="3" style="stroke:#038048;stroke-width:1.0;fill:none;"/><text fill="#000000" font-family="sans-serif" font-size="11" lengthAdjust="spacing" textLength="114" x="281" y="257.1479">LicencePlate : string</text><ellipse cx="272" cy="266.7422" rx="3" ry="3" style="stroke:#038048;stroke-width:1.0;fill:none;"/><text fill="#000000" font-family="sans-serif" font-size="11" lengthAdjust="spacing" textLength="124" x="281" y="269.9526">PricePerDay : decimal</text><ellipse cx="272" cy="279.5469" rx="3" ry="3" style="stroke:#038048;stroke-width:1.0;fill:none;"/><text fill="#000000" font-family="sans-serif" font-size="11" lengthAdjust="spacing" textLength="59" x="281" y="282.7573">Power : int</text><ellipse cx="272" cy="292.3516" rx="3" ry="3" style="stroke:#038048;stroke-width:1.0;fill:none;"/><text fill="#000000" font-family="sans-serif" font-size="11" font-style="italic" lengthAdjust="spacing" textLength="177" x="281" y="295.562">RequiredDrivingLicence : string</text><line style="stroke:#A80036;stroke-width:1.0;" x1="262" x2="626" y1="302.1563" y2="302.1563"/><ellipse cx="272" cy="313.1563" fill="#84BE84" rx="3" ry="3" style="stroke:#038048;stroke-width:1.0;"/><text fill="#000000" font-family="sans-serif" font-size="11" lengthAdjust="spacing" textLength="340" x="281" y="316.3667">Vehicle(string licencePlate, decimal pricePerDay, int power)</text><ellipse cx="272" cy="325.9609" fill="#84BE84" rx="3" ry="3" style="stroke:#038048;stroke-width:1.0;"/><text fill="#000000" font-family="sans-serif" font-size="11" font-style="italic" lengthAdjust="spacing" textLength="218" x="281" y="329.1714">CalculatePrice(int days, int kilometers)</text><!--MD5=[810373fc1a93f4d2097b8385b2d2d749]
class Motorcycle--><rect codeLine="11" fill="#FEFECE" filter="url(#f1a9nbtqkn4bqw)" height="86.4141" id="Motorcycle" style="stroke:#A80036;stroke-width:1.5;" width="384" x="7" y="409"/><ellipse cx="161.25" cy="425" fill="#ADD1B2" rx="11" ry="11" style="stroke:#A80036;stroke-width:1.0;"/><path d="M163.5938,420.6719 C162.6563,420.2344 162.0625,420.0938 161.1875,420.0938 C158.5625,420.0938 156.5625,422.1719 156.5625,424.8906 L156.5625,426.0156 C156.5625,428.5938 158.6719,430.4844 161.5625,430.4844 C162.7813,430.4844 163.9375,430.1875 164.6875,429.6406 C165.2656,429.2344 165.5938,428.7813 165.5938,428.3906 C165.5938,427.9375 165.2031,427.5469 164.7344,427.5469 C164.5156,427.5469 164.3125,427.625 164.125,427.8125 C163.6719,428.2969 163.6719,428.2969 163.4844,428.3906 C163.0625,428.6563 162.375,428.7813 161.6094,428.7813 C159.5625,428.7813 158.2656,427.6875 158.2656,425.9844 L158.2656,424.8906 C158.2656,423.1094 159.5156,421.7969 161.25,421.7969 C161.8281,421.7969 162.4375,421.9531 162.9063,422.2031 C163.3906,422.4844 163.5625,422.7031 163.6563,423.1094 C163.7188,423.5156 163.75,423.6406 163.8906,423.7656 C164.0313,423.9063 164.2656,424.0156 164.4844,424.0156 C164.75,424.0156 165.0156,423.875 165.1875,423.6563 C165.2969,423.5 165.3281,423.3125 165.3281,422.8906 L165.3281,421.4688 C165.3281,421.0313 165.3125,420.9063 165.2188,420.75 C165.0625,420.4844 164.7813,420.3438 164.4844,420.3438 C164.1875,420.3438 163.9844,420.4375 163.7656,420.75 L163.5938,420.6719 Z " fill="#000000"/><text fill="#000000" font-family="sans-serif" font-size="12" lengthAdjust="spacing" textLength="67" x="181.75" y="429.1543">Motorcycle</text><line style="stroke:#A80036;stroke-width:1.5;" x1="8" x2="390" y1="441" y2="441"/><ellipse cx="18" cy="452" rx="3" ry="3" style="stroke:#038048;stroke-width:1.0;fill:none;"/><text fill="#000000" font-family="sans-serif" font-size="11" lengthAdjust="spacing" textLength="177" x="27" y="455.2104">RequiredDrivingLicence : string</text><line style="stroke:#A80036;stroke-width:1.0;" x1="8" x2="390" y1="461.8047" y2="461.8047"/><ellipse cx="18" cy="472.8047" fill="#84BE84" rx="3" ry="3" style="stroke:#038048;stroke-width:1.0;"/><text fill="#000000" font-family="sans-serif" font-size="11" lengthAdjust="spacing" textLength="358" x="27" y="476.0151">Motorcycle(string licencePlate, decimal pricePerDay, int power)</text><ellipse cx="18" cy="485.6094" fill="#84BE84" rx="3" ry="3" style="stroke:#038048;stroke-width:1.0;"/><text fill="#000000" font-family="sans-serif" font-size="11" lengthAdjust="spacing" textLength="267" x="27" y="488.8198">decimal CalculatePrice(int days, int kilometers)</text><!--MD5=[3f0ef310aaa84a542276992c5216544d]
class Car--><rect codeLine="19" fill="#FEFECE" filter="url(#f1a9nbtqkn4bqw)" height="112.0234" id="Car" style="stroke:#A80036;stroke-width:1.5;" width="525" x="426.5" y="396"/><ellipse cx="674.75" cy="412" fill="#ADD1B2" rx="11" ry="11" style="stroke:#A80036;stroke-width:1.0;"/><path d="M677.0938,407.6719 C676.1563,407.2344 675.5625,407.0938 674.6875,407.0938 C672.0625,407.0938 670.0625,409.1719 670.0625,411.8906 L670.0625,413.0156 C670.0625,415.5938 672.1719,417.4844 675.0625,417.4844 C676.2813,417.4844 677.4375,417.1875 678.1875,416.6406 C678.7656,416.2344 679.0938,415.7813 679.0938,415.3906 C679.0938,414.9375 678.7031,414.5469 678.2344,414.5469 C678.0156,414.5469 677.8125,414.625 677.625,414.8125 C677.1719,415.2969 677.1719,415.2969 676.9844,415.3906 C676.5625,415.6563 675.875,415.7813 675.1094,415.7813 C673.0625,415.7813 671.7656,414.6875 671.7656,412.9844 L671.7656,411.8906 C671.7656,410.1094 673.0156,408.7969 674.75,408.7969 C675.3281,408.7969 675.9375,408.9531 676.4063,409.2031 C676.8906,409.4844 677.0625,409.7031 677.1563,410.1094 C677.2188,410.5156 677.25,410.6406 677.3906,410.7656 C677.5313,410.9063 677.7656,411.0156 677.9844,411.0156 C678.25,411.0156 678.5156,410.875 678.6875,410.6563 C678.7969,410.5 678.8281,410.3125 678.8281,409.8906 L678.8281,408.4688 C678.8281,408.0313 678.8125,407.9063 678.7188,407.75 C678.5625,407.4844 678.2813,407.3438 677.9844,407.3438 C677.6875,407.3438 677.4844,407.4375 677.2656,407.75 L677.0938,407.6719 Z " fill="#000000"/><text fill="#000000" font-family="sans-serif" font-size="12" lengthAdjust="spacing" textLength="20" x="695.25" y="416.1543">Car</text><line style="stroke:#A80036;stroke-width:1.5;" x1="427.5" x2="950.5" y1="428" y2="428"/><ellipse cx="437.5" cy="439" rx="3" ry="3" style="stroke:#038048;stroke-width:1.0;fill:none;"/><text fill="#000000" font-family="sans-serif" font-size="11" lengthAdjust="spacing" textLength="119" x="446.5" y="442.2104">PricePerKm : decimal</text><ellipse cx="437.5" cy="451.8047" rx="3" ry="3" style="stroke:#038048;stroke-width:1.0;fill:none;"/><text fill="#000000" font-family="sans-serif" font-size="11" lengthAdjust="spacing" textLength="96" x="446.5" y="455.0151">Weight : decimal</text><ellipse cx="437.5" cy="464.6094" rx="3" ry="3" style="stroke:#038048;stroke-width:1.0;fill:none;"/><text fill="#000000" font-family="sans-serif" font-size="11" lengthAdjust="spacing" textLength="177" x="446.5" y="467.8198">RequiredDrivingLicence : string</text><line style="stroke:#A80036;stroke-width:1.0;" x1="427.5" x2="950.5" y1="474.4141" y2="474.4141"/><ellipse cx="437.5" cy="485.4141" fill="#84BE84" rx="3" ry="3" style="stroke:#038048;stroke-width:1.0;"/><text fill="#000000" font-family="sans-serif" font-size="11" lengthAdjust="spacing" textLength="499" x="446.5" y="488.6245">Car(string licencePlate, decimal pricePerDay, int power, decimal pricePerKm, int weight)</text><ellipse cx="437.5" cy="498.2188" fill="#84BE84" rx="3" ry="3" style="stroke:#038048;stroke-width:1.0;"/><text fill="#000000" font-family="sans-serif" font-size="11" lengthAdjust="spacing" textLength="267" x="446.5" y="501.4292">decimal CalculatePrice(int days, int kilometers)</text><!--MD5=[2ce0c9fb7f55b1e256ab28a8ea6b25ec]
class Customer--><rect codeLine="30" fill="#FEFECE" filter="url(#f1a9nbtqkn4bqw)" height="73.6094" id="Customer" style="stroke:#A80036;stroke-width:1.5;" width="124" x="662" y="233.5"/><ellipse cx="692.3" cy="249.5" fill="#ADD1B2" rx="11" ry="11" style="stroke:#A80036;stroke-width:1.0;"/><path d="M694.6438,245.1719 C693.7063,244.7344 693.1125,244.5938 692.2375,244.5938 C689.6125,244.5938 687.6125,246.6719 687.6125,249.3906 L687.6125,250.5156 C687.6125,253.0938 689.7219,254.9844 692.6125,254.9844 C693.8313,254.9844 694.9875,254.6875 695.7375,254.1406 C696.3156,253.7344 696.6438,253.2813 696.6438,252.8906 C696.6438,252.4375 696.2531,252.0469 695.7844,252.0469 C695.5656,252.0469 695.3625,252.125 695.175,252.3125 C694.7219,252.7969 694.7219,252.7969 694.5344,252.8906 C694.1125,253.1563 693.425,253.2813 692.6594,253.2813 C690.6125,253.2813 689.3156,252.1875 689.3156,250.4844 L689.3156,249.3906 C689.3156,247.6094 690.5656,246.2969 692.3,246.2969 C692.8781,246.2969 693.4875,246.4531 693.9563,246.7031 C694.4406,246.9844 694.6125,247.2031 694.7063,247.6094 C694.7688,248.0156 694.8,248.1406 694.9406,248.2656 C695.0813,248.4063 695.3156,248.5156 695.5344,248.5156 C695.8,248.5156 696.0656,248.375 696.2375,248.1563 C696.3469,248 696.3781,247.8125 696.3781,247.3906 L696.3781,245.9688 C696.3781,245.5313 696.3625,245.4063 696.2688,245.25 C696.1125,244.9844 695.8313,244.8438 695.5344,244.8438 C695.2375,244.8438 695.0344,244.9375 694.8156,245.25 L694.6438,245.1719 Z " fill="#000000"/><text fill="#000000" font-family="sans-serif" font-size="12" lengthAdjust="spacing" textLength="58" x="709.7" y="253.6543">Customer</text><line style="stroke:#A80036;stroke-width:1.5;" x1="663" x2="785" y1="265.5" y2="265.5"/><ellipse cx="673" cy="276.5" rx="3" ry="3" style="stroke:#038048;stroke-width:1.0;fill:none;"/><text fill="#000000" font-family="sans-serif" font-size="11" lengthAdjust="spacing" textLength="98" x="682" y="279.7104">Firstname : string</text><ellipse cx="673" cy="289.3047" rx="3" ry="3" style="stroke:#038048;stroke-width:1.0;fill:none;"/><text fill="#000000" font-family="sans-serif" font-size="11" lengthAdjust="spacing" textLength="98" x="682" y="292.5151">Lastname : string</text><line style="stroke:#A80036;stroke-width:1.5;" x1="663" x2="785" y1="299.1094" y2="299.1094"/><!--MD5=[931c2459a5b1ef2b405e84c8dc93c38e]
class Rental--><rect codeLine="35" fill="#FEFECE" filter="url(#f1a9nbtqkn4bqw)" height="137.6328" id="Rental" style="stroke:#A80036;stroke-width:1.5;" width="163" x="502.5" y="7"/><ellipse cx="561.75" cy="23" fill="#ADD1B2" rx="11" ry="11" style="stroke:#A80036;stroke-width:1.0;"/><path d="M564.0938,18.6719 C563.1563,18.2344 562.5625,18.0938 561.6875,18.0938 C559.0625,18.0938 557.0625,20.1719 557.0625,22.8906 L557.0625,24.0156 C557.0625,26.5938 559.1719,28.4844 562.0625,28.4844 C563.2813,28.4844 564.4375,28.1875 565.1875,27.6406 C565.7656,27.2344 566.0938,26.7813 566.0938,26.3906 C566.0938,25.9375 565.7031,25.5469 565.2344,25.5469 C565.0156,25.5469 564.8125,25.625 564.625,25.8125 C564.1719,26.2969 564.1719,26.2969 563.9844,26.3906 C563.5625,26.6563 562.875,26.7813 562.1094,26.7813 C560.0625,26.7813 558.7656,25.6875 558.7656,23.9844 L558.7656,22.8906 C558.7656,21.1094 560.0156,19.7969 561.75,19.7969 C562.3281,19.7969 562.9375,19.9531 563.4063,20.2031 C563.8906,20.4844 564.0625,20.7031 564.1563,21.1094 C564.2188,21.5156 564.25,21.6406 564.3906,21.7656 C564.5313,21.9063 564.7656,22.0156 564.9844,22.0156 C565.25,22.0156 565.5156,21.875 565.6875,21.6563 C565.7969,21.5 565.8281,21.3125 565.8281,20.8906 L565.8281,19.4688 C565.8281,19.0313 565.8125,18.9063 565.7188,18.75 C565.5625,18.4844 565.2813,18.3438 564.9844,18.3438 C564.6875,18.3438 564.4844,18.4375 564.2656,18.75 L564.0938,18.6719 Z " fill="#000000"/><text fill="#000000" font-family="sans-serif" font-size="12" lengthAdjust="spacing" textLength="36" x="582.25" y="27.1543">Rental</text><line style="stroke:#A80036;stroke-width:1.5;" x1="503.5" x2="664.5" y1="39" y2="39"/><ellipse cx="513.5" cy="50" rx="3" ry="3" style="stroke:#038048;stroke-width:1.0;fill:none;"/><text fill="#000000" font-family="sans-serif" font-size="11" lengthAdjust="spacing" textLength="95" x="522.5" y="53.2104">Start : DateTime</text><ellipse cx="513.5" cy="62.8047" rx="3" ry="3" style="stroke:#038048;stroke-width:1.0;fill:none;"/><text fill="#000000" font-family="sans-serif" font-size="11" lengthAdjust="spacing" textLength="121" x="522.5" y="66.0151">Customer : Customer</text><ellipse cx="513.5" cy="75.6094" rx="3" ry="3" style="stroke:#038048;stroke-width:1.0;fill:none;"/><text fill="#000000" font-family="sans-serif" font-size="11" lengthAdjust="spacing" textLength="97" x="522.5" y="78.8198">Vehicle : Vehicle</text><ellipse cx="513.5" cy="88.4141" rx="3" ry="3" style="stroke:#038048;stroke-width:1.0;fill:none;"/><text fill="#000000" font-family="sans-serif" font-size="11" lengthAdjust="spacing" textLength="119" x="522.5" y="91.6245">KilometersBegin : int</text><ellipse cx="513.5" cy="101.2188" rx="3" ry="3" style="stroke:#038048;stroke-width:1.0;fill:none;"/><text fill="#000000" font-family="sans-serif" font-size="11" lengthAdjust="spacing" textLength="113" x="522.5" y="104.4292">KilometersEnd : int?</text><ellipse cx="513.5" cy="114.0234" rx="3" ry="3" style="stroke:#038048;stroke-width:1.0;fill:none;"/><text fill="#000000" font-family="sans-serif" font-size="11" lengthAdjust="spacing" textLength="101" x="522.5" y="117.2339">RentedDays : int?</text><line style="stroke:#A80036;stroke-width:1.0;" x1="503.5" x2="664.5" y1="123.8281" y2="123.8281"/><ellipse cx="513.5" cy="134.8281" fill="#84BE84" rx="3" ry="3" style="stroke:#038048;stroke-width:1.0;"/><text fill="#000000" font-family="sans-serif" font-size="11" lengthAdjust="spacing" textLength="137" x="522.5" y="138.0386">decimal CalculatePrice()</text><!--MD5=[5437b71c4263c18bb97f8e8b4edef371]
reverse link Vehicle to Motorcycle--><path codeLine="17" d="M339.377,348.153 C310.983,368.955 281.28,390.717 256.547,408.8377 " fill="none" id="Vehicle-backto-Motorcycle" style="stroke:#A80036;stroke-width:1.0;"/><polygon fill="none" points="335.625,342.224,355.896,336.05,343.899,353.517,335.625,342.224" style="stroke:#A80036;stroke-width:1.0;"/><!--MD5=[22dd0d5001cffe3a5a97c942353cd104]
reverse link Vehicle to Car--><path codeLine="28" d="M548.331,347.938 C570.332,364.057 593.132,380.762 613.808,395.91 " fill="none" id="Vehicle-backto-Car" style="stroke:#A80036;stroke-width:1.0;"/><polygon fill="none" points="544.101,353.517,532.104,336.05,552.375,342.224,544.101,353.517" style="stroke:#A80036;stroke-width:1.0;"/><!--MD5=[50c82b61edc8de05a988610c8f82de81]
link Rental to Customer--><path codeLine="46" d="M633.556,145.139 C654.004,173.256 677.004,204.88 694.693,229.203 " fill="none" id="Rental-to-Customer" style="stroke:#A80036;stroke-width:1.0;"/><polygon fill="#A80036" points="697.708,233.348,695.6476,223.7171,694.7664,229.3049,689.1786,228.4237,697.708,233.348" style="stroke:#A80036;stroke-width:1.0;"/><!--MD5=[526a4784047f24a32a110e0b78cc8673]
link Rental to Vehicle--><path codeLine="47" d="M534.444,145.139 C521.354,163.138 507.219,182.574 494.1,200.612 " fill="none" id="Rental-to-Vehicle" style="stroke:#A80036;stroke-width:1.0;"/><polygon fill="#A80036" points="491.142,204.68,499.6706,199.7542,494.0829,200.6364,493.2008,195.0487,491.142,204.68" style="stroke:#A80036;stroke-width:1.0;"/><!--MD5=[01cf02454a8e535d3f7509ba9b9c5abe]
@startuml
class Vehicle <<abstract>> {
    +LicencePlate : string
    +PricePerDay : decimal
    +Power : int
    +{abstract} RequiredDrivingLicence : string
    - - -
    +Vehicle(string licencePlate, decimal pricePerDay, int power)
    +{abstract} CalculatePrice(int days, int kilometers)
}

class Motorcycle {
    +RequiredDrivingLicence : string
    - - -
    +Motorcycle(string licencePlate, decimal pricePerDay, int power)
    +decimal CalculatePrice(int days, int kilometers)
}
Motorcycle -up-|> Vehicle

class Car {
    +PricePerKm : decimal
    +Weight : decimal
    +RequiredDrivingLicence : string
    - - -
    +Car(string licencePlate, decimal pricePerDay, int power, decimal pricePerKm, int weight)
    +decimal CalculatePrice(int days, int kilometers)
}

Car -up-|> Vehicle

class Customer {
    +Firstname : string
    +Lastname : string
}

class Rental {
    +Start : DateTime
    +Customer : Customer
    +Vehicle : Vehicle
    +KilometersBegin : int
    +KilometersEnd : int?
    +RentedDays : int?
    - - -
    +decimal CalculatePrice()
}

Rental - -> Customer
Rental - -> Vehicle
@enduml

PlantUML version 1.2022.1beta1(Unknown compile time)
(GPL source distribution)
Java Runtime: Java(TM) SE Runtime Environment
JVM: Java HotSpot(TM) 64-Bit Server VM
Default Encoding: UTF-8
Language: en
Country: US
--></g></svg>