<?xml version="1.0" encoding="UTF-8" standalone="no"?><svg xmlns="http://www.w3.org/2000/svg" xmlns:xlink="http://www.w3.org/1999/xlink" contentScriptType="application/ecmascript" contentStyleType="text/css" height="476px" preserveAspectRatio="none" style="width:987px;height:476px;background:#FFFFFF;" version="1.1" viewBox="0 0 987 476" width="987px" zoomAndPan="magnify"><defs><filter height="300%" id="fxee7wijsg0ur" width="300%" x="-1" y="-1"><feGaussianBlur result="blurOut" stdDeviation="2.0"/><feColorMatrix in="blurOut" result="blurOut2" type="matrix" values="0 0 0 0 0 0 0 0 0 0 0 0 0 0 0 0 0 0 .4 0"/><feOffset dx="4.0" dy="4.0" in="blurOut2" result="blurOut3"/><feBlend in="SourceGraphic" in2="blurOut3" mode="normal"/></filter></defs><g><!--MD5=[110d3e1b3848a9f83035e0cf17801c91]
class Applicant--><rect codeLine="3" fill="#FEFECE" filter="url(#fxee7wijsg0ur)" height="150.4375" id="Applicant" style="stroke:#A80036;stroke-width:1.5;" width="263" x="710.5" y="179"/><ellipse cx="810.25" cy="195" fill="#ADD1B2" rx="11" ry="11" style="stroke:#A80036;stroke-width:1.0;"/><path d="M812.5938,190.6719 C811.6563,190.2344 811.0625,190.0938 810.1875,190.0938 C807.5625,190.0938 805.5625,192.1719 805.5625,194.8906 L805.5625,196.0156 C805.5625,198.5938 807.6719,200.4844 810.5625,200.4844 C811.7813,200.4844 812.9375,200.1875 813.6875,199.6406 C814.2656,199.2344 814.5938,198.7813 814.5938,198.3906 C814.5938,197.9375 814.2031,197.5469 813.7344,197.5469 C813.5156,197.5469 813.3125,197.625 813.125,197.8125 C812.6719,198.2969 812.6719,198.2969 812.4844,198.3906 C812.0625,198.6563 811.375,198.7813 810.6094,198.7813 C808.5625,198.7813 807.2656,197.6875 807.2656,195.9844 L807.2656,194.8906 C807.2656,193.1094 808.5156,191.7969 810.25,191.7969 C810.8281,191.7969 811.4375,191.9531 811.9063,192.2031 C812.3906,192.4844 812.5625,192.7031 812.6563,193.1094 C812.7188,193.5156 812.75,193.6406 812.8906,193.7656 C813.0313,193.9063 813.2656,194.0156 813.4844,194.0156 C813.75,194.0156 814.0156,193.875 814.1875,193.6563 C814.2969,193.5 814.3281,193.3125 814.3281,192.8906 L814.3281,191.4688 C814.3281,191.0313 814.3125,190.9063 814.2188,190.75 C814.0625,190.4844 813.7813,190.3438 813.4844,190.3438 C813.1875,190.3438 812.9844,190.4375 812.7656,190.75 L812.5938,190.6719 Z " fill="#000000"/><text fill="#000000" font-family="sans-serif" font-size="12" lengthAdjust="spacing" textLength="55" x="830.75" y="199.1543">Applicant</text><line style="stroke:#A80036;stroke-width:1.5;" x1="711.5" x2="972.5" y1="211" y2="211"/><ellipse cx="721.5" cy="222" rx="3" ry="3" style="stroke:#038048;stroke-width:1.0;fill:none;"/><text fill="#000000" font-family="sans-serif" font-size="11" lengthAdjust="spacing" textLength="35" x="730.5" y="225.2104">Id : int</text><ellipse cx="721.5" cy="234.8047" rx="3" ry="3" style="stroke:#038048;stroke-width:1.0;fill:none;"/><text fill="#000000" font-family="sans-serif" font-size="11" lengthAdjust="spacing" textLength="98" x="730.5" y="238.0151">Firstname : string</text><ellipse cx="721.5" cy="247.6094" rx="3" ry="3" style="stroke:#038048;stroke-width:1.0;fill:none;"/><text fill="#000000" font-family="sans-serif" font-size="11" lengthAdjust="spacing" textLength="98" x="730.5" y="250.8198">Lastname : string</text><ellipse cx="721.5" cy="260.4141" rx="3" ry="3" style="stroke:#038048;stroke-width:1.0;fill:none;"/><text fill="#000000" font-family="sans-serif" font-size="11" lengthAdjust="spacing" textLength="73" x="730.5" y="263.6245">Email : string</text><ellipse cx="721.5" cy="273.2188" rx="3" ry="3" style="stroke:#038048;stroke-width:1.0;fill:none;"/><text fill="#000000" font-family="sans-serif" font-size="11" lengthAdjust="spacing" textLength="111" x="730.5" y="276.4292">Department : string</text><ellipse cx="721.5" cy="286.0234" rx="3" ry="3" style="stroke:#038048;stroke-width:1.0;fill:none;"/><text fill="#000000" font-family="sans-serif" font-size="11" lengthAdjust="spacing" textLength="237" x="730.5" y="289.2339">Grades : IReadOnlyDictionary&lt;string, int&gt;</text><line style="stroke:#A80036;stroke-width:1.0;" x1="711.5" x2="972.5" y1="295.8281" y2="295.8281"/><polygon fill="#FFFF44" points="721.5,301.8281,725.5,305.8281,721.5,309.8281,717.5,305.8281" style="stroke:#B38D22;stroke-width:1.0;"/><text fill="#000000" font-family="sans-serif" font-size="11" lengthAdjust="spacing" textLength="146" x="730.5" y="310.0386">Applicant(Applicant other)</text><ellipse cx="721.5" cy="319.6328" fill="#84BE84" rx="3" ry="3" style="stroke:#038048;stroke-width:1.0;"/><text fill="#000000" font-family="sans-serif" font-size="11" lengthAdjust="spacing" textLength="226" x="730.5" y="322.8433">bool AddGrade(string subject, int value)</text><!--MD5=[2c44ce037e948b635b95c00e32b9ef4b]
class AcceptedApplicant--><rect codeLine="16" fill="#FEFECE" filter="url(#fxee7wijsg0ur)" height="73.6094" id="AcceptedApplicant" style="stroke:#A80036;stroke-width:1.5;" width="203" x="740.5" y="389"/><ellipse cx="781.6" cy="405" fill="#ADD1B2" rx="11" ry="11" style="stroke:#A80036;stroke-width:1.0;"/><path d="M783.9438,400.6719 C783.0063,400.2344 782.4125,400.0938 781.5375,400.0938 C778.9125,400.0938 776.9125,402.1719 776.9125,404.8906 L776.9125,406.0156 C776.9125,408.5938 779.0219,410.4844 781.9125,410.4844 C783.1313,410.4844 784.2875,410.1875 785.0375,409.6406 C785.6156,409.2344 785.9438,408.7813 785.9438,408.3906 C785.9438,407.9375 785.5531,407.5469 785.0844,407.5469 C784.8656,407.5469 784.6625,407.625 784.475,407.8125 C784.0219,408.2969 784.0219,408.2969 783.8344,408.3906 C783.4125,408.6563 782.725,408.7813 781.9594,408.7813 C779.9125,408.7813 778.6156,407.6875 778.6156,405.9844 L778.6156,404.8906 C778.6156,403.1094 779.8656,401.7969 781.6,401.7969 C782.1781,401.7969 782.7875,401.9531 783.2563,402.2031 C783.7406,402.4844 783.9125,402.7031 784.0063,403.1094 C784.0688,403.5156 784.1,403.6406 784.2406,403.7656 C784.3813,403.9063 784.6156,404.0156 784.8344,404.0156 C785.1,404.0156 785.3656,403.875 785.5375,403.6563 C785.6469,403.5 785.6781,403.3125 785.6781,402.8906 L785.6781,401.4688 C785.6781,401.0313 785.6625,400.9063 785.5688,400.75 C785.4125,400.4844 785.1313,400.3438 784.8344,400.3438 C784.5375,400.3438 784.3344,400.4375 784.1156,400.75 L783.9438,400.6719 Z " fill="#000000"/><text fill="#000000" font-family="sans-serif" font-size="12" lengthAdjust="spacing" textLength="113" x="801.4" y="409.1543">AcceptedApplicant</text><line style="stroke:#A80036;stroke-width:1.5;" x1="741.5" x2="942.5" y1="421" y2="421"/><ellipse cx="751.5" cy="432" rx="3" ry="3" style="stroke:#038048;stroke-width:1.0;fill:none;"/><text fill="#000000" font-family="sans-serif" font-size="11" lengthAdjust="spacing" textLength="150" x="760.5" y="435.2104">DateAccepted : DateTime</text><line style="stroke:#A80036;stroke-width:1.0;" x1="741.5" x2="942.5" y1="441.8047" y2="441.8047"/><ellipse cx="751.5" cy="452.8047" fill="#84BE84" rx="3" ry="3" style="stroke:#038048;stroke-width:1.0;"/><text fill="#000000" font-family="sans-serif" font-size="11" lengthAdjust="spacing" textLength="177" x="760.5" y="456.0151">AcceptedApplicant(Applicant a)</text><!--MD5=[c3a9ccd345cf2cc60bc0b27df3d774d3]
class RegistrationService--><rect codeLine="25" fill="#FEFECE" filter="url(#fxee7wijsg0ur)" height="112.0234" id="RegistrationService" style="stroke:#A80036;stroke-width:1.5;" width="469" x="442.5" y="7"/><ellipse cx="614.25" cy="23" fill="#ADD1B2" rx="11" ry="11" style="stroke:#A80036;stroke-width:1.0;"/><path d="M616.5938,18.6719 C615.6563,18.2344 615.0625,18.0938 614.1875,18.0938 C611.5625,18.0938 609.5625,20.1719 609.5625,22.8906 L609.5625,24.0156 C609.5625,26.5938 611.6719,28.4844 614.5625,28.4844 C615.7813,28.4844 616.9375,28.1875 617.6875,27.6406 C618.2656,27.2344 618.5938,26.7813 618.5938,26.3906 C618.5938,25.9375 618.2031,25.5469 617.7344,25.5469 C617.5156,25.5469 617.3125,25.625 617.125,25.8125 C616.6719,26.2969 616.6719,26.2969 616.4844,26.3906 C616.0625,26.6563 615.375,26.7813 614.6094,26.7813 C612.5625,26.7813 611.2656,25.6875 611.2656,23.9844 L611.2656,22.8906 C611.2656,21.1094 612.5156,19.7969 614.25,19.7969 C614.8281,19.7969 615.4375,19.9531 615.9063,20.2031 C616.3906,20.4844 616.5625,20.7031 616.6563,21.1094 C616.7188,21.5156 616.75,21.6406 616.8906,21.7656 C617.0313,21.9063 617.2656,22.0156 617.4844,22.0156 C617.75,22.0156 618.0156,21.875 618.1875,21.6563 C618.2969,21.5 618.3281,21.3125 618.3281,20.8906 L618.3281,19.4688 C618.3281,19.0313 618.3125,18.9063 618.2188,18.75 C618.0625,18.4844 617.7813,18.3438 617.4844,18.3438 C617.1875,18.3438 616.9844,18.4375 616.7656,18.75 L616.5938,18.6719 Z " fill="#000000"/><text fill="#000000" font-family="sans-serif" font-size="12" lengthAdjust="spacing" textLength="117" x="634.75" y="27.1543">RegistrationService</text><line style="stroke:#A80036;stroke-width:1.5;" x1="443.5" x2="910.5" y1="39" y2="39"/><ellipse cx="453.5" cy="50" rx="3" ry="3" style="stroke:#038048;stroke-width:1.0;fill:none;"/><text fill="#000000" font-family="sans-serif" font-size="11" lengthAdjust="spacing" textLength="216" x="462.5" y="53.2104">Applicants : IReadOnlyList&lt;Applicant&gt;</text><line style="stroke:#A80036;stroke-width:1.0;" x1="443.5" x2="910.5" y1="59.8047" y2="59.8047"/><ellipse cx="453.5" cy="70.8047" fill="#84BE84" rx="3" ry="3" style="stroke:#038048;stroke-width:1.0;"/><text fill="#000000" font-family="sans-serif" font-size="11" lengthAdjust="spacing" textLength="217" x="462.5" y="74.0151">bool AddApplicant(Applicant applicant)</text><ellipse cx="453.5" cy="83.6094" fill="#84BE84" rx="3" ry="3" style="stroke:#038048;stroke-width:1.0;"/><text fill="#000000" font-family="sans-serif" font-size="11" lengthAdjust="spacing" textLength="155" x="462.5" y="86.8198">bool AcceptApplicant(int id)</text><ellipse cx="453.5" cy="96.4141" fill="#84BE84" rx="3" ry="3" style="stroke:#038048;stroke-width:1.0;"/><text fill="#000000" font-family="sans-serif" font-size="11" lengthAdjust="spacing" textLength="215" x="462.5" y="99.6245">int CountAccepted(string department)</text><ellipse cx="453.5" cy="109.2188" fill="#84BE84" rx="3" ry="3" style="stroke:#038048;stroke-width:1.0;"/><text fill="#000000" font-family="sans-serif" font-size="11" lengthAdjust="spacing" textLength="443" x="462.5" y="112.4292">void RegisterGradeChecker(string department, IGradeChecker gradeChecker)</text><!--MD5=[1a2ce1d8e2a41bb47592be3607dd0e39]
class IGradeChecker--><rect codeLine="38" fill="#FEFECE" filter="url(#fxee7wijsg0ur)" height="52.8047" id="IGradeChecker" style="stroke:#A80036;stroke-width:1.5;" width="324" x="351" y="227.5"/><ellipse cx="464.25" cy="243.5" fill="#B4A7E5" rx="11" ry="11" style="stroke:#A80036;stroke-width:1.0;"/><path d="M465.2031,240.2813 L466.9219,240.2813 C467.3125,240.2813 467.5,240.25 467.625,240.1719 C467.8906,240.0156 468.0313,239.7344 468.0313,239.4375 C468.0313,239.1719 467.9219,238.9063 467.6875,238.7344 C467.5156,238.625 467.375,238.5938 466.9219,238.5938 L461.7813,238.5938 C461.3438,238.5938 461.2188,238.6094 461.0625,238.7031 C460.8125,238.8594 460.6563,239.1563 460.6563,239.4375 C460.6563,239.7188 460.7969,239.9688 461.0156,240.1406 C461.1719,240.25 461.3594,240.2813 461.7813,240.2813 L463.5,240.2813 L463.5,246.7969 L461.7813,246.7969 C461.3438,246.7969 461.2188,246.8125 461.0625,246.9219 C460.8125,247.0781 460.6563,247.3594 460.6563,247.6563 C460.6563,247.9063 460.7969,248.1719 461.0156,248.3281 C461.1719,248.4531 461.375,248.5 461.7813,248.5 L466.9219,248.5 C467.6719,248.5 468.0313,248.2188 468.0313,247.6563 C468.0313,247.375 467.9219,247.125 467.6875,246.9531 C467.5156,246.8281 467.375,246.7969 466.9219,246.7969 L465.2031,246.7969 L465.2031,240.2813 Z " fill="#000000"/><text fill="#000000" font-family="sans-serif" font-size="12" font-style="italic" lengthAdjust="spacing" textLength="89" x="484.75" y="247.6543">IGradeChecker</text><line style="stroke:#A80036;stroke-width:1.5;" x1="352" x2="674" y1="259.5" y2="259.5"/><ellipse cx="362" cy="270.5" fill="#84BE84" rx="3" ry="3" style="stroke:#038048;stroke-width:1.0;"/><text fill="#000000" font-family="sans-serif" font-size="11" lengthAdjust="spacing" textLength="298" x="371" y="273.7104">bool CanBeAccepted(Dictionary&lt;string, int&gt; grades)</text><!--MD5=[3becc39a0fba188c0f60f159f719a3d7]
class HtlGradeChecker--><rect codeLine="43" fill="#FEFECE" filter="url(#fxee7wijsg0ur)" height="52.8047" id="HtlGradeChecker" style="stroke:#A80036;stroke-width:1.5;" width="324" x="7" y="399.5"/><ellipse cx="113.25" cy="415.5" fill="#ADD1B2" rx="11" ry="11" style="stroke:#A80036;stroke-width:1.0;"/><path d="M115.5938,411.1719 C114.6563,410.7344 114.0625,410.5938 113.1875,410.5938 C110.5625,410.5938 108.5625,412.6719 108.5625,415.3906 L108.5625,416.5156 C108.5625,419.0938 110.6719,420.9844 113.5625,420.9844 C114.7813,420.9844 115.9375,420.6875 116.6875,420.1406 C117.2656,419.7344 117.5938,419.2813 117.5938,418.8906 C117.5938,418.4375 117.2031,418.0469 116.7344,418.0469 C116.5156,418.0469 116.3125,418.125 116.125,418.3125 C115.6719,418.7969 115.6719,418.7969 115.4844,418.8906 C115.0625,419.1563 114.375,419.2813 113.6094,419.2813 C111.5625,419.2813 110.2656,418.1875 110.2656,416.4844 L110.2656,415.3906 C110.2656,413.6094 111.5156,412.2969 113.25,412.2969 C113.8281,412.2969 114.4375,412.4531 114.9063,412.7031 C115.3906,412.9844 115.5625,413.2031 115.6563,413.6094 C115.7188,414.0156 115.75,414.1406 115.8906,414.2656 C116.0313,414.4063 116.2656,414.5156 116.4844,414.5156 C116.75,414.5156 117.0156,414.375 117.1875,414.1563 C117.2969,414 117.3281,413.8125 117.3281,413.3906 L117.3281,411.9688 C117.3281,411.5313 117.3125,411.4063 117.2188,411.25 C117.0625,410.9844 116.7813,410.8438 116.4844,410.8438 C116.1875,410.8438 115.9844,410.9375 115.7656,411.25 L115.5938,411.1719 Z " fill="#000000"/><text fill="#000000" font-family="sans-serif" font-size="12" lengthAdjust="spacing" textLength="103" x="133.75" y="419.6543">HtlGradeChecker</text><line style="stroke:#A80036;stroke-width:1.5;" x1="8" x2="330" y1="431.5" y2="431.5"/><ellipse cx="18" cy="442.5" fill="#84BE84" rx="3" ry="3" style="stroke:#038048;stroke-width:1.0;"/><text fill="#000000" font-family="sans-serif" font-size="11" lengthAdjust="spacing" textLength="298" x="27" y="445.7104">bool CanBeAccepted(Dictionary&lt;string, int&gt; grades)</text><!--MD5=[5af34436acb683494b924d5230ace4c6]
class FsGradeChecker--><rect codeLine="48" fill="#FEFECE" filter="url(#fxee7wijsg0ur)" height="52.8047" id="FsGradeChecker" style="stroke:#A80036;stroke-width:1.5;" width="324" x="366" y="399.5"/><ellipse cx="473.25" cy="415.5" fill="#ADD1B2" rx="11" ry="11" style="stroke:#A80036;stroke-width:1.0;"/><path d="M475.5938,411.1719 C474.6563,410.7344 474.0625,410.5938 473.1875,410.5938 C470.5625,410.5938 468.5625,412.6719 468.5625,415.3906 L468.5625,416.5156 C468.5625,419.0938 470.6719,420.9844 473.5625,420.9844 C474.7813,420.9844 475.9375,420.6875 476.6875,420.1406 C477.2656,419.7344 477.5938,419.2813 477.5938,418.8906 C477.5938,418.4375 477.2031,418.0469 476.7344,418.0469 C476.5156,418.0469 476.3125,418.125 476.125,418.3125 C475.6719,418.7969 475.6719,418.7969 475.4844,418.8906 C475.0625,419.1563 474.375,419.2813 473.6094,419.2813 C471.5625,419.2813 470.2656,418.1875 470.2656,416.4844 L470.2656,415.3906 C470.2656,413.6094 471.5156,412.2969 473.25,412.2969 C473.8281,412.2969 474.4375,412.4531 474.9063,412.7031 C475.3906,412.9844 475.5625,413.2031 475.6563,413.6094 C475.7188,414.0156 475.75,414.1406 475.8906,414.2656 C476.0313,414.4063 476.2656,414.5156 476.4844,414.5156 C476.75,414.5156 477.0156,414.375 477.1875,414.1563 C477.2969,414 477.3281,413.8125 477.3281,413.3906 L477.3281,411.9688 C477.3281,411.5313 477.3125,411.4063 477.2188,411.25 C477.0625,410.9844 476.7813,410.8438 476.4844,410.8438 C476.1875,410.8438 475.9844,410.9375 475.7656,411.25 L475.5938,411.1719 Z " fill="#000000"/><text fill="#000000" font-family="sans-serif" font-size="12" lengthAdjust="spacing" textLength="101" x="493.75" y="419.6543">FsGradeChecker</text><line style="stroke:#A80036;stroke-width:1.5;" x1="367" x2="689" y1="431.5" y2="431.5"/><ellipse cx="377" cy="442.5" fill="#84BE84" rx="3" ry="3" style="stroke:#038048;stroke-width:1.0;"/><text fill="#000000" font-family="sans-serif" font-size="11" lengthAdjust="spacing" textLength="298" x="386" y="445.7104">bool CanBeAccepted(Dictionary&lt;string, int&gt; grades)</text><!--MD5=[e78fb757dfce65169661bbd7076a3d3c]
reverse link Applicant to AcceptedApplicant--><path codeLine="23" d="M842,349.123 C842,363.2643 842,377.0647 842,388.9344 " fill="none" id="Applicant-backto-AcceptedApplicant" style="stroke:#A80036;stroke-width:1.0;"/><polygon fill="none" points="835,349.07,842,329.07,849,349.07,835,349.07" style="stroke:#A80036;stroke-width:1.0;"/><!--MD5=[6337ac33f421ec9a114745d5e9ca9d3c]
link RegistrationService to IGradeChecker--><path codeLine="35" d="M621.2593,128.2384 C621.2593,128.2384 565.501,192.496 543.929,217.356 " fill="none" id="RegistrationService-IGradeChecker" style="stroke:#A80036;stroke-width:1.0;"/><polygon fill="#A80036" points="535.198,227.418,544.1177,223.242,538.475,223.6416,538.0754,217.9988,535.198,227.418" style="stroke:#A80036;stroke-width:1.0;"/><line style="stroke:#A80036;stroke-width:1.0;" x1="538.475" x2="543.7175" y1="223.6416" y2="217.6"/><polygon fill="#FFFFFF" points="629.124,119.175,622.1705,121.0851,621.2593,128.2384,628.2128,126.3283,629.124,119.175" style="stroke:#A80036;stroke-width:1.0;"/><!--MD5=[c0d2c1469e3dac9f9d9afaed1ab6f609]
link RegistrationService to Applicant--><path codeLine="36" d="M733.0596,128.2151 C733.0596,128.2151 756.754,155.355 768.378,168.669 " fill="none" id="RegistrationService-Applicant" style="stroke:#A80036;stroke-width:1.0;"/><polygon fill="#A80036" points="777.205,178.78,774.2998,169.3694,773.9169,175.0133,768.273,174.6304,777.205,178.78" style="stroke:#A80036;stroke-width:1.0;"/><line style="stroke:#A80036;stroke-width:1.0;" x1="773.9169" x2="768.6555" y1="175.0133" y2="168.987"/><polygon fill="#FFFFFF" points="725.168,119.175,726.1004,126.3256,733.0596,128.2151,732.1272,121.0645,725.168,119.175" style="stroke:#A80036;stroke-width:1.0;"/><!--MD5=[254c0c24f92609bb33729f127f1d9fc3]
reverse link IGradeChecker to HtlGradeChecker--><path codeLine="53" d="M443.008,289.589 C377.101,322.16 279.906,370.192 220.731,399.435 " fill="none" id="IGradeChecker-backto-HtlGradeChecker" style="stroke:#A80036;stroke-width:1.0;"/><polygon fill="none" points="440.096,283.22,461.127,280.635,446.299,295.771,440.096,283.22" style="stroke:#A80036;stroke-width:1.0;"/><!--MD5=[89e23fe0f2b40d9ed2ba2caa227b97c8]
reverse link IGradeChecker to FsGradeChecker--><path codeLine="54" d="M517.056,300.964 C519.849,332.619 523.456,373.5017 525.75,399.4947 " fill="none" id="IGradeChecker-backto-FsGradeChecker" style="stroke:#A80036;stroke-width:1.0;"/><polygon fill="none" points="510.063,301.357,515.278,280.819,524.009,300.127,510.063,301.357" style="stroke:#A80036;stroke-width:1.0;"/><!--MD5=[d27308da173e64840ab67f57da7759f4]
@startuml
hide empty fields

class Applicant 
{
    +Id : int
    +Firstname : string
    +Lastname : string
    +Email : string
    +Department : string
    +Grades : IReadOnlyDictionary<string, int>
    - - -
    #Applicant(Applicant other)
    +bool AddGrade(string subject, int value)
}

class AcceptedApplicant
{
    +DateAccepted : DateTime
    - - -
    +AcceptedApplicant(Applicant a)
}

AcceptedApplicant -up-|> Applicant

class RegistrationService
{
    +Applicants : IReadOnlyList<Applicant>
    - - -
    +bool AddApplicant(Applicant applicant)
    +bool AcceptApplicant(int id)
    +int CountAccepted(string department)
    +void RegisterGradeChecker(string department, IGradeChecker gradeChecker)
}

RegistrationService o- -> IGradeChecker
RegistrationService o- -> Applicant

interface IGradeChecker
{
    +bool CanBeAccepted(Dictionary<string, int> grades)  
}

class HtlGradeChecker
{
    +bool CanBeAccepted(Dictionary<string, int> grades)  
}

class FsGradeChecker
{
    +bool CanBeAccepted(Dictionary<string, int> grades)  
}

HtlGradeChecker -up-|> IGradeChecker
FsGradeChecker -up-|> IGradeChecker
@enduml

PlantUML version 1.2021.13beta6(Unknown compile time)
(GPL source distribution)
Java Runtime: Java(TM) SE Runtime Environment
JVM: Java HotSpot(TM) 64-Bit Server VM
Default Encoding: UTF-8
Language: en
Country: US
--></g></svg>