<svg xmlns="http://www.w3.org/2000/svg" xmlns:xlink="http://www.w3.org/1999/xlink" contentStyleType="text/css" data-diagram-type="CLASS" height="102px" preserveAspectRatio="none" style="width:417px;height:102px;background:#FFFFFF;" version="1.1" viewBox="0 0 417 102" width="417px" zoomAndPan="magnify"><defs/><g><!--class Customer--><g class="entity" data-entity="Customer" data-source-line="4" data-uid="ent0002" id="entity_Customer"><rect fill="#F1F1F1" height="88.8906" rx="2.5" ry="2.5" style="stroke:#181818;stroke-width:0.5;" width="189.3174" x="7" y="7"/><ellipse cx="63.4067" cy="23" fill="#ADD1B2" rx="11" ry="11" style="stroke:#181818;stroke-width:1;"/><path d="M66.3755,28.6406 Q65.7974,28.9375 65.1567,29.0781 Q64.5161,29.2344 63.813,29.2344 Q61.313,29.2344 59.9849,27.5938 Q58.6724,25.9375 58.6724,22.8125 Q58.6724,19.6875 59.9849,18.0313 Q61.313,16.375 63.813,16.375 Q64.5161,16.375 65.1567,16.5313 Q65.813,16.6875 66.3755,16.9844 L66.3755,19.7031 Q65.7505,19.125 65.1567,18.8594 Q64.563,18.5781 63.938,18.5781 Q62.5942,18.5781 61.9067,19.6563 Q61.2192,20.7188 61.2192,22.8125 Q61.2192,24.9063 61.9067,25.9844 Q62.5942,27.0469 63.938,27.0469 Q64.563,27.0469 65.1567,26.7813 Q65.7505,26.5 66.3755,25.9219 L66.3755,28.6406 Z " fill="#000000"/><text fill="#000000" font-family="sans-serif" font-size="14" lengthAdjust="spacing" textLength="68.0039" x="83.9067" y="27.8467">Customer</text><line style="stroke:#181818;stroke-width:0.5;" x1="8" x2="195.3174" y1="39" y2="39"/><ellipse cx="18" cy="52.6484" fill="none" rx="3" ry="3" style="stroke:#038048;stroke-width:1;"/><text fill="#000000" font-family="sans-serif" font-size="14" lengthAdjust="spacing" textLength="163.3174" x="27" y="55.9951">Firstname : string &#171;nn&#187;</text><ellipse cx="18" cy="68.9453" fill="none" rx="3" ry="3" style="stroke:#038048;stroke-width:1;"/><text fill="#000000" font-family="sans-serif" font-size="14" lengthAdjust="spacing" textLength="161.998" x="27" y="72.292">Lastname : string &#171;nn&#187;</text><ellipse cx="18" cy="85.2422" fill="none" rx="3" ry="3" style="stroke:#038048;stroke-width:1;"/><text fill="#000000" font-family="sans-serif" font-size="14" lengthAdjust="spacing" textLength="130.6279" x="27" y="88.5889">Email : Email &#171;nn&#187;</text></g><!--class Email--><g class="entity" data-entity="Email" data-source-line="10" data-uid="ent0003" id="entity_Email"><rect fill="#F1F1F1" height="64.5625" rx="2.5" ry="2.5" style="stroke:#181818;stroke-width:0.5;" width="154.2148" x="256.32" y="19.16"/><ellipse cx="296.6211" cy="39.2928" fill="#FFEECC" rx="11" ry="11" style="stroke:#181818;stroke-width:1;"/><path d="M297.8242,39.4334 Q298.1836,39.5116 298.4492,39.7928 Q298.7304,40.0584 299.1211,40.8397 L301.3554,45.2928 L298.6679,45.2928 L297.1679,42.1678 Q297.1054,42.0272 296.9961,41.7928 Q296.3398,40.4022 295.4492,40.4022 L294.6679,40.4022 L294.6679,45.2928 L292.2304,45.2928 L292.2304,32.9022 L295.7617,32.9022 Q298.1523,32.9022 299.1836,33.7459 Q300.2304,34.5897 300.2304,36.4959 Q300.2304,37.7772 299.6054,38.5428 Q298.9961,39.2928 297.8242,39.4334 Z M294.6679,34.9647 L294.6679,38.3397 L295.8242,38.3397 Q296.8398,38.3397 297.2617,37.9491 Q297.6992,37.5428 297.6992,36.6366 Q297.6992,35.7459 297.2617,35.3553 Q296.8398,34.9647 295.8242,34.9647 L294.6679,34.9647 Z " fill="#000000"/><text fill="#000000" font-family="sans-serif" font-size="12" font-style="italic" lengthAdjust="spacing" textLength="69.9902" x="314.2435" y="35.2987">&#171;RichType&#187;</text><text fill="#000000" font-family="sans-serif" font-size="14" lengthAdjust="spacing" textLength="38.8418" x="329.8178" y="51.1239">Email</text><line style="stroke:#181818;stroke-width:0.5;" x1="257.32" x2="409.5348" y1="59.4256" y2="59.4256"/><ellipse cx="267.32" cy="73.0741" fill="none" rx="3" ry="3" style="stroke:#038048;stroke-width:1;"/><text fill="#000000" font-family="sans-serif" font-size="14" lengthAdjust="spacing" textLength="128.2148" x="276.32" y="76.4207">Value: string &#171;nn&#187;</text></g><!--link Customer to Email--><g class="link" data-entity-1="Customer" data-entity-2="Email" data-source-line="14" data-uid="lnk4" id="link_Customer_Email"><path codeLine="14" d="M196.78,51.44 C216.48,51.44 237.03,51.44 256,51.44" fill="none" id="Customer-Email" style="stroke:#181818;stroke-width:1;"/></g><!--SRC=[VOwz2i9048JxUue16qNp0XAk2Kbb5OBzaQovXVi9TviYYEzk8CR2mcaMveDlnz538169HoiOE54l78EoF138JxB0azWuPALwPt96DMU9dXAU2clE3QSimNZ25LaIXn5b6OBM6xwPVxJsXjsAjliXh_tLtkBONWvDKzTLTKBBlUsMYQ3rFk5kt4o__jNodLeKc-iD]--></g></svg>