<svg xmlns="http://www.w3.org/2000/svg" xmlns:xlink="http://www.w3.org/1999/xlink" contentStyleType="text/css" data-diagram-type="CLASS" height="601px" preserveAspectRatio="none" style="width:1253px;height:601px;background:#FFFFFF;" version="1.1" viewBox="0 0 1253 601" width="1253px" zoomAndPan="magnify"><defs/><g><!--class Customer--><g class="entity" data-entity="Customer" data-source-line="3" data-uid="ent0002" id="entity_Customer"><rect fill="#F1F1F1" height="72.5938" rx="2.5" ry="2.5" style="stroke:#181818;stroke-width:0.5;" width="189.3174" x="505.1" y="217.88"/><ellipse cx="561.5067" cy="233.88" fill="#ADD1B2" rx="11" ry="11" style="stroke:#181818;stroke-width:1;"/><path d="M564.4755,239.5206 Q563.8974,239.8175 563.2567,239.9581 Q562.6161,240.1144 561.913,240.1144 Q559.413,240.1144 558.0849,238.4738 Q556.7724,236.8175 556.7724,233.6925 Q556.7724,230.5675 558.0849,228.9113 Q559.413,227.255 561.913,227.255 Q562.6161,227.255 563.2567,227.4113 Q563.913,227.5675 564.4755,227.8644 L564.4755,230.5831 Q563.8505,230.005 563.2567,229.7394 Q562.663,229.4581 562.038,229.4581 Q560.6942,229.4581 560.0067,230.5363 Q559.3192,231.5988 559.3192,233.6925 Q559.3192,235.7863 560.0067,236.8644 Q560.6942,237.9269 562.038,237.9269 Q562.663,237.9269 563.2567,237.6613 Q563.8505,237.38 564.4755,236.8019 L564.4755,239.5206 Z " fill="#000000"/><text fill="#000000" font-family="sans-serif" font-size="14" lengthAdjust="spacing" textLength="68.0039" x="582.0067" y="238.7267">Customer</text><line style="stroke:#181818;stroke-width:0.5;" x1="506.1" x2="693.4174" y1="249.88" y2="249.88"/><ellipse cx="516.1" cy="263.5284" fill="none" rx="3" ry="3" style="stroke:#038048;stroke-width:1;"/><text fill="#000000" font-family="sans-serif" font-size="14" lengthAdjust="spacing" textLength="163.3174" x="525.1" y="266.8751">Firstname : string &#171;nn&#187;</text><ellipse cx="516.1" cy="279.8253" fill="none" rx="3" ry="3" style="stroke:#038048;stroke-width:1;"/><text fill="#000000" font-family="sans-serif" font-size="14" lengthAdjust="spacing" textLength="161.998" x="525.1" y="283.172">Lastname : string &#171;nn&#187;</text></g><!--class Email--><g class="entity" data-entity="Email" data-source-line="8" data-uid="ent0003" id="entity_Email"><rect fill="#F1F1F1" height="64.5625" rx="2.5" ry="2.5" style="stroke:#181818;stroke-width:0.5;" width="154.2148" x="983.65" y="39.59"/><ellipse cx="1023.9511" cy="59.7228" fill="#FFEECC" rx="11" ry="11" style="stroke:#181818;stroke-width:1;"/><path d="M1025.1542,59.8634 Q1025.5136,59.9416 1025.7792,60.2228 Q1026.0604,60.4884 1026.4511,61.2697 L1028.6854,65.7228 L1025.9979,65.7228 L1024.4979,62.5978 Q1024.4354,62.4572 1024.3261,62.2228 Q1023.6698,60.8322 1022.7792,60.8322 L1021.9979,60.8322 L1021.9979,65.7228 L1019.5604,65.7228 L1019.5604,53.3322 L1023.0917,53.3322 Q1025.4823,53.3322 1026.5136,54.1759 Q1027.5604,55.0197 1027.5604,56.9259 Q1027.5604,58.2072 1026.9354,58.9728 Q1026.3261,59.7228 1025.1542,59.8634 Z M1021.9979,55.3947 L1021.9979,58.7697 L1023.1542,58.7697 Q1024.1698,58.7697 1024.5917,58.3791 Q1025.0292,57.9728 1025.0292,57.0666 Q1025.0292,56.1759 1024.5917,55.7853 Q1024.1698,55.3947 1023.1542,55.3947 L1021.9979,55.3947 Z " fill="#000000"/><text fill="#000000" font-family="sans-serif" font-size="12" font-style="italic" lengthAdjust="spacing" textLength="69.9902" x="1041.5735" y="55.7287">&#171;RichType&#187;</text><text fill="#000000" font-family="sans-serif" font-size="14" lengthAdjust="spacing" textLength="38.8418" x="1057.1478" y="71.5539">Email</text><line style="stroke:#181818;stroke-width:0.5;" x1="984.65" x2="1136.8648" y1="79.8556" y2="79.8556"/><ellipse cx="994.65" cy="93.5041" fill="none" rx="3" ry="3" style="stroke:#038048;stroke-width:1;"/><text fill="#000000" font-family="sans-serif" font-size="14" lengthAdjust="spacing" textLength="128.2148" x="1003.65" y="96.8507">Value: string &#171;nn&#187;</text></g><!--class Order--><g class="entity" data-entity="Order" data-source-line="12" data-uid="ent0004" id="entity_Order"><rect fill="#F1F1F1" height="129.75" rx="2.5" ry="2.5" style="stroke:#181818;stroke-width:0.5;" width="233.1221" x="572.2" y="7"/><ellipse cx="661.7522" cy="27.1328" fill="#A9DCDF" rx="11" ry="11" style="stroke:#181818;stroke-width:1;"/><path d="M661.8616,22.4766 L660.7054,27.5547 L663.0335,27.5547 L661.8616,22.4766 Z M660.3772,20.2422 L663.3616,20.2422 L666.721,32.6328 L664.2679,32.6328 L663.5022,29.5703 L660.221,29.5703 L659.471,32.6328 L657.0335,32.6328 L660.3772,20.2422 Z " fill="#000000"/><text fill="#000000" font-family="sans-serif" font-size="12" font-style="italic" lengthAdjust="spacing" textLength="49.5176" x="680.2522" y="23.1387">&#171;entity&#187;</text><text fill="#000000" font-family="sans-serif" font-size="14" font-style="italic" lengthAdjust="spacing" textLength="40.0313" x="684.9954" y="38.9639">Order</text><line style="stroke:#181818;stroke-width:0.5;" x1="573.2" x2="804.3221" y1="47.2656" y2="47.2656"/><ellipse cx="583.2" cy="60.9141" fill="none" rx="3" ry="3" style="stroke:#038048;stroke-width:1;"/><text fill="#000000" font-family="sans-serif" font-size="14" lengthAdjust="spacing" textLength="184.502" x="592.2" y="64.2607">Customer: Customer &#171;nn&#187;</text><ellipse cx="583.2" cy="77.2109" fill="none" rx="3" ry="3" style="stroke:#038048;stroke-width:1;"/><text fill="#000000" font-family="sans-serif" font-size="14" lengthAdjust="spacing" textLength="187.4277" x="592.2" y="80.5576">CreatedAt: DateTime &#171;nn&#187;</text><ellipse cx="583.2" cy="93.5078" fill="none" rx="3" ry="3" style="stroke:#038048;stroke-width:1;"/><text fill="#000000" font-family="sans-serif" font-size="14" lengthAdjust="spacing" textLength="193.7783" x="592.2" y="96.8545">TotalAmount: decimal &#171;nn&#187;</text><ellipse cx="583.2" cy="109.8047" fill="none" rx="3" ry="3" style="stroke:#038048;stroke-width:1;"/><text fill="#000000" font-family="sans-serif" font-size="14" lengthAdjust="spacing" textLength="207.1221" x="592.2" y="113.1514">OrderState : OrderState &#171;nn&#187;</text><ellipse cx="583.2" cy="126.1016" fill="none" rx="3" ry="3" style="stroke:#038048;stroke-width:1;"/><text fill="#000000" font-family="sans-serif" font-size="14" lengthAdjust="spacing" textLength="167.501" x="592.2" y="129.4482">OrderType : string &#171;nn&#187;</text></g><path d="M840.57,54.3 L840.57,62.8664 L759.701,124.6016 L840.57,70.8664 L840.57,79.4328 A0,0 0 0 0 840.57,79.4328 L948.9455,79.4328 A0,0 0 0 0 948.9455,79.4328 L948.9455,64.3 L938.9455,54.3 L840.57,54.3 A0,0 0 0 0 840.57,54.3" fill="#FEFFDD" style="stroke:#181818;stroke-width:0.5;"/><path d="M938.9455,54.3 L938.9455,64.3 L948.9455,64.3 L938.9455,54.3" fill="#FEFFDD" style="stroke:#181818;stroke-width:0.5;"/><text fill="#000000" font-family="sans-serif" font-size="13" lengthAdjust="spacing" textLength="87.3755" x="846.57" y="71.3669">Discriminator</text><!--class Address--><g class="entity" data-entity="Address" data-source-line="26" data-uid="ent0008" id="entity_Address"><rect fill="#F1F1F1" height="97.1563" rx="2.5" ry="2.5" style="stroke:#181818;stroke-width:0.5;" width="157.5303" x="775" y="355.6"/><ellipse cx="808.8459" cy="375.7328" fill="#CCEEFF" rx="11" ry="11" style="stroke:#181818;stroke-width:1;"/><path d="M808.9553,380.1859 L811.1428,369.8422 L813.6116,369.8422 L810.6584,382.2328 L807.2678,382.2328 L804.3147,369.8422 L806.7834,369.8422 L808.9553,380.1859 Z " fill="#000000"/><text fill="#000000" font-family="sans-serif" font-size="12" font-style="italic" lengthAdjust="spacing" textLength="87.6504" x="825.0339" y="371.7387">&#171;ValueObject&#187;</text><text fill="#000000" font-family="sans-serif" font-size="14" lengthAdjust="spacing" textLength="56.3076" x="840.7053" y="387.5639">Address</text><line style="stroke:#181818;stroke-width:0.5;" x1="776" x2="931.5303" y1="395.8656" y2="395.8656"/><ellipse cx="786" cy="409.5141" fill="none" rx="3" ry="3" style="stroke:#038048;stroke-width:1;"/><text fill="#000000" font-family="sans-serif" font-size="14" lengthAdjust="spacing" textLength="131.5303" x="795" y="412.8607">Street: string &#171;nn&#187;</text><ellipse cx="786" cy="425.8109" fill="none" rx="3" ry="3" style="stroke:#038048;stroke-width:1;"/><text fill="#000000" font-family="sans-serif" font-size="14" lengthAdjust="spacing" textLength="111.0498" x="795" y="429.1576">Zip: string &#171;nn&#187;</text><ellipse cx="786" cy="442.1078" fill="none" rx="3" ry="3" style="stroke:#038048;stroke-width:1;"/><text fill="#000000" font-family="sans-serif" font-size="14" lengthAdjust="spacing" textLength="116.1221" x="795" y="445.4545">City: string &#171;nn&#187;</text></g><!--class OnlineOrder--><g class="entity" data-entity="OnlineOrder" data-source-line="32" data-uid="ent0009" id="entity_OnlineOrder"><rect fill="#F1F1F1" height="80.8594" rx="2.5" ry="2.5" style="stroke:#181818;stroke-width:0.5;" width="248.1816" x="729.67" y="213.75"/><ellipse cx="806.9161" cy="233.8828" fill="#ADD1B2" rx="11" ry="11" style="stroke:#181818;stroke-width:1;"/><path d="M809.8848,239.5234 Q809.3067,239.8203 808.6661,239.9609 Q808.0255,240.1172 807.3223,240.1172 Q804.8223,240.1172 803.4942,238.4766 Q802.1817,236.8203 802.1817,233.6953 Q802.1817,230.5703 803.4942,228.9141 Q804.8223,227.2578 807.3223,227.2578 Q808.0255,227.2578 808.6661,227.4141 Q809.3223,227.5703 809.8848,227.8672 L809.8848,230.5859 Q809.2598,230.0078 808.6661,229.7422 Q808.0723,229.4609 807.4473,229.4609 Q806.1036,229.4609 805.4161,230.5391 Q804.7286,231.6016 804.7286,233.6953 Q804.7286,235.7891 805.4161,236.8672 Q806.1036,237.9297 807.4473,237.9297 Q808.0723,237.9297 808.6661,237.6641 Q809.2598,237.3828 809.8848,236.8047 L809.8848,239.5234 Z " fill="#000000"/><text fill="#000000" font-family="sans-serif" font-size="12" font-style="italic" lengthAdjust="spacing" textLength="49.5176" x="845.252" y="229.8887">&#171;entity&#187;</text><text fill="#000000" font-family="sans-serif" font-size="14" lengthAdjust="spacing" textLength="85.1895" x="827.4161" y="245.7139">OnlineOrder</text><line style="stroke:#181818;stroke-width:0.5;" x1="730.67" x2="976.8516" y1="254.0156" y2="254.0156"/><ellipse cx="740.67" cy="267.6641" fill="none" rx="3" ry="3" style="stroke:#038048;stroke-width:1;"/><text fill="#000000" font-family="sans-serif" font-size="14" lengthAdjust="spacing" textLength="126.1777" x="749.67" y="271.0107">Email: Email &#171;nn&#187;</text><ellipse cx="740.67" cy="283.9609" fill="none" rx="3" ry="3" style="stroke:#038048;stroke-width:1;"/><text fill="#000000" font-family="sans-serif" font-size="14" lengthAdjust="spacing" textLength="222.1816" x="749.67" y="287.3076">ShippingAddress: Address &#171;nn&#187;</text></g><!--class StorePickupOrder--><g class="entity" data-entity="StorePickupOrder" data-source-line="39" data-uid="ent0011" id="entity_StorePickupOrder"><rect fill="#F1F1F1" height="80.8594" rx="2.5" ry="2.5" style="stroke:#181818;stroke-width:0.5;" width="233.7305" x="1012.9" y="213.75"/><ellipse cx="1063.8961" cy="233.8828" fill="#ADD1B2" rx="11" ry="11" style="stroke:#181818;stroke-width:1;"/><path d="M1066.8648,239.5234 Q1066.2867,239.8203 1065.6461,239.9609 Q1065.0055,240.1172 1064.3023,240.1172 Q1061.8023,240.1172 1060.4742,238.4766 Q1059.1617,236.8203 1059.1617,233.6953 Q1059.1617,230.5703 1060.4742,228.9141 Q1061.8023,227.2578 1064.3023,227.2578 Q1065.0055,227.2578 1065.6461,227.4141 Q1066.3023,227.5703 1066.8648,227.8672 L1066.8648,230.5859 Q1066.2398,230.0078 1065.6461,229.7422 Q1065.0523,229.4609 1064.4273,229.4609 Q1063.0836,229.4609 1062.3961,230.5391 Q1061.7086,231.6016 1061.7086,233.6953 Q1061.7086,235.7891 1062.3961,236.8672 Q1063.0836,237.9297 1064.4273,237.9297 Q1065.0523,237.9297 1065.6461,237.6641 Q1066.2398,237.3828 1066.8648,236.8047 L1066.8648,239.5234 Z " fill="#000000"/><text fill="#000000" font-family="sans-serif" font-size="12" font-style="italic" lengthAdjust="spacing" textLength="49.5176" x="1121.2564" y="229.8887">&#171;entity&#187;</text><text fill="#000000" font-family="sans-serif" font-size="14" lengthAdjust="spacing" textLength="123.2383" x="1084.3961" y="245.7139">StorePickupOrder</text><line style="stroke:#181818;stroke-width:0.5;" x1="1013.9" x2="1245.6305" y1="254.0156" y2="254.0156"/><ellipse cx="1023.9" cy="267.6641" fill="none" rx="3" ry="3" style="stroke:#038048;stroke-width:1;"/><text fill="#000000" font-family="sans-serif" font-size="14" lengthAdjust="spacing" textLength="207.7305" x="1032.9" y="271.0107">PickupStoreCode: string &#171;nn&#187;</text><ellipse cx="1023.9" cy="283.9609" fill="none" rx="3" ry="3" style="stroke:#038048;stroke-width:1;"/><text fill="#000000" font-family="sans-serif" font-size="14" lengthAdjust="spacing" textLength="198.5566" x="1032.9" y="287.3076">PickupFrom: DateTime &#171;nn&#187;</text></g><!--class OrderState--><g class="entity" data-entity="OrderState" data-source-line="44" data-uid="ent0012" id="entity_OrderState"><rect fill="#F1F1F1" height="97.1563" rx="2.5" ry="2.5" style="stroke:#181818;stroke-width:0.5;" width="220.2021" x="273.66" y="355.6"/><ellipse cx="340.9666" cy="375.7328" fill="#A9DCDF" rx="11" ry="11" style="stroke:#181818;stroke-width:1;"/><path d="M341.076,371.0766 L339.9198,376.1547 L342.2479,376.1547 L341.076,371.0766 Z M339.5916,368.8422 L342.576,368.8422 L345.9354,381.2328 L343.4823,381.2328 L342.7166,378.1703 L339.4354,378.1703 L338.6854,381.2328 L336.2479,381.2328 L339.5916,368.8422 Z " fill="#000000"/><text fill="#000000" font-family="sans-serif" font-size="12" font-style="italic" lengthAdjust="spacing" textLength="49.5176" x="375.2523" y="371.7387">&#171;entity&#187;</text><text fill="#000000" font-family="sans-serif" font-size="14" font-style="italic" lengthAdjust="spacing" textLength="77.0889" x="361.4666" y="387.5639">OrderState</text><line style="stroke:#181818;stroke-width:0.5;" x1="274.66" x2="492.8621" y1="395.8656" y2="395.8656"/><ellipse cx="284.66" cy="409.5141" fill="none" rx="3" ry="3" style="stroke:#038048;stroke-width:1;"/><text fill="#000000" font-family="sans-serif" font-size="14" lengthAdjust="spacing" textLength="194.2021" x="293.66" y="412.8607">ChangedAt: DateTime &#171;nn&#187;</text><ellipse cx="284.66" cy="425.8109" fill="none" rx="3" ry="3" style="stroke:#038048;stroke-width:1;"/><text fill="#000000" font-family="sans-serif" font-size="14" lengthAdjust="spacing" textLength="140.335" x="293.66" y="429.1576">Reason: string &#171;nn&#187;</text><ellipse cx="284.66" cy="442.1078" fill="none" rx="3" ry="3" style="stroke:#038048;stroke-width:1;"/><text fill="#000000" font-family="sans-serif" font-size="14" lengthAdjust="spacing" textLength="183.3262" x="293.66" y="445.4545">CurrentState : string &#171;nn&#187;</text></g><path d="M528.57,386.62 L528.57,395.1864 L476.9862,440.6078 L528.57,403.1864 L528.57,411.7528 A0,0 0 0 0 528.57,411.7528 L636.9455,411.7528 A0,0 0 0 0 636.9455,411.7528 L636.9455,396.62 L626.9455,386.62 L528.57,386.62 A0,0 0 0 0 528.57,386.62" fill="#FEFFDD" style="stroke:#181818;stroke-width:0.5;"/><path d="M626.9455,386.62 L626.9455,396.62 L636.9455,396.62 L626.9455,386.62" fill="#FEFFDD" style="stroke:#181818;stroke-width:0.5;"/><text fill="#000000" font-family="sans-serif" font-size="13" lengthAdjust="spacing" textLength="87.3755" x="534.57" y="403.6869">Discriminator</text><!--class PendingState--><g class="entity" data-entity="PendingState" data-source-line="55" data-uid="ent0015" id="entity_PendingState"><rect fill="#F1F1F1" height="48.2656" rx="2.5" ry="2.5" style="stroke:#181818;stroke-width:0.5;" width="125.5225" x="7" y="530.06"/><ellipse cx="22" cy="550.1928" fill="#ADD1B2" rx="11" ry="11" style="stroke:#181818;stroke-width:1;"/><path d="M24.9688,555.8334 Q24.3906,556.1303 23.75,556.2709 Q23.1094,556.4272 22.4063,556.4272 Q19.9063,556.4272 18.5781,554.7866 Q17.2656,553.1303 17.2656,550.0053 Q17.2656,546.8803 18.5781,545.2241 Q19.9063,543.5678 22.4063,543.5678 Q23.1094,543.5678 23.75,543.7241 Q24.4063,543.8803 24.9688,544.1772 L24.9688,546.8959 Q24.3438,546.3178 23.75,546.0522 Q23.1563,545.7709 22.5313,545.7709 Q21.1875,545.7709 20.5,546.8491 Q19.8125,547.9116 19.8125,550.0053 Q19.8125,552.0991 20.5,553.1772 Q21.1875,554.2397 22.5313,554.2397 Q23.1563,554.2397 23.75,553.9741 Q24.3438,553.6928 24.9688,553.1147 L24.9688,555.8334 Z " fill="#000000"/><text fill="#000000" font-family="sans-serif" font-size="12" font-style="italic" lengthAdjust="spacing" textLength="49.5176" x="58.0024" y="546.1987">&#171;entity&#187;</text><text fill="#000000" font-family="sans-serif" font-size="14" lengthAdjust="spacing" textLength="93.5225" x="36" y="562.0239">PendingState</text><line style="stroke:#181818;stroke-width:0.5;" x1="8" x2="131.5225" y1="570.3256" y2="570.3256"/></g><!--class PaidState--><g class="entity" data-entity="PaidState" data-source-line="57" data-uid="ent0016" id="entity_PaidState"><rect fill="#F1F1F1" height="64.5625" rx="2.5" ry="2.5" style="stroke:#181818;stroke-width:0.5;" width="187.5127" x="168" y="521.91"/><ellipse cx="224.0786" cy="542.0428" fill="#ADD1B2" rx="11" ry="11" style="stroke:#181818;stroke-width:1;"/><path d="M227.0474,547.6834 Q226.4692,547.9803 225.8286,548.1209 Q225.188,548.2772 224.4849,548.2772 Q221.9849,548.2772 220.6567,546.6366 Q219.3442,544.9803 219.3442,541.8553 Q219.3442,538.7303 220.6567,537.0741 Q221.9849,535.4178 224.4849,535.4178 Q225.188,535.4178 225.8286,535.5741 Q226.4849,535.7303 227.0474,536.0272 L227.0474,538.7459 Q226.4224,538.1678 225.8286,537.9022 Q225.2349,537.6209 224.6099,537.6209 Q223.2661,537.6209 222.5786,538.6991 Q221.8911,539.7616 221.8911,541.8553 Q221.8911,543.9491 222.5786,545.0272 Q223.2661,546.0897 224.6099,546.0897 Q225.2349,546.0897 225.8286,545.8241 Q226.4224,545.5428 227.0474,544.9647 L227.0474,547.6834 Z " fill="#000000"/><text fill="#000000" font-family="sans-serif" font-size="12" font-style="italic" lengthAdjust="spacing" textLength="49.5176" x="253.2476" y="538.0487">&#171;entity&#187;</text><text fill="#000000" font-family="sans-serif" font-size="14" lengthAdjust="spacing" textLength="66.8555" x="244.5786" y="553.8739">PaidState</text><line style="stroke:#181818;stroke-width:0.5;" x1="169" x2="354.5127" y1="562.1756" y2="562.1756"/><ellipse cx="179" cy="575.8241" fill="none" rx="3" ry="3" style="stroke:#038048;stroke-width:1;"/><text fill="#000000" font-family="sans-serif" font-size="14" lengthAdjust="spacing" textLength="161.5127" x="188" y="579.1707">PaidAt: DateTime &#171;nn&#187;</text></g><!--class ShippedState--><g class="entity" data-entity="ShippedState" data-source-line="60" data-uid="ent0017" id="entity_ShippedState"><rect fill="#F1F1F1" height="80.8594" rx="2.5" ry="2.5" style="stroke:#181818;stroke-width:0.5;" width="231.2627" x="390.13" y="513.76"/><ellipse cx="454.5211" cy="533.8928" fill="#ADD1B2" rx="11" ry="11" style="stroke:#181818;stroke-width:1;"/><path d="M457.4899,539.5334 Q456.9117,539.8303 456.2711,539.9709 Q455.6305,540.1272 454.9274,540.1272 Q452.4274,540.1272 451.0992,538.4866 Q449.7867,536.8303 449.7867,533.7053 Q449.7867,530.5803 451.0992,528.9241 Q452.4274,527.2678 454.9274,527.2678 Q455.6305,527.2678 456.2711,527.4241 Q456.9274,527.5803 457.4899,527.8772 L457.4899,530.5959 Q456.8649,530.0178 456.2711,529.7522 Q455.6774,529.4709 455.0524,529.4709 Q453.7086,529.4709 453.0211,530.5491 Q452.3336,531.6116 452.3336,533.7053 Q452.3336,535.7991 453.0211,536.8772 Q453.7086,537.9397 455.0524,537.9397 Q455.6774,537.9397 456.2711,537.6741 Q456.8649,537.3928 457.4899,536.8147 L457.4899,539.5334 Z " fill="#000000"/><text fill="#000000" font-family="sans-serif" font-size="12" font-style="italic" lengthAdjust="spacing" textLength="49.5176" x="497.2526" y="529.8987">&#171;entity&#187;</text><text fill="#000000" font-family="sans-serif" font-size="14" lengthAdjust="spacing" textLength="93.9805" x="475.0211" y="545.7239">ShippedState</text><line style="stroke:#181818;stroke-width:0.5;" x1="391.13" x2="620.3927" y1="554.0256" y2="554.0256"/><ellipse cx="401.13" cy="567.6741" fill="none" rx="3" ry="3" style="stroke:#038048;stroke-width:1;"/><text fill="#000000" font-family="sans-serif" font-size="14" lengthAdjust="spacing" textLength="188.6377" x="410.13" y="571.0207">ShippedAt: DateTime &#171;nn&#187;</text><ellipse cx="401.13" cy="583.9709" fill="none" rx="3" ry="3" style="stroke:#038048;stroke-width:1;"/><text fill="#000000" font-family="sans-serif" font-size="14" lengthAdjust="spacing" textLength="205.2627" x="410.13" y="587.3176">TrackingNumber: string &#171;nn&#187;</text></g><!--class CancelledState--><g class="entity" data-entity="CancelledState" data-source-line="64" data-uid="ent0018" id="entity_CancelledState"><rect fill="#F1F1F1" height="64.5625" rx="2.5" ry="2.5" style="stroke:#181818;stroke-width:0.5;" width="226.5322" x="656.5" y="521.91"/><ellipse cx="712.5786" cy="542.0428" fill="#ADD1B2" rx="11" ry="11" style="stroke:#181818;stroke-width:1;"/><path d="M715.5474,547.6834 Q714.9692,547.9803 714.3286,548.1209 Q713.688,548.2772 712.9849,548.2772 Q710.4849,548.2772 709.1567,546.6366 Q707.8442,544.9803 707.8442,541.8553 Q707.8442,538.7303 709.1567,537.0741 Q710.4849,535.4178 712.9849,535.4178 Q713.688,535.4178 714.3286,535.5741 Q714.9849,535.7303 715.5474,536.0272 L715.5474,538.7459 Q714.9224,538.1678 714.3286,537.9022 Q713.7349,537.6209 713.1099,537.6209 Q711.7661,537.6209 711.0786,538.6991 Q710.3911,539.7616 710.3911,541.8553 Q710.3911,543.9491 711.0786,545.0272 Q711.7661,546.0897 713.1099,546.0897 Q713.7349,546.0897 714.3286,545.8241 Q714.9224,545.5428 715.5474,544.9647 L715.5474,547.6834 Z " fill="#000000"/><text fill="#000000" font-family="sans-serif" font-size="12" font-style="italic" lengthAdjust="spacing" textLength="49.5176" x="761.2573" y="538.0487">&#171;entity&#187;</text><text fill="#000000" font-family="sans-serif" font-size="14" lengthAdjust="spacing" textLength="105.875" x="733.0786" y="553.8739">CancelledState</text><line style="stroke:#181818;stroke-width:0.5;" x1="657.5" x2="882.0322" y1="562.1756" y2="562.1756"/><ellipse cx="667.5" cy="575.8241" fill="none" rx="3" ry="3" style="stroke:#038048;stroke-width:1;"/><text fill="#000000" font-family="sans-serif" font-size="14" lengthAdjust="spacing" textLength="200.5322" x="676.5" y="579.1707">CancelledAt: DateTime &#171;nn&#187;</text></g><!--link Order to Customer--><g class="link" data-entity-1="Order" data-entity-2="Customer" data-source-line="20" data-uid="lnk5" id="link_Order_Customer"><path codeLine="20" d="M657.01,137.2 C643.68,164.2 628.68,194.58 617.38,217.47" fill="none" id="Order-Customer" style="stroke:#181818;stroke-width:1;"/><polygon fill="#000000" points="644.5465,179.7998,651.186,172.9903,645.9155,170.3882,644.5465,179.7998" style="stroke:#000000;stroke-width:1;"/><text fill="#000000" font-family="sans-serif" font-size="13" lengthAdjust="spacing" textLength="63.1465" x="655.76" y="179.8169">Customer</text><text fill="#000000" font-family="sans-serif" font-size="13" lengthAdjust="spacing" textLength="23.0356" x="629.5516" y="156.7838">0..*</text><text fill="#000000" font-family="sans-serif" font-size="13" lengthAdjust="spacing" textLength="8.271" x="611.7445" y="206.9503">1</text></g><!--link OnlineOrder to Address--><g class="link" data-entity-1="OnlineOrder" data-entity-2="Address" data-source-line="37" data-uid="lnk10" id="link_OnlineOrder_Address"><path codeLine="37" d="M853.76,294.84 C853.76,313.42 853.76,335.71 853.76,355.23" fill="none" id="OnlineOrder-Address" style="stroke:#181818;stroke-width:1;"/></g><!--reverse link Order to OnlineOrder--><g class="link" data-entity-1="Order" data-entity-2="OnlineOrder" data-source-line="68" data-uid="lnk20" id="link_Order_OnlineOrder"><path codeLine="68" d="M759.7805,150.4803 C783.0105,175.8703 796.82,190.95 817.25,213.28" fill="none" id="Order-backto-OnlineOrder" style="stroke:#181818;stroke-width:1;"/><polygon fill="none" points="747.63,137.2,755.3537,154.5304,764.2072,146.4301,747.63,137.2" style="stroke:#181818;stroke-width:1;"/></g><!--reverse link Order to StorePickupOrder--><g class="link" data-entity-1="Order" data-entity-2="StorePickupOrder" data-source-line="69" data-uid="lnk22" id="link_Order_StorePickupOrder"><path codeLine="69" d="M822.2403,136.6692 C827.9603,139.2192 817.19,134.37 822.76,136.75 C886.72,164.06 959.44,191.78 1018.04,213.32" fill="none" id="Order-backto-StorePickupOrder" style="stroke:#181818;stroke-width:1;"/><polygon fill="none" points="805.8,129.34,819.7972,142.1493,824.6834,131.1891,805.8,129.34" style="stroke:#181818;stroke-width:1;"/></g><!--link Order to OrderState--><g class="link" data-entity-1="Order" data-entity-2="OrderState" data-source-line="71" data-uid="lnk23" id="link_Order_OrderState"><path codeLine="71" d="M571.93,100.69 C511.11,121.46 441.36,156.43 401.76,213.75 C373.22,255.06 372.22,314.1 376.13,355.25" fill="none" id="Order-OrderState" style="stroke:#181818;stroke-width:1;"/><polygon fill="#000000" points="403.7116,258.1996,411.5557,252.8219,406.8967,249.2383,403.7116,258.1996" style="stroke:#000000;stroke-width:1;"/><text fill="#000000" font-family="sans-serif" font-size="13" lengthAdjust="spacing" textLength="71.5825" x="415.76" y="258.7369">OrderState</text><text fill="#000000" font-family="sans-serif" font-size="13" lengthAdjust="spacing" textLength="8.271" x="555.8208" y="99.1935">1</text><text fill="#000000" font-family="sans-serif" font-size="13" lengthAdjust="spacing" textLength="8.271" x="366.5134" y="344.391">1</text></g><!--reverse link OrderState to PendingState--><g class="link" data-entity-1="OrderState" data-entity-2="PendingState" data-source-line="73" data-uid="lnk25" id="link_OrderState_PendingState"><path codeLine="73" d="M263.4556,460.7638 C223.0956,479.5138 192.86,493.7 150.76,513.76 C140.03,518.87 128.53,524.42 117.67,529.7" fill="none" id="OrderState-backto-PendingState" style="stroke:#181818;stroke-width:1;"/><polygon fill="none" points="279.78,453.18,260.9277,455.3223,265.9835,466.2053,279.78,453.18" style="stroke:#181818;stroke-width:1;"/></g><!--reverse link OrderState to PaidState--><g class="link" data-entity-1="OrderState" data-entity-2="PaidState" data-source-line="74" data-uid="lnk27" id="link_OrderState_PaidState"><path codeLine="74" d="M332.6992,467.1281 C314.1892,489.5781 304.13,501.79 287.73,521.69" fill="none" id="OrderState-backto-PaidState" style="stroke:#181818;stroke-width:1;"/><polygon fill="none" points="344.15,453.24,328.0699,463.3112,337.3286,470.9451,344.15,453.24" style="stroke:#181818;stroke-width:1;"/></g><!--reverse link OrderState to ShippedState--><g class="link" data-entity-1="OrderState" data-entity-2="ShippedState" data-source-line="75" data-uid="lnk29" id="link_OrderState_ShippedState"><path codeLine="75" d="M434.8193,467.1294 C450.8193,486.5394 457.63,494.79 472.88,513.29" fill="none" id="OrderState-backto-ShippedState" style="stroke:#181818;stroke-width:1;"/><polygon fill="none" points="423.37,453.24,430.1895,470.9458,439.449,463.313,423.37,453.24" style="stroke:#181818;stroke-width:1;"/></g><!--reverse link OrderState to CancelledState--><g class="link" data-entity-1="OrderState" data-entity-2="CancelledState" data-source-line="76" data-uid="lnk31" id="link_OrderState_CancelledState"><path codeLine="76" d="M510.9177,453.9422 C572.3077,477.4722 630.63,499.84 686.95,521.44" fill="none" id="OrderState-backto-CancelledState" style="stroke:#181818;stroke-width:1;"/><polygon fill="none" points="494.11,447.5,508.7703,459.5447,513.0651,448.3396,494.11,447.5" style="stroke:#181818;stroke-width:1;"/></g><!--SRC=[TLJBRjim4BphAmZbqZHnq5m9Gu2XIAUW3cmZXzveSMCn4Kc1eWv6ct_lwa4zBEfaaxEFsU6iSi61W2pjbKYmkUPL46G5goeIrvNL4Wpv6n3oa0fJMSKa44egQuIwaErMgIXgm5UsWdsxOebaei1RykFmU9UcIHB7z-GWilnqBO54KTi4AxspeWPF5NR6AvPPqfNR6ux4jbjGLjXhd_xW6DEH-yWnDi0iy9sbv0N_d0JI7T6JjgpOILqhn3baGh9Y0hVzZXRpSCJ9uIQY7SR3lgCR_dfw-XcIpOQ4p-58aP8m6avX42YDXOsuv9ReZwuPfKFvu4LKcH5IA6Qr2K1nqYGudNUS6y3VHkdtnxiuJf8qlIUjhFlp9w22ezX7Qm3iyZqH-YDAxtsCSgy-ybuLGe7_RLe3qC47JhPZBieIQ_MywMI0GRn9LTIk3t0zZwW2l8digoxzZJki3Oir1uzxkuZKQBcqnehrtElV-2zdwh9giGEmIYjF_xWs1WivUot4zHYYZQLqbhdgZ5wfDxp1mXxgtow22UwVh45yOxdCzXbX9Ra7rpOFjVr2NhzhUMvMztRy_cF4L0P5iTPYWFqavnwgoys_gDCnMDXdXhh5VMwsjblRsPSWZ2PdNDsPnDDAxKqmwhl4PWekuPlv5m7_0G00]--></g></svg>