<svg xmlns="http://www.w3.org/2000/svg" xmlns:xlink="http://www.w3.org/1999/xlink" contentStyleType="text/css" data-diagram-type="CLASS" height="142px" preserveAspectRatio="none" style="width:210px;height:142px;background:#FFFFFF;" version="1.1" viewBox="0 0 210 142" width="210px" zoomAndPan="magnify"><defs/><g><!--class Customer--><g class="entity" data-entity="Customer" data-source-line="4" data-uid="ent0002" id="entity_Customer"><rect fill="#F1F1F1" height="121.4844" rx="2.5" ry="2.5" style="stroke:#181818;stroke-width:0.5;" width="189.3174" x="7" y="7"/><ellipse cx="63.4067" cy="23" fill="#ADD1B2" rx="11" ry="11" style="stroke:#181818;stroke-width:1;"/><path d="M66.3755,28.6406 Q65.7974,28.9375 65.1567,29.0781 Q64.5161,29.2344 63.813,29.2344 Q61.313,29.2344 59.9849,27.5938 Q58.6724,25.9375 58.6724,22.8125 Q58.6724,19.6875 59.9849,18.0313 Q61.313,16.375 63.813,16.375 Q64.5161,16.375 65.1567,16.5313 Q65.813,16.6875 66.3755,16.9844 L66.3755,19.7031 Q65.7505,19.125 65.1567,18.8594 Q64.563,18.5781 63.938,18.5781 Q62.5942,18.5781 61.9067,19.6563 Q61.2192,20.7188 61.2192,22.8125 Q61.2192,24.9063 61.9067,25.9844 Q62.5942,27.0469 63.938,27.0469 Q64.563,27.0469 65.1567,26.7813 Q65.7505,26.5 66.3755,25.9219 L66.3755,28.6406 Z " fill="#000000"/><text fill="#000000" font-family="sans-serif" font-size="14" lengthAdjust="spacing" textLength="68.0039" x="83.9067" y="27.8467">Customer</text><line style="stroke:#181818;stroke-width:0.5;" x1="8" x2="195.3174" y1="39" y2="39"/><ellipse cx="18" cy="52.6484" fill="none" rx="3" ry="3" style="stroke:#038048;stroke-width:1;"/><text fill="#000000" font-family="sans-serif" font-size="14" lengthAdjust="spacing" textLength="163.3174" x="27" y="55.9951">Firstname : string &#171;nn&#187;</text><ellipse cx="18" cy="68.9453" fill="none" rx="3" ry="3" style="stroke:#038048;stroke-width:1;"/><text fill="#000000" font-family="sans-serif" font-size="14" lengthAdjust="spacing" textLength="161.998" x="27" y="72.292">Lastname : string &#171;nn&#187;</text><ellipse cx="18" cy="85.2422" fill="none" rx="3" ry="3" style="stroke:#038048;stroke-width:1;"/><text fill="#000000" font-family="sans-serif" font-size="14" lengthAdjust="spacing" textLength="131.5303" x="27" y="88.5889">Street: string &#171;nn&#187;</text><ellipse cx="18" cy="101.5391" fill="none" rx="3" ry="3" style="stroke:#038048;stroke-width:1;"/><text fill="#000000" font-family="sans-serif" font-size="14" lengthAdjust="spacing" textLength="111.0498" x="27" y="104.8857">Zip: string &#171;nn&#187;</text><ellipse cx="18" cy="117.8359" fill="none" rx="3" ry="3" style="stroke:#038048;stroke-width:1;"/><text fill="#000000" font-family="sans-serif" font-size="14" lengthAdjust="spacing" textLength="116.1221" x="27" y="121.1826">City: string &#171;nn&#187;</text></g><!--SRC=[VSan2iCm44JHNgUOFZS8neqXbRjqwOIriHOioUnE2XDoTnlI1PDV_hV8as23wPo9f2OJjTMGDGcahDnGXBab3s5QeZk6bxCLCRm3ZYutDMUDHN25qxJEwBfQ-_xBO_odTve8J-cXw-aVbDilV7O0]--></g></svg>