<svg xmlns="http://www.w3.org/2000/svg" xmlns:xlink="http://www.w3.org/1999/xlink" contentStyleType="text/css" data-diagram-type="CLASS" height="898px" preserveAspectRatio="none" style="width:1241px;height:898px;background:#FFFFFF;" version="1.1" viewBox="0 0 1241 898" width="1241px" zoomAndPan="magnify"><defs/><g><!--cluster P_Shared--><g class="cluster" data-entity="P_Shared" data-source-line="15" data-uid="ent0002" id="cluster_P_Shared"><path d="M8.5,605.06 L131.2549,605.06 A3.75,3.75 0 0 1 133.7549,607.56 L140.7549,643.6538 L573.5,643.6538 A2.5,2.5 0 0 1 576,646.1538 L576,766.72 A2.5,2.5 0 0 1 573.5,769.22 L8.5,769.22 A2.5,2.5 0 0 1 6,766.72 L6,607.56 A2.5,2.5 0 0 1 8.5,605.06" fill="#EEF6FF" style="stroke:#000000;stroke-width:1.5;"/><line style="stroke:#000000;stroke-width:1.5;" x1="6" x2="140.7549" y1="643.6538" y2="643.6538"/><text fill="#000000" font-family="sans-serif" font-size="14" font-weight="bold" lengthAdjust="spacing" textLength="55.918" x="42.9185" y="620.0551">Shared</text><text fill="#000000" font-family="sans-serif" font-size="14" font-weight="bold" lengthAdjust="spacing" textLength="121.7549" x="10" y="636.352">(Value Objects)</text></g><!--cluster P_People--><g class="cluster" data-entity="P_People" data-source-line="32" data-uid="ent0006" id="cluster_P_People"><path d="M602.5,217.45 L657.1895,217.45 A3.75,3.75 0 0 1 659.6895,219.95 L666.6895,239.7469 L1231.5,239.7469 A2.5,2.5 0 0 1 1234,242.2469 L1234,766.72 A2.5,2.5 0 0 1 1231.5,769.22 L602.5,769.22 A2.5,2.5 0 0 1 600,766.72 L600,219.95 A2.5,2.5 0 0 1 602.5,217.45" fill="#FFF5E6" style="stroke:#000000;stroke-width:1.5;"/><line style="stroke:#000000;stroke-width:1.5;" x1="600" x2="666.6895" y1="239.7469" y2="239.7469"/><text fill="#000000" font-family="sans-serif" font-size="14" font-weight="bold" lengthAdjust="spacing" textLength="53.6895" x="604" y="232.4451">People</text></g><!--cluster P_Courses--><g class="cluster" data-entity="P_Courses" data-source-line="65" data-uid="ent0018" id="cluster_P_Courses"><path d="M278.5,6 L342.4248,6 A3.75,3.75 0 0 1 344.9248,8.5 L351.9248,28.2969 L573.5,28.2969 A2.5,2.5 0 0 1 576,30.7969 L576,379.41 A2.5,2.5 0 0 1 573.5,381.91 L278.5,381.91 A2.5,2.5 0 0 1 276,379.41 L276,8.5 A2.5,2.5 0 0 1 278.5,6" fill="#EAF8EA" style="stroke:#000000;stroke-width:1.5;"/><line style="stroke:#000000;stroke-width:1.5;" x1="276" x2="351.9248" y1="28.2969" y2="28.2969"/><text fill="#000000" font-family="sans-serif" font-size="14" font-weight="bold" lengthAdjust="spacing" textLength="62.9248" x="280" y="20.9951">Courses</text></g><!--class PhoneNumber--><g class="entity" data-entity="PhoneNumber" data-source-line="16" data-uid="ent0003" id="entity_PhoneNumber"><rect fill="#F1F1F1" height="64.5625" rx="2.5" ry="2.5" style="stroke:#181818;stroke-width:0.5;" width="154.2148" x="21.89" y="672.36"/><ellipse cx="47.0638" cy="692.4928" fill="#FFEECC" rx="11" ry="11" style="stroke:#181818;stroke-width:1;"/><path d="M48.2669,692.6334 Q48.6263,692.7116 48.8919,692.9928 Q49.1732,693.2584 49.5638,694.0397 L51.7982,698.4928 L49.1107,698.4928 L47.6107,695.3678 Q47.5482,695.2272 47.4388,694.9928 Q46.7825,693.6022 45.8919,693.6022 L45.1107,693.6022 L45.1107,698.4928 L42.6732,698.4928 L42.6732,686.1022 L46.2044,686.1022 Q48.595,686.1022 49.6263,686.9459 Q50.6732,687.7897 50.6732,689.6959 Q50.6732,690.9772 50.0482,691.7428 Q49.4388,692.4928 48.2669,692.6334 Z M45.1107,688.1647 L45.1107,691.5397 L46.2669,691.5397 Q47.2825,691.5397 47.7044,691.1491 Q48.1419,690.7428 48.1419,689.8366 Q48.1419,688.9459 47.7044,688.5553 Q47.2825,688.1647 46.2669,688.1647 L45.1107,688.1647 Z " fill="#000000"/><text fill="#000000" font-family="sans-serif" font-size="12" font-style="italic" lengthAdjust="spacing" textLength="69.9902" x="78.1327" y="688.4987">&#171;RichType&#187;</text><text fill="#000000" font-family="sans-serif" font-size="14" lengthAdjust="spacing" textLength="99.6064" x="63.3246" y="704.3239">PhoneNumber</text><line style="stroke:#181818;stroke-width:0.5;" x1="22.89" x2="175.1048" y1="712.6256" y2="712.6256"/><ellipse cx="32.89" cy="726.2741" fill="none" rx="3" ry="3" style="stroke:#038048;stroke-width:1;"/><text fill="#000000" font-family="sans-serif" font-size="14" lengthAdjust="spacing" textLength="128.2148" x="41.89" y="729.6207">Value: string &#171;nn&#187;</text></g><!--class Address--><g class="entity" data-entity="Address" data-source-line="20" data-uid="ent0004" id="entity_Address"><rect fill="#F1F1F1" height="97.1563" rx="2.5" ry="2.5" style="stroke:#181818;stroke-width:0.5;" width="157.5303" x="402.23" y="656.06"/><ellipse cx="436.0759" cy="676.1928" fill="#CCEEFF" rx="11" ry="11" style="stroke:#181818;stroke-width:1;"/><path d="M436.1853,680.6459 L438.3728,670.3022 L440.8416,670.3022 L437.8884,682.6928 L434.4978,682.6928 L431.5447,670.3022 L434.0134,670.3022 L436.1853,680.6459 Z " fill="#000000"/><text fill="#000000" font-family="sans-serif" font-size="12" font-style="italic" lengthAdjust="spacing" textLength="87.6504" x="452.2639" y="672.1987">&#171;ValueObject&#187;</text><text fill="#000000" font-family="sans-serif" font-size="14" lengthAdjust="spacing" textLength="56.3076" x="467.9353" y="688.0239">Address</text><line style="stroke:#181818;stroke-width:0.5;" x1="403.23" x2="558.7603" y1="696.3256" y2="696.3256"/><ellipse cx="413.23" cy="709.9741" fill="none" rx="3" ry="3" style="stroke:#038048;stroke-width:1;"/><text fill="#000000" font-family="sans-serif" font-size="14" lengthAdjust="spacing" textLength="131.5303" x="422.23" y="713.3207">Street: string &#171;nn&#187;</text><ellipse cx="413.23" cy="726.2709" fill="none" rx="3" ry="3" style="stroke:#038048;stroke-width:1;"/><text fill="#000000" font-family="sans-serif" font-size="14" lengthAdjust="spacing" textLength="111.0498" x="422.23" y="729.6176">Zip: string &#171;nn&#187;</text><ellipse cx="413.23" cy="742.5678" fill="none" rx="3" ry="3" style="stroke:#038048;stroke-width:1;"/><text fill="#000000" font-family="sans-serif" font-size="14" lengthAdjust="spacing" textLength="116.1221" x="422.23" y="745.9145">City: string &#171;nn&#187;</text></g><!--class Tag--><g class="entity" data-entity="Tag" data-source-line="26" data-uid="ent0005" id="entity_Tag"><rect fill="#F1F1F1" height="80.8594" rx="2.5" ry="2.5" style="stroke:#181818;stroke-width:0.5;" width="155.9854" x="211.01" y="664.21"/><ellipse cx="244.1607" cy="684.3428" fill="#CCEEFF" rx="11" ry="11" style="stroke:#181818;stroke-width:1;"/><path d="M244.2701,688.7959 L246.4576,678.4522 L248.9264,678.4522 L245.9732,690.8428 L242.5826,690.8428 L239.6295,678.4522 L242.0982,678.4522 L244.2701,688.7959 Z " fill="#000000"/><text fill="#000000" font-family="sans-serif" font-size="12" font-style="italic" lengthAdjust="spacing" textLength="87.6504" x="260.1942" y="680.3487">&#171;ValueObject&#187;</text><text fill="#000000" font-family="sans-serif" font-size="14" lengthAdjust="spacing" textLength="26.0176" x="291.0106" y="696.1739">Tag</text><line style="stroke:#181818;stroke-width:0.5;" x1="212.01" x2="365.9954" y1="704.4756" y2="704.4756"/><ellipse cx="222.01" cy="718.1241" fill="none" rx="3" ry="3" style="stroke:#038048;stroke-width:1;"/><text fill="#000000" font-family="sans-serif" font-size="14" lengthAdjust="spacing" textLength="129.9854" x="231.01" y="721.4707">Name: string &#171;nn&#187;</text><ellipse cx="222.01" cy="734.4209" fill="none" rx="3" ry="3" style="stroke:#038048;stroke-width:1;"/><text fill="#000000" font-family="sans-serif" font-size="14" lengthAdjust="spacing" textLength="85.9072" x="231.01" y="737.7676">Color: string</text></g><!--class Person--><g class="entity" data-entity="Person" data-source-line="33" data-uid="ent0007" id="entity_Person"><rect fill="#F1F1F1" height="97.1563" rx="2.5" ry="2.5" style="stroke:#181818;stroke-width:0.5;" width="196.5635" x="947.72" y="252.45"/><ellipse cx="1017.9798" cy="272.5828" fill="#A9DCDF" rx="11" ry="11" style="stroke:#181818;stroke-width:1;"/><path d="M1018.0891,267.9266 L1016.9329,273.0047 L1019.261,273.0047 L1018.0891,267.9266 Z M1016.6048,265.6922 L1019.5891,265.6922 L1022.9485,278.0828 L1020.4954,278.0828 L1019.7298,275.0203 L1016.4485,275.0203 L1015.6985,278.0828 L1013.261,278.0828 L1016.6048,265.6922 Z " fill="#000000"/><text fill="#000000" font-family="sans-serif" font-size="12" font-style="italic" lengthAdjust="spacing" textLength="49.5176" x="1037.4929" y="268.5887">&#171;entity&#187;</text><text fill="#000000" font-family="sans-serif" font-size="14" font-style="italic" lengthAdjust="spacing" textLength="47.5439" x="1038.4798" y="284.4139">Person</text><line style="stroke:#181818;stroke-width:0.5;" x1="948.72" x2="1143.2835" y1="292.7156" y2="292.7156"/><ellipse cx="958.72" cy="306.3641" fill="none" rx="3" ry="3" style="stroke:#038048;stroke-width:1;"/><text fill="#000000" font-family="sans-serif" font-size="14" lengthAdjust="spacing" textLength="158.8672" x="967.72" y="309.7107">Firstname: string &#171;nn&#187;</text><ellipse cx="958.72" cy="322.6609" fill="none" rx="3" ry="3" style="stroke:#038048;stroke-width:1;"/><text fill="#000000" font-family="sans-serif" font-size="14" lengthAdjust="spacing" textLength="157.5479" x="967.72" y="326.0076">Lastname: string &#171;nn&#187;</text><ellipse cx="958.72" cy="338.9578" fill="none" rx="3" ry="3" style="stroke:#038048;stroke-width:1;"/><text fill="#000000" font-family="sans-serif" font-size="14" lengthAdjust="spacing" textLength="170.5635" x="967.72" y="342.3045">PersonType: string &#171;nn&#187;</text></g><path d="M804.81,283.47 L804.81,308.6028 A0,0 0 0 0 804.81,308.6028 L913.1855,308.6028 A0,0 0 0 0 913.1855,308.6028 L913.1855,301.47 L951.72,337.4578 L913.1855,293.47 L913.1855,293.47 L903.1855,283.47 L804.81,283.47 A0,0 0 0 0 804.81,283.47" fill="#FEFFDD" style="stroke:#181818;stroke-width:0.5;"/><path d="M903.1855,283.47 L903.1855,293.47 L913.1855,293.47 L903.1855,283.47" fill="#FEFFDD" style="stroke:#181818;stroke-width:0.5;"/><text fill="#000000" font-family="sans-serif" font-size="13" lengthAdjust="spacing" textLength="87.3755" x="810.81" y="300.5369">Discriminator</text><!--class Student--><g class="entity" data-entity="Student" data-source-line="43" data-uid="ent0010" id="entity_Student"><rect fill="#F1F1F1" height="97.1563" rx="2.5" ry="2.5" style="stroke:#181818;stroke-width:0.5;" width="294.96" x="923.52" y="444.91"/><ellipse cx="1039.1943" cy="465.0428" fill="#ADD1B2" rx="11" ry="11" style="stroke:#181818;stroke-width:1;"/><path d="M1042.1631,470.6834 Q1041.5849,470.9803 1040.9443,471.1209 Q1040.3037,471.2772 1039.6006,471.2772 Q1037.1006,471.2772 1035.7724,469.6366 Q1034.4599,467.9803 1034.4599,464.8553 Q1034.4599,461.7303 1035.7724,460.0741 Q1037.1006,458.4178 1039.6006,458.4178 Q1040.3037,458.4178 1040.9443,458.5741 Q1041.6006,458.7303 1042.1631,459.0272 L1042.1631,461.7459 Q1041.5381,461.1678 1040.9443,460.9022 Q1040.3506,460.6209 1039.7256,460.6209 Q1038.3818,460.6209 1037.6943,461.6991 Q1037.0068,462.7616 1037.0068,464.8553 Q1037.0068,466.9491 1037.6943,468.0272 Q1038.3818,469.0897 1039.7256,469.0897 Q1040.3506,469.0897 1040.9443,468.8241 Q1041.5381,468.5428 1042.1631,467.9647 L1042.1631,470.6834 Z " fill="#000000"/><text fill="#000000" font-family="sans-serif" font-size="12" font-style="italic" lengthAdjust="spacing" textLength="49.5176" x="1062.4912" y="461.0487">&#171;entity&#187;</text><text fill="#000000" font-family="sans-serif" font-size="14" lengthAdjust="spacing" textLength="55.1113" x="1059.6943" y="476.8739">Student</text><line style="stroke:#181818;stroke-width:0.5;" x1="924.52" x2="1217.48" y1="485.1756" y2="485.1756"/><ellipse cx="934.52" cy="498.8241" fill="none" rx="3" ry="3" style="stroke:#038048;stroke-width:1;"/><text fill="#000000" font-family="sans-serif" font-size="14" lengthAdjust="spacing" textLength="268.96" x="943.52" y="502.1707">MatriculationNo: string &#171;nn&#187; &#171;unique&#187;</text><ellipse cx="934.52" cy="515.1209" fill="none" rx="3" ry="3" style="stroke:#038048;stroke-width:1;"/><text fill="#000000" font-family="sans-serif" font-size="14" lengthAdjust="spacing" textLength="251.3369" x="943.52" y="518.4676">StudentProfile : StudentProfile &#171;nn&#187;</text><ellipse cx="934.52" cy="531.4178" fill="none" rx="3" ry="3" style="stroke:#038048;stroke-width:1;"/><text fill="#000000" font-family="sans-serif" font-size="14" lengthAdjust="spacing" textLength="165.5596" x="943.52" y="534.7645">Address : Address &#171;nn&#187;</text></g><!--class Instructor--><g class="entity" data-entity="Instructor" data-source-line="49" data-uid="ent0011" id="entity_Instructor"><rect fill="#F1F1F1" height="64.5625" rx="2.5" ry="2.5" style="stroke:#181818;stroke-width:0.5;" width="272.6475" x="615.68" y="461.2"/><ellipse cx="713.7928" cy="481.3328" fill="#ADD1B2" rx="11" ry="11" style="stroke:#181818;stroke-width:1;"/><path d="M716.7615,486.9734 Q716.1834,487.2703 715.5428,487.4109 Q714.9022,487.5672 714.199,487.5672 Q711.699,487.5672 710.3709,485.9266 Q709.0584,484.2703 709.0584,481.1453 Q709.0584,478.0203 710.3709,476.3641 Q711.699,474.7078 714.199,474.7078 Q714.9022,474.7078 715.5428,474.8641 Q716.199,475.0203 716.7615,475.3172 L716.7615,478.0359 Q716.1365,477.4578 715.5428,477.1922 Q714.949,476.9109 714.324,476.9109 Q712.9803,476.9109 712.2928,477.9891 Q711.6053,479.0516 711.6053,481.1453 Q711.6053,483.2391 712.2928,484.3172 Q712.9803,485.3797 714.324,485.3797 Q714.949,485.3797 715.5428,485.1141 Q716.1365,484.8328 716.7615,484.2547 L716.7615,486.9734 Z " fill="#000000"/><text fill="#000000" font-family="sans-serif" font-size="12" font-style="italic" lengthAdjust="spacing" textLength="49.5176" x="743.4949" y="477.3387">&#171;entity&#187;</text><text fill="#000000" font-family="sans-serif" font-size="14" lengthAdjust="spacing" textLength="67.9219" x="734.2928" y="493.1639">Instructor</text><line style="stroke:#181818;stroke-width:0.5;" x1="616.68" x2="887.3275" y1="501.4656" y2="501.4656"/><ellipse cx="626.68" cy="515.1141" fill="none" rx="3" ry="3" style="stroke:#038048;stroke-width:1;"/><text fill="#000000" font-family="sans-serif" font-size="14" lengthAdjust="spacing" textLength="246.6475" x="635.68" y="518.4607">EmployeeNo: string &#171;nn&#187; &#171;unique&#187;</text></g><!--class StudentProfile--><g class="entity" data-entity="StudentProfile" data-source-line="53" data-uid="ent0012" id="entity_StudentProfile"><rect fill="#F1F1F1" height="97.1563" rx="2.5" ry="2.5" style="stroke:#181818;stroke-width:0.5;" width="207.0977" x="967.45" y="656.06"/><ellipse cx="1017.1507" cy="676.1928" fill="#ADD1B2" rx="11" ry="11" style="stroke:#181818;stroke-width:1;"/><path d="M1020.1194,681.8334 Q1019.5413,682.1303 1018.9007,682.2709 Q1018.2601,682.4272 1017.5569,682.4272 Q1015.0569,682.4272 1013.7288,680.7866 Q1012.4163,679.1303 1012.4163,676.0053 Q1012.4163,672.8803 1013.7288,671.2241 Q1015.0569,669.5678 1017.5569,669.5678 Q1018.2601,669.5678 1018.9007,669.7241 Q1019.5569,669.8803 1020.1194,670.1772 L1020.1194,672.8959 Q1019.4944,672.3178 1018.9007,672.0522 Q1018.3069,671.7709 1017.6819,671.7709 Q1016.3382,671.7709 1015.6507,672.8491 Q1014.9632,673.9116 1014.9632,676.0053 Q1014.9632,678.0991 1015.6507,679.1772 Q1016.3382,680.2397 1017.6819,680.2397 Q1018.3069,680.2397 1018.9007,679.9741 Q1019.4944,679.6928 1020.1194,679.1147 L1020.1194,681.8334 Z " fill="#000000"/><text fill="#000000" font-family="sans-serif" font-size="12" font-style="italic" lengthAdjust="spacing" textLength="49.5176" x="1062.49" y="672.1987">&#171;entity&#187;</text><text fill="#000000" font-family="sans-serif" font-size="14" lengthAdjust="spacing" textLength="99.1963" x="1037.6507" y="688.0239">StudentProfile</text><line style="stroke:#181818;stroke-width:0.5;" x1="968.45" x2="1173.5477" y1="696.3256" y2="696.3256"/><ellipse cx="978.45" cy="709.9741" fill="none" rx="3" ry="3" style="stroke:#038048;stroke-width:1;"/><text fill="#000000" font-family="sans-serif" font-size="14" lengthAdjust="spacing" textLength="181.0977" x="987.45" y="713.3207">BirthDate: DateOnly &#171;nn&#187;</text><ellipse cx="978.45" cy="726.2709" fill="none" rx="3" ry="3" style="stroke:#038048;stroke-width:1;"/><text fill="#000000" font-family="sans-serif" font-size="14" lengthAdjust="spacing" textLength="127.5244" x="987.45" y="729.6176">Email: string &#171;nn&#187;</text><ellipse cx="978.45" cy="742.5678" fill="none" rx="3" ry="3" style="stroke:#038048;stroke-width:1;"/><text fill="#000000" font-family="sans-serif" font-size="14" lengthAdjust="spacing" textLength="152.1406" x="987.45" y="745.9145">Phone: PhoneNumber</text></g><!--class Course--><g class="entity" data-entity="Course" data-source-line="66" data-uid="ent0019" id="entity_Course"><rect fill="#F1F1F1" height="129.75" rx="2.5" ry="2.5" style="stroke:#181818;stroke-width:0.5;" width="268.9902" x="291.5" y="236.16"/><ellipse cx="397.3066" cy="256.2928" fill="#ADD1B2" rx="11" ry="11" style="stroke:#181818;stroke-width:1;"/><path d="M400.2754,261.9334 Q399.6973,262.2303 399.0566,262.3709 Q398.416,262.5272 397.7129,262.5272 Q395.2129,262.5272 393.8848,260.8866 Q392.5723,259.2303 392.5723,256.1053 Q392.5723,252.9803 393.8848,251.3241 Q395.2129,249.6678 397.7129,249.6678 Q398.416,249.6678 399.0566,249.8241 Q399.7129,249.9803 400.2754,250.2772 L400.2754,252.9959 Q399.6504,252.4178 399.0566,252.1522 Q398.4629,251.8709 397.8379,251.8709 Q396.4941,251.8709 395.8066,252.9491 Q395.1191,254.0116 395.1191,256.1053 Q395.1191,258.1991 395.8066,259.2772 Q396.4941,260.3397 397.8379,260.3397 Q398.4629,260.3397 399.0566,260.0741 Q399.6504,259.7928 400.2754,259.2147 L400.2754,261.9334 Z " fill="#000000"/><text fill="#000000" font-family="sans-serif" font-size="12" font-style="italic" lengthAdjust="spacing" textLength="49.5176" x="417.4863" y="252.2987">&#171;entity&#187;</text><text fill="#000000" font-family="sans-serif" font-size="14" lengthAdjust="spacing" textLength="48.877" x="417.8066" y="268.1239">Course</text><line style="stroke:#181818;stroke-width:0.5;" x1="292.5" x2="559.4902" y1="276.4256" y2="276.4256"/><ellipse cx="302.5" cy="290.0741" fill="none" rx="3" ry="3" style="stroke:#038048;stroke-width:1;"/><text fill="#000000" font-family="sans-serif" font-size="14" lengthAdjust="spacing" textLength="119.1162" x="311.5" y="293.4207">Title: string &#171;nn&#187;</text><ellipse cx="302.5" cy="306.3709" fill="none" rx="3" ry="3" style="stroke:#038048;stroke-width:1;"/><text fill="#000000" font-family="sans-serif" font-size="14" lengthAdjust="spacing" textLength="116.4502" x="311.5" y="309.7176">Credits: int &#171;nn&#187;</text><ellipse cx="302.5" cy="322.6678" fill="none" rx="3" ry="3" style="stroke:#038048;stroke-width:1;"/><text fill="#000000" font-family="sans-serif" font-size="14" lengthAdjust="spacing" textLength="242.9902" x="311.5" y="326.0145">CourseCode: string &#171;nn&#187; &#171;unique&#187;</text><ellipse cx="302.5" cy="338.9647" fill="none" rx="3" ry="3" style="stroke:#038048;stroke-width:1;"/><text fill="#000000" font-family="sans-serif" font-size="14" lengthAdjust="spacing" textLength="188.7881" x="311.5" y="342.3114">Instructor : Instructor &#171;nn&#187;</text><ellipse cx="302.5" cy="355.2616" fill="none" rx="3" ry="3" style="stroke:#038048;stroke-width:1;"/><text fill="#000000" font-family="sans-serif" font-size="14" lengthAdjust="spacing" textLength="120.8799" x="311.5" y="358.6082">Tags : List&lt;Tag&gt;</text></g><!--class Enrollment--><g class="entity" data-entity="Enrollment" data-source-line="74" data-uid="ent0020" id="entity_Enrollment"><rect fill="#F1F1F1" height="113.4531" rx="2.5" ry="2.5" style="stroke:#181818;stroke-width:0.5;" width="215.0342" x="337.48" y="41"/><ellipse cx="402.5308" cy="61.1328" fill="#ADD1B2" rx="11" ry="11" style="stroke:#181818;stroke-width:1;"/><path d="M405.4995,66.7734 Q404.9214,67.0703 404.2808,67.2109 Q403.6402,67.3672 402.937,67.3672 Q400.437,67.3672 399.1089,65.7266 Q397.7964,64.0703 397.7964,60.9453 Q397.7964,57.8203 399.1089,56.1641 Q400.437,54.5078 402.937,54.5078 Q403.6402,54.5078 404.2808,54.6641 Q404.937,54.8203 405.4995,55.1172 L405.4995,57.8359 Q404.8745,57.2578 404.2808,56.9922 Q403.687,56.7109 403.062,56.7109 Q401.7183,56.7109 401.0308,57.7891 Q400.3433,58.8516 400.3433,60.9453 Q400.3433,63.0391 401.0308,64.1172 Q401.7183,65.1797 403.062,65.1797 Q403.687,65.1797 404.2808,64.9141 Q404.8745,64.6328 405.4995,64.0547 L405.4995,66.7734 Z " fill="#000000"/><text fill="#000000" font-family="sans-serif" font-size="12" font-style="italic" lengthAdjust="spacing" textLength="49.5176" x="436.4883" y="57.1387">&#171;entity&#187;</text><text fill="#000000" font-family="sans-serif" font-size="14" lengthAdjust="spacing" textLength="76.4326" x="423.0308" y="72.9639">Enrollment</text><line style="stroke:#181818;stroke-width:0.5;" x1="338.48" x2="551.5142" y1="81.2656" y2="81.2656"/><ellipse cx="348.48" cy="94.9141" fill="none" rx="3" ry="3" style="stroke:#038048;stroke-width:1;"/><text fill="#000000" font-family="sans-serif" font-size="14" lengthAdjust="spacing" textLength="189.0342" x="357.48" y="98.2607">EnrolledAt: DateTime &#171;nn&#187;</text><ellipse cx="348.48" cy="111.2109" fill="none" rx="3" ry="3" style="stroke:#038048;stroke-width:1;"/><text fill="#000000" font-family="sans-serif" font-size="14" lengthAdjust="spacing" textLength="107.0439" x="357.48" y="114.5576">Grade: decimal</text><ellipse cx="348.48" cy="127.5078" fill="none" rx="3" ry="3" style="stroke:#038048;stroke-width:1;"/><text fill="#000000" font-family="sans-serif" font-size="14" lengthAdjust="spacing" textLength="163.167" x="357.48" y="130.8545">Student : Student &#171;nn&#187;</text><ellipse cx="348.48" cy="143.8047" fill="none" rx="3" ry="3" style="stroke:#038048;stroke-width:1;"/><text fill="#000000" font-family="sans-serif" font-size="14" lengthAdjust="spacing" textLength="150.6982" x="357.48" y="147.1514">Course : Course &#171;nn&#187;</text></g><!--reverse link Person to Student--><g class="link" data-entity-1="Person" data-entity-2="Student" data-source-line="60" data-uid="lnk14" id="link_Person_Student"><path codeLine="60" d="M1054.6529,367.9369 C1058.4429,396.8069 1060.9,415.57 1064.69,444.44" fill="none" id="Person-backto-Student" style="stroke:#181818;stroke-width:1;"/><polygon fill="none" points="1052.31,350.09,1048.7039,368.7178,1060.6019,367.1559,1052.31,350.09" style="stroke:#181818;stroke-width:1;"/></g><!--reverse link Person to Instructor--><g class="link" data-entity-1="Person" data-entity-2="Instructor" data-source-line="61" data-uid="lnk16" id="link_Person_Instructor"><path codeLine="61" d="M971.9288,361.0335 C954.4688,374.4035 949.42,377.67 931,389.91 C892.37,415.58 847.01,441.52 811.63,460.9" fill="none" id="Person-backto-Instructor" style="stroke:#181818;stroke-width:1;"/><polygon fill="none" points="986.22,350.09,968.2809,356.2698,975.5766,365.7973,986.22,350.09" style="stroke:#181818;stroke-width:1;"/></g><!--link Student to StudentProfile--><g class="link" data-entity-1="Student" data-entity-2="StudentProfile" data-source-line="62" data-uid="lnk17" id="link_Student_StudentProfile"><path codeLine="62" d="M1071,542.47 C1071,576.48 1071,621.92 1071,655.88" fill="none" id="Student-StudentProfile" style="stroke:#181818;stroke-width:1;"/><polygon fill="#000000" points="1076,585.6264,1078.9389,576.5813,1073.0611,576.5813,1076,585.6264" style="stroke:#000000;stroke-width:1;"/><text fill="#000000" font-family="sans-serif" font-size="13" lengthAdjust="spacing" textLength="92.1108" x="1085" y="585.1269">StudentProfile</text><text fill="#000000" font-family="sans-serif" font-size="13" lengthAdjust="spacing" textLength="8.271" x="1062.4807" y="562.1356">1</text><text fill="#000000" font-family="sans-serif" font-size="13" lengthAdjust="spacing" textLength="8.271" x="1062.4567" y="645.0449">1</text></g><!--link Course to Instructor--><g class="link" data-entity-1="Course" data-entity-2="Instructor" data-source-line="82" data-uid="lnk21" id="link_Course_Instructor"><path codeLine="82" d="M503.62,366.27 C525.93,383.21 550.79,400.7 575,414.91 C604.52,432.23 638.61,448.06 668.95,460.84" fill="none" id="Course-Instructor" style="stroke:#181818;stroke-width:1;"/><polygon fill="#000000" points="584.3401,408.959,577.948,401.9169,575.0295,407.019,584.3401,408.959" style="stroke:#000000;stroke-width:1;"/><text fill="#000000" font-family="sans-serif" font-size="13" lengthAdjust="spacing" textLength="63.0703" x="589" y="410.9769">Instructor</text><text fill="#000000" font-family="sans-serif" font-size="13" lengthAdjust="spacing" textLength="23.0356" x="487.441" y="385.8445">0..*</text><text fill="#000000" font-family="sans-serif" font-size="13" lengthAdjust="spacing" textLength="8.271" x="643.838" y="450.0172">1</text></g><!--link Enrollment to Student--><g class="link" data-entity-1="Enrollment" data-entity-2="Student" data-source-line="83" data-uid="lnk22" id="link_Enrollment_Student"><path codeLine="83" d="M517.8,154.75 C538.04,171.54 559.53,190.53 578,209.45 C649.48,282.68 636.13,332.73 721,389.91 C723.31,391.46 828.69,422.26 923.21,449.71" fill="none" id="Enrollment-Student" style="stroke:#181818;stroke-width:1;"/><polygon fill="#000000" points="730.0431,304.038,724.4581,296.3401,721,301.0931,730.0431,304.038" style="stroke:#000000;stroke-width:1;"/><text fill="#000000" font-family="sans-serif" font-size="13" lengthAdjust="spacing" textLength="51.1748" x="735" y="305.5969">Student</text><text fill="#000000" font-family="sans-serif" font-size="13" lengthAdjust="spacing" textLength="23.0356" x="502.2735" y="174.6888">0..*</text><text fill="#000000" font-family="sans-serif" font-size="13" lengthAdjust="spacing" textLength="8.271" x="907.3903" y="444.1363">1</text></g><!--link Enrollment to Course--><g class="link" data-entity-1="Enrollment" data-entity-2="Course" data-source-line="84" data-uid="lnk23" id="link_Enrollment_Course"><path codeLine="84" d="M439.71,154.8 C437.34,179.93 434.53,209.71 432.07,235.73" fill="none" id="Enrollment-Course" style="stroke:#181818;stroke-width:1;"/><polygon fill="#000000" points="440.5301,197.9943,444.3061,189.2654,438.4543,188.713,440.5301,197.9943" style="stroke:#000000;stroke-width:1;"/><text fill="#000000" font-family="sans-serif" font-size="13" lengthAdjust="spacing" textLength="45.3857" x="450" y="197.5169">Course</text><text fill="#000000" font-family="sans-serif" font-size="13" lengthAdjust="spacing" textLength="23.0356" x="414.7711" y="174.3409">0..*</text><text fill="#000000" font-family="sans-serif" font-size="13" lengthAdjust="spacing" textLength="8.271" x="424.2979" y="225.2957">1</text></g><!--link Student to Address--><g class="link" data-entity-1="Student" data-entity-2="Address" data-source-line="86" data-uid="lnk24" id="link_Student_Address"><path codeLine="86" d="M923.22,537.89 C917.42,539.35 911.66,540.74 906,542.06 C771.44,573.47 724.17,536.45 600,597.06 C570.96,611.24 543.71,634.58 522.63,655.82" fill="none" id="Student-Address" style="stroke:#181818;stroke-width:1;"/><polygon fill="#000000" points="660.2035,582.0384,669.7104,582.3033,668.0505,576.6647,660.2035,582.0384" style="stroke:#000000;stroke-width:1;"/><text fill="#000000" font-family="sans-serif" font-size="13" lengthAdjust="spacing" textLength="52.2856" x="674" y="585.1269">Address</text></g><!--link Course to Tag--><g class="link" data-entity-1="Course" data-entity-2="Tag" data-source-line="87" data-uid="lnk25" id="link_Course_Tag"><path codeLine="87" d="M404.14,366.11 C375.55,449.93 326.3,594.28 302.57,663.86" fill="none" id="Course-Tag" style="stroke:#181818;stroke-width:1;"/><polygon fill="#000000" points="378.3857,498.2886,384.0875,490.6768,378.5244,488.7791,378.3857,498.2886" style="stroke:#000000;stroke-width:1;"/><text fill="#000000" font-family="sans-serif" font-size="13" lengthAdjust="spacing" textLength="30.9321" x="389" y="498.0569">Tags</text></g><g class="legend" data-source-line="5"><rect fill="#DDDDDD" height="91.4844" rx="7.5" ry="7.5" style="stroke:#000000;stroke-width:1;" width="395.1367" x="819.8633" y="787.22"/><text fill="#000000" font-family="sans-serif" font-size="14" lengthAdjust="spacing" textLength="264.6396" x="824.8633" y="805.2151">&#171;RichType&#187;: Stark typisierte Primitive</text><text fill="#000000" font-family="sans-serif" font-size="14" lengthAdjust="spacing" textLength="288.4834" x="824.8633" y="821.512">&#171;ValueObject&#187;: Immutable Value Objects</text><text fill="#000000" font-family="sans-serif" font-size="14" lengthAdjust="spacing" textLength="196.4102" x="824.8633" y="837.8089">&#171;entity&#187;: Persistente Entit&#228;t</text><text fill="#000000" font-family="sans-serif" font-size="14" lengthAdjust="spacing" textLength="385.1367" x="824.8633" y="854.1057">&#171;unique&#187;: Eindeutige Einschr&#228;nkung auf Spaltenebene</text><text fill="#000000" font-family="sans-serif" font-size="14" lengthAdjust="spacing" textLength="98.5469" x="824.8633" y="870.4026">&#171;nn&#187;: Not null</text></g><!--SRC=[ZLJRQjj047tNLmmAD4aRX_QXeGZNu3XI2QIEYKqUIg6ifR6rpMfNNQq2Rfk_oP_anpghYoNPIbA1BUrSpyoSdKCOq0DNRADo0szWRhWeH4xC8mHCKhE114sieinn3YjhNACaRM4dYWDelewDCnpUy31UR58SZJmAnlGTc4tACuxQ8CmqJxZXzqY6jqpaUBtyYQ6njfT9aXks50Y50afDHeOe3JSRQpD3dV7Ca031jzAdHviob_nNNYJqES7A3L-Z_Sp2M3yzohjShe7bAvYdJ90pBkb7Rb9Qbwao87CX72gYBCMM-RdlWHaBxzWQitwruwIb7jnvp3H6t-LHfvPZ5rW6in-b5WvyFpWB0lZZ08I2PQIAbSHfdYnHmt08HpSd1q7W-vF9CTHjXT6eS01uLyJs83EQKu5bFQHvSBRnnb6aaTusrkt9mMH26ODZQ7M-5MvkDABPZqUgRppjbKzeBYy2MB3r_oMViWJxKoYXTAqfWZ-q-Zn3bGgisbeUW5eMVFJFYiXiIOwCCbNz9Vue2GsbwlG1rvcHps6uOYyeovXsDCzqGYfYgy2L0RMg47XUuqKM5pmBxSMGp2XDPtkTh5VJnxd98yBSW_mhevnXBfZXIaxL3WPeBaSzv2BGJAiLfrvvi2DeLrQpnslnQ7_4bv8ovY4Xxq7d9wbG6yHNW3tiLThWsGrvphM9BvYXTjl_Qoas7TH-mhZedvIzNLxxajMf3-4MDUebBGgKj0GvBHWj4SxnDyUua99LFOH1dWx-ZgfHahpLWLrLxU9-S6bP5g-z2RYZ7PdReVX4vJh3hE9uTQBTCGu- -UFMxYWrFGrRS2EUkLkqXRZ9F5llpgMpiIOgmjVurAhTwrAXYKPBm9BeYZRtaBvt1kvBhOH8-jbTAZ4QctBQ2vvqEVf5Cmiomf0dJ7Gutf2xfpPIRXksvJIXgeJk-zFJjzkHTOgaSJLdrsd1xphLkJiJVi6-obpPboVNSRQa6q1p7ycWEhWrOcjWjotK4MpNtNy0]--></g></svg>