<?xml version="1.0" encoding="UTF-8" standalone="no"?><svg xmlns="http://www.w3.org/2000/svg" xmlns:xlink="http://www.w3.org/1999/xlink" contentScriptType="application/ecmascript" contentStyleType="text/css" height="529px" preserveAspectRatio="none" style="width:815px;height:529px;" version="1.1" viewBox="0 0 815 529" width="815px" zoomAndPan="magnify"><defs><style type="text/css"><![CDATA[*.f_f1f1f1_070707 {fill:#f1f1f1;}*.s_181818_e7e7e7 {stroke:#181818;}*.f_add1b2_2e5233 {fill:#add1b2;}*.f_000000_ffffff {fill:#000000;}*.f_181818_e7e7e7 {fill:#181818;}@media (prefers-color-scheme:dark) {*.f_f1f1f1_070707 {fill:#070707;}*.s_181818_e7e7e7 {stroke:#e7e7e7;}*.f_add1b2_2e5233 {fill:#2e5233;}*.f_000000_ffffff {fill:#ffffff;}*.f_181818_e7e7e7 {fill:#e7e7e7;}}]]></style></defs><g><!--MD5=[b4d3d50c0abf08df45181fececb9f04d]
class Store--><rect class="f_f1f1f1_070707 s_181818_e7e7e7" codeLine="2" height="129.4844" id="Store" rx="2.5" ry="2.5" style="stroke-width:0.5;" width="367" x="108.5" y="188"/><ellipse class="f_add1b2_2e5233 s_181818_e7e7e7" cx="267.75" cy="204" rx="11" ry="11" style="stroke-width:1.0;"/><path class="f_000000_ffffff" d="M270.0938,199.6719 C269.1563,199.2344 268.5625,199.0938 267.6875,199.0938 C265.0625,199.0938 263.0625,201.1719 263.0625,203.8906 L263.0625,205.0156 C263.0625,207.5938 265.1719,209.4844 268.0625,209.4844 C269.2813,209.4844 270.4375,209.1875 271.1875,208.6406 C271.7656,208.2344 272.0938,207.7813 272.0938,207.3906 C272.0938,206.9375 271.7031,206.5469 271.2344,206.5469 C271.0156,206.5469 270.8125,206.625 270.625,206.8125 C270.1719,207.2969 270.1719,207.2969 269.9844,207.3906 C269.5625,207.6563 268.875,207.7813 268.1094,207.7813 C266.0625,207.7813 264.7656,206.6875 264.7656,204.9844 L264.7656,203.8906 C264.7656,202.1094 266.0156,200.7969 267.75,200.7969 C268.3281,200.7969 268.9375,200.9531 269.4063,201.2031 C269.8906,201.4844 270.0625,201.7031 270.1563,202.1094 C270.2188,202.5156 270.25,202.6406 270.3906,202.7656 C270.5313,202.9063 270.7656,203.0156 270.9844,203.0156 C271.25,203.0156 271.5156,202.875 271.6875,202.6563 C271.7969,202.5 271.8281,202.3125 271.8281,201.8906 L271.8281,200.4688 C271.8281,200.0313 271.8125,199.9063 271.7188,199.75 C271.5625,199.4844 271.2813,199.3438 270.9844,199.3438 C270.6875,199.3438 270.4844,199.4375 270.2656,199.75 L270.0938,199.6719 Z "/><text class="f_000000_ffffff" font-family="sans-serif" font-size="14" lengthAdjust="spacing" textLength="40" x="288.25" y="208.8467">Store</text><line class="s_181818_e7e7e7" style="stroke-width:0.5;" x1="109.5" x2="474.5" y1="220" y2="220"/><ellipse cx="119.5" cy="231" fill="none" rx="3" ry="3" style="stroke:#038048;stroke-width:1.0;"/><text class="f_000000_ffffff" font-family="sans-serif" font-size="14" lengthAdjust="spacing" textLength="46" x="128.5" y="236.9951">Id : int</text><ellipse cx="119.5" cy="247.2969" fill="none" rx="3" ry="3" style="stroke:#038048;stroke-width:1.0;"/><text class="f_000000_ffffff" font-family="sans-serif" font-size="14" lengthAdjust="spacing" textLength="77" x="128.5" y="253.292">Guid : Guid</text><ellipse cx="119.5" cy="263.5938" fill="none" rx="3" ry="3" style="stroke:#038048;stroke-width:1.0;"/><text class="f_000000_ffffff" font-family="sans-serif" font-size="14" lengthAdjust="spacing" textLength="96" x="128.5" y="269.5889">Name : string</text><ellipse cx="119.5" cy="279.8906" fill="none" rx="3" ry="3" style="stroke:#038048;stroke-width:1.0;"/><text class="f_000000_ffffff" font-family="sans-serif" font-size="14" lengthAdjust="spacing" textLength="112" x="128.5" y="285.8857">Manager : User?</text><line class="s_181818_e7e7e7" style="stroke-width:1.0;" x1="109.5" x2="474.5" y1="293.1875" y2="293.1875"/><ellipse cx="119.5" cy="304.1875" fill="#84BE84" rx="3" ry="3" style="stroke:#038048;stroke-width:1.0;"/><text class="f_000000_ffffff" font-family="sans-serif" font-size="14" lengthAdjust="spacing" textLength="341" x="128.5" y="310.1826">public Store(string name, User? manager = null)</text><!--MD5=[3fd616f346a44cd59a91eb10b19e157c]
class User--><rect class="f_f1f1f1_070707 s_181818_e7e7e7" codeLine="11" height="145.7813" id="User" rx="2.5" ry="2.5" style="stroke-width:0.5;" width="556" x="7" y="377"/><ellipse class="f_add1b2_2e5233 s_181818_e7e7e7" cx="265.25" cy="393" rx="11" ry="11" style="stroke-width:1.0;"/><path class="f_000000_ffffff" d="M267.5938,388.6719 C266.6563,388.2344 266.0625,388.0938 265.1875,388.0938 C262.5625,388.0938 260.5625,390.1719 260.5625,392.8906 L260.5625,394.0156 C260.5625,396.5938 262.6719,398.4844 265.5625,398.4844 C266.7813,398.4844 267.9375,398.1875 268.6875,397.6406 C269.2656,397.2344 269.5938,396.7813 269.5938,396.3906 C269.5938,395.9375 269.2031,395.5469 268.7344,395.5469 C268.5156,395.5469 268.3125,395.625 268.125,395.8125 C267.6719,396.2969 267.6719,396.2969 267.4844,396.3906 C267.0625,396.6563 266.375,396.7813 265.6094,396.7813 C263.5625,396.7813 262.2656,395.6875 262.2656,393.9844 L262.2656,392.8906 C262.2656,391.1094 263.5156,389.7969 265.25,389.7969 C265.8281,389.7969 266.4375,389.9531 266.9063,390.2031 C267.3906,390.4844 267.5625,390.7031 267.6563,391.1094 C267.7188,391.5156 267.75,391.6406 267.8906,391.7656 C268.0313,391.9063 268.2656,392.0156 268.4844,392.0156 C268.75,392.0156 269.0156,391.875 269.1875,391.6563 C269.2969,391.5 269.3281,391.3125 269.3281,390.8906 L269.3281,389.4688 C269.3281,389.0313 269.3125,388.9063 269.2188,388.75 C269.0625,388.4844 268.7813,388.3438 268.4844,388.3438 C268.1875,388.3438 267.9844,388.4375 267.7656,388.75 L267.5938,388.6719 Z "/><text class="f_000000_ffffff" font-family="sans-serif" font-size="14" lengthAdjust="spacing" textLength="31" x="285.75" y="397.8467">User</text><line class="s_181818_e7e7e7" style="stroke-width:0.5;" x1="8" x2="562" y1="409" y2="409"/><ellipse cx="18" cy="420" fill="none" rx="3" ry="3" style="stroke:#038048;stroke-width:1.0;"/><text class="f_000000_ffffff" font-family="sans-serif" font-size="14" lengthAdjust="spacing" textLength="42" x="27" y="425.9951">Id: int</text><ellipse cx="18" cy="436.2969" fill="none" rx="3" ry="3" style="stroke:#038048;stroke-width:1.0;"/><text class="f_000000_ffffff" font-family="sans-serif" font-size="14" lengthAdjust="spacing" textLength="126" x="27" y="442.292">Username : string</text><ellipse cx="18" cy="452.5938" fill="none" rx="3" ry="3" style="stroke:#038048;stroke-width:1.0;"/><text class="f_000000_ffffff" font-family="sans-serif" font-size="14" lengthAdjust="spacing" textLength="79" x="27" y="458.5889">Salt: string</text><ellipse cx="18" cy="468.8906" fill="none" rx="3" ry="3" style="stroke:#038048;stroke-width:1.0;"/><text class="f_000000_ffffff" font-family="sans-serif" font-size="14" lengthAdjust="spacing" textLength="155" x="27" y="474.8857">PasswordHash : string</text><ellipse cx="18" cy="485.1875" fill="none" rx="3" ry="3" style="stroke:#038048;stroke-width:1.0;"/><text class="f_000000_ffffff" font-family="sans-serif" font-size="14" lengthAdjust="spacing" textLength="93" x="27" y="491.1826">Store : Store</text><line class="s_181818_e7e7e7" style="stroke-width:1.0;" x1="8" x2="562" y1="498.4844" y2="498.4844"/><ellipse cx="18" cy="509.4844" fill="#84BE84" rx="3" ry="3" style="stroke:#038048;stroke-width:1.0;"/><text class="f_000000_ffffff" font-family="sans-serif" font-size="14" lengthAdjust="spacing" textLength="530" x="27" y="515.4795">public User(string username, string salt, string passwordHash, Store store)</text><!--MD5=[af8ed831b3fe9dbd380fec6c597723ab]
class Offer--><rect class="f_f1f1f1_070707 s_181818_e7e7e7" codeLine="23" height="121.4844" id="Offer" rx="2.5" ry="2.5" style="stroke-width:0.5;" width="192" x="383" y="7"/><ellipse class="f_add1b2_2e5233 s_181818_e7e7e7" cx="455.75" cy="23" rx="11" ry="11" style="stroke-width:1.0;"/><path class="f_000000_ffffff" d="M458.0938,18.6719 C457.1563,18.2344 456.5625,18.0938 455.6875,18.0938 C453.0625,18.0938 451.0625,20.1719 451.0625,22.8906 L451.0625,24.0156 C451.0625,26.5938 453.1719,28.4844 456.0625,28.4844 C457.2813,28.4844 458.4375,28.1875 459.1875,27.6406 C459.7656,27.2344 460.0938,26.7813 460.0938,26.3906 C460.0938,25.9375 459.7031,25.5469 459.2344,25.5469 C459.0156,25.5469 458.8125,25.625 458.625,25.8125 C458.1719,26.2969 458.1719,26.2969 457.9844,26.3906 C457.5625,26.6563 456.875,26.7813 456.1094,26.7813 C454.0625,26.7813 452.7656,25.6875 452.7656,23.9844 L452.7656,22.8906 C452.7656,21.1094 454.0156,19.7969 455.75,19.7969 C456.3281,19.7969 456.9375,19.9531 457.4063,20.2031 C457.8906,20.4844 458.0625,20.7031 458.1563,21.1094 C458.2188,21.5156 458.25,21.6406 458.3906,21.7656 C458.5313,21.9063 458.7656,22.0156 458.9844,22.0156 C459.25,22.0156 459.5156,21.875 459.6875,21.6563 C459.7969,21.5 459.8281,21.3125 459.8281,20.8906 L459.8281,19.4688 C459.8281,19.0313 459.8125,18.9063 459.7188,18.75 C459.5625,18.4844 459.2813,18.3438 458.9844,18.3438 C458.6875,18.3438 458.4844,18.4375 458.2656,18.75 L458.0938,18.6719 Z "/><text class="f_000000_ffffff" font-family="sans-serif" font-size="14" lengthAdjust="spacing" textLength="38" x="476.25" y="27.8467">Offer</text><line class="s_181818_e7e7e7" style="stroke-width:0.5;" x1="384" x2="574" y1="39" y2="39"/><ellipse cx="394" cy="50" fill="none" rx="3" ry="3" style="stroke:#038048;stroke-width:1.0;"/><text class="f_000000_ffffff" font-family="sans-serif" font-size="14" lengthAdjust="spacing" textLength="46" x="403" y="55.9951">Id : int</text><ellipse cx="394" cy="66.2969" fill="none" rx="3" ry="3" style="stroke:#038048;stroke-width:1.0;"/><text class="f_000000_ffffff" font-family="sans-serif" font-size="14" lengthAdjust="spacing" textLength="125" x="403" y="72.292">Product : Product</text><ellipse cx="394" cy="82.5938" fill="none" rx="3" ry="3" style="stroke:#038048;stroke-width:1.0;"/><text class="f_000000_ffffff" font-family="sans-serif" font-size="14" lengthAdjust="spacing" textLength="93" x="403" y="88.5889">Store : Store</text><ellipse cx="394" cy="98.8906" fill="none" rx="3" ry="3" style="stroke:#038048;stroke-width:1.0;"/><text class="f_000000_ffffff" font-family="sans-serif" font-size="14" lengthAdjust="spacing" textLength="105" x="403" y="104.8857">Price : decimal</text><ellipse cx="394" cy="115.1875" fill="none" rx="3" ry="3" style="stroke:#038048;stroke-width:1.0;"/><text class="f_000000_ffffff" font-family="sans-serif" font-size="14" lengthAdjust="spacing" textLength="166" x="403" y="121.1826">LastUpdate : DateTime</text><!--MD5=[72136138052d025cffdce3c22fbd185f]
class Product--><rect class="f_f1f1f1_070707 s_181818_e7e7e7" codeLine="40" height="88.8906" id="Product" rx="2.5" ry="2.5" style="stroke-width:0.5;" width="283" x="525.5" y="208"/><ellipse class="f_add1b2_2e5233 s_181818_e7e7e7" cx="634.75" cy="224" rx="11" ry="11" style="stroke-width:1.0;"/><path class="f_000000_ffffff" d="M637.0938,219.6719 C636.1563,219.2344 635.5625,219.0938 634.6875,219.0938 C632.0625,219.0938 630.0625,221.1719 630.0625,223.8906 L630.0625,225.0156 C630.0625,227.5938 632.1719,229.4844 635.0625,229.4844 C636.2813,229.4844 637.4375,229.1875 638.1875,228.6406 C638.7656,228.2344 639.0938,227.7813 639.0938,227.3906 C639.0938,226.9375 638.7031,226.5469 638.2344,226.5469 C638.0156,226.5469 637.8125,226.625 637.625,226.8125 C637.1719,227.2969 637.1719,227.2969 636.9844,227.3906 C636.5625,227.6563 635.875,227.7813 635.1094,227.7813 C633.0625,227.7813 631.7656,226.6875 631.7656,224.9844 L631.7656,223.8906 C631.7656,222.1094 633.0156,220.7969 634.75,220.7969 C635.3281,220.7969 635.9375,220.9531 636.4063,221.2031 C636.8906,221.4844 637.0625,221.7031 637.1563,222.1094 C637.2188,222.5156 637.25,222.6406 637.3906,222.7656 C637.5313,222.9063 637.7656,223.0156 637.9844,223.0156 C638.25,223.0156 638.5156,222.875 638.6875,222.6563 C638.7969,222.5 638.8281,222.3125 638.8281,221.8906 L638.8281,220.4688 C638.8281,220.0313 638.8125,219.9063 638.7188,219.75 C638.5625,219.4844 638.2813,219.3438 637.9844,219.3438 C637.6875,219.3438 637.4844,219.4375 637.2656,219.75 L637.0938,219.6719 Z "/><text class="f_000000_ffffff" font-family="sans-serif" font-size="14" lengthAdjust="spacing" textLength="56" x="655.25" y="228.8467">Product</text><line class="s_181818_e7e7e7" style="stroke-width:0.5;" x1="526.5" x2="807.5" y1="240" y2="240"/><ellipse cx="536.5" cy="251" fill="none" rx="3" ry="3" style="stroke:#038048;stroke-width:1.0;"/><text class="f_000000_ffffff" font-family="sans-serif" font-size="14" lengthAdjust="spacing" textLength="59" x="545.5" y="256.9951">Ean : int</text><ellipse cx="536.5" cy="267.2969" fill="none" rx="3" ry="3" style="stroke:#038048;stroke-width:1.0;"/><text class="f_000000_ffffff" font-family="sans-serif" font-size="14" lengthAdjust="spacing" textLength="96" x="545.5" y="273.292">Name : string</text><ellipse cx="536.5" cy="283.5938" fill="none" rx="3" ry="3" style="stroke:#038048;stroke-width:1.0;"/><text class="f_000000_ffffff" font-family="sans-serif" font-size="14" lengthAdjust="spacing" textLength="257" x="545.5" y="289.5889">ProductCategory : ProductCategory</text><!--MD5=[a1db4bf20df23ac2cd9366d22a9e2860]
class ProductCategory--><rect class="f_f1f1f1_070707 s_181818_e7e7e7" codeLine="34" height="88.8906" id="ProductCategory" rx="2.5" ry="2.5" style="stroke-width:0.5;" width="154" x="598" y="405.5"/><ellipse class="f_add1b2_2e5233 s_181818_e7e7e7" cx="613" cy="421.5" rx="11" ry="11" style="stroke-width:1.0;"/><path class="f_000000_ffffff" d="M615.3438,417.1719 C614.4063,416.7344 613.8125,416.5938 612.9375,416.5938 C610.3125,416.5938 608.3125,418.6719 608.3125,421.3906 L608.3125,422.5156 C608.3125,425.0938 610.4219,426.9844 613.3125,426.9844 C614.5313,426.9844 615.6875,426.6875 616.4375,426.1406 C617.0156,425.7344 617.3438,425.2813 617.3438,424.8906 C617.3438,424.4375 616.9531,424.0469 616.4844,424.0469 C616.2656,424.0469 616.0625,424.125 615.875,424.3125 C615.4219,424.7969 615.4219,424.7969 615.2344,424.8906 C614.8125,425.1563 614.125,425.2813 613.3594,425.2813 C611.3125,425.2813 610.0156,424.1875 610.0156,422.4844 L610.0156,421.3906 C610.0156,419.6094 611.2656,418.2969 613,418.2969 C613.5781,418.2969 614.1875,418.4531 614.6563,418.7031 C615.1406,418.9844 615.3125,419.2031 615.4063,419.6094 C615.4688,420.0156 615.5,420.1406 615.6406,420.2656 C615.7813,420.4063 616.0156,420.5156 616.2344,420.5156 C616.5,420.5156 616.7656,420.375 616.9375,420.1563 C617.0469,420 617.0781,419.8125 617.0781,419.3906 L617.0781,417.9688 C617.0781,417.5313 617.0625,417.4063 616.9688,417.25 C616.8125,416.9844 616.5313,416.8438 616.2344,416.8438 C615.9375,416.8438 615.7344,416.9375 615.5156,417.25 L615.3438,417.1719 Z "/><text class="f_000000_ffffff" font-family="sans-serif" font-size="14" lengthAdjust="spacing" textLength="122" x="627" y="426.3467">ProductCategory</text><line class="s_181818_e7e7e7" style="stroke-width:0.5;" x1="599" x2="751" y1="437.5" y2="437.5"/><ellipse cx="609" cy="448.5" fill="none" rx="3" ry="3" style="stroke:#038048;stroke-width:1.0;"/><text class="f_000000_ffffff" font-family="sans-serif" font-size="14" lengthAdjust="spacing" textLength="46" x="618" y="454.4951">Id : int</text><ellipse cx="609" cy="464.7969" fill="none" rx="3" ry="3" style="stroke:#038048;stroke-width:1.0;"/><text class="f_000000_ffffff" font-family="sans-serif" font-size="14" lengthAdjust="spacing" textLength="96" x="618" y="470.792">Name : string</text><ellipse cx="609" cy="481.0938" fill="none" rx="3" ry="3" style="stroke:#038048;stroke-width:1.0;"/><text class="f_000000_ffffff" font-family="sans-serif" font-size="14" lengthAdjust="spacing" textLength="121" x="618" y="487.0889">NameEn : string?</text><!--MD5=[076a35433271d59c6f2113bec5209391]
link Store to User--><path class="s_181818_e7e7e7" codeLine="21" d="M289.524,322.652 C288.954,338.579 288.344,355.617 287.762,371.86 " fill="none" id="Store-User" style="stroke-width:1.0;"/><polygon class="f_181818_e7e7e7 s_181818_e7e7e7" points="287.583,376.873,291.9045,368.0229,287.763,371.8762,283.9097,367.7348,287.583,376.873" style="stroke-width:1.0;"/><polygon class="f_181818_e7e7e7 s_181818_e7e7e7" points="289.718,317.243,285.3991,326.0944,289.5394,322.2398,293.394,326.3801,289.718,317.243" style="stroke-width:1.0;"/><text class="f_000000_ffffff" font-family="sans-serif" font-size="13" lengthAdjust="spacing" textLength="8" x="280.9916" y="337.6427">1</text><text class="f_000000_ffffff" font-family="sans-serif" font-size="13" lengthAdjust="spacing" textLength="24" x="262.656" y="366.0205">0..1</text><!--MD5=[70935dd098ed5da231aa315676372594]
link Offer to Store--><path class="s_181818_e7e7e7" codeLine="31" d="M409.4516,136.5611 C409.4516,136.5611 380.273,165.116 366.502,178.592 " fill="none" id="Offer-Store" style="stroke-width:1.0;"/><polygon class="f_181818_e7e7e7 s_181818_e7e7e7" points="357.076,187.816,366.3058,184.3792,360.6492,184.3186,360.7099,178.6621,357.076,187.816" style="stroke-width:1.0;"/><line class="s_181818_e7e7e7" style="stroke-width:1.0;" x1="360.6492" x2="366.3675" y1="184.3186" y2="178.7235"/><polygon class="s_181818_e7e7e7" fill="none" points="418.028,128.168,410.9421,129.5058,409.4516,136.5611,416.5375,135.2234,418.028,128.168" style="stroke-width:1.0;"/><!--MD5=[48899a5fad677940e75da7b5e010d5cb]
link Offer to Product--><path class="s_181818_e7e7e7" codeLine="32" d="M548.8972,136.5378 C548.8972,136.5378 593.148,179.612 612.781,198.723 " fill="none" id="Offer-Product" style="stroke-width:1.0;"/><polygon class="f_181818_e7e7e7 s_181818_e7e7e7" points="622.171,207.864,618.5122,198.72,618.5883,204.3763,612.9319,204.4523,622.171,207.864" style="stroke-width:1.0;"/><line class="s_181818_e7e7e7" style="stroke-width:1.0;" x1="618.5883" x2="612.856" y1="204.3763" y2="198.7955"/><polygon class="s_181818_e7e7e7" fill="none" points="540.298,128.168,541.8077,135.2193,548.8972,136.5378,547.3875,129.4865,540.298,128.168" style="stroke-width:1.0;"/><!--MD5=[5c0c66984b48f13f6f1fd84ba8e61151]
link Product to ProductCategory--><path class="s_181818_e7e7e7" codeLine="45" d="M669.2856,309.364 C669.2856,309.364 671.621,366.422 672.667,391.982 " fill="none" id="Product-ProductCategory" style="stroke-width:1.0;"/><polygon class="f_181818_e7e7e7 s_181818_e7e7e7" points="673.211,405.272,676.8397,396.116,673.0066,400.2762,668.8464,396.443,673.211,405.272" style="stroke-width:1.0;"/><line class="s_181818_e7e7e7" style="stroke-width:1.0;" x1="673.0066" x2="672.679" y1="400.2762" y2="392.283"/><polygon class="s_181818_e7e7e7" fill="none" points="668.795,297.374,665.0436,303.5325,669.2856,309.364,673.0369,303.2055,668.795,297.374" style="stroke-width:1.0;"/><!--MD5=[4c5ce5845ca3568712ee65823cdf49a5]
@startuml
hide empty methods
class Store {
    +Id : int
    +Guid : Guid
    +Name : string
    +Manager : User?
    - - -
    +public Store(string name, User? manager = null)
}

class User {
    +Id: int
    +Username : string
    +Salt: string
    +PasswordHash : string
    +Store : Store
    - - -
    +public User(string username, string salt, string passwordHash, Store store)
}

Store "1"<- ->"0..1" User

class Offer {
    +Id : int
    +Product : Product
    +Store : Store
    +Price : decimal
    +LastUpdate : DateTime
}

Offer o- -> Store
Offer o- -> Product

class ProductCategory {
    +Id : int
    +Name : string
    +NameEn : string?
}

class Product {
    +Ean : int
    +Name : string
    +ProductCategory : ProductCategory
}
Product o- -> ProductCategory
@enduml

PlantUML version 1.2022.2beta5(Unknown compile time)
(GPL source distribution)
Java Runtime: Java(TM) SE Runtime Environment
JVM: Java HotSpot(TM) 64-Bit Server VM
Default Encoding: UTF-8
Language: en
Country: US
--></g></svg>