<svg xmlns="http://www.w3.org/2000/svg" xmlns:xlink="http://www.w3.org/1999/xlink" contentStyleType="text/css" data-diagram-type="CLASS" height="761px" preserveAspectRatio="none" style="width:1039px;height:761px;background:#FFFFFF;" version="1.1" viewBox="0 0 1039 761" width="1039px" zoomAndPan="magnify"><defs/><g><!--class Customer--><g class="entity" data-entity="Customer" data-source-line="3" data-uid="ent0002" id="entity_Customer"><rect fill="#F1F1F1" height="121.4531" rx="2.5" ry="2.5" style="stroke:#181818;stroke-width:0.5;" width="351.1992" x="7" y="15.15"/><ellipse cx="144.3477" cy="35.2828" fill="#ADD1B2" rx="11" ry="11" style="stroke:#181818;stroke-width:1;"/><path d="M148.457,41.2828 L140.7383,41.2828 L140.7383,28.8922 L148.457,28.8922 L148.457,31.0484 L143.1914,31.0484 L143.1914,33.7203 L147.957,33.7203 L147.957,35.8766 L143.1914,35.8766 L143.1914,39.1266 L148.457,39.1266 L148.457,41.2828 Z " fill="#000000"/><text fill="#000000" font-family="sans-serif" font-size="12" font-style="italic" lengthAdjust="spacing" textLength="49.7168" x="173.9912" y="31.2887">&#171;Entity&#187;</text><text fill="#000000" font-family="sans-serif" font-size="14" lengthAdjust="spacing" textLength="68.0039" x="164.8477" y="47.1139">Customer</text><line style="stroke:#181818;stroke-width:0.5;" x1="8" x2="357.1992" y1="55.4156" y2="55.4156"/><text fill="#000000" font-family="sans-serif" font-size="14" lengthAdjust="spacing" textLength="188.2891" x="13" y="72.4107">PhoneNumber: string &#171;nn&#187;</text><text fill="#000000" font-family="sans-serif" font-size="14" lengthAdjust="spacing" textLength="197.1143" x="13" y="88.7076">Email: string &#171;nn&#187; &#171;unique&#187;</text><text fill="#000000" font-family="sans-serif" font-size="14" lengthAdjust="spacing" textLength="144.457" x="13" y="105.0045">Orders: List&lt;Order&gt;</text><line style="stroke:#181818;stroke-width:0.5;" x1="8" x2="357.1992" y1="112.3062" y2="112.3062"/><g data-visibility-modifier="PUBLIC_METHOD"><ellipse cx="18" cy="125.9547" fill="#84BE84" rx="3" ry="3" style="stroke:#038048;stroke-width:1;"/></g><text fill="#000000" font-family="sans-serif" font-size="14" lengthAdjust="spacing" textLength="325.1992" x="27" y="129.3014">Customer(phoneNumber: string, email: string)</text></g><!--class Address--><g class="entity" data-entity="Address" data-source-line="11" data-uid="ent0003" id="entity_Address"><rect fill="#F1F1F1" height="97.1563" rx="2.5" ry="2.5" style="stroke:#181818;stroke-width:0.5;" width="115.6504" x="308.77" y="216.9"/><ellipse cx="323.77" cy="237.0328" fill="#CCEEFF" rx="11" ry="11" style="stroke:#181818;stroke-width:1;"/><path d="M323.8794,241.4859 L326.0669,231.1422 L328.5356,231.1422 L325.5825,243.5328 L322.1919,243.5328 L319.2388,231.1422 L321.7075,231.1422 L323.8794,241.4859 Z " fill="#000000"/><text fill="#000000" font-family="sans-serif" font-size="12" font-style="italic" lengthAdjust="spacing" textLength="87.6504" x="335.77" y="233.0387">&#171;ValueObject&#187;</text><text fill="#000000" font-family="sans-serif" font-size="14" lengthAdjust="spacing" textLength="56.3076" x="351.4414" y="248.8639">Address</text><line style="stroke:#181818;stroke-width:0.5;" x1="309.77" x2="423.4204" y1="257.1656" y2="257.1656"/><text fill="#000000" font-family="sans-serif" font-size="14" lengthAdjust="spacing" textLength="92.2031" x="314.77" y="274.1607">Street: string</text><text fill="#000000" font-family="sans-serif" font-size="14" lengthAdjust="spacing" textLength="71.7227" x="314.77" y="290.4576">Zip: string</text><text fill="#000000" font-family="sans-serif" font-size="14" lengthAdjust="spacing" textLength="76.7949" x="314.77" y="306.7545">City: string</text></g><!--class Restaurant--><g class="entity" data-entity="Restaurant" data-source-line="17" data-uid="ent0004" id="entity_Restaurant"><rect fill="#F1F1F1" height="137.75" rx="2.5" ry="2.5" style="stroke:#181818;stroke-width:0.5;" width="316.8213" x="393.19" y="7"/><ellipse cx="508.7139" cy="27.1328" fill="#ADD1B2" rx="11" ry="11" style="stroke:#181818;stroke-width:1;"/><path d="M512.8233,33.1328 L505.1046,33.1328 L505.1046,20.7422 L512.8233,20.7422 L512.8233,22.8984 L507.5577,22.8984 L507.5577,25.5703 L512.3233,25.5703 L512.3233,27.7266 L507.5577,27.7266 L507.5577,30.9766 L512.8233,30.9766 L512.8233,33.1328 Z " fill="#000000"/><text fill="#000000" font-family="sans-serif" font-size="12" font-style="italic" lengthAdjust="spacing" textLength="49.7168" x="542.9922" y="23.1387">&#171;Entity&#187;</text><text fill="#000000" font-family="sans-serif" font-size="14" lengthAdjust="spacing" textLength="77.2734" x="529.2139" y="38.9639">Restaurant</text><line style="stroke:#181818;stroke-width:0.5;" x1="394.19" x2="709.0113" y1="47.2656" y2="47.2656"/><text fill="#000000" font-family="sans-serif" font-size="14" lengthAdjust="spacing" textLength="199.5752" x="399.19" y="64.2607">Name: string &#171;nn&#187; &#171;unique&#187;</text><text fill="#000000" font-family="sans-serif" font-size="14" lengthAdjust="spacing" textLength="161.1094" x="399.19" y="80.5576">Address: Address &#171;nn&#187;</text><text fill="#000000" font-family="sans-serif" font-size="14" lengthAdjust="spacing" textLength="171.8145" x="399.19" y="96.8545">Products: List&lt;Product&gt;</text><text fill="#000000" font-family="sans-serif" font-size="14" lengthAdjust="spacing" textLength="144.457" x="399.19" y="113.1514">Orders: List&lt;Order&gt;</text><line style="stroke:#181818;stroke-width:0.5;" x1="394.19" x2="709.0113" y1="120.4531" y2="120.4531"/><g data-visibility-modifier="PUBLIC_METHOD"><ellipse cx="404.19" cy="134.1016" fill="#84BE84" rx="3" ry="3" style="stroke:#038048;stroke-width:1;"/></g><text fill="#000000" font-family="sans-serif" font-size="14" lengthAdjust="spacing" textLength="290.8213" x="413.19" y="137.4482">Restaurant(name: string, address: string)</text></g><!--class Product--><g class="entity" data-entity="Product" data-source-line="28" data-uid="ent0006" id="entity_Product"><rect fill="#F1F1F1" height="154.0469" rx="2.5" ry="2.5" style="stroke:#181818;stroke-width:0.5;" width="286.7842" x="746.21" y="402.5"/><ellipse cx="858.4971" cy="422.6328" fill="#ADD1B2" rx="11" ry="11" style="stroke:#181818;stroke-width:1;"/><path d="M862.6065,428.6328 L854.8877,428.6328 L854.8877,416.2422 L862.6065,416.2422 L862.6065,418.3984 L857.3409,418.3984 L857.3409,421.0703 L862.1065,421.0703 L862.1065,423.2266 L857.3409,423.2266 L857.3409,426.4766 L862.6065,426.4766 L862.6065,428.6328 Z " fill="#000000"/><text fill="#000000" font-family="sans-serif" font-size="12" font-style="italic" lengthAdjust="spacing" textLength="49.7168" x="880.9937" y="418.6387">&#171;Entity&#187;</text><text fill="#000000" font-family="sans-serif" font-size="14" lengthAdjust="spacing" textLength="53.71" x="878.9971" y="434.4639">Product</text><line style="stroke:#181818;stroke-width:0.5;" x1="747.21" x2="1031.9942" y1="442.7656" y2="442.7656"/><text fill="#000000" font-family="sans-serif" font-size="14" lengthAdjust="spacing" textLength="199.5752" x="752.21" y="459.7607">Name: string &#171;nn&#187; &#171;unique&#187;</text><text fill="#000000" font-family="sans-serif" font-size="14" lengthAdjust="spacing" textLength="138.0859" x="752.21" y="476.0576">Price: decimal &#171;nn&#187;</text><text fill="#000000" font-family="sans-serif" font-size="14" lengthAdjust="spacing" textLength="203.041" x="752.21" y="492.3545">Restaurant: Restaurant &#171;nn&#187;</text><text fill="#000000" font-family="sans-serif" font-size="14" lengthAdjust="spacing" textLength="208.1953" x="752.21" y="508.6514">OrderItems: List&lt;OrderItem&gt;</text><line style="stroke:#181818;stroke-width:0.5;" x1="747.21" x2="1031.9942" y1="515.9531" y2="515.9531"/><g data-visibility-modifier="PUBLIC_METHOD"><ellipse cx="757.21" cy="529.6016" fill="#84BE84" rx="3" ry="3" style="stroke:#038048;stroke-width:1;"/></g><text fill="#000000" font-family="sans-serif" font-size="14" lengthAdjust="spacing" textLength="260.7842" x="766.21" y="532.9482">Product(name: string, price: decimal,</text><text fill="#000000" font-family="sans-serif" font-size="14" lengthAdjust="spacing" textLength="165.2041" x="766.21" y="549.2451">restaurant: Restaurant)</text></g><!--class Driver--><g class="entity" data-entity="Driver" data-source-line="38" data-uid="ent0007" id="entity_Driver"><rect fill="#F1F1F1" height="121.4531" rx="2.5" ry="2.5" style="stroke:#181818;stroke-width:0.5;" width="319.6309" x="530.78" y="204.75"/><ellipse cx="663.487" cy="224.8828" fill="#ADD1B2" rx="11" ry="11" style="stroke:#181818;stroke-width:1;"/><path d="M667.5964,230.8828 L659.8777,230.8828 L659.8777,218.4922 L667.5964,218.4922 L667.5964,220.6484 L662.3308,220.6484 L662.3308,223.3203 L667.0964,223.3203 L667.0964,225.4766 L662.3308,225.4766 L662.3308,228.7266 L667.5964,228.7266 L667.5964,230.8828 Z " fill="#000000"/><text fill="#000000" font-family="sans-serif" font-size="12" font-style="italic" lengthAdjust="spacing" textLength="49.7168" x="681.987" y="220.8887">&#171;Entity&#187;</text><text fill="#000000" font-family="sans-serif" font-size="14" lengthAdjust="spacing" textLength="43.0801" x="685.3054" y="236.7139">Driver</text><line style="stroke:#181818;stroke-width:0.5;" x1="531.78" x2="849.4109" y1="245.0156" y2="245.0156"/><text fill="#000000" font-family="sans-serif" font-size="14" lengthAdjust="spacing" textLength="158.8672" x="536.78" y="262.0107">Firstname: string &#171;nn&#187;</text><text fill="#000000" font-family="sans-serif" font-size="14" lengthAdjust="spacing" textLength="157.5479" x="536.78" y="278.3076">Lastname: string &#171;nn&#187;</text><text fill="#000000" font-family="sans-serif" font-size="14" lengthAdjust="spacing" textLength="144.457" x="536.78" y="294.6045">Orders: List&lt;Order&gt;</text><line style="stroke:#181818;stroke-width:0.5;" x1="531.78" x2="849.4109" y1="301.9063" y2="301.9063"/><g data-visibility-modifier="PUBLIC_METHOD"><ellipse cx="541.78" cy="315.5547" fill="#84BE84" rx="3" ry="3" style="stroke:#038048;stroke-width:1;"/></g><text fill="#000000" font-family="sans-serif" font-size="14" lengthAdjust="spacing" textLength="293.6309" x="550.78" y="318.9014">Driver(firstname: string, lastname: string)</text></g><!--class Order--><g class="entity" data-entity="Order" data-source-line="46" data-uid="ent0008" id="entity_Order"><rect fill="#F1F1F1" height="186.6406" rx="2.5" ry="2.5" style="stroke:#181818;stroke-width:0.5;" width="387.6826" x="310.76" y="386.21"/><ellipse cx="477.4929" cy="406.3428" fill="#ADD1B2" rx="11" ry="11" style="stroke:#181818;stroke-width:1;"/><path d="M481.6023,412.3428 L473.8835,412.3428 L473.8835,399.9522 L481.6023,399.9522 L481.6023,402.1084 L476.3367,402.1084 L476.3367,404.7803 L481.1023,404.7803 L481.1023,406.9366 L476.3367,406.9366 L476.3367,410.1866 L481.6023,410.1866 L481.6023,412.3428 Z " fill="#000000"/><text fill="#000000" font-family="sans-serif" font-size="12" font-style="italic" lengthAdjust="spacing" textLength="49.7168" x="495.9929" y="402.3487">&#171;Entity&#187;</text><text fill="#000000" font-family="sans-serif" font-size="14" lengthAdjust="spacing" textLength="40.0313" x="500.8357" y="418.1739">Order</text><line style="stroke:#181818;stroke-width:0.5;" x1="311.76" x2="697.4426" y1="426.4756" y2="426.4756"/><text fill="#000000" font-family="sans-serif" font-size="14" lengthAdjust="spacing" textLength="184.502" x="316.76" y="443.4707">Customer: Customer &#171;nn&#187;</text><text fill="#000000" font-family="sans-serif" font-size="14" lengthAdjust="spacing" textLength="203.041" x="316.76" y="459.7676">Restaurant: Restaurant &#171;nn&#187;</text><text fill="#000000" font-family="sans-serif" font-size="14" lengthAdjust="spacing" textLength="102.7578" x="316.76" y="476.0645">Driver: Driver?</text><text fill="#000000" font-family="sans-serif" font-size="14" lengthAdjust="spacing" textLength="190.1416" x="316.76" y="492.3614">OrderDate: DateTime &#171;nn&#187;</text><text fill="#000000" font-family="sans-serif" font-size="14" lengthAdjust="spacing" textLength="167.1455" x="316.76" y="508.6582">DeliveredAt: DateTime?</text><text fill="#000000" font-family="sans-serif" font-size="14" lengthAdjust="spacing" textLength="208.1953" x="316.76" y="524.9551">OrderItems: List&lt;OrderItem&gt;</text><line style="stroke:#181818;stroke-width:0.5;" x1="311.76" x2="697.4426" y1="532.2569" y2="532.2569"/><g data-visibility-modifier="PUBLIC_METHOD"><ellipse cx="321.76" cy="545.9053" fill="#84BE84" rx="3" ry="3" style="stroke:#038048;stroke-width:1;"/></g><text fill="#000000" font-family="sans-serif" font-size="14" lengthAdjust="spacing" textLength="361.6826" x="330.76" y="549.252">Order(customer: Customer, restaurant: Restaurant,</text><text fill="#000000" font-family="sans-serif" font-size="14" lengthAdjust="spacing" textLength="153.8223" x="330.76" y="565.5489">orderDate: DateTime)</text></g><!--class OrderItem--><g class="entity" data-entity="OrderItem" data-source-line="58" data-uid="ent0009" id="entity_OrderItem"><rect fill="#F1F1F1" height="121.4531" rx="2.5" ry="2.5" style="stroke:#181818;stroke-width:0.5;" width="416.2158" x="482.49" y="632.85"/><ellipse cx="650.3977" cy="652.9828" fill="#ADD1B2" rx="11" ry="11" style="stroke:#181818;stroke-width:1;"/><path d="M654.5071,658.9828 L646.7883,658.9828 L646.7883,646.5922 L654.5071,646.5922 L654.5071,648.7484 L649.2415,648.7484 L649.2415,651.4203 L654.0071,651.4203 L654.0071,653.5766 L649.2415,653.5766 L649.2415,656.8266 L654.5071,656.8266 L654.5071,658.9828 Z " fill="#000000"/><text fill="#000000" font-family="sans-serif" font-size="12" font-style="italic" lengthAdjust="spacing" textLength="49.7168" x="681.9895" y="648.9887">&#171;Entity&#187;</text><text fill="#000000" font-family="sans-serif" font-size="14" lengthAdjust="spacing" textLength="71.9004" x="670.8977" y="664.8139">OrderItem</text><line style="stroke:#181818;stroke-width:0.5;" x1="483.49" x2="897.7058" y1="673.1156" y2="673.1156"/><text fill="#000000" font-family="sans-serif" font-size="14" lengthAdjust="spacing" textLength="128.5566" x="488.49" y="690.1107">Order: Order &#171;nn&#187;</text><text fill="#000000" font-family="sans-serif" font-size="14" lengthAdjust="spacing" textLength="155.9141" x="488.49" y="706.4076">Product: Product &#171;nn&#187;</text><text fill="#000000" font-family="sans-serif" font-size="14" lengthAdjust="spacing" textLength="127.2441" x="488.49" y="722.7045">Quantity: int &#171;nn&#187;</text><line style="stroke:#181818;stroke-width:0.5;" x1="483.49" x2="897.7058" y1="730.0062" y2="730.0062"/><g data-visibility-modifier="PUBLIC_METHOD"><ellipse cx="493.49" cy="743.6547" fill="#84BE84" rx="3" ry="3" style="stroke:#038048;stroke-width:1;"/></g><text fill="#000000" font-family="sans-serif" font-size="14" lengthAdjust="spacing" textLength="390.2158" x="502.49" y="747.0014">OrderItem(order: Order, product: Product, quantity: int)</text></g><!--link Restaurant to Address--><g class="link" data-entity-1="Restaurant" data-entity-2="Address" data-source-line="26" data-uid="lnk5" id="link_Restaurant_Address"><path codeLine="26" d="M484.29,145.14 C460.94,168.81 435.27,194.84 413.88,216.53" fill="none" id="Restaurant-Address" style="stroke:#181818;stroke-width:1;"/></g><!--link Customer to Order--><g class="link" data-entity-1="Customer" data-entity-2="Order" data-source-line="66" data-uid="lnk10" id="link_Customer_Order"><path codeLine="66" d="M198.83,136.9 C215.56,190.68 245.72,269.59 291.6,326.21 C309.13,347.84 325.7911,364.0839 348.1011,381.9939" fill="none" id="Customer-to-Order" style="stroke:#181818;stroke-width:1;"/><polygon fill="#181818" points="352.78,385.75,348.2658,376.9966,348.8809,382.6199,343.2576,383.2351,352.78,385.75" style="stroke:#181818;stroke-width:1;"/><text fill="#000000" font-family="sans-serif" font-size="13" lengthAdjust="spacing" textLength="8.271" x="192.1825" y="156.4689">1</text><text fill="#000000" font-family="sans-serif" font-size="13" lengthAdjust="spacing" textLength="24.7749" x="316.2671" y="375.0677">0..n</text></g><!--link Restaurant to Product--><g class="link" data-entity-1="Restaurant" data-entity-2="Product" data-source-line="67" data-uid="lnk11" id="link_Restaurant_Product"><path codeLine="67" d="M710.46,104.66 C769.06,123.13 830.21,153.82 867.6,204.75 C908.94,261.07 910.8232,336.6157 904.3132,396.0557" fill="none" id="Restaurant-to-Product" style="stroke:#181818;stroke-width:1;"/><polygon fill="#181818" points="903.66,402.02,908.6161,393.509,904.2044,397.0497,900.6636,392.638,903.66,402.02" style="stroke:#181818;stroke-width:1;"/><text fill="#000000" font-family="sans-serif" font-size="13" lengthAdjust="spacing" textLength="8.271" x="717.8457" y="102.6944">1</text><text fill="#000000" font-family="sans-serif" font-size="13" lengthAdjust="spacing" textLength="24.7749" x="879.8778" y="391.5222">0..n</text></g><!--link Restaurant to Order--><g class="link" data-entity-1="Restaurant" data-entity-2="Order" data-source-line="68" data-uid="lnk12" id="link_Restaurant_Order"><path codeLine="68" d="M527.8,145.15 C522.12,164.21 516.79,185.09 513.6,204.75 C503.91,264.49 501.6131,326.48 501.7631,379.76" fill="none" id="Restaurant-to-Order" style="stroke:#181818;stroke-width:1;"/><polygon fill="#181818" points="501.78,385.76,505.7546,376.7488,501.7659,380.76,497.7547,376.7713,501.78,385.76" style="stroke:#181818;stroke-width:1;"/><text fill="#000000" font-family="sans-serif" font-size="13" lengthAdjust="spacing" textLength="8.271" x="517.0767" y="164.781">1</text><text fill="#000000" font-family="sans-serif" font-size="13" lengthAdjust="spacing" textLength="24.7749" x="476.6749" y="375.0785">0..n</text></g><!--link Order to OrderItem--><g class="link" data-entity-1="Order" data-entity-2="OrderItem" data-source-line="69" data-uid="lnk13" id="link_Order_OrderItem"><path codeLine="69" d="M585.91,573.22 C603.51,593.28 617.7131,609.4797 633.8731,627.8997" fill="none" id="Order-to-OrderItem" style="stroke:#181818;stroke-width:1;"/><polygon fill="#181818" points="637.83,632.41,634.9015,623.0066,634.5326,628.6514,628.8878,628.2825,637.83,632.41" style="stroke:#181818;stroke-width:1;"/><text fill="#000000" font-family="sans-serif" font-size="13" lengthAdjust="spacing" textLength="8.271" x="583.8393" y="593.0393">1</text><text fill="#000000" font-family="sans-serif" font-size="13" lengthAdjust="spacing" textLength="24.7749" x="606.7884" y="621.9738">1..n</text></g><!--link Product to OrderItem--><g class="link" data-entity-1="Product" data-entity-2="OrderItem" data-source-line="70" data-uid="lnk14" id="link_Product_OrderItem"><path codeLine="70" d="M818.04,556.78 C794.64,581.71 773.0959,604.6649 750.9859,628.2249" fill="none" id="Product-to-OrderItem" style="stroke:#181818;stroke-width:1;"/><polygon fill="#181818" points="746.88,632.6,755.9556,628.7745,750.3016,628.9541,750.122,623.3,746.88,632.6" style="stroke:#181818;stroke-width:1;"/><text fill="#000000" font-family="sans-serif" font-size="13" lengthAdjust="spacing" textLength="8.271" x="803.0866" y="576.6665">1</text><text fill="#000000" font-family="sans-serif" font-size="13" lengthAdjust="spacing" textLength="24.7749" x="728.0449" y="621.757">0..n</text></g><!--link Driver to Order--><g class="link" data-entity-1="Driver" data-entity-2="Order" data-source-line="71" data-uid="lnk15" id="link_Driver_Order"><path codeLine="71" d="M637.8,326.68 C621.58,345.17 607.2967,361.4495 589.6467,381.5695" fill="none" id="Driver-to-Order" style="stroke:#181818;stroke-width:1;"/><polygon fill="#181818" points="585.69,386.08,594.6321,381.9521,588.9873,382.3213,588.6181,376.6765,585.69,386.08" style="stroke:#181818;stroke-width:1;"/><text fill="#000000" font-family="sans-serif" font-size="13" lengthAdjust="spacing" textLength="8.271" x="623.6028" y="346.2686">1</text><text fill="#000000" font-family="sans-serif" font-size="13" lengthAdjust="spacing" textLength="24.7749" x="567.2264" y="375.1077">0..n</text></g><!--SRC=[bLDDI_Gm4BxtLmphfOjTqMie5LbtGH1TF_3WBRQZ6sdIDKc5bnV_kscQjccwAtffcCpq-KgoPGK2yft-1nprjYfK5A7GpDJBMkcAeuGqNTcTB8F_4S1cMmcygVaBIW9AIoRUp8WGMMQQAqvP6MoRfHRieqOxSIiBb8h0DLCwjKKMcUtZZYxUJV4J8z73dKTVKPINL2cuA0g9ParJY9-Ie-LojLglv_14onflNzunr-1aFsY9g3i8i_7CTbwrD0RxygiFuHwLfhMaGeSnt52EFnfrqeYdqOMqaLLHvxeBmPK_XJF8Y8N7cm3jIBnaFCsBHSVUEt9iVxQpaImt4mNcZDDoC3EmaN5QhczTN6da8rlDHclDwGbyxKPiYHa4a7kPvjvfNKhsERsmQoQL5bD_fdLD3tKEdKHB4R-6c0cK0POlp0A4kheRJ_odzijKMnd4hUUTu4kg3N_pVMGSlN4icpaiBlJGFl_5wTWopYTAamEdqPnKDLKooQ9X2FEm3T9dDNuinBkuhdDNK_ix0JP4qujk6EBAWsmkrHWgWGyVmehiZs9sDZFFPv71xFJaHCnQ3FzjXGCET3eIGBJ- -jRPq6eaHvtDVV_Q0NV9z_M_0G00]--></g></svg>