<?xml version="1.0" encoding="UTF-8" standalone="no"?><svg xmlns="http://www.w3.org/2000/svg" xmlns:xlink="http://www.w3.org/1999/xlink" contentScriptType="application/ecmascript" contentStyleType="text/css" height="414px" preserveAspectRatio="none" style="width:381px;height:414px;background:#FFFFFF;" version="1.1" viewBox="0 0 381 414" width="381px" zoomAndPan="magnify"><defs><filter height="300%" id="f17tnkdbbrbbt7" width="300%" x="-1" y="-1"><feGaussianBlur result="blurOut" stdDeviation="2.0"/><feColorMatrix in="blurOut" result="blurOut2" type="matrix" values="0 0 0 0 0 0 0 0 0 0 0 0 0 0 0 0 0 0 .4 0"/><feOffset dx="4.0" dy="4.0" in="blurOut2" result="blurOut3"/><feBlend in="SourceGraphic" in2="blurOut3" mode="normal"/></filter></defs><g><!--MD5=[b4d3d50c0abf08df45181fececb9f04d]
class Store--><rect codeLine="2" fill="#FEFECE" filter="url(#f17tnkdbbrbbt7)" height="65.6094" id="Store" style="stroke:#A80036;stroke-width:1.5;" width="102" x="7" y="183.5"/><ellipse cx="38.65" cy="199.5" fill="#ADD1B2" rx="11" ry="11" style="stroke:#A80036;stroke-width:1.0;"/><path d="M40.9938,195.1719 C40.0563,194.7344 39.4625,194.5938 38.5875,194.5938 C35.9625,194.5938 33.9625,196.6719 33.9625,199.3906 L33.9625,200.5156 C33.9625,203.0938 36.0719,204.9844 38.9625,204.9844 C40.1813,204.9844 41.3375,204.6875 42.0875,204.1406 C42.6656,203.7344 42.9938,203.2813 42.9938,202.8906 C42.9938,202.4375 42.6031,202.0469 42.1344,202.0469 C41.9156,202.0469 41.7125,202.125 41.525,202.3125 C41.0719,202.7969 41.0719,202.7969 40.8844,202.8906 C40.4625,203.1563 39.775,203.2813 39.0094,203.2813 C36.9625,203.2813 35.6656,202.1875 35.6656,200.4844 L35.6656,199.3906 C35.6656,197.6094 36.9156,196.2969 38.65,196.2969 C39.2281,196.2969 39.8375,196.4531 40.3063,196.7031 C40.7906,196.9844 40.9625,197.2031 41.0563,197.6094 C41.1188,198.0156 41.15,198.1406 41.2906,198.2656 C41.4313,198.4063 41.6656,198.5156 41.8844,198.5156 C42.15,198.5156 42.4156,198.375 42.5875,198.1563 C42.6969,198 42.7281,197.8125 42.7281,197.3906 L42.7281,195.9688 C42.7281,195.5313 42.7125,195.4063 42.6188,195.25 C42.4625,194.9844 42.1813,194.8438 41.8844,194.8438 C41.5875,194.8438 41.3844,194.9375 41.1656,195.25 L40.9938,195.1719 Z " fill="#000000"/><text fill="#000000" font-family="sans-serif" font-size="12" lengthAdjust="spacing" textLength="33" x="56.35" y="203.6543">Store</text><line style="stroke:#A80036;stroke-width:1.5;" x1="8" x2="108" y1="215.5" y2="215.5"/><ellipse cx="18" cy="226.5" rx="3" ry="3" style="stroke:#038048;stroke-width:1.0;fill:none;"/><text fill="#000000" font-family="sans-serif" font-size="11" lengthAdjust="spacing" textLength="35" x="27" y="229.7104">Id : int</text><ellipse cx="18" cy="239.3047" rx="3" ry="3" style="stroke:#038048;stroke-width:1.0;fill:none;"/><text fill="#000000" font-family="sans-serif" font-size="11" lengthAdjust="spacing" textLength="76" x="27" y="242.5151">Name : string</text><!--MD5=[af8ed831b3fe9dbd380fec6c597723ab]
class Offer--><rect codeLine="7" fill="#FEFECE" filter="url(#f17tnkdbbrbbt7)" height="104.0234" id="Offer" style="stroke:#A80036;stroke-width:1.5;" width="158" x="78" y="7"/><ellipse cx="137.25" cy="23" fill="#ADD1B2" rx="11" ry="11" style="stroke:#A80036;stroke-width:1.0;"/><path d="M139.5938,18.6719 C138.6563,18.2344 138.0625,18.0938 137.1875,18.0938 C134.5625,18.0938 132.5625,20.1719 132.5625,22.8906 L132.5625,24.0156 C132.5625,26.5938 134.6719,28.4844 137.5625,28.4844 C138.7813,28.4844 139.9375,28.1875 140.6875,27.6406 C141.2656,27.2344 141.5938,26.7813 141.5938,26.3906 C141.5938,25.9375 141.2031,25.5469 140.7344,25.5469 C140.5156,25.5469 140.3125,25.625 140.125,25.8125 C139.6719,26.2969 139.6719,26.2969 139.4844,26.3906 C139.0625,26.6563 138.375,26.7813 137.6094,26.7813 C135.5625,26.7813 134.2656,25.6875 134.2656,23.9844 L134.2656,22.8906 C134.2656,21.1094 135.5156,19.7969 137.25,19.7969 C137.8281,19.7969 138.4375,19.9531 138.9063,20.2031 C139.3906,20.4844 139.5625,20.7031 139.6563,21.1094 C139.7188,21.5156 139.75,21.6406 139.8906,21.7656 C140.0313,21.9063 140.2656,22.0156 140.4844,22.0156 C140.75,22.0156 141.0156,21.875 141.1875,21.6563 C141.2969,21.5 141.3281,21.3125 141.3281,20.8906 L141.3281,19.4688 C141.3281,19.0313 141.3125,18.9063 141.2188,18.75 C141.0625,18.4844 140.7813,18.3438 140.4844,18.3438 C140.1875,18.3438 139.9844,18.4375 139.7656,18.75 L139.5938,18.6719 Z " fill="#000000"/><text fill="#000000" font-family="sans-serif" font-size="12" lengthAdjust="spacing" textLength="31" x="157.75" y="27.1543">Offer</text><line style="stroke:#A80036;stroke-width:1.5;" x1="79" x2="235" y1="39" y2="39"/><ellipse cx="89" cy="50" rx="3" ry="3" style="stroke:#038048;stroke-width:1.0;fill:none;"/><text fill="#000000" font-family="sans-serif" font-size="11" lengthAdjust="spacing" textLength="35" x="98" y="53.2104">Id : int</text><ellipse cx="89" cy="62.8047" rx="3" ry="3" style="stroke:#038048;stroke-width:1.0;fill:none;"/><text fill="#000000" font-family="sans-serif" font-size="11" lengthAdjust="spacing" textLength="93" x="98" y="66.0151">Product : Product</text><ellipse cx="89" cy="75.6094" rx="3" ry="3" style="stroke:#038048;stroke-width:1.0;fill:none;"/><text fill="#000000" font-family="sans-serif" font-size="11" lengthAdjust="spacing" textLength="73" x="98" y="78.8198">Store : Store</text><ellipse cx="89" cy="88.4141" rx="3" ry="3" style="stroke:#038048;stroke-width:1.0;fill:none;"/><text fill="#000000" font-family="sans-serif" font-size="11" lengthAdjust="spacing" textLength="83" x="98" y="91.6245">Price : decimal</text><ellipse cx="89" cy="101.2188" rx="3" ry="3" style="stroke:#038048;stroke-width:1.0;fill:none;"/><text fill="#000000" font-family="sans-serif" font-size="11" lengthAdjust="spacing" textLength="132" x="98" y="104.4292">LastUpdate : DateTime</text><!--MD5=[72136138052d025cffdce3c22fbd185f]
class Product--><rect codeLine="24" fill="#FEFECE" filter="url(#f17tnkdbbrbbt7)" height="91.2188" id="Product" style="stroke:#A80036;stroke-width:1.5;" width="223" x="144.5" y="171"/><ellipse cx="229.25" cy="187" fill="#ADD1B2" rx="11" ry="11" style="stroke:#A80036;stroke-width:1.0;"/><path d="M231.5938,182.6719 C230.6563,182.2344 230.0625,182.0938 229.1875,182.0938 C226.5625,182.0938 224.5625,184.1719 224.5625,186.8906 L224.5625,188.0156 C224.5625,190.5938 226.6719,192.4844 229.5625,192.4844 C230.7813,192.4844 231.9375,192.1875 232.6875,191.6406 C233.2656,191.2344 233.5938,190.7813 233.5938,190.3906 C233.5938,189.9375 233.2031,189.5469 232.7344,189.5469 C232.5156,189.5469 232.3125,189.625 232.125,189.8125 C231.6719,190.2969 231.6719,190.2969 231.4844,190.3906 C231.0625,190.6563 230.375,190.7813 229.6094,190.7813 C227.5625,190.7813 226.2656,189.6875 226.2656,187.9844 L226.2656,186.8906 C226.2656,185.1094 227.5156,183.7969 229.25,183.7969 C229.8281,183.7969 230.4375,183.9531 230.9063,184.2031 C231.3906,184.4844 231.5625,184.7031 231.6563,185.1094 C231.7188,185.5156 231.75,185.6406 231.8906,185.7656 C232.0313,185.9063 232.2656,186.0156 232.4844,186.0156 C232.75,186.0156 233.0156,185.875 233.1875,185.6563 C233.2969,185.5 233.3281,185.3125 233.3281,184.8906 L233.3281,183.4688 C233.3281,183.0313 233.3125,182.9063 233.2188,182.75 C233.0625,182.4844 232.7813,182.3438 232.4844,182.3438 C232.1875,182.3438 231.9844,182.4375 231.7656,182.75 L231.5938,182.6719 Z " fill="#000000"/><text fill="#000000" font-family="sans-serif" font-size="12" lengthAdjust="spacing" textLength="45" x="249.75" y="191.1543">Product</text><line style="stroke:#A80036;stroke-width:1.5;" x1="145.5" x2="366.5" y1="203" y2="203"/><ellipse cx="155.5" cy="214" rx="3" ry="3" style="stroke:#038048;stroke-width:1.0;fill:none;"/><text fill="#000000" font-family="sans-serif" font-size="11" lengthAdjust="spacing" textLength="46" x="164.5" y="217.2104">Ean : int</text><ellipse cx="155.5" cy="226.8047" rx="3" ry="3" style="stroke:#038048;stroke-width:1.0;fill:none;"/><text fill="#000000" font-family="sans-serif" font-size="11" lengthAdjust="spacing" textLength="76" x="164.5" y="230.0151">Name : string</text><ellipse cx="155.5" cy="239.6094" rx="3" ry="3" style="stroke:#038048;stroke-width:1.0;fill:none;"/><text fill="#000000" font-family="sans-serif" font-size="11" lengthAdjust="spacing" textLength="197" x="164.5" y="242.8198">ProductCategory : ProductCategory</text><ellipse cx="155.5" cy="252.4141" rx="3" ry="3" style="stroke:#038048;stroke-width:1.0;fill:none;"/><text fill="#000000" font-family="sans-serif" font-size="11" lengthAdjust="spacing" textLength="152" x="164.5" y="255.6245">Offers : ICollection&lt;Offer&gt;</text><!--MD5=[a1db4bf20df23ac2cd9366d22a9e2860]
class ProductCategory--><rect codeLine="18" fill="#FEFECE" filter="url(#f17tnkdbbrbbt7)" height="78.4141" id="ProductCategory" style="stroke:#A80036;stroke-width:1.5;" width="132" x="190" y="322"/><ellipse cx="205" cy="338" fill="#ADD1B2" rx="11" ry="11" style="stroke:#A80036;stroke-width:1.0;"/><path d="M207.3438,333.6719 C206.4063,333.2344 205.8125,333.0938 204.9375,333.0938 C202.3125,333.0938 200.3125,335.1719 200.3125,337.8906 L200.3125,339.0156 C200.3125,341.5938 202.4219,343.4844 205.3125,343.4844 C206.5313,343.4844 207.6875,343.1875 208.4375,342.6406 C209.0156,342.2344 209.3438,341.7813 209.3438,341.3906 C209.3438,340.9375 208.9531,340.5469 208.4844,340.5469 C208.2656,340.5469 208.0625,340.625 207.875,340.8125 C207.4219,341.2969 207.4219,341.2969 207.2344,341.3906 C206.8125,341.6563 206.125,341.7813 205.3594,341.7813 C203.3125,341.7813 202.0156,340.6875 202.0156,338.9844 L202.0156,337.8906 C202.0156,336.1094 203.2656,334.7969 205,334.7969 C205.5781,334.7969 206.1875,334.9531 206.6563,335.2031 C207.1406,335.4844 207.3125,335.7031 207.4063,336.1094 C207.4688,336.5156 207.5,336.6406 207.6406,336.7656 C207.7813,336.9063 208.0156,337.0156 208.2344,337.0156 C208.5,337.0156 208.7656,336.875 208.9375,336.6563 C209.0469,336.5 209.0781,336.3125 209.0781,335.8906 L209.0781,334.4688 C209.0781,334.0313 209.0625,333.9063 208.9688,333.75 C208.8125,333.4844 208.5313,333.3438 208.2344,333.3438 C207.9375,333.3438 207.7344,333.4375 207.5156,333.75 L207.3438,333.6719 Z " fill="#000000"/><text fill="#000000" font-family="sans-serif" font-size="12" lengthAdjust="spacing" textLength="100" x="219" y="342.1543">ProductCategory</text><line style="stroke:#A80036;stroke-width:1.5;" x1="191" x2="321" y1="354" y2="354"/><ellipse cx="201" cy="365" rx="3" ry="3" style="stroke:#038048;stroke-width:1.0;fill:none;"/><text fill="#000000" font-family="sans-serif" font-size="11" lengthAdjust="spacing" textLength="35" x="210" y="368.2104">Id : int</text><ellipse cx="201" cy="377.8047" rx="3" ry="3" style="stroke:#038048;stroke-width:1.0;fill:none;"/><text fill="#000000" font-family="sans-serif" font-size="11" lengthAdjust="spacing" textLength="76" x="210" y="381.0151">Name : string</text><ellipse cx="201" cy="390.6094" rx="3" ry="3" style="stroke:#038048;stroke-width:1.0;fill:none;"/><text fill="#000000" font-family="sans-serif" font-size="11" lengthAdjust="spacing" textLength="96" x="210" y="393.8198">NameEn : string?</text><!--MD5=[70935dd098ed5da231aa315676372594]
link Offer to Store--><path codeLine="15" d="M117.865,121.47 C117.865,121.47 95.4914,156.612 85.7104,171.975 " fill="none" id="Offer-Store" style="stroke:#A80036;stroke-width:1.0;"/><polygon fill="#A80036" points="78.541,183.236,86.7486,177.7921,81.2262,179.0182,80.0001,173.4958,78.541,183.236" style="stroke:#A80036;stroke-width:1.0;"/><line style="stroke:#A80036;stroke-width:1.0;" x1="81.2262" x2="85.5228" y1="179.0182" y2="172.2695"/><polygon fill="#FFFFFF" points="124.309,111.347,117.7127,114.2605,117.865,121.47,124.4613,118.5565,124.309,111.347" style="stroke:#A80036;stroke-width:1.0;"/><!--MD5=[48899a5fad677940e75da7b5e010d5cb]
link Offer to Product--><path codeLine="16" d="M192.595,115.91 C203.129,132.456 214.577,150.437 224.81,166.51 " fill="none" id="Offer-Product" style="stroke:#A80036;stroke-width:1.0;"/><polygon fill="#A80036" points="227.663,170.99,226.2062,161.2495,224.9788,166.7716,219.4567,165.5442,227.663,170.99" style="stroke:#A80036;stroke-width:1.0;"/><polygon fill="#A80036" points="189.691,111.347,191.1516,121.0869,192.3769,115.5644,197.8994,116.7896,189.691,111.347" style="stroke:#A80036;stroke-width:1.0;"/><!--MD5=[5c0c66984b48f13f6f1fd84ba8e61151]
link Product to ProductCategory--><path codeLine="30" d="M256,274.197 C256,274.197 256,297.851 256,308.5627 " fill="none" id="Product-ProductCategory" style="stroke:#A80036;stroke-width:1.0;"/><polygon fill="#A80036" points="256,321.7028,260,312.7028,256,316.7028,252,312.7028,256,321.7028" style="stroke:#A80036;stroke-width:1.0;"/><line style="stroke:#A80036;stroke-width:1.0;" x1="256" x2="256" y1="316.7028" y2="308.7028"/><polygon fill="#FFFFFF" points="256,262.197,252,268.197,256,274.197,260,268.197,256,262.197" style="stroke:#A80036;stroke-width:1.0;"/><!--MD5=[56cbd888ab44df1f35f38a9f2ea4beae]
@startuml
hide empty methods
class Store {
    +Id : int
    +Name : string
}

class Offer {
    +Id : int
    +Product : Product
    +Store : Store
    +Price : decimal
    +LastUpdate : DateTime
}

Offer o- -> Store
Offer <- -> Product

class ProductCategory {
    +Id : int
    +Name : string
    +NameEn : string?
}

class Product {
    +Ean : int
    +Name : string
    +ProductCategory : ProductCategory
    +Offers : ICollection<Offer>
}
Product o- -> ProductCategory
@enduml

PlantUML version 1.2021.16beta1(Unknown compile time)
(GPL source distribution)
Java Runtime: Java(TM) SE Runtime Environment
JVM: Java HotSpot(TM) 64-Bit Server VM
Default Encoding: UTF-8
Language: en
Country: US
--></g></svg>