<?xml version="1.0" encoding="UTF-8" standalone="no"?><svg xmlns="http://www.w3.org/2000/svg" xmlns:xlink="http://www.w3.org/1999/xlink" contentScriptType="application/ecmascript" contentStyleType="text/css" height="401px" preserveAspectRatio="none" style="width:381px;height:401px;background:#FFFFFF;" version="1.1" viewBox="0 0 381 401" width="381px" zoomAndPan="magnify"><defs><filter height="300%" id="fi59awr19go0q" width="300%" x="-1" y="-1"><feGaussianBlur result="blurOut" stdDeviation="2.0"/><feColorMatrix in="blurOut" result="blurOut2" type="matrix" values="0 0 0 0 0 0 0 0 0 0 0 0 0 0 0 0 0 0 .4 0"/><feOffset dx="4.0" dy="4.0" in="blurOut2" result="blurOut3"/><feBlend in="SourceGraphic" in2="blurOut3" mode="normal"/></filter></defs><g><!--MD5=[b4d3d50c0abf08df45181fececb9f04d]
class Store--><rect codeLine="2" fill="#FEFECE" filter="url(#fi59awr19go0q)" height="65.6094" id="Store" style="stroke:#A80036;stroke-width:1.5;" width="102" x="7" y="177"/><ellipse cx="38.65" cy="193" fill="#ADD1B2" rx="11" ry="11" style="stroke:#A80036;stroke-width:1.0;"/><path d="M40.9938,188.6719 C40.0563,188.2344 39.4625,188.0938 38.5875,188.0938 C35.9625,188.0938 33.9625,190.1719 33.9625,192.8906 L33.9625,194.0156 C33.9625,196.5938 36.0719,198.4844 38.9625,198.4844 C40.1813,198.4844 41.3375,198.1875 42.0875,197.6406 C42.6656,197.2344 42.9938,196.7813 42.9938,196.3906 C42.9938,195.9375 42.6031,195.5469 42.1344,195.5469 C41.9156,195.5469 41.7125,195.625 41.525,195.8125 C41.0719,196.2969 41.0719,196.2969 40.8844,196.3906 C40.4625,196.6563 39.775,196.7813 39.0094,196.7813 C36.9625,196.7813 35.6656,195.6875 35.6656,193.9844 L35.6656,192.8906 C35.6656,191.1094 36.9156,189.7969 38.65,189.7969 C39.2281,189.7969 39.8375,189.9531 40.3063,190.2031 C40.7906,190.4844 40.9625,190.7031 41.0563,191.1094 C41.1188,191.5156 41.15,191.6406 41.2906,191.7656 C41.4313,191.9063 41.6656,192.0156 41.8844,192.0156 C42.15,192.0156 42.4156,191.875 42.5875,191.6563 C42.6969,191.5 42.7281,191.3125 42.7281,190.8906 L42.7281,189.4688 C42.7281,189.0313 42.7125,188.9063 42.6188,188.75 C42.4625,188.4844 42.1813,188.3438 41.8844,188.3438 C41.5875,188.3438 41.3844,188.4375 41.1656,188.75 L40.9938,188.6719 Z " fill="#000000"/><text fill="#000000" font-family="sans-serif" font-size="12" lengthAdjust="spacing" textLength="33" x="56.35" y="197.1543">Store</text><line style="stroke:#A80036;stroke-width:1.5;" x1="8" x2="108" y1="209" y2="209"/><ellipse cx="18" cy="220" rx="3" ry="3" style="stroke:#038048;stroke-width:1.0;fill:none;"/><text fill="#000000" font-family="sans-serif" font-size="11" lengthAdjust="spacing" textLength="35" x="27" y="223.2104">Id : int</text><ellipse cx="18" cy="232.8047" rx="3" ry="3" style="stroke:#038048;stroke-width:1.0;fill:none;"/><text fill="#000000" font-family="sans-serif" font-size="11" lengthAdjust="spacing" textLength="76" x="27" y="236.0151">Name : string</text><!--MD5=[af8ed831b3fe9dbd380fec6c597723ab]
class Offer--><rect codeLine="7" fill="#FEFECE" filter="url(#fi59awr19go0q)" height="104.0234" id="Offer" style="stroke:#A80036;stroke-width:1.5;" width="158" x="78" y="7"/><ellipse cx="137.25" cy="23" fill="#ADD1B2" rx="11" ry="11" style="stroke:#A80036;stroke-width:1.0;"/><path d="M139.5938,18.6719 C138.6563,18.2344 138.0625,18.0938 137.1875,18.0938 C134.5625,18.0938 132.5625,20.1719 132.5625,22.8906 L132.5625,24.0156 C132.5625,26.5938 134.6719,28.4844 137.5625,28.4844 C138.7813,28.4844 139.9375,28.1875 140.6875,27.6406 C141.2656,27.2344 141.5938,26.7813 141.5938,26.3906 C141.5938,25.9375 141.2031,25.5469 140.7344,25.5469 C140.5156,25.5469 140.3125,25.625 140.125,25.8125 C139.6719,26.2969 139.6719,26.2969 139.4844,26.3906 C139.0625,26.6563 138.375,26.7813 137.6094,26.7813 C135.5625,26.7813 134.2656,25.6875 134.2656,23.9844 L134.2656,22.8906 C134.2656,21.1094 135.5156,19.7969 137.25,19.7969 C137.8281,19.7969 138.4375,19.9531 138.9063,20.2031 C139.3906,20.4844 139.5625,20.7031 139.6563,21.1094 C139.7188,21.5156 139.75,21.6406 139.8906,21.7656 C140.0313,21.9063 140.2656,22.0156 140.4844,22.0156 C140.75,22.0156 141.0156,21.875 141.1875,21.6563 C141.2969,21.5 141.3281,21.3125 141.3281,20.8906 L141.3281,19.4688 C141.3281,19.0313 141.3125,18.9063 141.2188,18.75 C141.0625,18.4844 140.7813,18.3438 140.4844,18.3438 C140.1875,18.3438 139.9844,18.4375 139.7656,18.75 L139.5938,18.6719 Z " fill="#000000"/><text fill="#000000" font-family="sans-serif" font-size="12" lengthAdjust="spacing" textLength="31" x="157.75" y="27.1543">Offer</text><line style="stroke:#A80036;stroke-width:1.5;" x1="79" x2="235" y1="39" y2="39"/><ellipse cx="89" cy="50" rx="3" ry="3" style="stroke:#038048;stroke-width:1.0;fill:none;"/><text fill="#000000" font-family="sans-serif" font-size="11" lengthAdjust="spacing" textLength="35" x="98" y="53.2104">Id : int</text><ellipse cx="89" cy="62.8047" rx="3" ry="3" style="stroke:#038048;stroke-width:1.0;fill:none;"/><text fill="#000000" font-family="sans-serif" font-size="11" lengthAdjust="spacing" textLength="93" x="98" y="66.0151">Product : Product</text><ellipse cx="89" cy="75.6094" rx="3" ry="3" style="stroke:#038048;stroke-width:1.0;fill:none;"/><text fill="#000000" font-family="sans-serif" font-size="11" lengthAdjust="spacing" textLength="73" x="98" y="78.8198">Store : Store</text><ellipse cx="89" cy="88.4141" rx="3" ry="3" style="stroke:#038048;stroke-width:1.0;fill:none;"/><text fill="#000000" font-family="sans-serif" font-size="11" lengthAdjust="spacing" textLength="83" x="98" y="91.6245">Price : decimal</text><ellipse cx="89" cy="101.2188" rx="3" ry="3" style="stroke:#038048;stroke-width:1.0;fill:none;"/><text fill="#000000" font-family="sans-serif" font-size="11" lengthAdjust="spacing" textLength="132" x="98" y="104.4292">LastUpdate : DateTime</text><!--MD5=[72136138052d025cffdce3c22fbd185f]
class Product--><rect codeLine="24" fill="#FEFECE" filter="url(#fi59awr19go0q)" height="78.4141" id="Product" style="stroke:#A80036;stroke-width:1.5;" width="223" x="144.5" y="171"/><ellipse cx="229.25" cy="187" fill="#ADD1B2" rx="11" ry="11" style="stroke:#A80036;stroke-width:1.0;"/><path d="M231.5938,182.6719 C230.6563,182.2344 230.0625,182.0938 229.1875,182.0938 C226.5625,182.0938 224.5625,184.1719 224.5625,186.8906 L224.5625,188.0156 C224.5625,190.5938 226.6719,192.4844 229.5625,192.4844 C230.7813,192.4844 231.9375,192.1875 232.6875,191.6406 C233.2656,191.2344 233.5938,190.7813 233.5938,190.3906 C233.5938,189.9375 233.2031,189.5469 232.7344,189.5469 C232.5156,189.5469 232.3125,189.625 232.125,189.8125 C231.6719,190.2969 231.6719,190.2969 231.4844,190.3906 C231.0625,190.6563 230.375,190.7813 229.6094,190.7813 C227.5625,190.7813 226.2656,189.6875 226.2656,187.9844 L226.2656,186.8906 C226.2656,185.1094 227.5156,183.7969 229.25,183.7969 C229.8281,183.7969 230.4375,183.9531 230.9063,184.2031 C231.3906,184.4844 231.5625,184.7031 231.6563,185.1094 C231.7188,185.5156 231.75,185.6406 231.8906,185.7656 C232.0313,185.9063 232.2656,186.0156 232.4844,186.0156 C232.75,186.0156 233.0156,185.875 233.1875,185.6563 C233.2969,185.5 233.3281,185.3125 233.3281,184.8906 L233.3281,183.4688 C233.3281,183.0313 233.3125,182.9063 233.2188,182.75 C233.0625,182.4844 232.7813,182.3438 232.4844,182.3438 C232.1875,182.3438 231.9844,182.4375 231.7656,182.75 L231.5938,182.6719 Z " fill="#000000"/><text fill="#000000" font-family="sans-serif" font-size="12" lengthAdjust="spacing" textLength="45" x="249.75" y="191.1543">Product</text><line style="stroke:#A80036;stroke-width:1.5;" x1="145.5" x2="366.5" y1="203" y2="203"/><ellipse cx="155.5" cy="214" rx="3" ry="3" style="stroke:#038048;stroke-width:1.0;fill:none;"/><text fill="#000000" font-family="sans-serif" font-size="11" lengthAdjust="spacing" textLength="46" x="164.5" y="217.2104">Ean : int</text><ellipse cx="155.5" cy="226.8047" rx="3" ry="3" style="stroke:#038048;stroke-width:1.0;fill:none;"/><text fill="#000000" font-family="sans-serif" font-size="11" lengthAdjust="spacing" textLength="76" x="164.5" y="230.0151">Name : string</text><ellipse cx="155.5" cy="239.6094" rx="3" ry="3" style="stroke:#038048;stroke-width:1.0;fill:none;"/><text fill="#000000" font-family="sans-serif" font-size="11" lengthAdjust="spacing" textLength="197" x="164.5" y="242.8198">ProductCategory : ProductCategory</text><!--MD5=[a1db4bf20df23ac2cd9366d22a9e2860]
class ProductCategory--><rect codeLine="18" fill="#FEFECE" filter="url(#fi59awr19go0q)" height="78.4141" id="ProductCategory" style="stroke:#A80036;stroke-width:1.5;" width="132" x="190" y="309"/><ellipse cx="205" cy="325" fill="#ADD1B2" rx="11" ry="11" style="stroke:#A80036;stroke-width:1.0;"/><path d="M207.3438,320.6719 C206.4063,320.2344 205.8125,320.0938 204.9375,320.0938 C202.3125,320.0938 200.3125,322.1719 200.3125,324.8906 L200.3125,326.0156 C200.3125,328.5938 202.4219,330.4844 205.3125,330.4844 C206.5313,330.4844 207.6875,330.1875 208.4375,329.6406 C209.0156,329.2344 209.3438,328.7813 209.3438,328.3906 C209.3438,327.9375 208.9531,327.5469 208.4844,327.5469 C208.2656,327.5469 208.0625,327.625 207.875,327.8125 C207.4219,328.2969 207.4219,328.2969 207.2344,328.3906 C206.8125,328.6563 206.125,328.7813 205.3594,328.7813 C203.3125,328.7813 202.0156,327.6875 202.0156,325.9844 L202.0156,324.8906 C202.0156,323.1094 203.2656,321.7969 205,321.7969 C205.5781,321.7969 206.1875,321.9531 206.6563,322.2031 C207.1406,322.4844 207.3125,322.7031 207.4063,323.1094 C207.4688,323.5156 207.5,323.6406 207.6406,323.7656 C207.7813,323.9063 208.0156,324.0156 208.2344,324.0156 C208.5,324.0156 208.7656,323.875 208.9375,323.6563 C209.0469,323.5 209.0781,323.3125 209.0781,322.8906 L209.0781,321.4688 C209.0781,321.0313 209.0625,320.9063 208.9688,320.75 C208.8125,320.4844 208.5313,320.3438 208.2344,320.3438 C207.9375,320.3438 207.7344,320.4375 207.5156,320.75 L207.3438,320.6719 Z " fill="#000000"/><text fill="#000000" font-family="sans-serif" font-size="12" lengthAdjust="spacing" textLength="100" x="219" y="329.1543">ProductCategory</text><line style="stroke:#A80036;stroke-width:1.5;" x1="191" x2="321" y1="341" y2="341"/><ellipse cx="201" cy="352" rx="3" ry="3" style="stroke:#038048;stroke-width:1.0;fill:none;"/><text fill="#000000" font-family="sans-serif" font-size="11" lengthAdjust="spacing" textLength="35" x="210" y="355.2104">Id : int</text><ellipse cx="201" cy="364.8047" rx="3" ry="3" style="stroke:#038048;stroke-width:1.0;fill:none;"/><text fill="#000000" font-family="sans-serif" font-size="11" lengthAdjust="spacing" textLength="76" x="210" y="368.0151">Name : string</text><ellipse cx="201" cy="377.6094" rx="3" ry="3" style="stroke:#038048;stroke-width:1.0;fill:none;"/><text fill="#000000" font-family="sans-serif" font-size="11" lengthAdjust="spacing" textLength="96" x="210" y="380.8198">NameEn : string?</text><!--MD5=[70935dd098ed5da231aa315676372594]
link Offer to Store--><path codeLine="15" d="M116.2888,121.2717 C116.2888,121.2717 95.7758,152.145 86.729,165.761 " fill="none" id="Offer-Store" style="stroke:#A80036;stroke-width:1.0;"/><polygon fill="#A80036" points="79.4301,176.747,87.7424,171.4644,82.1971,172.5824,81.0791,167.0372,79.4301,176.747" style="stroke:#A80036;stroke-width:1.0;"/><line style="stroke:#A80036;stroke-width:1.0;" x1="82.1971" x2="86.6245" y1="172.5824" y2="165.919"/><polygon fill="#FFFFFF" points="122.93,111.277,116.2778,114.0606,116.2888,121.2717,122.941,118.4881,122.93,111.277" style="stroke:#A80036;stroke-width:1.0;"/><!--MD5=[48899a5fad677940e75da7b5e010d5cb]
link Offer to Product--><path codeLine="16" d="M197.7112,121.2717 C197.7112,121.2717 215.342,147.807 223.262,159.728 " fill="none" id="Offer-Product" style="stroke:#A80036;stroke-width:1.0;"/><polygon fill="#A80036" points="230.626,170.81,228.9773,161.1001,227.8591,166.6454,222.3139,165.5272,230.626,170.81" style="stroke:#A80036;stroke-width:1.0;"/><line style="stroke:#A80036;stroke-width:1.0;" x1="227.8591" x2="223.431" y1="166.6454" y2="159.982"/><polygon fill="#FFFFFF" points="191.07,111.277,191.059,118.4881,197.7112,121.2717,197.7222,114.0606,191.07,111.277" style="stroke:#A80036;stroke-width:1.0;"/><!--MD5=[5c0c66984b48f13f6f1fd84ba8e61151]
link Product to ProductCategory--><path codeLine="29" d="M256,261.246 C256,261.246 256,284.494 256,295.2926 " fill="none" id="Product-ProductCategory" style="stroke:#A80036;stroke-width:1.0;"/><polygon fill="#A80036" points="256,308.5703,260,299.5703,256,303.5703,252,299.5703,256,308.5703" style="stroke:#A80036;stroke-width:1.0;"/><line style="stroke:#A80036;stroke-width:1.0;" x1="256" x2="256" y1="303.5703" y2="295.5703"/><polygon fill="#FFFFFF" points="256,249.246,252,255.246,256,261.246,260,255.246,256,249.246" style="stroke:#A80036;stroke-width:1.0;"/><!--MD5=[eb0073ddcd5eed441613375b0bc5a9d5]
@startuml
hide empty methods
class Store {
    +Id : int
    +Name : string
}

class Offer {
    +Id : int
    +Product : Product
    +Store : Store
    +Price : decimal
    +LastUpdate : DateTime
}

Offer o- -> Store
Offer o- -> Product

class ProductCategory {
    +Id : int
    +Name : string
    +NameEn : string?
}

class Product {
    +Ean : int
    +Name : string
    +ProductCategory : ProductCategory
}
Product o- -> ProductCategory
@enduml

PlantUML version 1.2021.16beta2(Unknown compile time)
(GPL source distribution)
Java Runtime: Java(TM) SE Runtime Environment
JVM: Java HotSpot(TM) 64-Bit Server VM
Default Encoding: UTF-8
Language: en
Country: US
--></g></svg>