<?xml version="1.0" encoding="UTF-8" standalone="no"?><svg xmlns="http://www.w3.org/2000/svg" xmlns:xlink="http://www.w3.org/1999/xlink" contentScriptType="application/ecmascript" contentStyleType="text/css" height="503px" preserveAspectRatio="none" style="width:940px;height:503px;background:#FFFFFF;" version="1.1" viewBox="0 0 940 503" width="940px" zoomAndPan="magnify"><defs><filter height="300%" id="fptg5ke2174sc" width="300%" x="-1" y="-1"><feGaussianBlur result="blurOut" stdDeviation="2.0"/><feColorMatrix in="blurOut" result="blurOut2" type="matrix" values="0 0 0 0 0 0 0 0 0 0 0 0 0 0 0 0 0 0 .4 0"/><feOffset dx="4.0" dy="4.0" in="blurOut2" result="blurOut3"/><feBlend in="SourceGraphic" in2="blurOut3" mode="normal"/></filter></defs><g><!--MD5=[d6181cb537bdc20c0a3007a98a56832d]
class Student--><rect codeLine="1" fill="#FEFECE" filter="url(#fptg5ke2174sc)" height="99.2188" id="Student" style="stroke:#A80036;stroke-width:1.5;" width="337" x="7" y="211.5"/><ellipse cx="148.25" cy="227.5" fill="#ADD1B2" rx="11" ry="11" style="stroke:#A80036;stroke-width:1.0;"/><path d="M150.5938,223.1719 C149.6563,222.7344 149.0625,222.5938 148.1875,222.5938 C145.5625,222.5938 143.5625,224.6719 143.5625,227.3906 L143.5625,228.5156 C143.5625,231.0938 145.6719,232.9844 148.5625,232.9844 C149.7813,232.9844 150.9375,232.6875 151.6875,232.1406 C152.2656,231.7344 152.5938,231.2813 152.5938,230.8906 C152.5938,230.4375 152.2031,230.0469 151.7344,230.0469 C151.5156,230.0469 151.3125,230.125 151.125,230.3125 C150.6719,230.7969 150.6719,230.7969 150.4844,230.8906 C150.0625,231.1563 149.375,231.2813 148.6094,231.2813 C146.5625,231.2813 145.2656,230.1875 145.2656,228.4844 L145.2656,227.3906 C145.2656,225.6094 146.5156,224.2969 148.25,224.2969 C148.8281,224.2969 149.4375,224.4531 149.9063,224.7031 C150.3906,224.9844 150.5625,225.2031 150.6563,225.6094 C150.7188,226.0156 150.75,226.1406 150.8906,226.2656 C151.0313,226.4063 151.2656,226.5156 151.4844,226.5156 C151.75,226.5156 152.0156,226.375 152.1875,226.1563 C152.2969,226 152.3281,225.8125 152.3281,225.3906 L152.3281,223.9688 C152.3281,223.5313 152.3125,223.4063 152.2188,223.25 C152.0625,222.9844 151.7813,222.8438 151.4844,222.8438 C151.1875,222.8438 150.9844,222.9375 150.7656,223.25 L150.5938,223.1719 Z " fill="#000000"/><text fill="#000000" font-family="sans-serif" font-size="12" lengthAdjust="spacing" textLength="46" x="168.75" y="231.6543">Student</text><line style="stroke:#A80036;stroke-width:1.5;" x1="8" x2="343" y1="243.5" y2="243.5"/><ellipse cx="18" cy="254.5" rx="3" ry="3" style="stroke:#038048;stroke-width:1.0;fill:none;"/><text fill="#000000" font-family="sans-serif" font-size="11" lengthAdjust="spacing" textLength="98" x="27" y="257.7104">Firstname : string</text><ellipse cx="18" cy="267.3047" rx="3" ry="3" style="stroke:#038048;stroke-width:1.0;fill:none;"/><text fill="#000000" font-family="sans-serif" font-size="11" lengthAdjust="spacing" textLength="98" x="27" y="270.5151">Lastname : string</text><ellipse cx="18" cy="280.1094" rx="3" ry="3" style="stroke:#038048;stroke-width:1.0;fill:none;"/><text fill="#000000" font-family="sans-serif" font-size="11" lengthAdjust="spacing" textLength="73" x="27" y="283.3198">Email : string</text><line style="stroke:#A80036;stroke-width:1.0;" x1="8" x2="343" y1="289.9141" y2="289.9141"/><ellipse cx="18" cy="300.9141" fill="#84BE84" rx="3" ry="3" style="stroke:#038048;stroke-width:1.0;"/><text fill="#000000" font-family="sans-serif" font-size="11" lengthAdjust="spacing" textLength="311" x="27" y="304.1245">Student(string firstname, string lastname, string email)</text><!--MD5=[61a83f88cb8b7d3a80bc8c481f3736bf]
class Teacher--><rect codeLine="9" fill="#FEFECE" filter="url(#fptg5ke2174sc)" height="99.2188" id="Teacher" style="stroke:#A80036;stroke-width:1.5;" width="339" x="311" y="390"/><ellipse cx="451.75" cy="406" fill="#ADD1B2" rx="11" ry="11" style="stroke:#A80036;stroke-width:1.0;"/><path d="M454.0938,401.6719 C453.1563,401.2344 452.5625,401.0938 451.6875,401.0938 C449.0625,401.0938 447.0625,403.1719 447.0625,405.8906 L447.0625,407.0156 C447.0625,409.5938 449.1719,411.4844 452.0625,411.4844 C453.2813,411.4844 454.4375,411.1875 455.1875,410.6406 C455.7656,410.2344 456.0938,409.7813 456.0938,409.3906 C456.0938,408.9375 455.7031,408.5469 455.2344,408.5469 C455.0156,408.5469 454.8125,408.625 454.625,408.8125 C454.1719,409.2969 454.1719,409.2969 453.9844,409.3906 C453.5625,409.6563 452.875,409.7813 452.1094,409.7813 C450.0625,409.7813 448.7656,408.6875 448.7656,406.9844 L448.7656,405.8906 C448.7656,404.1094 450.0156,402.7969 451.75,402.7969 C452.3281,402.7969 452.9375,402.9531 453.4063,403.2031 C453.8906,403.4844 454.0625,403.7031 454.1563,404.1094 C454.2188,404.5156 454.25,404.6406 454.3906,404.7656 C454.5313,404.9063 454.7656,405.0156 454.9844,405.0156 C455.25,405.0156 455.5156,404.875 455.6875,404.6563 C455.7969,404.5 455.8281,404.3125 455.8281,403.8906 L455.8281,402.4688 C455.8281,402.0313 455.8125,401.9063 455.7188,401.75 C455.5625,401.4844 455.2813,401.3438 454.9844,401.3438 C454.6875,401.3438 454.4844,401.4375 454.2656,401.75 L454.0938,401.6719 Z " fill="#000000"/><text fill="#000000" font-family="sans-serif" font-size="12" lengthAdjust="spacing" textLength="49" x="472.25" y="410.1543">Teacher</text><line style="stroke:#A80036;stroke-width:1.5;" x1="312" x2="649" y1="422" y2="422"/><ellipse cx="322" cy="433" rx="3" ry="3" style="stroke:#038048;stroke-width:1.0;fill:none;"/><text fill="#000000" font-family="sans-serif" font-size="11" lengthAdjust="spacing" textLength="98" x="331" y="436.2104">Firstname : string</text><ellipse cx="322" cy="445.8047" rx="3" ry="3" style="stroke:#038048;stroke-width:1.0;fill:none;"/><text fill="#000000" font-family="sans-serif" font-size="11" lengthAdjust="spacing" textLength="98" x="331" y="449.0151">Lastname : string</text><ellipse cx="322" cy="458.6094" rx="3" ry="3" style="stroke:#038048;stroke-width:1.0;fill:none;"/><text fill="#000000" font-family="sans-serif" font-size="11" lengthAdjust="spacing" textLength="73" x="331" y="461.8198">Email : string</text><line style="stroke:#A80036;stroke-width:1.0;" x1="312" x2="649" y1="468.4141" y2="468.4141"/><ellipse cx="322" cy="479.4141" fill="#84BE84" rx="3" ry="3" style="stroke:#038048;stroke-width:1.0;"/><text fill="#000000" font-family="sans-serif" font-size="11" lengthAdjust="spacing" textLength="313" x="331" y="482.6245">Teacher(string firstname, string lastname, string email)</text><!--MD5=[dfb0845b8492ffe07b1ce50e003034d7]
class Team--><rect codeLine="17" fill="#FEFECE" filter="url(#fptg5ke2174sc)" height="86.4141" id="Team" style="stroke:#A80036;stroke-width:1.5;" width="241" x="685" y="396.5"/><ellipse cx="784.75" cy="412.5" fill="#ADD1B2" rx="11" ry="11" style="stroke:#A80036;stroke-width:1.0;"/><path d="M787.0938,408.1719 C786.1563,407.7344 785.5625,407.5938 784.6875,407.5938 C782.0625,407.5938 780.0625,409.6719 780.0625,412.3906 L780.0625,413.5156 C780.0625,416.0938 782.1719,417.9844 785.0625,417.9844 C786.2813,417.9844 787.4375,417.6875 788.1875,417.1406 C788.7656,416.7344 789.0938,416.2813 789.0938,415.8906 C789.0938,415.4375 788.7031,415.0469 788.2344,415.0469 C788.0156,415.0469 787.8125,415.125 787.625,415.3125 C787.1719,415.7969 787.1719,415.7969 786.9844,415.8906 C786.5625,416.1563 785.875,416.2813 785.1094,416.2813 C783.0625,416.2813 781.7656,415.1875 781.7656,413.4844 L781.7656,412.3906 C781.7656,410.6094 783.0156,409.2969 784.75,409.2969 C785.3281,409.2969 785.9375,409.4531 786.4063,409.7031 C786.8906,409.9844 787.0625,410.2031 787.1563,410.6094 C787.2188,411.0156 787.25,411.1406 787.3906,411.2656 C787.5313,411.4063 787.7656,411.5156 787.9844,411.5156 C788.25,411.5156 788.5156,411.375 788.6875,411.1563 C788.7969,411 788.8281,410.8125 788.8281,410.3906 L788.8281,408.9688 C788.8281,408.5313 788.8125,408.4063 788.7188,408.25 C788.5625,407.9844 788.2813,407.8438 787.9844,407.8438 C787.6875,407.8438 787.4844,407.9375 787.2656,408.25 L787.0938,408.1719 Z " fill="#000000"/><text fill="#000000" font-family="sans-serif" font-size="12" lengthAdjust="spacing" textLength="33" x="805.25" y="416.6543">Team</text><line style="stroke:#A80036;stroke-width:1.5;" x1="686" x2="925" y1="428.5" y2="428.5"/><ellipse cx="696" cy="439.5" rx="3" ry="3" style="stroke:#038048;stroke-width:1.0;fill:none;"/><text fill="#000000" font-family="sans-serif" font-size="11" lengthAdjust="spacing" textLength="133" x="705" y="442.7104">Name : string «unique»</text><ellipse cx="696" cy="452.3047" rx="3" ry="3" style="stroke:#038048;stroke-width:1.0;fill:none;"/><text fill="#000000" font-family="sans-serif" font-size="11" lengthAdjust="spacing" textLength="108" x="705" y="455.5151">Schoolclass : string</text><line style="stroke:#A80036;stroke-width:1.0;" x1="686" x2="925" y1="462.1094" y2="462.1094"/><ellipse cx="696" cy="473.1094" fill="#84BE84" rx="3" ry="3" style="stroke:#038048;stroke-width:1.0;"/><text fill="#000000" font-family="sans-serif" font-size="11" lengthAdjust="spacing" textLength="215" x="705" y="476.3198">Team(string name, string schoolclass)</text><!--MD5=[b34797a66dc35cbf1d65f7e3ca75530e]
class Task--><rect codeLine="25" fill="#FEFECE" filter="url(#fptg5ke2174sc)" height="137.6328" id="Task" style="stroke:#A80036;stroke-width:1.5;" width="529" x="379" y="192"/><ellipse cx="625.25" cy="208" fill="#ADD1B2" rx="11" ry="11" style="stroke:#A80036;stroke-width:1.0;"/><path d="M627.5938,203.6719 C626.6563,203.2344 626.0625,203.0938 625.1875,203.0938 C622.5625,203.0938 620.5625,205.1719 620.5625,207.8906 L620.5625,209.0156 C620.5625,211.5938 622.6719,213.4844 625.5625,213.4844 C626.7813,213.4844 627.9375,213.1875 628.6875,212.6406 C629.2656,212.2344 629.5938,211.7813 629.5938,211.3906 C629.5938,210.9375 629.2031,210.5469 628.7344,210.5469 C628.5156,210.5469 628.3125,210.625 628.125,210.8125 C627.6719,211.2969 627.6719,211.2969 627.4844,211.3906 C627.0625,211.6563 626.375,211.7813 625.6094,211.7813 C623.5625,211.7813 622.2656,210.6875 622.2656,208.9844 L622.2656,207.8906 C622.2656,206.1094 623.5156,204.7969 625.25,204.7969 C625.8281,204.7969 626.4375,204.9531 626.9063,205.2031 C627.3906,205.4844 627.5625,205.7031 627.6563,206.1094 C627.7188,206.5156 627.75,206.6406 627.8906,206.7656 C628.0313,206.9063 628.2656,207.0156 628.4844,207.0156 C628.75,207.0156 629.0156,206.875 629.1875,206.6563 C629.2969,206.5 629.3281,206.3125 629.3281,205.8906 L629.3281,204.4688 C629.3281,204.0313 629.3125,203.9063 629.2188,203.75 C629.0625,203.4844 628.7813,203.3438 628.4844,203.3438 C628.1875,203.3438 627.9844,203.4375 627.7656,203.75 L627.5938,203.6719 Z " fill="#000000"/><text fill="#000000" font-family="sans-serif" font-size="12" lengthAdjust="spacing" textLength="28" x="645.75" y="212.1543">Task</text><line style="stroke:#A80036;stroke-width:1.5;" x1="380" x2="907" y1="224" y2="224"/><ellipse cx="390" cy="235" rx="3" ry="3" style="stroke:#038048;stroke-width:1.0;fill:none;"/><text fill="#000000" font-family="sans-serif" font-size="11" lengthAdjust="spacing" textLength="85" x="399" y="238.2104">Subject : string</text><ellipse cx="390" cy="247.8047" rx="3" ry="3" style="stroke:#038048;stroke-width:1.0;fill:none;"/><text fill="#000000" font-family="sans-serif" font-size="11" lengthAdjust="spacing" textLength="67" x="399" y="251.0151">Title : string</text><ellipse cx="390" cy="260.6094" rx="3" ry="3" style="stroke:#038048;stroke-width:1.0;fill:none;"/><text fill="#000000" font-family="sans-serif" font-size="11" lengthAdjust="spacing" textLength="77" x="399" y="263.8198">Team : Team</text><ellipse cx="390" cy="273.4141" rx="3" ry="3" style="stroke:#038048;stroke-width:1.0;fill:none;"/><text fill="#000000" font-family="sans-serif" font-size="11" lengthAdjust="spacing" textLength="105" x="399" y="276.6245">Teacher : Teacher</text><ellipse cx="390" cy="286.2188" rx="3" ry="3" style="stroke:#038048;stroke-width:1.0;fill:none;"/><text fill="#000000" font-family="sans-serif" font-size="11" lengthAdjust="spacing" textLength="152" x="399" y="289.4292">ExpirationDate : DateTime</text><ellipse cx="390" cy="299.0234" rx="3" ry="3" style="stroke:#038048;stroke-width:1.0;fill:none;"/><text fill="#000000" font-family="sans-serif" font-size="11" lengthAdjust="spacing" textLength="87" x="399" y="302.2339">MaxPoints : int?</text><line style="stroke:#A80036;stroke-width:1.0;" x1="380" x2="907" y1="308.8281" y2="308.8281"/><ellipse cx="390" cy="319.8281" fill="#84BE84" rx="3" ry="3" style="stroke:#038048;stroke-width:1.0;"/><text fill="#000000" font-family="sans-serif" font-size="11" lengthAdjust="spacing" textLength="503" x="399" y="323.0386">Task(string subject, string title, Team team, Teacher teacher, DateTime expirationDate)</text><!--MD5=[5d694e73d8201b0682522ad17ed95015]
class HandIn--><rect codeLine="38" fill="#FEFECE" filter="url(#fptg5ke2174sc)" height="124.8281" id="HandIn" style="stroke:#A80036;stroke-width:1.5;" width="319" x="250" y="7"/><ellipse cx="384.75" cy="23" fill="#ADD1B2" rx="11" ry="11" style="stroke:#A80036;stroke-width:1.0;"/><path d="M387.0938,18.6719 C386.1563,18.2344 385.5625,18.0938 384.6875,18.0938 C382.0625,18.0938 380.0625,20.1719 380.0625,22.8906 L380.0625,24.0156 C380.0625,26.5938 382.1719,28.4844 385.0625,28.4844 C386.2813,28.4844 387.4375,28.1875 388.1875,27.6406 C388.7656,27.2344 389.0938,26.7813 389.0938,26.3906 C389.0938,25.9375 388.7031,25.5469 388.2344,25.5469 C388.0156,25.5469 387.8125,25.625 387.625,25.8125 C387.1719,26.2969 387.1719,26.2969 386.9844,26.3906 C386.5625,26.6563 385.875,26.7813 385.1094,26.7813 C383.0625,26.7813 381.7656,25.6875 381.7656,23.9844 L381.7656,22.8906 C381.7656,21.1094 383.0156,19.7969 384.75,19.7969 C385.3281,19.7969 385.9375,19.9531 386.4063,20.2031 C386.8906,20.4844 387.0625,20.7031 387.1563,21.1094 C387.2188,21.5156 387.25,21.6406 387.3906,21.7656 C387.5313,21.9063 387.7656,22.0156 387.9844,22.0156 C388.25,22.0156 388.5156,21.875 388.6875,21.6563 C388.7969,21.5 388.8281,21.3125 388.8281,20.8906 L388.8281,19.4688 C388.8281,19.0313 388.8125,18.9063 388.7188,18.75 C388.5625,18.4844 388.2813,18.3438 387.9844,18.3438 C387.6875,18.3438 387.4844,18.4375 387.2656,18.75 L387.0938,18.6719 Z " fill="#000000"/><text fill="#000000" font-family="sans-serif" font-size="12" lengthAdjust="spacing" textLength="41" x="405.25" y="27.1543">HandIn</text><line style="stroke:#A80036;stroke-width:1.5;" x1="251" x2="568" y1="39" y2="39"/><ellipse cx="261" cy="50" rx="3" ry="3" style="stroke:#038048;stroke-width:1.0;fill:none;"/><text fill="#000000" font-family="sans-serif" font-size="11" lengthAdjust="spacing" textLength="63" x="270" y="53.2104">Task : Task</text><ellipse cx="261" cy="62.8047" rx="3" ry="3" style="stroke:#038048;stroke-width:1.0;fill:none;"/><text fill="#000000" font-family="sans-serif" font-size="11" lengthAdjust="spacing" textLength="101" x="270" y="66.0151">Student : Student</text><ellipse cx="261" cy="75.6094" rx="3" ry="3" style="stroke:#038048;stroke-width:1.0;fill:none;"/><text fill="#000000" font-family="sans-serif" font-size="11" lengthAdjust="spacing" textLength="96" x="270" y="78.8198">Date : DateTime</text><ellipse cx="261" cy="88.4141" rx="3" ry="3" style="stroke:#038048;stroke-width:1.0;fill:none;"/><text fill="#000000" font-family="sans-serif" font-size="11" lengthAdjust="spacing" textLength="144" x="270" y="91.6245">ReviewDate : DateTime?</text><ellipse cx="261" cy="101.2188" rx="3" ry="3" style="stroke:#038048;stroke-width:1.0;fill:none;"/><text fill="#000000" font-family="sans-serif" font-size="11" lengthAdjust="spacing" textLength="64" x="270" y="104.4292">Points : int?</text><line style="stroke:#A80036;stroke-width:1.0;" x1="251" x2="568" y1="111.0234" y2="111.0234"/><ellipse cx="261" cy="122.0234" fill="#84BE84" rx="3" ry="3" style="stroke:#038048;stroke-width:1.0;"/><text fill="#000000" font-family="sans-serif" font-size="11" lengthAdjust="spacing" textLength="293" x="270" y="125.2339">HandIn(Task task, Student student, DateTime date)</text><!--MD5=[7e4d6fb2ab054995a1b8a438b53a207a]
link Task to Team--><path codeLine="35" d="M714.2479,339.0802 C714.2479,339.0802 744.475,372.013 757.886,386.624 " fill="none" id="Task-Team" style="stroke:#A80036;stroke-width:1.0;"/><polygon fill="#A80036" points="766.911,396.4568,763.7721,387.1215,763.53,392.7732,757.8784,392.5311,766.911,396.4568" style="stroke:#A80036;stroke-width:1.0;"/><line style="stroke:#A80036;stroke-width:1.0;" x1="763.53" x2="758.12" y1="392.7732" y2="386.8796"/><polygon fill="#FFFFFF" points="706.133,330.24,707.2437,337.365,714.2479,339.0802,713.1372,331.9551,706.133,330.24" style="stroke:#A80036;stroke-width:1.0;"/><!--MD5=[087c6d06139a386268c168e65a133c6d]
link Task to Teacher--><path codeLine="36" d="M572.339,339.0561 C572.339,339.0561 546.155,367.407 534.297,380.247 " fill="none" id="Task-Teacher" style="stroke:#A80036;stroke-width:1.0;"/><polygon fill="#A80036" points="525.422,389.8573,534.4665,385.9589,528.8141,386.1839,528.589,380.5315,525.422,389.8573" style="stroke:#A80036;stroke-width:1.0;"/><line style="stroke:#A80036;stroke-width:1.0;" x1="528.8141" x2="534.242" y1="386.1839" y2="380.307"/><polygon fill="#FFFFFF" points="580.48,330.24,573.4708,331.9344,572.339,339.0561,579.3482,337.3617,580.48,330.24" style="stroke:#A80036;stroke-width:1.0;"/><!--MD5=[1b43816675246d6fe0a98d63d04b5c4c]
link HandIn to Student--><path codeLine="47" d="M324.2014,139.577 C324.2014,139.577 270.177,183.328 245.785,203.081 " fill="none" id="HandIn-Student" style="stroke:#A80036;stroke-width:1.0;"/><polygon fill="#A80036" points="235.545,211.374,245.0564,208.8179,239.4305,208.2271,240.0213,202.6011,235.545,211.374" style="stroke:#A80036;stroke-width:1.0;"/><line style="stroke:#A80036;stroke-width:1.0;" x1="239.4305" x2="245.6475" y1="208.2271" y2="203.1925"/><polygon fill="#FFFFFF" points="333.527,132.025,326.3469,132.6925,324.2014,139.577,331.3815,138.9095,333.527,132.025" style="stroke:#A80036;stroke-width:1.0;"/><!--MD5=[a5c9ac3438507df68c33c8ea4a6de764]
link HandIn to Task--><path codeLine="48" d="M494.7986,139.577 C494.7986,139.577 531.401,169.219 549.09,183.544 " fill="none" id="HandIn-Task" style="stroke:#A80036;stroke-width:1.0;"/><polygon fill="#A80036" points="559.409,191.901,554.9321,183.1285,555.5233,188.7543,549.8975,189.3455,559.409,191.901" style="stroke:#A80036;stroke-width:1.0;"/><line style="stroke:#A80036;stroke-width:1.0;" x1="555.5233" x2="549.3065" y1="188.7543" y2="183.719"/><polygon fill="#FFFFFF" points="485.473,132.025,487.6185,138.9095,494.7986,139.577,492.6531,132.6925,485.473,132.025" style="stroke:#A80036;stroke-width:1.0;"/><!--MD5=[6a74793762be39a26bcce7cf302ea122]
@startuml
class Student {
  +Firstname : string
  +Lastname : string
  +Email : string
  - - -
  +Student(string firstname, string lastname, string email)
}

class Teacher {
  +Firstname : string
  +Lastname : string
  +Email : string
  - - -
  +Teacher(string firstname, string lastname, string email)
}

class Team {
  +Name : string <<unique>>
  +Schoolclass : string
  - - -
  +Team(string name, string schoolclass)
}


class Task {
  +Subject : string
  +Title : string
  +Team : Team
  +Teacher : Teacher
  +ExpirationDate : DateTime
  +MaxPoints : int?
  - - -
  +Task(string subject, string title, Team team, Teacher teacher, DateTime expirationDate)
}
 Task o- -> Team
 Task o- -> Teacher

class HandIn {
  +Task : Task
  +Student : Student
  +Date : DateTime
  +ReviewDate : DateTime?
  +Points : int?
  - - -
  +HandIn(Task task, Student student, DateTime date)
}
HandIn o- -> Student
HandIn o- -> Task
@enduml

PlantUML version 1.2021.16beta1(Unknown compile time)
(GPL source distribution)
Java Runtime: Java(TM) SE Runtime Environment
JVM: Java HotSpot(TM) 64-Bit Server VM
Default Encoding: UTF-8
Language: en
Country: US
--></g></svg>