<?xml version="1.0" encoding="UTF-8" standalone="no"?><svg xmlns="http://www.w3.org/2000/svg" xmlns:xlink="http://www.w3.org/1999/xlink" contentScriptType="application/ecmascript" contentStyleType="text/css" height="464px" preserveAspectRatio="none" style="width:418px;height:464px;background:#FFFFFF;" version="1.1" viewBox="0 0 418 464" width="418px" zoomAndPan="magnify"><defs><filter height="300%" id="f7hm1q9obzxyo" width="300%" x="-1" y="-1"><feGaussianBlur result="blurOut" stdDeviation="2.0"/><feColorMatrix in="blurOut" result="blurOut2" type="matrix" values="0 0 0 0 0 0 0 0 0 0 0 0 0 0 0 0 0 0 .4 0"/><feOffset dx="4.0" dy="4.0" in="blurOut2" result="blurOut3"/><feBlend in="SourceGraphic" in2="blurOut3" mode="normal"/></filter></defs><g><!--MD5=[d6181cb537bdc20c0a3007a98a56832d]
class Student--><rect codeLine="1" fill="#FEFECE" filter="url(#f7hm1q9obzxyo)" height="86.4141" id="Student" style="stroke:#A80036;stroke-width:1.5;" width="124" x="7" y="198.5"/><ellipse cx="42.7" cy="214.5" fill="#ADD1B2" rx="11" ry="11" style="stroke:#A80036;stroke-width:1.0;"/><path d="M45.0438,210.1719 C44.1063,209.7344 43.5125,209.5938 42.6375,209.5938 C40.0125,209.5938 38.0125,211.6719 38.0125,214.3906 L38.0125,215.5156 C38.0125,218.0938 40.1219,219.9844 43.0125,219.9844 C44.2313,219.9844 45.3875,219.6875 46.1375,219.1406 C46.7156,218.7344 47.0438,218.2813 47.0438,217.8906 C47.0438,217.4375 46.6531,217.0469 46.1844,217.0469 C45.9656,217.0469 45.7625,217.125 45.575,217.3125 C45.1219,217.7969 45.1219,217.7969 44.9344,217.8906 C44.5125,218.1563 43.825,218.2813 43.0594,218.2813 C41.0125,218.2813 39.7156,217.1875 39.7156,215.4844 L39.7156,214.3906 C39.7156,212.6094 40.9656,211.2969 42.7,211.2969 C43.2781,211.2969 43.8875,211.4531 44.3563,211.7031 C44.8406,211.9844 45.0125,212.2031 45.1063,212.6094 C45.1688,213.0156 45.2,213.1406 45.3406,213.2656 C45.4813,213.4063 45.7156,213.5156 45.9344,213.5156 C46.2,213.5156 46.4656,213.375 46.6375,213.1563 C46.7469,213 46.7781,212.8125 46.7781,212.3906 L46.7781,210.9688 C46.7781,210.5313 46.7625,210.4063 46.6688,210.25 C46.5125,209.9844 46.2313,209.8438 45.9344,209.8438 C45.6375,209.8438 45.4344,209.9375 45.2156,210.25 L45.0438,210.1719 Z " fill="#000000"/><text fill="#000000" font-family="sans-serif" font-size="12" lengthAdjust="spacing" textLength="46" x="61.3" y="218.6543">Student</text><line style="stroke:#A80036;stroke-width:1.5;" x1="8" x2="130" y1="230.5" y2="230.5"/><ellipse cx="18" cy="241.5" rx="3" ry="3" style="stroke:#038048;stroke-width:1.0;fill:none;"/><text fill="#000000" font-family="sans-serif" font-size="11" lengthAdjust="spacing" textLength="98" x="27" y="244.7104">Firstname : string</text><ellipse cx="18" cy="254.3047" rx="3" ry="3" style="stroke:#038048;stroke-width:1.0;fill:none;"/><text fill="#000000" font-family="sans-serif" font-size="11" lengthAdjust="spacing" textLength="98" x="27" y="257.5151">Lastname : string</text><ellipse cx="18" cy="267.1094" rx="3" ry="3" style="stroke:#038048;stroke-width:1.0;fill:none;"/><text fill="#000000" font-family="sans-serif" font-size="11" lengthAdjust="spacing" textLength="73" x="27" y="270.3198">Email : string</text><line style="stroke:#A80036;stroke-width:1.5;" x1="8" x2="130" y1="276.9141" y2="276.9141"/><!--MD5=[61a83f88cb8b7d3a80bc8c481f3736bf]
class Teacher--><rect codeLine="7" fill="#FEFECE" filter="url(#f7hm1q9obzxyo)" height="86.4141" id="Teacher" style="stroke:#A80036;stroke-width:1.5;" width="124" x="111" y="364"/><ellipse cx="145.35" cy="380" fill="#ADD1B2" rx="11" ry="11" style="stroke:#A80036;stroke-width:1.0;"/><path d="M147.6938,375.6719 C146.7563,375.2344 146.1625,375.0938 145.2875,375.0938 C142.6625,375.0938 140.6625,377.1719 140.6625,379.8906 L140.6625,381.0156 C140.6625,383.5938 142.7719,385.4844 145.6625,385.4844 C146.8813,385.4844 148.0375,385.1875 148.7875,384.6406 C149.3656,384.2344 149.6938,383.7813 149.6938,383.3906 C149.6938,382.9375 149.3031,382.5469 148.8344,382.5469 C148.6156,382.5469 148.4125,382.625 148.225,382.8125 C147.7719,383.2969 147.7719,383.2969 147.5844,383.3906 C147.1625,383.6563 146.475,383.7813 145.7094,383.7813 C143.6625,383.7813 142.3656,382.6875 142.3656,380.9844 L142.3656,379.8906 C142.3656,378.1094 143.6156,376.7969 145.35,376.7969 C145.9281,376.7969 146.5375,376.9531 147.0063,377.2031 C147.4906,377.4844 147.6625,377.7031 147.7563,378.1094 C147.8188,378.5156 147.85,378.6406 147.9906,378.7656 C148.1313,378.9063 148.3656,379.0156 148.5844,379.0156 C148.85,379.0156 149.1156,378.875 149.2875,378.6563 C149.3969,378.5 149.4281,378.3125 149.4281,377.8906 L149.4281,376.4688 C149.4281,376.0313 149.4125,375.9063 149.3188,375.75 C149.1625,375.4844 148.8813,375.3438 148.5844,375.3438 C148.2875,375.3438 148.0844,375.4375 147.8656,375.75 L147.6938,375.6719 Z " fill="#000000"/><text fill="#000000" font-family="sans-serif" font-size="12" lengthAdjust="spacing" textLength="49" x="163.65" y="384.1543">Teacher</text><line style="stroke:#A80036;stroke-width:1.5;" x1="112" x2="234" y1="396" y2="396"/><ellipse cx="122" cy="407" rx="3" ry="3" style="stroke:#038048;stroke-width:1.0;fill:none;"/><text fill="#000000" font-family="sans-serif" font-size="11" lengthAdjust="spacing" textLength="98" x="131" y="410.2104">Firstname : string</text><ellipse cx="122" cy="419.8047" rx="3" ry="3" style="stroke:#038048;stroke-width:1.0;fill:none;"/><text fill="#000000" font-family="sans-serif" font-size="11" lengthAdjust="spacing" textLength="98" x="131" y="423.0151">Lastname : string</text><ellipse cx="122" cy="432.6094" rx="3" ry="3" style="stroke:#038048;stroke-width:1.0;fill:none;"/><text fill="#000000" font-family="sans-serif" font-size="11" lengthAdjust="spacing" textLength="73" x="131" y="435.8198">Email : string</text><line style="stroke:#A80036;stroke-width:1.5;" x1="112" x2="234" y1="442.4141" y2="442.4141"/><!--MD5=[dfb0845b8492ffe07b1ce50e003034d7]
class Team--><rect codeLine="13" fill="#FEFECE" filter="url(#f7hm1q9obzxyo)" height="73.6094" id="Team" style="stroke:#A80036;stroke-width:1.5;" width="134" x="270" y="370"/><ellipse cx="316.25" cy="386" fill="#ADD1B2" rx="11" ry="11" style="stroke:#A80036;stroke-width:1.0;"/><path d="M318.5938,381.6719 C317.6563,381.2344 317.0625,381.0938 316.1875,381.0938 C313.5625,381.0938 311.5625,383.1719 311.5625,385.8906 L311.5625,387.0156 C311.5625,389.5938 313.6719,391.4844 316.5625,391.4844 C317.7813,391.4844 318.9375,391.1875 319.6875,390.6406 C320.2656,390.2344 320.5938,389.7813 320.5938,389.3906 C320.5938,388.9375 320.2031,388.5469 319.7344,388.5469 C319.5156,388.5469 319.3125,388.625 319.125,388.8125 C318.6719,389.2969 318.6719,389.2969 318.4844,389.3906 C318.0625,389.6563 317.375,389.7813 316.6094,389.7813 C314.5625,389.7813 313.2656,388.6875 313.2656,386.9844 L313.2656,385.8906 C313.2656,384.1094 314.5156,382.7969 316.25,382.7969 C316.8281,382.7969 317.4375,382.9531 317.9063,383.2031 C318.3906,383.4844 318.5625,383.7031 318.6563,384.1094 C318.7188,384.5156 318.75,384.6406 318.8906,384.7656 C319.0313,384.9063 319.2656,385.0156 319.4844,385.0156 C319.75,385.0156 320.0156,384.875 320.1875,384.6563 C320.2969,384.5 320.3281,384.3125 320.3281,383.8906 L320.3281,382.4688 C320.3281,382.0313 320.3125,381.9063 320.2188,381.75 C320.0625,381.4844 319.7813,381.3438 319.4844,381.3438 C319.1875,381.3438 318.9844,381.4375 318.7656,381.75 L318.5938,381.6719 Z " fill="#000000"/><text fill="#000000" font-family="sans-serif" font-size="12" lengthAdjust="spacing" textLength="33" x="336.75" y="390.1543">Team</text><line style="stroke:#A80036;stroke-width:1.5;" x1="271" x2="403" y1="402" y2="402"/><ellipse cx="281" cy="413" rx="3" ry="3" style="stroke:#038048;stroke-width:1.0;fill:none;"/><text fill="#000000" font-family="sans-serif" font-size="11" lengthAdjust="spacing" textLength="76" x="290" y="416.2104">Name : string</text><ellipse cx="281" cy="425.8047" rx="3" ry="3" style="stroke:#038048;stroke-width:1.0;fill:none;"/><text fill="#000000" font-family="sans-serif" font-size="11" lengthAdjust="spacing" textLength="108" x="290" y="429.0151">Schoolclass : string</text><line style="stroke:#A80036;stroke-width:1.5;" x1="271" x2="403" y1="435.6094" y2="435.6094"/><!--MD5=[b34797a66dc35cbf1d65f7e3ca75530e]
class Task--><rect codeLine="18" fill="#FEFECE" filter="url(#f7hm1q9obzxyo)" height="124.8281" id="Task" style="stroke:#A80036;stroke-width:1.5;" width="178" x="166" y="179"/><ellipse cx="236.75" cy="195" fill="#ADD1B2" rx="11" ry="11" style="stroke:#A80036;stroke-width:1.0;"/><path d="M239.0938,190.6719 C238.1563,190.2344 237.5625,190.0938 236.6875,190.0938 C234.0625,190.0938 232.0625,192.1719 232.0625,194.8906 L232.0625,196.0156 C232.0625,198.5938 234.1719,200.4844 237.0625,200.4844 C238.2813,200.4844 239.4375,200.1875 240.1875,199.6406 C240.7656,199.2344 241.0938,198.7813 241.0938,198.3906 C241.0938,197.9375 240.7031,197.5469 240.2344,197.5469 C240.0156,197.5469 239.8125,197.625 239.625,197.8125 C239.1719,198.2969 239.1719,198.2969 238.9844,198.3906 C238.5625,198.6563 237.875,198.7813 237.1094,198.7813 C235.0625,198.7813 233.7656,197.6875 233.7656,195.9844 L233.7656,194.8906 C233.7656,193.1094 235.0156,191.7969 236.75,191.7969 C237.3281,191.7969 237.9375,191.9531 238.4063,192.2031 C238.8906,192.4844 239.0625,192.7031 239.1563,193.1094 C239.2188,193.5156 239.25,193.6406 239.3906,193.7656 C239.5313,193.9063 239.7656,194.0156 239.9844,194.0156 C240.25,194.0156 240.5156,193.875 240.6875,193.6563 C240.7969,193.5 240.8281,193.3125 240.8281,192.8906 L240.8281,191.4688 C240.8281,191.0313 240.8125,190.9063 240.7188,190.75 C240.5625,190.4844 240.2813,190.3438 239.9844,190.3438 C239.6875,190.3438 239.4844,190.4375 239.2656,190.75 L239.0938,190.6719 Z " fill="#000000"/><text fill="#000000" font-family="sans-serif" font-size="12" lengthAdjust="spacing" textLength="28" x="257.25" y="199.1543">Task</text><line style="stroke:#A80036;stroke-width:1.5;" x1="167" x2="343" y1="211" y2="211"/><ellipse cx="177" cy="222" rx="3" ry="3" style="stroke:#038048;stroke-width:1.0;fill:none;"/><text fill="#000000" font-family="sans-serif" font-size="11" lengthAdjust="spacing" textLength="85" x="186" y="225.2104">Subject : string</text><ellipse cx="177" cy="234.8047" rx="3" ry="3" style="stroke:#038048;stroke-width:1.0;fill:none;"/><text fill="#000000" font-family="sans-serif" font-size="11" lengthAdjust="spacing" textLength="67" x="186" y="238.0151">Title : string</text><ellipse cx="177" cy="247.6094" rx="3" ry="3" style="stroke:#038048;stroke-width:1.0;fill:none;"/><text fill="#000000" font-family="sans-serif" font-size="11" lengthAdjust="spacing" textLength="77" x="186" y="250.8198">Team : Team</text><ellipse cx="177" cy="260.4141" rx="3" ry="3" style="stroke:#038048;stroke-width:1.0;fill:none;"/><text fill="#000000" font-family="sans-serif" font-size="11" lengthAdjust="spacing" textLength="105" x="186" y="263.6245">Teacher : Teacher</text><ellipse cx="177" cy="273.2188" rx="3" ry="3" style="stroke:#038048;stroke-width:1.0;fill:none;"/><text fill="#000000" font-family="sans-serif" font-size="11" lengthAdjust="spacing" textLength="152" x="186" y="276.4292">ExpirationDate : DateTime</text><ellipse cx="177" cy="286.0234" rx="3" ry="3" style="stroke:#038048;stroke-width:1.0;fill:none;"/><text fill="#000000" font-family="sans-serif" font-size="11" lengthAdjust="spacing" textLength="87" x="186" y="289.2339">MaxPoints : int?</text><line style="stroke:#A80036;stroke-width:1.5;" x1="167" x2="343" y1="295.8281" y2="295.8281"/><!--MD5=[5d694e73d8201b0682522ad17ed95015]
class HandIn--><rect codeLine="29" fill="#FEFECE" filter="url(#f7hm1q9obzxyo)" height="112.0234" id="HandIn" style="stroke:#A80036;stroke-width:1.5;" width="170" x="77" y="7"/><ellipse cx="137.25" cy="23" fill="#ADD1B2" rx="11" ry="11" style="stroke:#A80036;stroke-width:1.0;"/><path d="M139.5938,18.6719 C138.6563,18.2344 138.0625,18.0938 137.1875,18.0938 C134.5625,18.0938 132.5625,20.1719 132.5625,22.8906 L132.5625,24.0156 C132.5625,26.5938 134.6719,28.4844 137.5625,28.4844 C138.7813,28.4844 139.9375,28.1875 140.6875,27.6406 C141.2656,27.2344 141.5938,26.7813 141.5938,26.3906 C141.5938,25.9375 141.2031,25.5469 140.7344,25.5469 C140.5156,25.5469 140.3125,25.625 140.125,25.8125 C139.6719,26.2969 139.6719,26.2969 139.4844,26.3906 C139.0625,26.6563 138.375,26.7813 137.6094,26.7813 C135.5625,26.7813 134.2656,25.6875 134.2656,23.9844 L134.2656,22.8906 C134.2656,21.1094 135.5156,19.7969 137.25,19.7969 C137.8281,19.7969 138.4375,19.9531 138.9063,20.2031 C139.3906,20.4844 139.5625,20.7031 139.6563,21.1094 C139.7188,21.5156 139.75,21.6406 139.8906,21.7656 C140.0313,21.9063 140.2656,22.0156 140.4844,22.0156 C140.75,22.0156 141.0156,21.875 141.1875,21.6563 C141.2969,21.5 141.3281,21.3125 141.3281,20.8906 L141.3281,19.4688 C141.3281,19.0313 141.3125,18.9063 141.2188,18.75 C141.0625,18.4844 140.7813,18.3438 140.4844,18.3438 C140.1875,18.3438 139.9844,18.4375 139.7656,18.75 L139.5938,18.6719 Z " fill="#000000"/><text fill="#000000" font-family="sans-serif" font-size="12" lengthAdjust="spacing" textLength="41" x="157.75" y="27.1543">HandIn</text><line style="stroke:#A80036;stroke-width:1.5;" x1="78" x2="246" y1="39" y2="39"/><ellipse cx="88" cy="50" rx="3" ry="3" style="stroke:#038048;stroke-width:1.0;fill:none;"/><text fill="#000000" font-family="sans-serif" font-size="11" lengthAdjust="spacing" textLength="63" x="97" y="53.2104">Task : Task</text><ellipse cx="88" cy="62.8047" rx="3" ry="3" style="stroke:#038048;stroke-width:1.0;fill:none;"/><text fill="#000000" font-family="sans-serif" font-size="11" lengthAdjust="spacing" textLength="101" x="97" y="66.0151">Student : Student</text><ellipse cx="88" cy="75.6094" rx="3" ry="3" style="stroke:#038048;stroke-width:1.0;fill:none;"/><text fill="#000000" font-family="sans-serif" font-size="11" lengthAdjust="spacing" textLength="96" x="97" y="78.8198">Date : DateTime</text><ellipse cx="88" cy="88.4141" rx="3" ry="3" style="stroke:#038048;stroke-width:1.0;fill:none;"/><text fill="#000000" font-family="sans-serif" font-size="11" lengthAdjust="spacing" textLength="144" x="97" y="91.6245">ReviewDate : DateTime?</text><ellipse cx="88" cy="101.2188" rx="3" ry="3" style="stroke:#038048;stroke-width:1.0;fill:none;"/><text fill="#000000" font-family="sans-serif" font-size="11" lengthAdjust="spacing" textLength="64" x="97" y="104.4292">Points : int?</text><line style="stroke:#A80036;stroke-width:1.5;" x1="78" x2="246" y1="111.0234" y2="111.0234"/><!--MD5=[7e4d6fb2ab054995a1b8a438b53a207a]
link Task to Team--><path codeLine="26" d="M291.3813,315.0383 C291.3813,315.0383 306.37,344.926 312.969,358.0853 " fill="none" id="Task-Team" style="stroke:#A80036;stroke-width:1.0;"/><polygon fill="#A80036" points="318.805,369.7204,318.3455,359.8823,316.5634,365.2511,311.1946,363.4689,318.805,369.7204" style="stroke:#A80036;stroke-width:1.0;"/><line style="stroke:#A80036;stroke-width:1.0;" x1="316.5634" x2="312.977" y1="365.2511" y2="358.1"/><polygon fill="#FFFFFF" points="286.001,304.312,285.1157,311.4686,291.3813,315.0383,292.2666,307.8817,286.001,304.312" style="stroke:#A80036;stroke-width:1.0;"/><!--MD5=[087c6d06139a386268c168e65a133c6d]
link Task to Teacher--><path codeLine="27" d="M218.6187,315.0383 C218.6187,315.0383 205.761,340.678 199.967,352.2296 " fill="none" id="Task-Teacher" style="stroke:#A80036;stroke-width:1.0;"/><polygon fill="#A80036" points="194.107,363.9146,201.7174,357.6631,196.3486,359.4453,194.5665,354.0765,194.107,363.9146" style="stroke:#A80036;stroke-width:1.0;"/><line style="stroke:#A80036;stroke-width:1.0;" x1="196.3486" x2="199.935" y1="359.4453" y2="352.2942"/><polygon fill="#FFFFFF" points="223.999,304.312,217.7334,307.8817,218.6187,315.0383,224.8843,311.4686,223.999,304.312" style="stroke:#A80036;stroke-width:1.0;"/><!--MD5=[1b43816675246d6fe0a98d63d04b5c4c]
link HandIn to Student--><path codeLine="36" d="M127.2353,129.9775 C127.2353,129.9775 106.7,168.951 97.4677,186.473 " fill="none" id="HandIn-Student" style="stroke:#A80036;stroke-width:1.0;"/><polygon fill="#A80036" points="91.2777,198.22,99.0119,192.1223,93.6085,193.7965,91.9343,188.3931,91.2777,198.22" style="stroke:#A80036;stroke-width:1.0;"/><line style="stroke:#A80036;stroke-width:1.0;" x1="93.6085" x2="97.3378" y1="193.7965" y2="186.719"/><polygon fill="#FFFFFF" points="132.829,119.361,126.4933,122.8047,127.2353,129.9775,133.571,126.5338,132.829,119.361" style="stroke:#A80036;stroke-width:1.0;"/><!--MD5=[a5c9ac3438507df68c33c8ea4a6de764]
link HandIn to Task--><path codeLine="37" d="M196.7647,129.9775 C196.7647,129.9775 210.054,155.198 216.336,167.122 " fill="none" id="HandIn-Task" style="stroke:#A80036;stroke-width:1.0;"/><polygon fill="#A80036" points="222.536,178.888,221.8795,169.061,220.2053,174.4645,214.8019,172.7902,222.536,178.888" style="stroke:#A80036;stroke-width:1.0;"/><line style="stroke:#A80036;stroke-width:1.0;" x1="220.2053" x2="216.4755" y1="174.4645" y2="167.387"/><polygon fill="#FFFFFF" points="191.171,119.361,190.429,126.5338,196.7647,129.9775,197.5067,122.8047,191.171,119.361" style="stroke:#A80036;stroke-width:1.0;"/><!--MD5=[97fc01239cf46c6727f9c4a58e28b262]
@startuml
class Student {
  +Firstname : string
  +Lastname : string
  +Email : string
}

class Teacher {
  +Firstname : string
  +Lastname : string
  +Email : string
}

class Team {
  +Name : string
  +Schoolclass : string
}

class Task {
  +Subject : string
  +Title : string
  +Team : Team
  +Teacher : Teacher
  +ExpirationDate : DateTime
  +MaxPoints : int?
}
 Task o- -> Team
 Task o- -> Teacher

class HandIn {
  +Task : Task
  +Student : Student
  +Date : DateTime
  +ReviewDate : DateTime?
  +Points : int?
}
HandIn o- -> Student
HandIn o- -> Task
@enduml

PlantUML version 1.2021.15(Tue Nov 30 16:45:34 UTC 2021)
(GPL source distribution)
Java Runtime: Java(TM) SE Runtime Environment
JVM: Java HotSpot(TM) 64-Bit Server VM
Default Encoding: UTF-8
Language: en
Country: US
--></g></svg>