<?xml version="1.0" encoding="UTF-8" standalone="no"?><svg xmlns="http://www.w3.org/2000/svg" xmlns:xlink="http://www.w3.org/1999/xlink" contentScriptType="application/ecmascript" contentStyleType="text/css" height="234px" preserveAspectRatio="none" style="width:724px;height:234px;background:#FFFFFF;" version="1.1" viewBox="0 0 724 234" width="724px" zoomAndPan="magnify"><defs><filter height="300%" id="fdeyp7k5eygeb" width="300%" x="-1" y="-1"><feGaussianBlur result="blurOut" stdDeviation="2.0"/><feColorMatrix in="blurOut" result="blurOut2" type="matrix" values="0 0 0 0 0 0 0 0 0 0 0 0 0 0 0 0 0 0 .4 0"/><feOffset dx="4.0" dy="4.0" in="blurOut2" result="blurOut3"/><feBlend in="SourceGraphic" in2="blurOut3" mode="normal"/></filter></defs><g><!--MD5=[a4ea2dcb44ebd57046df9af95d8b8c12]
class Gender--><rect codeLine="4" fill="#FEFECE" filter="url(#fdeyp7k5eygeb)" height="65.6094" id="Gender" style="stroke:#A80036;stroke-width:1.5;" width="77" x="441" y="7"/><ellipse cx="456" cy="23" fill="#EB937F" rx="11" ry="11" style="stroke:#A80036;stroke-width:1.0;"/><path d="M454.7969,23.875 L456.25,23.875 L456.25,23.9844 C456.25,24.3906 456.2813,24.5469 456.3594,24.7031 C456.5156,24.9531 456.7969,25.1094 457.0938,25.1094 C457.3438,25.1094 457.6094,24.9688 457.7656,24.75 C457.8906,24.5938 457.9219,24.4375 457.9219,23.9844 L457.9219,22.0625 C457.9219,21.9063 457.9219,21.8594 457.9063,21.7031 C457.8438,21.2344 457.5313,20.9219 457.0781,20.9219 C456.8281,20.9219 456.5625,21.0625 456.3906,21.2813 C456.2813,21.4531 456.25,21.6094 456.25,22.0625 L456.25,22.1875 L454.7969,22.1875 L454.7969,19.7813 L458.7813,19.7813 L458.7813,20.6406 C458.7813,21.0469 458.8125,21.2188 458.8906,21.375 C459.0625,21.625 459.3438,21.7813 459.625,21.7813 C459.8906,21.7813 460.1563,21.6406 460.3281,21.4219 C460.4375,21.25 460.4688,21.1094 460.4688,20.6406 L460.4688,18.0938 L452.8438,18.0938 C452.4063,18.0938 452.2813,18.1094 452.125,18.2031 C451.875,18.3594 451.7188,18.6563 451.7188,18.9375 C451.7188,19.2188 451.8594,19.4688 452.0781,19.6406 C452.2344,19.75 452.4219,19.7813 452.8438,19.7813 L453.0938,19.7813 L453.0938,26.2969 L452.8438,26.2969 C452.4375,26.2969 452.2813,26.3125 452.125,26.4219 C451.875,26.5938 451.7188,26.8594 451.7188,27.1563 C451.7188,27.4219 451.8594,27.6719 452.0781,27.8281 C452.2188,27.9531 452.4531,28 452.8438,28 L460.8438,28 L460.8438,25.4219 C460.8438,24.9844 460.8125,24.8438 460.7344,24.6875 C460.5625,24.4375 460.2813,24.2813 460,24.2813 C459.7344,24.2813 459.4688,24.3906 459.2969,24.6406 C459.1875,24.7969 459.1563,24.9375 459.1563,25.4219 L459.1563,26.2969 L454.7969,26.2969 L454.7969,23.875 Z " fill="#000000"/><text fill="#000000" font-family="sans-serif" font-size="12" lengthAdjust="spacing" textLength="45" x="470" y="27.1543">Gender</text><line style="stroke:#A80036;stroke-width:1.5;" x1="442" x2="517" y1="39" y2="39"/><text fill="#000000" font-family="sans-serif" font-size="11" lengthAdjust="spacing" textLength="46" x="447" y="53.2104">Female,</text><text fill="#000000" font-family="sans-serif" font-size="11" lengthAdjust="spacing" textLength="27" x="447" y="66.0151">Male</text><!--MD5=[d6181cb537bdc20c0a3007a98a56832d]
class Student--><rect codeLine="9" fill="#FEFECE" filter="url(#fdeyp7k5eygeb)" height="116.8281" id="Student" style="stroke:#A80036;stroke-width:1.5;" width="144" x="237" y="26.5"/><ellipse cx="281.75" cy="42.5" fill="#ADD1B2" rx="11" ry="11" style="stroke:#A80036;stroke-width:1.0;"/><path d="M284.0938,38.1719 C283.1563,37.7344 282.5625,37.5938 281.6875,37.5938 C279.0625,37.5938 277.0625,39.6719 277.0625,42.3906 L277.0625,43.5156 C277.0625,46.0938 279.1719,47.9844 282.0625,47.9844 C283.2813,47.9844 284.4375,47.6875 285.1875,47.1406 C285.7656,46.7344 286.0938,46.2813 286.0938,45.8906 C286.0938,45.4375 285.7031,45.0469 285.2344,45.0469 C285.0156,45.0469 284.8125,45.125 284.625,45.3125 C284.1719,45.7969 284.1719,45.7969 283.9844,45.8906 C283.5625,46.1563 282.875,46.2813 282.1094,46.2813 C280.0625,46.2813 278.7656,45.1875 278.7656,43.4844 L278.7656,42.3906 C278.7656,40.6094 280.0156,39.2969 281.75,39.2969 C282.3281,39.2969 282.9375,39.4531 283.4063,39.7031 C283.8906,39.9844 284.0625,40.2031 284.1563,40.6094 C284.2188,41.0156 284.25,41.1406 284.3906,41.2656 C284.5313,41.4063 284.7656,41.5156 284.9844,41.5156 C285.25,41.5156 285.5156,41.375 285.6875,41.1563 C285.7969,41 285.8281,40.8125 285.8281,40.3906 L285.8281,38.9688 C285.8281,38.5313 285.8125,38.4063 285.7188,38.25 C285.5625,37.9844 285.2813,37.8438 284.9844,37.8438 C284.6875,37.8438 284.4844,37.9375 284.2656,38.25 L284.0938,38.1719 Z " fill="#000000"/><text fill="#000000" font-family="sans-serif" font-size="12" lengthAdjust="spacing" textLength="46" x="302.25" y="46.6543">Student</text><line style="stroke:#A80036;stroke-width:1.5;" x1="238" x2="380" y1="58.5" y2="58.5"/><ellipse cx="248" cy="69.5" rx="3" ry="3" style="stroke:#038048;stroke-width:1.0;fill:none;"/><text fill="#000000" font-family="sans-serif" font-size="11" lengthAdjust="spacing" textLength="35" x="257" y="72.7104">Id : int</text><ellipse cx="248" cy="82.3047" rx="3" ry="3" style="stroke:#038048;stroke-width:1.0;fill:none;"/><text fill="#000000" font-family="sans-serif" font-size="11" lengthAdjust="spacing" textLength="98" x="257" y="85.5151">Lastname : string</text><ellipse cx="248" cy="95.1094" rx="3" ry="3" style="stroke:#038048;stroke-width:1.0;fill:none;"/><text fill="#000000" font-family="sans-serif" font-size="11" lengthAdjust="spacing" textLength="98" x="257" y="98.3198">Firstname : string</text><ellipse cx="248" cy="107.9141" rx="3" ry="3" style="stroke:#038048;stroke-width:1.0;fill:none;"/><text fill="#000000" font-family="sans-serif" font-size="11" lengthAdjust="spacing" textLength="97" x="257" y="111.1245">Gender : Gender</text><ellipse cx="248" cy="120.7188" rx="3" ry="3" style="stroke:#038048;stroke-width:1.0;fill:none;"/><text fill="#000000" font-family="sans-serif" font-size="11" lengthAdjust="spacing" textLength="108" x="257" y="123.9292">Schoolclass : string</text><ellipse cx="248" cy="133.5234" rx="3" ry="3" style="stroke:#038048;stroke-width:1.0;fill:none;"/><text fill="#000000" font-family="sans-serif" font-size="11" lengthAdjust="spacing" textLength="118" x="257" y="136.7339">Exams : List&lt;Exam&gt;</text><!--MD5=[4ec975f1641a34b3290014bf4027a644]
class Exam--><rect codeLine="20" fill="#FEFECE" filter="url(#fdeyp7k5eygeb)" height="116.8281" id="Exam" style="stroke:#A80036;stroke-width:1.5;" width="132" x="578" y="103.5"/><ellipse cx="623.75" cy="119.5" fill="#ADD1B2" rx="11" ry="11" style="stroke:#A80036;stroke-width:1.0;"/><path d="M626.0938,115.1719 C625.1563,114.7344 624.5625,114.5938 623.6875,114.5938 C621.0625,114.5938 619.0625,116.6719 619.0625,119.3906 L619.0625,120.5156 C619.0625,123.0938 621.1719,124.9844 624.0625,124.9844 C625.2813,124.9844 626.4375,124.6875 627.1875,124.1406 C627.7656,123.7344 628.0938,123.2813 628.0938,122.8906 C628.0938,122.4375 627.7031,122.0469 627.2344,122.0469 C627.0156,122.0469 626.8125,122.125 626.625,122.3125 C626.1719,122.7969 626.1719,122.7969 625.9844,122.8906 C625.5625,123.1563 624.875,123.2813 624.1094,123.2813 C622.0625,123.2813 620.7656,122.1875 620.7656,120.4844 L620.7656,119.3906 C620.7656,117.6094 622.0156,116.2969 623.75,116.2969 C624.3281,116.2969 624.9375,116.4531 625.4063,116.7031 C625.8906,116.9844 626.0625,117.2031 626.1563,117.6094 C626.2188,118.0156 626.25,118.1406 626.3906,118.2656 C626.5313,118.4063 626.7656,118.5156 626.9844,118.5156 C627.25,118.5156 627.5156,118.375 627.6875,118.1563 C627.7969,118 627.8281,117.8125 627.8281,117.3906 L627.8281,115.9688 C627.8281,115.5313 627.8125,115.4063 627.7188,115.25 C627.5625,114.9844 627.2813,114.8438 626.9844,114.8438 C626.6875,114.8438 626.4844,114.9375 626.2656,115.25 L626.0938,115.1719 Z " fill="#000000"/><text fill="#000000" font-family="sans-serif" font-size="12" lengthAdjust="spacing" textLength="32" x="644.25" y="123.6543">Exam</text><line style="stroke:#A80036;stroke-width:1.5;" x1="579" x2="709" y1="135.5" y2="135.5"/><ellipse cx="589" cy="146.5" rx="3" ry="3" style="stroke:#038048;stroke-width:1.0;fill:none;"/><text fill="#000000" font-family="sans-serif" font-size="11" lengthAdjust="spacing" textLength="35" x="598" y="149.7104">Id : int</text><ellipse cx="589" cy="159.3047" rx="3" ry="3" style="stroke:#038048;stroke-width:1.0;fill:none;"/><text fill="#000000" font-family="sans-serif" font-size="11" lengthAdjust="spacing" textLength="85" x="598" y="162.5151">Subject : string</text><ellipse cx="589" cy="172.1094" rx="3" ry="3" style="stroke:#038048;stroke-width:1.0;fill:none;"/><text fill="#000000" font-family="sans-serif" font-size="11" lengthAdjust="spacing" textLength="106" x="598" y="175.3198">Examinator : string</text><ellipse cx="589" cy="184.9141" rx="3" ry="3" style="stroke:#038048;stroke-width:1.0;fill:none;"/><text fill="#000000" font-family="sans-serif" font-size="11" lengthAdjust="spacing" textLength="60" x="598" y="188.1245">Grade : int</text><ellipse cx="589" cy="197.7188" rx="3" ry="3" style="stroke:#038048;stroke-width:1.0;fill:none;"/><text fill="#000000" font-family="sans-serif" font-size="11" lengthAdjust="spacing" textLength="96" x="598" y="200.9292">Date : DateTime</text><ellipse cx="589" cy="210.5234" rx="3" ry="3" style="stroke:#038048;stroke-width:1.0;fill:none;"/><text fill="#000000" font-family="sans-serif" font-size="11" lengthAdjust="spacing" textLength="101" x="598" y="213.7339">Student : Student</text><!--MD5=[31c61a8129f93280bc5eca2f1af9cf28]
class ExamDb--><rect codeLine="32" fill="#FEFECE" filter="url(#fdeyp7k5eygeb)" height="65.6094" id="ExamDb" style="stroke:#A80036;stroke-width:1.5;" width="170" x="7" y="108"/><ellipse cx="63.25" cy="124" fill="#ADD1B2" rx="11" ry="11" style="stroke:#A80036;stroke-width:1.0;"/><path d="M65.5938,119.6719 C64.6563,119.2344 64.0625,119.0938 63.1875,119.0938 C60.5625,119.0938 58.5625,121.1719 58.5625,123.8906 L58.5625,125.0156 C58.5625,127.5938 60.6719,129.4844 63.5625,129.4844 C64.7813,129.4844 65.9375,129.1875 66.6875,128.6406 C67.2656,128.2344 67.5938,127.7813 67.5938,127.3906 C67.5938,126.9375 67.2031,126.5469 66.7344,126.5469 C66.5156,126.5469 66.3125,126.625 66.125,126.8125 C65.6719,127.2969 65.6719,127.2969 65.4844,127.3906 C65.0625,127.6563 64.375,127.7813 63.6094,127.7813 C61.5625,127.7813 60.2656,126.6875 60.2656,124.9844 L60.2656,123.8906 C60.2656,122.1094 61.5156,120.7969 63.25,120.7969 C63.8281,120.7969 64.4375,120.9531 64.9063,121.2031 C65.3906,121.4844 65.5625,121.7031 65.6563,122.1094 C65.7188,122.5156 65.75,122.6406 65.8906,122.7656 C66.0313,122.9063 66.2656,123.0156 66.4844,123.0156 C66.75,123.0156 67.0156,122.875 67.1875,122.6563 C67.2969,122.5 67.3281,122.3125 67.3281,121.8906 L67.3281,120.4688 C67.3281,120.0313 67.3125,119.9063 67.2188,119.75 C67.0625,119.4844 66.7813,119.3438 66.4844,119.3438 C66.1875,119.3438 65.9844,119.4375 65.7656,119.75 L65.5938,119.6719 Z " fill="#000000"/><text fill="#000000" font-family="sans-serif" font-size="12" lengthAdjust="spacing" textLength="49" x="83.75" y="128.1543">ExamDb</text><line style="stroke:#A80036;stroke-width:1.5;" x1="8" x2="176" y1="140" y2="140"/><ellipse cx="18" cy="151" rx="3" ry="3" style="stroke:#038048;stroke-width:1.0;fill:none;"/><text fill="#000000" font-family="sans-serif" font-size="11" lengthAdjust="spacing" textLength="144" x="27" y="154.2104">Students : List&lt;Student&gt;</text><ellipse cx="18" cy="163.8047" rx="3" ry="3" style="stroke:#038048;stroke-width:1.0;fill:none;"/><text fill="#000000" font-family="sans-serif" font-size="11" lengthAdjust="spacing" textLength="118" x="27" y="167.0151">Exams : List&lt;Exam&gt;</text><!--MD5=[db5fb6e4a6db2f4bffdef83a600ca08f]
link Student to Gender--><path codeLine="19" d="M381.459,65.916 C399.993,60.966 419.372,55.791 435.895,51.378 " fill="none" id="Student-to-Gender" style="stroke:#A80036;stroke-width:1.0;"/><polygon fill="#A80036" points="440.928,50.034,431.2006,48.4918,436.0973,51.3242,433.2649,56.2209,440.928,50.034" style="stroke:#A80036;stroke-width:1.0;"/><!--MD5=[2bb240e1004b013962e49e39c765a287]
link Student to Exam--><path codeLine="30" d="M386.208,102.622 C442.364,115.607 518.166,133.1344 572.839,145.7766 " fill="none" id="Student-Exam" style="stroke:#A80036;stroke-width:1.0;"/><polygon fill="#A80036" points="577.73,146.9076,569.8617,140.9839,572.8584,145.7818,568.0605,148.7785,577.73,146.9076" style="stroke:#A80036;stroke-width:1.0;"/><polygon fill="#A80036" points="381.028,101.424,388.8967,107.3472,385.8997,102.5494,390.6974,99.5524,381.028,101.424" style="stroke:#A80036;stroke-width:1.0;"/><!--MD5=[535e8bc33be9e5bf4f0cef6de08bc757]
link ExamDb to Student--><path codeLine="38" d="M188.6608,116.0845 C188.6608,116.0845 212.939,109.76 224.276,106.807 " fill="none" id="ExamDb-Student" style="stroke:#A80036;stroke-width:1.0;"/><polygon fill="#A80036" points="236.889,103.522,227.1713,101.92,232.0505,104.7825,229.188,109.6616,236.889,103.522" style="stroke:#A80036;stroke-width:1.0;"/><line style="stroke:#A80036;stroke-width:1.0;" x1="232.0505" x2="224.308" y1="104.7825" y2="106.799"/><polygon fill="#FFFFFF" points="177.048,119.108,183.8623,121.4672,188.6608,116.0845,181.8466,113.7253,177.048,119.108" style="stroke:#A80036;stroke-width:1.0;"/><!--MD5=[d26efcaa23455a52b8bf6010dece0bb6]
link ExamDb to Exam--><path codeLine="39" d="M189.2201,156.1975 C189.2201,156.1975 221.854,159.9345 237,161 C350.727,169.0008 482.818,167.2907 564.668,164.9468 " fill="none" id="ExamDb-Exam" style="stroke:#A80036;stroke-width:1.0;"/><polygon fill="#A80036" points="577.858,164.5511,568.7421,160.8229,572.8603,164.7011,568.9821,168.8193,577.858,164.5511" style="stroke:#A80036;stroke-width:1.0;"/><line style="stroke:#A80036;stroke-width:1.0;" x1="572.8603" x2="564.8645" y1="164.7011" y2="164.9411"/><polygon fill="#FFFFFF" points="177.319,154.6599,182.757,159.3957,189.2201,156.1975,183.7821,151.4617,177.319,154.6599" style="stroke:#A80036;stroke-width:1.0;"/><!--MD5=[8638edda6298dec1bbd0f7cd555f1eba]
@startuml
left to right direction
hide empty methods

enum Gender 
{
    Female,
    Male
}
class Student
{
    +Id : int
    +Lastname : string
    +Firstname : string
    +Gender : Gender
    +Schoolclass : string
    +Exams : List<Exam>
}

Student - -> Gender
class Exam
{
   +Id : int
   +Subject : string
   +Examinator : string
   +Grade : int
   +Date : DateTime
   +Student : Student
}

Student <- - -> Exam

class ExamDb
{
   +Students : List<Student>
   +Exams : List<Exam>
}

ExamDb o- -> Student
ExamDb o- -> Exam
@enduml

PlantUML version 1.2021.13beta5(Unknown compile time)
(GPL source distribution)
Java Runtime: Java(TM) SE Runtime Environment
JVM: Java HotSpot(TM) 64-Bit Server VM
Default Encoding: UTF-8
Language: en
Country: US
--></g></svg>