<?xml version="1.0" encoding="UTF-8" standalone="no"?><svg xmlns="http://www.w3.org/2000/svg" xmlns:xlink="http://www.w3.org/1999/xlink" contentScriptType="application/ecmascript" contentStyleType="text/css" height="387px" preserveAspectRatio="none" style="width:474px;height:387px;background:#FFFFFF;" version="1.1" viewBox="0 0 474 387" width="474px" zoomAndPan="magnify"><defs><filter height="300%" id="f1ifqygj91bpp7" width="300%" x="-1" y="-1"><feGaussianBlur result="blurOut" stdDeviation="2.0"/><feColorMatrix in="blurOut" result="blurOut2" type="matrix" values="0 0 0 0 0 0 0 0 0 0 0 0 0 0 0 0 0 0 .4 0"/><feOffset dx="4.0" dy="4.0" in="blurOut2" result="blurOut3"/><feBlend in="SourceGraphic" in2="blurOut3" mode="normal"/></filter></defs><g><!--MD5=[bff07eb3cd588b4dd63b04417073d969]
class PaymentProvider--><rect codeLine="1" fill="#FEFECE" filter="url(#f1ifqygj91bpp7)" height="48" id="PaymentProvider" style="stroke:#A80036;stroke-width:1.5;" width="132" x="7" y="198"/><ellipse cx="22" cy="214" fill="#ADD1B2" rx="11" ry="11" style="stroke:#A80036;stroke-width:1.0;"/><path d="M24.3438,209.6719 C23.4063,209.2344 22.8125,209.0938 21.9375,209.0938 C19.3125,209.0938 17.3125,211.1719 17.3125,213.8906 L17.3125,215.0156 C17.3125,217.5938 19.4219,219.4844 22.3125,219.4844 C23.5313,219.4844 24.6875,219.1875 25.4375,218.6406 C26.0156,218.2344 26.3438,217.7813 26.3438,217.3906 C26.3438,216.9375 25.9531,216.5469 25.4844,216.5469 C25.2656,216.5469 25.0625,216.625 24.875,216.8125 C24.4219,217.2969 24.4219,217.2969 24.2344,217.3906 C23.8125,217.6563 23.125,217.7813 22.3594,217.7813 C20.3125,217.7813 19.0156,216.6875 19.0156,214.9844 L19.0156,213.8906 C19.0156,212.1094 20.2656,210.7969 22,210.7969 C22.5781,210.7969 23.1875,210.9531 23.6563,211.2031 C24.1406,211.4844 24.3125,211.7031 24.4063,212.1094 C24.4688,212.5156 24.5,212.6406 24.6406,212.7656 C24.7813,212.9063 25.0156,213.0156 25.2344,213.0156 C25.5,213.0156 25.7656,212.875 25.9375,212.6563 C26.0469,212.5 26.0781,212.3125 26.0781,211.8906 L26.0781,210.4688 C26.0781,210.0313 26.0625,209.9063 25.9688,209.75 C25.8125,209.4844 25.5313,209.3438 25.2344,209.3438 C24.9375,209.3438 24.7344,209.4375 24.5156,209.75 L24.3438,209.6719 Z " fill="#000000"/><text fill="#000000" font-family="sans-serif" font-size="12" lengthAdjust="spacing" textLength="100" x="36" y="218.1543">PaymentProvider</text><line style="stroke:#A80036;stroke-width:1.5;" x1="8" x2="138" y1="230" y2="230"/><line style="stroke:#A80036;stroke-width:1.5;" x1="8" x2="138" y1="238" y2="238"/><!--MD5=[72136138052d025cffdce3c22fbd185f]
class Product--><rect codeLine="5" fill="#FEFECE" filter="url(#f1ifqygj91bpp7)" height="48" id="Product" style="stroke:#A80036;stroke-width:1.5;" width="77" x="233.5" y="325"/><ellipse cx="248.5" cy="341" fill="#ADD1B2" rx="11" ry="11" style="stroke:#A80036;stroke-width:1.0;"/><path d="M250.8438,336.6719 C249.9063,336.2344 249.3125,336.0938 248.4375,336.0938 C245.8125,336.0938 243.8125,338.1719 243.8125,340.8906 L243.8125,342.0156 C243.8125,344.5938 245.9219,346.4844 248.8125,346.4844 C250.0313,346.4844 251.1875,346.1875 251.9375,345.6406 C252.5156,345.2344 252.8438,344.7813 252.8438,344.3906 C252.8438,343.9375 252.4531,343.5469 251.9844,343.5469 C251.7656,343.5469 251.5625,343.625 251.375,343.8125 C250.9219,344.2969 250.9219,344.2969 250.7344,344.3906 C250.3125,344.6563 249.625,344.7813 248.8594,344.7813 C246.8125,344.7813 245.5156,343.6875 245.5156,341.9844 L245.5156,340.8906 C245.5156,339.1094 246.7656,337.7969 248.5,337.7969 C249.0781,337.7969 249.6875,337.9531 250.1563,338.2031 C250.6406,338.4844 250.8125,338.7031 250.9063,339.1094 C250.9688,339.5156 251,339.6406 251.1406,339.7656 C251.2813,339.9063 251.5156,340.0156 251.7344,340.0156 C252,340.0156 252.2656,339.875 252.4375,339.6563 C252.5469,339.5 252.5781,339.3125 252.5781,338.8906 L252.5781,337.4688 C252.5781,337.0313 252.5625,336.9063 252.4688,336.75 C252.3125,336.4844 252.0313,336.3438 251.7344,336.3438 C251.4375,336.3438 251.2344,336.4375 251.0156,336.75 L250.8438,336.6719 Z " fill="#000000"/><text fill="#000000" font-family="sans-serif" font-size="12" lengthAdjust="spacing" textLength="45" x="262.5" y="345.1543">Product</text><line style="stroke:#A80036;stroke-width:1.5;" x1="234.5" x2="309.5" y1="357" y2="357"/><line style="stroke:#A80036;stroke-width:1.5;" x1="234.5" x2="309.5" y1="365" y2="365"/><!--MD5=[003718b22fee2486eeba0fa029a176b7]
class OrderItem--><rect codeLine="8" fill="#FEFECE" filter="url(#f1ifqygj91bpp7)" height="86.4141" id="OrderItem" style="stroke:#A80036;stroke-width:1.5;" width="215" x="245.5" y="179"/><ellipse cx="317.75" cy="195" fill="#ADD1B2" rx="11" ry="11" style="stroke:#A80036;stroke-width:1.0;"/><path d="M320.0938,190.6719 C319.1563,190.2344 318.5625,190.0938 317.6875,190.0938 C315.0625,190.0938 313.0625,192.1719 313.0625,194.8906 L313.0625,196.0156 C313.0625,198.5938 315.1719,200.4844 318.0625,200.4844 C319.2813,200.4844 320.4375,200.1875 321.1875,199.6406 C321.7656,199.2344 322.0938,198.7813 322.0938,198.3906 C322.0938,197.9375 321.7031,197.5469 321.2344,197.5469 C321.0156,197.5469 320.8125,197.625 320.625,197.8125 C320.1719,198.2969 320.1719,198.2969 319.9844,198.3906 C319.5625,198.6563 318.875,198.7813 318.1094,198.7813 C316.0625,198.7813 314.7656,197.6875 314.7656,195.9844 L314.7656,194.8906 C314.7656,193.1094 316.0156,191.7969 317.75,191.7969 C318.3281,191.7969 318.9375,191.9531 319.4063,192.2031 C319.8906,192.4844 320.0625,192.7031 320.1563,193.1094 C320.2188,193.5156 320.25,193.6406 320.3906,193.7656 C320.5313,193.9063 320.7656,194.0156 320.9844,194.0156 C321.25,194.0156 321.5156,193.875 321.6875,193.6563 C321.7969,193.5 321.8281,193.3125 321.8281,192.8906 L321.8281,191.4688 C321.8281,191.0313 321.8125,190.9063 321.7188,190.75 C321.5625,190.4844 321.2813,190.3438 320.9844,190.3438 C320.6875,190.3438 320.4844,190.4375 320.2656,190.75 L320.0938,190.6719 Z " fill="#000000"/><text fill="#000000" font-family="sans-serif" font-size="12" lengthAdjust="spacing" textLength="62" x="338.25" y="199.1543">OrderItem</text><line style="stroke:#A80036;stroke-width:1.5;" x1="246.5" x2="459.5" y1="211" y2="211"/><ellipse cx="256.5" cy="222" rx="3" ry="3" style="stroke:#038048;stroke-width:1.0;fill:none;"/><text fill="#000000" font-family="sans-serif" font-size="11" lengthAdjust="spacing" textLength="93" x="265.5" y="225.2104">Product : Product</text><ellipse cx="256.5" cy="234.8047" rx="3" ry="3" style="stroke:#038048;stroke-width:1.0;fill:none;"/><text fill="#000000" font-family="sans-serif" font-size="11" lengthAdjust="spacing" textLength="73" x="265.5" y="238.0151">Quantity : int</text><line style="stroke:#A80036;stroke-width:1.0;" x1="246.5" x2="459.5" y1="244.6094" y2="244.6094"/><ellipse cx="256.5" cy="255.6094" fill="#84BE84" rx="3" ry="3" style="stroke:#038048;stroke-width:1.0;"/><text fill="#000000" font-family="sans-serif" font-size="11" lengthAdjust="spacing" textLength="189" x="265.5" y="258.8198">OrderItem(Product p, int quantity)</text><!--MD5=[cf4d6237fcae255cd2e1656cf84a30e2]
class Order--><rect codeLine="17" fill="#FEFECE" filter="url(#f1ifqygj91bpp7)" height="112.0234" id="Order" style="stroke:#A80036;stroke-width:1.5;" width="283" x="50.5" y="7"/><ellipse cx="169.75" cy="23" fill="#ADD1B2" rx="11" ry="11" style="stroke:#A80036;stroke-width:1.0;"/><path d="M172.0938,18.6719 C171.1563,18.2344 170.5625,18.0938 169.6875,18.0938 C167.0625,18.0938 165.0625,20.1719 165.0625,22.8906 L165.0625,24.0156 C165.0625,26.5938 167.1719,28.4844 170.0625,28.4844 C171.2813,28.4844 172.4375,28.1875 173.1875,27.6406 C173.7656,27.2344 174.0938,26.7813 174.0938,26.3906 C174.0938,25.9375 173.7031,25.5469 173.2344,25.5469 C173.0156,25.5469 172.8125,25.625 172.625,25.8125 C172.1719,26.2969 172.1719,26.2969 171.9844,26.3906 C171.5625,26.6563 170.875,26.7813 170.1094,26.7813 C168.0625,26.7813 166.7656,25.6875 166.7656,23.9844 L166.7656,22.8906 C166.7656,21.1094 168.0156,19.7969 169.75,19.7969 C170.3281,19.7969 170.9375,19.9531 171.4063,20.2031 C171.8906,20.4844 172.0625,20.7031 172.1563,21.1094 C172.2188,21.5156 172.25,21.6406 172.3906,21.7656 C172.5313,21.9063 172.7656,22.0156 172.9844,22.0156 C173.25,22.0156 173.5156,21.875 173.6875,21.6563 C173.7969,21.5 173.8281,21.3125 173.8281,20.8906 L173.8281,19.4688 C173.8281,19.0313 173.8125,18.9063 173.7188,18.75 C173.5625,18.4844 173.2813,18.3438 172.9844,18.3438 C172.6875,18.3438 172.4844,18.4375 172.2656,18.75 L172.0938,18.6719 Z " fill="#000000"/><text fill="#000000" font-family="sans-serif" font-size="12" lengthAdjust="spacing" textLength="36" x="190.25" y="27.1543">Order</text><line style="stroke:#A80036;stroke-width:1.5;" x1="51.5" x2="332.5" y1="39" y2="39"/><ellipse cx="61.5" cy="50" rx="3" ry="3" style="stroke:#038048;stroke-width:1.0;fill:none;"/><text fill="#000000" font-family="sans-serif" font-size="11" lengthAdjust="spacing" textLength="203" x="70.5" y="53.2104">PaymentProvider : PaymentProvider</text><ellipse cx="61.5" cy="62.8047" rx="3" ry="3" style="stroke:#038048;stroke-width:1.0;fill:none;"/><text fill="#000000" font-family="sans-serif" font-size="11" lengthAdjust="spacing" textLength="170" x="70.5" y="66.0151">OrderItems : List&lt;OrderItem&gt;</text><line style="stroke:#A80036;stroke-width:1.0;" x1="51.5" x2="332.5" y1="72.6094" y2="72.6094"/><ellipse cx="61.5" cy="83.6094" fill="#84BE84" rx="3" ry="3" style="stroke:#038048;stroke-width:1.0;"/><text fill="#000000" font-family="sans-serif" font-size="11" lengthAdjust="spacing" textLength="237" x="70.5" y="86.8198">Order(PaymentProvider paymentProvider)</text><ellipse cx="61.5" cy="96.4141" fill="#84BE84" rx="3" ry="3" style="stroke:#038048;stroke-width:1.0;"/><text fill="#000000" font-family="sans-serif" font-size="11" lengthAdjust="spacing" textLength="257" x="70.5" y="99.6245">void AddProduct(Product product, int quantity)</text><ellipse cx="61.5" cy="109.2188" fill="#84BE84" rx="3" ry="3" style="stroke:#038048;stroke-width:1.0;"/><text fill="#000000" font-family="sans-serif" font-size="11" lengthAdjust="spacing" textLength="89" x="70.5" y="112.4292">void Checkout()</text><!--MD5=[663c18ce459b41abc4dbff87433befbf]
link OrderItem to Product--><path codeLine="15" d="M319.0514,275.3896 C319.0514,275.3896 301.712,302.1477 294.212,313.722 " fill="none" id="OrderItem-Product" style="stroke:#A80036;stroke-width:1.0;"/><polygon fill="#A80036" points="287.117,324.6717,295.3681,319.294,289.836,320.4756,288.6544,314.9436,287.117,324.6717" style="stroke:#A80036;stroke-width:1.0;"/><line style="stroke:#A80036;stroke-width:1.0;" x1="289.836" x2="294.1865" y1="320.4756" y2="313.762"/><polygon fill="#FFFFFF" points="325.577,265.319,318.9573,268.1791,319.0514,275.3896,325.671,272.5295,325.577,265.319" style="stroke:#A80036;stroke-width:1.0;"/><!--MD5=[5df16df72a49edaa4f00919f1e597f76]
link Order to Product--><path codeLine="26" d="M197.235,119.335 C202.231,160.376 211.518,217.246 228,265 C234.712,284.4469 245.492,304.881 254.702,320.6078 " fill="none" id="Order-to-Product" style="stroke:#A80036;stroke-width:1.0;"/><polygon fill="#A80036" points="257.253,324.914,256.1064,315.1321,254.7042,320.6124,249.2239,319.2102,257.253,324.914" style="stroke:#A80036;stroke-width:1.0;"/><!--MD5=[955a2273406889a20d75ae25736389aa]
link Order to PaymentProvider--><path codeLine="27" d="M142.7961,128.9152 C142.7961,128.9152 111.04,170.813 98.3064,187.613 " fill="none" id="Order-PaymentProvider" style="stroke:#A80036;stroke-width:1.0;"/><polygon fill="#A80036" points="90.436,197.996,99.0603,193.2398,93.4563,194.0113,92.6848,188.4073,90.436,197.996" style="stroke:#A80036;stroke-width:1.0;"/><line style="stroke:#A80036;stroke-width:1.0;" x1="93.4563" x2="98.2888" y1="194.0113" y2="187.6355"/><polygon fill="#FFFFFF" points="150.045,119.352,143.2329,121.7173,142.7961,128.9152,149.6083,126.5499,150.045,119.352" style="stroke:#A80036;stroke-width:1.0;"/><!--MD5=[06a6064c5cdd443a62b5eb59fb550c27]
link Order to OrderItem--><path codeLine="28" d="M257.3538,127.7305 C257.3538,127.7305 286.937,156.578 300.361,169.669 " fill="none" id="Order-OrderItem" style="stroke:#A80036;stroke-width:1.0;"/><polygon fill="#A80036" points="309.903,178.974,306.252,169.8268,306.3232,175.4833,300.6668,175.5545,309.903,178.974" style="stroke:#A80036;stroke-width:1.0;"/><line style="stroke:#A80036;stroke-width:1.0;" x1="306.3232" x2="300.5955" y1="175.4833" y2="169.8975"/><polygon fill="#A80036" points="248.763,119.352,250.2656,126.4048,257.3538,127.7305,255.8512,120.6776,248.763,119.352" style="stroke:#A80036;stroke-width:1.0;"/><!--MD5=[7807bcc17e93b831c4e1a3526ecc01b7]
@startuml
class PaymentProvider
{ 

}
class Product
{
}
class OrderItem
{
    +Product : Product
    +Quantity : int
    - - -
    +OrderItem(Product p, int quantity)
}
OrderItem o- -> Product

class Order
{
    +PaymentProvider : PaymentProvider
    +OrderItems : List<OrderItem> 
    - - -
    +Order(PaymentProvider paymentProvider)
    +void AddProduct(Product product, int quantity)
    +void Checkout()
}
Order - -> Product
Order o- -> PaymentProvider
Order *- -> OrderItem
@enduml

PlantUML version 1.2021.13beta5(Unknown compile time)
(GPL source distribution)
Java Runtime: Java(TM) SE Runtime Environment
JVM: Java HotSpot(TM) 64-Bit Server VM
Default Encoding: UTF-8
Language: en
Country: US
--></g></svg>