<?xml version="1.0" encoding="UTF-8" standalone="no"?><svg xmlns="http://www.w3.org/2000/svg" xmlns:xlink="http://www.w3.org/1999/xlink" contentScriptType="application/ecmascript" contentStyleType="text/css" height="245px" preserveAspectRatio="none" style="width:304px;height:245px;background:#FFFFFF;" version="1.1" viewBox="0 0 304 245" width="304px" zoomAndPan="magnify"><defs><filter height="300%" id="f1seeqbwqez912" width="300%" x="-1" y="-1"><feGaussianBlur result="blurOut" stdDeviation="2.0"/><feColorMatrix in="blurOut" result="blurOut2" type="matrix" values="0 0 0 0 0 0 0 0 0 0 0 0 0 0 0 0 0 0 .4 0"/><feOffset dx="4.0" dy="4.0" in="blurOut2" result="blurOut3"/><feBlend in="SourceGraphic" in2="blurOut3" mode="normal"/></filter></defs><g><!--MD5=[161ff85819463aa8ed6d553592ba3e0b]
class IPaymentProvider--><rect codeLine="3" fill="#FEFECE" filter="url(#f1seeqbwqez912)" height="52.8047" id="IPaymentProvider" style="stroke:#A80036;stroke-width:1.5;" width="174" x="61.5" y="179"/><ellipse cx="92.7" cy="195" fill="#B4A7E5" rx="11" ry="11" style="stroke:#A80036;stroke-width:1.0;"/><path d="M93.6531,191.7813 L95.3719,191.7813 C95.7625,191.7813 95.95,191.75 96.075,191.6719 C96.3406,191.5156 96.4813,191.2344 96.4813,190.9375 C96.4813,190.6719 96.3719,190.4063 96.1375,190.2344 C95.9656,190.125 95.825,190.0938 95.3719,190.0938 L90.2313,190.0938 C89.7938,190.0938 89.6688,190.1094 89.5125,190.2031 C89.2625,190.3594 89.1063,190.6563 89.1063,190.9375 C89.1063,191.2188 89.2469,191.4688 89.4656,191.6406 C89.6219,191.75 89.8094,191.7813 90.2313,191.7813 L91.95,191.7813 L91.95,198.2969 L90.2313,198.2969 C89.7938,198.2969 89.6688,198.3125 89.5125,198.4219 C89.2625,198.5781 89.1063,198.8594 89.1063,199.1563 C89.1063,199.4063 89.2469,199.6719 89.4656,199.8281 C89.6219,199.9531 89.825,200 90.2313,200 L95.3719,200 C96.1219,200 96.4813,199.7188 96.4813,199.1563 C96.4813,198.875 96.3719,198.625 96.1375,198.4531 C95.9656,198.3281 95.825,198.2969 95.3719,198.2969 L93.6531,198.2969 L93.6531,191.7813 Z " fill="#000000"/><text fill="#000000" font-family="sans-serif" font-size="12" font-style="italic" lengthAdjust="spacing" textLength="106" x="110.3" y="199.1543">IPaymentProvider</text><line style="stroke:#A80036;stroke-width:1.5;" x1="62.5" x2="234.5" y1="211" y2="211"/><ellipse cx="72.5" cy="222" fill="#84BE84" rx="3" ry="3" style="stroke:#038048;stroke-width:1.0;"/><text fill="#000000" font-family="sans-serif" font-size="11" lengthAdjust="spacing" textLength="148" x="81.5" y="225.2104">bool Pay(decimal amount)</text><!--MD5=[cf4d6237fcae255cd2e1656cf84a30e2]
class Order--><rect codeLine="8" fill="#FEFECE" filter="url(#f1seeqbwqez912)" height="112.0234" id="Order" style="stroke:#A80036;stroke-width:1.5;" width="283" x="7" y="7"/><ellipse cx="126.25" cy="23" fill="#ADD1B2" rx="11" ry="11" style="stroke:#A80036;stroke-width:1.0;"/><path d="M128.5938,18.6719 C127.6563,18.2344 127.0625,18.0938 126.1875,18.0938 C123.5625,18.0938 121.5625,20.1719 121.5625,22.8906 L121.5625,24.0156 C121.5625,26.5938 123.6719,28.4844 126.5625,28.4844 C127.7813,28.4844 128.9375,28.1875 129.6875,27.6406 C130.2656,27.2344 130.5938,26.7813 130.5938,26.3906 C130.5938,25.9375 130.2031,25.5469 129.7344,25.5469 C129.5156,25.5469 129.3125,25.625 129.125,25.8125 C128.6719,26.2969 128.6719,26.2969 128.4844,26.3906 C128.0625,26.6563 127.375,26.7813 126.6094,26.7813 C124.5625,26.7813 123.2656,25.6875 123.2656,23.9844 L123.2656,22.8906 C123.2656,21.1094 124.5156,19.7969 126.25,19.7969 C126.8281,19.7969 127.4375,19.9531 127.9063,20.2031 C128.3906,20.4844 128.5625,20.7031 128.6563,21.1094 C128.7188,21.5156 128.75,21.6406 128.8906,21.7656 C129.0313,21.9063 129.2656,22.0156 129.4844,22.0156 C129.75,22.0156 130.0156,21.875 130.1875,21.6563 C130.2969,21.5 130.3281,21.3125 130.3281,20.8906 L130.3281,19.4688 C130.3281,19.0313 130.3125,18.9063 130.2188,18.75 C130.0625,18.4844 129.7813,18.3438 129.4844,18.3438 C129.1875,18.3438 128.9844,18.4375 128.7656,18.75 L128.5938,18.6719 Z " fill="#000000"/><text fill="#000000" font-family="sans-serif" font-size="12" lengthAdjust="spacing" textLength="36" x="146.75" y="27.1543">Order</text><line style="stroke:#A80036;stroke-width:1.5;" x1="8" x2="289" y1="39" y2="39"/><ellipse cx="18" cy="50" rx="3" ry="3" style="stroke:#038048;stroke-width:1.0;fill:none;"/><text fill="#000000" font-family="sans-serif" font-size="11" lengthAdjust="spacing" textLength="206" x="27" y="53.2104">PaymentProvider : IPaymentProvider</text><ellipse cx="18" cy="62.8047" rx="3" ry="3" style="stroke:#038048;stroke-width:1.0;fill:none;"/><text fill="#000000" font-family="sans-serif" font-size="11" lengthAdjust="spacing" textLength="170" x="27" y="66.0151">OrderItems : List&lt;OrderItem&gt;</text><line style="stroke:#A80036;stroke-width:1.0;" x1="8" x2="289" y1="72.6094" y2="72.6094"/><ellipse cx="18" cy="83.6094" fill="#84BE84" rx="3" ry="3" style="stroke:#038048;stroke-width:1.0;"/><text fill="#000000" font-family="sans-serif" font-size="11" lengthAdjust="spacing" textLength="240" x="27" y="86.8198">Order(IPaymentProvider paymentProvider)</text><ellipse cx="18" cy="96.4141" fill="#84BE84" rx="3" ry="3" style="stroke:#038048;stroke-width:1.0;"/><text fill="#000000" font-family="sans-serif" font-size="11" lengthAdjust="spacing" textLength="257" x="27" y="99.6245">void AddProduct(Product product, int quantity)</text><ellipse cx="18" cy="109.2188" fill="#84BE84" rx="3" ry="3" style="stroke:#038048;stroke-width:1.0;"/><text fill="#000000" font-family="sans-serif" font-size="11" lengthAdjust="spacing" textLength="89" x="27" y="112.4292">void Checkout()</text><!--MD5=[46bd9c105b43d858fd50ee4782294fd7]
link Order to IPaymentProvider--><path codeLine="17" d="M148.5,131.126 C148.5,131.126 148.5,155.2273 148.5,165.568 " fill="none" id="Order-IPaymentProvider" style="stroke:#A80036;stroke-width:1.0;"/><polygon fill="#A80036" points="148.5,178.8501,152.5,169.8501,148.5,173.8501,144.5,169.8501,148.5,178.8501" style="stroke:#A80036;stroke-width:1.0;"/><line style="stroke:#A80036;stroke-width:1.0;" x1="148.5" x2="148.5" y1="173.8501" y2="165.8501"/><polygon fill="#FFFFFF" points="148.5,119.126,144.5,125.126,148.5,131.126,152.5,125.126,148.5,119.126" style="stroke:#A80036;stroke-width:1.0;"/><!--MD5=[56f188eba38283a4976649d20b65db10]
@startuml
hide interface fields

interface IPaymentProvider
{
    +bool Pay(decimal amount)
}

class Order
{
    +PaymentProvider : IPaymentProvider
    +OrderItems : List<OrderItem> 
    - - -
    +Order(IPaymentProvider paymentProvider)
    +void AddProduct(Product product, int quantity)
    +void Checkout()
}
Order o- -> IPaymentProvider
@enduml

PlantUML version 1.2021.13beta5(Unknown compile time)
(GPL source distribution)
Java Runtime: Java(TM) SE Runtime Environment
JVM: Java HotSpot(TM) 64-Bit Server VM
Default Encoding: UTF-8
Language: en
Country: US
--></g></svg>