<?xml version="1.0" encoding="UTF-8" standalone="no"?><svg xmlns="http://www.w3.org/2000/svg" xmlns:xlink="http://www.w3.org/1999/xlink" contentScriptType="application/ecmascript" contentStyleType="text/css" height="280px" preserveAspectRatio="none" style="width:640px;height:280px;background:#FFFFFF;" version="1.1" viewBox="0 0 640 280" width="640px" zoomAndPan="magnify"><defs><filter height="300%" id="f1h5puonmbexjj" width="300%" x="-1" y="-1"><feGaussianBlur result="blurOut" stdDeviation="2.0"/><feColorMatrix in="blurOut" result="blurOut2" type="matrix" values="0 0 0 0 0 0 0 0 0 0 0 0 0 0 0 0 0 0 .4 0"/><feOffset dx="4.0" dy="4.0" in="blurOut2" result="blurOut3"/><feBlend in="SourceGraphic" in2="blurOut3" mode="normal"/></filter></defs><g><!--MD5=[fb5c0dccb1e476dedab3866ae79a537f]
cluster System.Collections.Generic--><polygon fill="#FFFFFF" filter="url(#f1h5puonmbexjj)" points="16,6,243,6,250,28.2969,387,28.2969,387,273,16,273,16,6" style="stroke:#000000;stroke-width:1.5;"/><line style="stroke:#000000;stroke-width:1.5;" x1="16" x2="250" y1="28.2969" y2="28.2969"/><text fill="#000000" font-family="sans-serif" font-size="14" font-weight="bold" lengthAdjust="spacing" textLength="221" x="20" y="20.9951">System.Collections.Generic</text><!--MD5=[8d865b79b7a6ef2b3b94a193727c49ec]
class IReadOnlyList--><rect codeLine="4" fill="#FEFECE" filter="url(#f1h5puonmbexjj)" height="52.8047" id="IReadOnlyList" style="stroke:#A80036;stroke-width:1.5;" width="181" x="189.5" y="47.5"/><ellipse cx="229.7" cy="63.5" fill="#B4A7E5" rx="11" ry="11" style="stroke:#A80036;stroke-width:1.0;"/><path d="M230.6531,60.2813 L232.3719,60.2813 C232.7625,60.2813 232.95,60.25 233.075,60.1719 C233.3406,60.0156 233.4813,59.7344 233.4813,59.4375 C233.4813,59.1719 233.3719,58.9063 233.1375,58.7344 C232.9656,58.625 232.825,58.5938 232.3719,58.5938 L227.2313,58.5938 C226.7938,58.5938 226.6688,58.6094 226.5125,58.7031 C226.2625,58.8594 226.1063,59.1563 226.1063,59.4375 C226.1063,59.7188 226.2469,59.9688 226.4656,60.1406 C226.6219,60.25 226.8094,60.2813 227.2313,60.2813 L228.95,60.2813 L228.95,66.7969 L227.2313,66.7969 C226.7938,66.7969 226.6688,66.8125 226.5125,66.9219 C226.2625,67.0781 226.1063,67.3594 226.1063,67.6563 C226.1063,67.9063 226.2469,68.1719 226.4656,68.3281 C226.6219,68.4531 226.825,68.5 227.2313,68.5 L232.3719,68.5 C233.1219,68.5 233.4813,68.2188 233.4813,67.6563 C233.4813,67.375 233.3719,67.125 233.1375,66.9531 C232.9656,66.8281 232.825,66.7969 232.3719,66.7969 L230.6531,66.7969 L230.6531,60.2813 Z " fill="#000000"/><text fill="#000000" font-family="sans-serif" font-size="12" font-style="italic" lengthAdjust="spacing" textLength="82" x="249.3" y="67.6543">IReadOnlyList</text><rect fill="#FFFFFF" height="15.9688" style="stroke:#000000;stroke-width:1.0;stroke-dasharray:2.0,2.0;" width="9" x="364.5" y="44.5"/><text fill="#000000" font-family="sans-serif" font-size="12" font-style="italic" lengthAdjust="spacing" textLength="7" x="365.5" y="56.6387">T</text><line style="stroke:#A80036;stroke-width:1.5;" x1="190.5" x2="369.5" y1="79.5" y2="79.5"/><text fill="#000000" font-family="sans-serif" font-size="11" lengthAdjust="spacing" textLength="169" x="195.5" y="93.7104">public T ElementAt(int index);</text><!--MD5=[e9daf3f04ba70fbc9d6267d7b1ae7833]
class IList--><rect codeLine="8" fill="#FEFECE" filter="url(#f1h5puonmbexjj)" height="65.6094" id="IList" style="stroke:#A80036;stroke-width:1.5;" width="122" x="32" y="41"/><ellipse cx="71.3" cy="57" fill="#B4A7E5" rx="11" ry="11" style="stroke:#A80036;stroke-width:1.0;"/><path d="M72.2531,53.7813 L73.9719,53.7813 C74.3625,53.7813 74.55,53.75 74.675,53.6719 C74.9406,53.5156 75.0813,53.2344 75.0813,52.9375 C75.0813,52.6719 74.9719,52.4063 74.7375,52.2344 C74.5656,52.125 74.425,52.0938 73.9719,52.0938 L68.8313,52.0938 C68.3938,52.0938 68.2688,52.1094 68.1125,52.2031 C67.8625,52.3594 67.7063,52.6563 67.7063,52.9375 C67.7063,53.2188 67.8469,53.4688 68.0656,53.6406 C68.2219,53.75 68.4094,53.7813 68.8313,53.7813 L70.55,53.7813 L70.55,60.2969 L68.8313,60.2969 C68.3938,60.2969 68.2688,60.3125 68.1125,60.4219 C67.8625,60.5781 67.7063,60.8594 67.7063,61.1563 C67.7063,61.4063 67.8469,61.6719 68.0656,61.8281 C68.2219,61.9531 68.425,62 68.8313,62 L73.9719,62 C74.7219,62 75.0813,61.7188 75.0813,61.1563 C75.0813,60.875 74.9719,60.625 74.7375,60.4531 C74.5656,60.3281 74.425,60.2969 73.9719,60.2969 L72.2531,60.2969 L72.2531,53.7813 Z " fill="#000000"/><text fill="#000000" font-family="sans-serif" font-size="12" font-style="italic" lengthAdjust="spacing" textLength="25" x="90.7" y="61.1543">IList</text><rect fill="#FFFFFF" height="15.9688" style="stroke:#000000;stroke-width:1.0;stroke-dasharray:2.0,2.0;" width="9" x="148" y="38"/><text fill="#000000" font-family="sans-serif" font-size="12" font-style="italic" lengthAdjust="spacing" textLength="7" x="149" y="50.1387">T</text><line style="stroke:#A80036;stroke-width:1.5;" x1="33" x2="153" y1="73" y2="73"/><ellipse cx="43" cy="84" fill="#84BE84" rx="3" ry="3" style="stroke:#038048;stroke-width:1.0;"/><text fill="#000000" font-family="sans-serif" font-size="11" lengthAdjust="spacing" textLength="70" x="52" y="87.2104">Add(T item);</text><ellipse cx="43" cy="96.8047" fill="#84BE84" rx="3" ry="3" style="stroke:#038048;stroke-width:1.0;"/><text fill="#000000" font-family="sans-serif" font-size="11" lengthAdjust="spacing" textLength="96" x="52" y="100.0151">Remove(T item);</text><!--MD5=[3d4177ac58b4411586d067f34e84928f]
class List--><rect codeLine="14" fill="#FEFECE" filter="url(#f1h5puonmbexjj)" height="86.4141" id="List" style="stroke:#A80036;stroke-width:1.5;" width="119" x="126.5" y="171"/><ellipse cx="166.7" cy="187" fill="#ADD1B2" rx="11" ry="11" style="stroke:#A80036;stroke-width:1.0;"/><path d="M169.0438,182.6719 C168.1063,182.2344 167.5125,182.0938 166.6375,182.0938 C164.0125,182.0938 162.0125,184.1719 162.0125,186.8906 L162.0125,188.0156 C162.0125,190.5938 164.1219,192.4844 167.0125,192.4844 C168.2313,192.4844 169.3875,192.1875 170.1375,191.6406 C170.7156,191.2344 171.0438,190.7813 171.0438,190.3906 C171.0438,189.9375 170.6531,189.5469 170.1844,189.5469 C169.9656,189.5469 169.7625,189.625 169.575,189.8125 C169.1219,190.2969 169.1219,190.2969 168.9344,190.3906 C168.5125,190.6563 167.825,190.7813 167.0594,190.7813 C165.0125,190.7813 163.7156,189.6875 163.7156,187.9844 L163.7156,186.8906 C163.7156,185.1094 164.9656,183.7969 166.7,183.7969 C167.2781,183.7969 167.8875,183.9531 168.3563,184.2031 C168.8406,184.4844 169.0125,184.7031 169.1063,185.1094 C169.1688,185.5156 169.2,185.6406 169.3406,185.7656 C169.4813,185.9063 169.7156,186.0156 169.9344,186.0156 C170.2,186.0156 170.4656,185.875 170.6375,185.6563 C170.7469,185.5 170.7781,185.3125 170.7781,184.8906 L170.7781,183.4688 C170.7781,183.0313 170.7625,182.9063 170.6688,182.75 C170.5125,182.4844 170.2313,182.3438 169.9344,182.3438 C169.6375,182.3438 169.4344,182.4375 169.2156,182.75 L169.0438,182.6719 Z " fill="#000000"/><text fill="#000000" font-family="sans-serif" font-size="12" lengthAdjust="spacing" textLength="20" x="186.3" y="191.1543">List</text><rect fill="#FFFFFF" height="15.9688" style="stroke:#000000;stroke-width:1.0;stroke-dasharray:2.0,2.0;" width="9" x="239.5" y="168"/><text fill="#000000" font-family="sans-serif" font-size="12" font-style="italic" lengthAdjust="spacing" textLength="7" x="240.5" y="180.1387">T</text><line style="stroke:#A80036;stroke-width:1.5;" x1="127.5" x2="244.5" y1="203" y2="203"/><line style="stroke:#A80036;stroke-width:1.5;" x1="127.5" x2="244.5" y1="211" y2="211"/><ellipse cx="137.5" cy="222" fill="#84BE84" rx="3" ry="3" style="stroke:#038048;stroke-width:1.0;"/><text fill="#000000" font-family="sans-serif" font-size="11" lengthAdjust="spacing" textLength="67" x="146.5" y="225.2104">Add(T item)</text><ellipse cx="137.5" cy="234.8047" fill="#84BE84" rx="3" ry="3" style="stroke:#038048;stroke-width:1.0;"/><text fill="#000000" font-family="sans-serif" font-size="11" lengthAdjust="spacing" textLength="93" x="146.5" y="238.0151">Remove(T item)</text><ellipse cx="137.5" cy="247.6094" fill="#84BE84" rx="3" ry="3" style="stroke:#038048;stroke-width:1.0;"/><text fill="#000000" font-family="sans-serif" font-size="11" lengthAdjust="spacing" textLength="75" x="146.5" y="250.8198">ElementAt(0)</text><!--MD5=[cf4d6237fcae255cd2e1656cf84a30e2]
class Order--><rect codeLine="24" fill="#FEFECE" filter="url(#f1h5puonmbexjj)" height="73.6094" id="Order" style="stroke:#A80036;stroke-width:1.5;" width="220" x="406" y="37"/><ellipse cx="493.75" cy="53" fill="#ADD1B2" rx="11" ry="11" style="stroke:#A80036;stroke-width:1.0;"/><path d="M496.0938,48.6719 C495.1563,48.2344 494.5625,48.0938 493.6875,48.0938 C491.0625,48.0938 489.0625,50.1719 489.0625,52.8906 L489.0625,54.0156 C489.0625,56.5938 491.1719,58.4844 494.0625,58.4844 C495.2813,58.4844 496.4375,58.1875 497.1875,57.6406 C497.7656,57.2344 498.0938,56.7813 498.0938,56.3906 C498.0938,55.9375 497.7031,55.5469 497.2344,55.5469 C497.0156,55.5469 496.8125,55.625 496.625,55.8125 C496.1719,56.2969 496.1719,56.2969 495.9844,56.3906 C495.5625,56.6563 494.875,56.7813 494.1094,56.7813 C492.0625,56.7813 490.7656,55.6875 490.7656,53.9844 L490.7656,52.8906 C490.7656,51.1094 492.0156,49.7969 493.75,49.7969 C494.3281,49.7969 494.9375,49.9531 495.4063,50.2031 C495.8906,50.4844 496.0625,50.7031 496.1563,51.1094 C496.2188,51.5156 496.25,51.6406 496.3906,51.7656 C496.5313,51.9063 496.7656,52.0156 496.9844,52.0156 C497.25,52.0156 497.5156,51.875 497.6875,51.6563 C497.7969,51.5 497.8281,51.3125 497.8281,50.8906 L497.8281,49.4688 C497.8281,49.0313 497.8125,48.9063 497.7188,48.75 C497.5625,48.4844 497.2813,48.3438 496.9844,48.3438 C496.6875,48.3438 496.4844,48.4375 496.2656,48.75 L496.0938,48.6719 Z " fill="#000000"/><text fill="#000000" font-family="sans-serif" font-size="12" lengthAdjust="spacing" textLength="36" x="514.25" y="57.1543">Order</text><line style="stroke:#A80036;stroke-width:1.5;" x1="407" x2="625" y1="69" y2="69"/><ellipse cx="417" cy="80" rx="3" ry="3" style="stroke:#038048;stroke-width:1.0;fill:none;"/><text fill="#000000" font-family="sans-serif" font-size="11" lengthAdjust="spacing" textLength="194" x="426" y="83.2104">Products : IReadOnlyList&lt;Product&gt;</text><line style="stroke:#A80036;stroke-width:1.0;" x1="407" x2="625" y1="89.8047" y2="89.8047"/><ellipse cx="417" cy="100.8047" fill="#84BE84" rx="3" ry="3" style="stroke:#038048;stroke-width:1.0;"/><text fill="#000000" font-family="sans-serif" font-size="11" lengthAdjust="spacing" textLength="123" x="426" y="104.0151">AddProduct(Product p)</text><!--MD5=[15984c16dece575dfeb5d17651da8bfa]
reverse link IReadOnlyList to List--><path codeLine="20" d="M251.219,117.254 C239.603,134.306 226.231,153.938 214.63,170.968 " fill="none" id="IReadOnlyList-backto-List" style="stroke:#A80036;stroke-width:1.0;"/><polygon fill="none" points="245.495,113.222,262.54,100.633,257.066,121.104,245.495,113.222" style="stroke:#A80036;stroke-width:1.0;"/><!--MD5=[f36d1c1a80e5b40402b01f77024c5bfc]
reverse link IList to List--><path codeLine="21" d="M125.77,123.626 C136.181,139.075 147.6,156.02 157.671,170.963 " fill="none" id="IList-backto-List" style="stroke:#A80036;stroke-width:1.0;"/><polygon fill="none" points="119.942,127.504,114.57,107.007,131.552,119.68,119.942,127.504" style="stroke:#A80036;stroke-width:1.0;"/><!--MD5=[ce15b7ee99fc6a33165d6226041002b6]
reverse link IReadOnlyList to Order--><path codeLine="31" d="M376.024,74 C386.006,74 395.988,74 405.969,74 " fill="none" id="IReadOnlyList-backto-Order" style="stroke:#A80036;stroke-width:1.0;"/><polygon fill="#A80036" points="370.805,74,379.805,78,375.805,74,379.805,70,370.805,74" style="stroke:#A80036;stroke-width:1.0;"/><!--MD5=[5877e2881bbce15d56b473ee0b1f559c]
@startuml
hide interface fields
package "System.Collections.Generic"
{
    interface IReadOnlyList<T>
    {
        public T ElementAt(int index);
    }
    interface IList<T>
    {
        +Add(T item);
        +Remove(T item);
    }

    class List<T>
    {
        +Add(T item)
        +Remove(T item)
        +ElementAt(0)
    }
    List -up-|> IReadOnlyList
    List -up-|> IList
}

class Order
{
    +Products : IReadOnlyList<Product>
    - - -
    +AddProduct(Product p)
}

Order - -left- -> IReadOnlyList
@enduml

PlantUML version 1.2021.13beta5(Unknown compile time)
(GPL source distribution)
Java Runtime: Java(TM) SE Runtime Environment
JVM: Java HotSpot(TM) 64-Bit Server VM
Default Encoding: UTF-8
Language: en
Country: US
--></g></svg>