<?xml version="1.0" encoding="UTF-8" standalone="no"?><svg xmlns="http://www.w3.org/2000/svg" xmlns:xlink="http://www.w3.org/1999/xlink" contentScriptType="application/ecmascript" contentStyleType="text/css" height="451px" preserveAspectRatio="none" style="width:721px;height:451px;background:#FFFFFF;" version="1.1" viewBox="0 0 721 451" width="721px" zoomAndPan="magnify"><defs><filter height="300%" id="f1lesyn9yuigt6" width="300%" x="-1" y="-1"><feGaussianBlur result="blurOut" stdDeviation="2.0"/><feColorMatrix in="blurOut" result="blurOut2" type="matrix" values="0 0 0 0 0 0 0 0 0 0 0 0 0 0 0 0 0 0 .4 0"/><feOffset dx="4.0" dy="4.0" in="blurOut2" result="blurOut3"/><feBlend in="SourceGraphic" in2="blurOut3" mode="normal"/></filter></defs><g><!--MD5=[72136138052d025cffdce3c22fbd185f]
class Product--><rect codeLine="1" fill="#FEFECE" filter="url(#f1lesyn9yuigt6)" height="99.2188" id="Product" style="stroke:#A80036;stroke-width:1.5;" width="291" x="416" y="179"/><ellipse cx="534.75" cy="195" fill="#ADD1B2" rx="11" ry="11" style="stroke:#A80036;stroke-width:1.0;"/><path d="M537.0938,190.6719 C536.1563,190.2344 535.5625,190.0938 534.6875,190.0938 C532.0625,190.0938 530.0625,192.1719 530.0625,194.8906 L530.0625,196.0156 C530.0625,198.5938 532.1719,200.4844 535.0625,200.4844 C536.2813,200.4844 537.4375,200.1875 538.1875,199.6406 C538.7656,199.2344 539.0938,198.7813 539.0938,198.3906 C539.0938,197.9375 538.7031,197.5469 538.2344,197.5469 C538.0156,197.5469 537.8125,197.625 537.625,197.8125 C537.1719,198.2969 537.1719,198.2969 536.9844,198.3906 C536.5625,198.6563 535.875,198.7813 535.1094,198.7813 C533.0625,198.7813 531.7656,197.6875 531.7656,195.9844 L531.7656,194.8906 C531.7656,193.1094 533.0156,191.7969 534.75,191.7969 C535.3281,191.7969 535.9375,191.9531 536.4063,192.2031 C536.8906,192.4844 537.0625,192.7031 537.1563,193.1094 C537.2188,193.5156 537.25,193.6406 537.3906,193.7656 C537.5313,193.9063 537.7656,194.0156 537.9844,194.0156 C538.25,194.0156 538.5156,193.875 538.6875,193.6563 C538.7969,193.5 538.8281,193.3125 538.8281,192.8906 L538.8281,191.4688 C538.8281,191.0313 538.8125,190.9063 538.7188,190.75 C538.5625,190.4844 538.2813,190.3438 537.9844,190.3438 C537.6875,190.3438 537.4844,190.4375 537.2656,190.75 L537.0938,190.6719 Z " fill="#000000"/><text fill="#000000" font-family="sans-serif" font-size="12" lengthAdjust="spacing" textLength="45" x="555.25" y="199.1543">Product</text><line style="stroke:#A80036;stroke-width:1.5;" x1="417" x2="706" y1="211" y2="211"/><ellipse cx="427" cy="222" rx="3" ry="3" style="stroke:#038048;stroke-width:1.0;fill:none;"/><text fill="#000000" font-family="sans-serif" font-size="11" lengthAdjust="spacing" textLength="63" x="436" y="225.2104">Ean : string</text><ellipse cx="427" cy="234.8047" rx="3" ry="3" style="stroke:#038048;stroke-width:1.0;fill:none;"/><text fill="#000000" font-family="sans-serif" font-size="11" lengthAdjust="spacing" textLength="76" x="436" y="238.0151">Name : string</text><ellipse cx="427" cy="247.6094" rx="3" ry="3" style="stroke:#038048;stroke-width:1.0;fill:none;"/><text fill="#000000" font-family="sans-serif" font-size="11" lengthAdjust="spacing" textLength="83" x="436" y="250.8198">Price : decimal</text><line style="stroke:#A80036;stroke-width:1.0;" x1="417" x2="706" y1="257.4141" y2="257.4141"/><ellipse cx="427" cy="268.4141" fill="#84BE84" rx="3" ry="3" style="stroke:#038048;stroke-width:1.0;"/><text fill="#000000" font-family="sans-serif" font-size="11" lengthAdjust="spacing" textLength="265" x="436" y="271.6245">Product(string ean, string name, decimal price)</text><!--MD5=[bff07eb3cd588b4dd63b04417073d969]
class PaymentProvider--><rect codeLine="10" fill="#FEFECE" filter="url(#f1lesyn9yuigt6)" height="92.3516" id="PaymentProvider" style="stroke:#A80036;stroke-width:1.5;" width="203" x="178" y="182.5"/><ellipse cx="224.25" cy="201.4688" fill="#A9DCDF" rx="11" ry="11" style="stroke:#A80036;stroke-width:1.0;"/><path d="M226.3281,203.2813 L226.7188,204.2656 L226.3281,204.2656 C225.875,204.2656 225.7656,204.2813 225.6094,204.3906 C225.3594,204.5469 225.2031,204.8281 225.2031,205.125 C225.2031,205.3906 225.3438,205.6406 225.5625,205.7969 C225.7031,205.9219 225.9063,205.9688 226.3281,205.9688 L228.6875,205.9688 C229.0469,205.9688 229.2656,205.9375 229.4063,205.8438 C229.6563,205.7031 229.8125,205.4063 229.8125,205.125 C229.8125,204.8438 229.6719,204.5938 229.4531,204.4375 C229.2813,204.2969 229.125,204.2656 228.6563,204.2656 L225.2656,196.0625 L221.5938,196.0625 C221.1406,196.0625 221.0156,196.0781 220.8594,196.1719 C220.6094,196.3438 220.4531,196.625 220.4531,196.9063 C220.4531,197.1875 220.5938,197.4375 220.8125,197.6094 C220.9844,197.7188 221.1563,197.75 221.5938,197.75 L222.6719,197.75 L220.0313,204.2656 C219.6094,204.2656 219.4531,204.2813 219.2969,204.3906 C219.0469,204.5469 218.8906,204.8281 218.8906,205.125 C218.8906,205.6875 219.2656,205.9688 220.0156,205.9688 L222.2813,205.9688 C222.6406,205.9688 222.8594,205.9375 222.9844,205.8438 C223.25,205.7031 223.3906,205.4063 223.3906,205.125 C223.3906,204.8438 223.2656,204.5938 223.0469,204.4219 C222.875,204.2969 222.7344,204.2656 222.2813,204.2656 L221.8906,204.2656 L222.2813,203.2813 L226.3281,203.2813 Z M225.625,201.5781 L222.9531,201.5781 L224.2969,198.3125 L225.625,201.5781 Z " fill="#000000"/><text fill="#000000" font-family="sans-serif" font-size="12" font-style="italic" lengthAdjust="spacing" textLength="64" x="263.75" y="198.6387">«abstract»</text><text fill="#000000" font-family="sans-serif" font-size="12" font-style="italic" lengthAdjust="spacing" textLength="102" x="244.75" y="212.6074">PaymentProvider</text><line style="stroke:#A80036;stroke-width:1.5;" x1="179" x2="380" y1="220.4375" y2="220.4375"/><ellipse cx="189" cy="231.4375" rx="3" ry="3" style="stroke:#038048;stroke-width:1.0;fill:none;"/><text fill="#000000" font-family="sans-serif" font-size="11" lengthAdjust="spacing" textLength="83" x="198" y="234.6479">Limit : decimal</text><line style="stroke:#A80036;stroke-width:1.0;" x1="179" x2="380" y1="241.2422" y2="241.2422"/><ellipse cx="189" cy="252.2422" fill="#84BE84" rx="3" ry="3" style="stroke:#038048;stroke-width:1.0;"/><text fill="#000000" font-family="sans-serif" font-size="11" lengthAdjust="spacing" textLength="177" x="198" y="255.4526">PaymentProvider(decimal limit)</text><ellipse cx="189" cy="265.0469" fill="#84BE84" rx="3" ry="3" style="stroke:#038048;stroke-width:1.0;"/><text fill="#000000" font-family="sans-serif" font-size="11" lengthAdjust="spacing" textLength="148" x="198" y="268.2573">bool Pay(decimal amount)</text><!--MD5=[91d4151b6d4c9a3d01b6d84b2458eece]
class CreditCard--><rect codeLine="18" fill="#FEFECE" filter="url(#f1lesyn9yuigt6)" height="73.6094" id="CreditCard" style="stroke:#A80036;stroke-width:1.5;" width="253" x="7" y="350.5"/><ellipse cx="97.25" cy="366.5" fill="#ADD1B2" rx="11" ry="11" style="stroke:#A80036;stroke-width:1.0;"/><path d="M99.5938,362.1719 C98.6563,361.7344 98.0625,361.5938 97.1875,361.5938 C94.5625,361.5938 92.5625,363.6719 92.5625,366.3906 L92.5625,367.5156 C92.5625,370.0938 94.6719,371.9844 97.5625,371.9844 C98.7813,371.9844 99.9375,371.6875 100.6875,371.1406 C101.2656,370.7344 101.5938,370.2813 101.5938,369.8906 C101.5938,369.4375 101.2031,369.0469 100.7344,369.0469 C100.5156,369.0469 100.3125,369.125 100.125,369.3125 C99.6719,369.7969 99.6719,369.7969 99.4844,369.8906 C99.0625,370.1563 98.375,370.2813 97.6094,370.2813 C95.5625,370.2813 94.2656,369.1875 94.2656,367.4844 L94.2656,366.3906 C94.2656,364.6094 95.5156,363.2969 97.25,363.2969 C97.8281,363.2969 98.4375,363.4531 98.9063,363.7031 C99.3906,363.9844 99.5625,364.2031 99.6563,364.6094 C99.7188,365.0156 99.75,365.1406 99.8906,365.2656 C100.0313,365.4063 100.2656,365.5156 100.4844,365.5156 C100.75,365.5156 101.0156,365.375 101.1875,365.1563 C101.2969,365 101.3281,364.8125 101.3281,364.3906 L101.3281,362.9688 C101.3281,362.5313 101.3125,362.4063 101.2188,362.25 C101.0625,361.9844 100.7813,361.8438 100.4844,361.8438 C100.1875,361.8438 99.9844,361.9375 99.7656,362.25 L99.5938,362.1719 Z " fill="#000000"/><text fill="#000000" font-family="sans-serif" font-size="12" lengthAdjust="spacing" textLength="64" x="117.75" y="370.6543">CreditCard</text><line style="stroke:#A80036;stroke-width:1.5;" x1="8" x2="259" y1="382.5" y2="382.5"/><ellipse cx="18" cy="393.5" rx="3" ry="3" style="stroke:#038048;stroke-width:1.0;fill:none;"/><text fill="#000000" font-family="sans-serif" font-size="11" lengthAdjust="spacing" textLength="87" x="27" y="396.7104">Number : string</text><line style="stroke:#A80036;stroke-width:1.0;" x1="8" x2="259" y1="403.3047" y2="403.3047"/><ellipse cx="18" cy="414.3047" fill="#84BE84" rx="3" ry="3" style="stroke:#038048;stroke-width:1.0;"/><text fill="#000000" font-family="sans-serif" font-size="11" lengthAdjust="spacing" textLength="227" x="27" y="417.5151">CreditCard(decimal limit, string number)</text><!--MD5=[95ccb38b4161655427ec76f741282ae0]
class PrepaidCard--><rect codeLine="26" fill="#FEFECE" filter="url(#f1lesyn9yuigt6)" height="99.2188" id="PrepaidCard" style="stroke:#A80036;stroke-width:1.5;" width="263" x="295" y="338"/><ellipse cx="385.75" cy="354" fill="#ADD1B2" rx="11" ry="11" style="stroke:#A80036;stroke-width:1.0;"/><path d="M388.0938,349.6719 C387.1563,349.2344 386.5625,349.0938 385.6875,349.0938 C383.0625,349.0938 381.0625,351.1719 381.0625,353.8906 L381.0625,355.0156 C381.0625,357.5938 383.1719,359.4844 386.0625,359.4844 C387.2813,359.4844 388.4375,359.1875 389.1875,358.6406 C389.7656,358.2344 390.0938,357.7813 390.0938,357.3906 C390.0938,356.9375 389.7031,356.5469 389.2344,356.5469 C389.0156,356.5469 388.8125,356.625 388.625,356.8125 C388.1719,357.2969 388.1719,357.2969 387.9844,357.3906 C387.5625,357.6563 386.875,357.7813 386.1094,357.7813 C384.0625,357.7813 382.7656,356.6875 382.7656,354.9844 L382.7656,353.8906 C382.7656,352.1094 384.0156,350.7969 385.75,350.7969 C386.3281,350.7969 386.9375,350.9531 387.4063,351.2031 C387.8906,351.4844 388.0625,351.7031 388.1563,352.1094 C388.2188,352.5156 388.25,352.6406 388.3906,352.7656 C388.5313,352.9063 388.7656,353.0156 388.9844,353.0156 C389.25,353.0156 389.5156,352.875 389.6875,352.6563 C389.7969,352.5 389.8281,352.3125 389.8281,351.8906 L389.8281,350.4688 C389.8281,350.0313 389.8125,349.9063 389.7188,349.75 C389.5625,349.4844 389.2813,349.3438 388.9844,349.3438 C388.6875,349.3438 388.4844,349.4375 388.2656,349.75 L388.0938,349.6719 Z " fill="#000000"/><text fill="#000000" font-family="sans-serif" font-size="12" lengthAdjust="spacing" textLength="73" x="406.25" y="358.1543">PrepaidCard</text><line style="stroke:#A80036;stroke-width:1.5;" x1="296" x2="557" y1="370" y2="370"/><ellipse cx="306" cy="381" rx="3" ry="3" style="stroke:#038048;stroke-width:1.0;fill:none;"/><text fill="#000000" font-family="sans-serif" font-size="11" lengthAdjust="spacing" textLength="34" x="315" y="384.2104">Credit</text><text fill="#000000" font-family="sans-serif" font-size="11" lengthAdjust="spacing" textLength="52" x="379" y="384.2104">: decimal</text><line style="stroke:#A80036;stroke-width:1.0;" x1="296" x2="557" y1="390.8047" y2="390.8047"/><ellipse cx="306" cy="401.8047" fill="#84BE84" rx="3" ry="3" style="stroke:#038048;stroke-width:1.0;"/><text fill="#000000" font-family="sans-serif" font-size="11" lengthAdjust="spacing" textLength="237" x="315" y="405.0151">PrepaidCard(decimal limit, decimal credit)</text><ellipse cx="306" cy="414.6094" fill="#84BE84" rx="3" ry="3" style="stroke:#038048;stroke-width:1.0;"/><text fill="#000000" font-family="sans-serif" font-size="11" lengthAdjust="spacing" textLength="169" x="315" y="417.8198">void Charge(decimal amount)</text><ellipse cx="306" cy="427.4141" fill="#84BE84" rx="3" ry="3" style="stroke:#038048;stroke-width:1.0;"/><text fill="#000000" font-family="sans-serif" font-size="11" lengthAdjust="spacing" textLength="148" x="315" y="430.6245">bool Pay(decimal amount)</text><!--MD5=[cf4d6237fcae255cd2e1656cf84a30e2]
class Order--><rect codeLine="36" fill="#FEFECE" filter="url(#f1lesyn9yuigt6)" height="112.0234" id="Order" style="stroke:#A80036;stroke-width:1.5;" width="263" x="289" y="7"/><ellipse cx="398.25" cy="23" fill="#ADD1B2" rx="11" ry="11" style="stroke:#A80036;stroke-width:1.0;"/><path d="M400.5938,18.6719 C399.6563,18.2344 399.0625,18.0938 398.1875,18.0938 C395.5625,18.0938 393.5625,20.1719 393.5625,22.8906 L393.5625,24.0156 C393.5625,26.5938 395.6719,28.4844 398.5625,28.4844 C399.7813,28.4844 400.9375,28.1875 401.6875,27.6406 C402.2656,27.2344 402.5938,26.7813 402.5938,26.3906 C402.5938,25.9375 402.2031,25.5469 401.7344,25.5469 C401.5156,25.5469 401.3125,25.625 401.125,25.8125 C400.6719,26.2969 400.6719,26.2969 400.4844,26.3906 C400.0625,26.6563 399.375,26.7813 398.6094,26.7813 C396.5625,26.7813 395.2656,25.6875 395.2656,23.9844 L395.2656,22.8906 C395.2656,21.1094 396.5156,19.7969 398.25,19.7969 C398.8281,19.7969 399.4375,19.9531 399.9063,20.2031 C400.3906,20.4844 400.5625,20.7031 400.6563,21.1094 C400.7188,21.5156 400.75,21.6406 400.8906,21.7656 C401.0313,21.9063 401.2656,22.0156 401.4844,22.0156 C401.75,22.0156 402.0156,21.875 402.1875,21.6563 C402.2969,21.5 402.3281,21.3125 402.3281,20.8906 L402.3281,19.4688 C402.3281,19.0313 402.3125,18.9063 402.2188,18.75 C402.0625,18.4844 401.7813,18.3438 401.4844,18.3438 C401.1875,18.3438 400.9844,18.4375 400.7656,18.75 L400.5938,18.6719 Z " fill="#000000"/><text fill="#000000" font-family="sans-serif" font-size="12" lengthAdjust="spacing" textLength="36" x="418.75" y="27.1543">Order</text><line style="stroke:#A80036;stroke-width:1.5;" x1="290" x2="551" y1="39" y2="39"/><ellipse cx="300" cy="50" rx="3" ry="3" style="stroke:#038048;stroke-width:1.0;fill:none;"/><text fill="#000000" font-family="sans-serif" font-size="11" lengthAdjust="spacing" textLength="194" x="309" y="53.2104">Products : IReadOnlyList&lt;Product&gt;</text><ellipse cx="300" cy="62.8047" rx="3" ry="3" style="stroke:#038048;stroke-width:1.0;fill:none;"/><text fill="#000000" font-family="sans-serif" font-size="11" lengthAdjust="spacing" textLength="141" x="309" y="66.0151">InvoiceAmount : decimal</text><line style="stroke:#A80036;stroke-width:1.0;" x1="290" x2="551" y1="72.6094" y2="72.6094"/><ellipse cx="300" cy="83.6094" fill="#84BE84" rx="3" ry="3" style="stroke:#038048;stroke-width:1.0;"/><text fill="#000000" font-family="sans-serif" font-size="11" lengthAdjust="spacing" textLength="237" x="309" y="86.8198">Order(PaymentProvider paymentProvider)</text><ellipse cx="300" cy="96.4141" fill="#84BE84" rx="3" ry="3" style="stroke:#038048;stroke-width:1.0;"/><text fill="#000000" font-family="sans-serif" font-size="11" lengthAdjust="spacing" textLength="151" x="309" y="99.6245">void AddProduct(Product p)</text><ellipse cx="300" cy="109.2188" fill="#84BE84" rx="3" ry="3" style="stroke:#038048;stroke-width:1.0;"/><text fill="#000000" font-family="sans-serif" font-size="11" lengthAdjust="spacing" textLength="89" x="309" y="112.4292">bool Checkout()</text><!--MD5=[3f5fdfc47e0eb03798e9ab2f8db0436b]
reverse link PaymentProvider to CreditCard--><path codeLine="24" d="M223.459,289.763 C204.433,310.222 183.781,332.431 167.068,350.4025 " fill="none" id="PaymentProvider-backto-CreditCard" style="stroke:#A80036;stroke-width:1.0;"/><polygon fill="none" points="218.525,284.79,237.271,274.911,228.777,294.324,218.525,284.79" style="stroke:#A80036;stroke-width:1.0;"/><!--MD5=[77600cd30561aef94807a6f00528d979]
reverse link PaymentProvider to PrepaidCard--><path codeLine="34" d="M335.926,289.764 C350.839,305.692 366.744,322.679 380.998,337.9028 " fill="none" id="PaymentProvider-backto-PrepaidCard" style="stroke:#A80036;stroke-width:1.0;"/><polygon fill="none" points="330.578,294.295,322.018,274.911,340.798,284.726,330.578,294.295" style="stroke:#A80036;stroke-width:1.0;"/><!--MD5=[5df16df72a49edaa4f00919f1e597f76]
link Order to Product--><path codeLine="45" d="M468.236,119.354 C483.685,137.268 500.769,157.077 516.048,174.794 " fill="none" id="Order-to-Product" style="stroke:#A80036;stroke-width:1.0;"/><polygon fill="#A80036" points="519.482,178.777,516.6338,169.349,516.2168,174.9904,510.5753,174.5733,519.482,178.777" style="stroke:#A80036;stroke-width:1.0;"/><!--MD5=[955a2273406889a20d75ae25736389aa]
link Order to PaymentProvider--><path codeLine="46" d="M364.9268,128.4413 C364.9268,128.4413 339.079,158.414 327.313,172.057 " fill="none" id="Order-PaymentProvider" style="stroke:#A80036;stroke-width:1.0;"/><polygon fill="#A80036" points="318.525,182.248,327.4317,178.0443,321.7902,178.4614,321.3731,172.8199,318.525,182.248" style="stroke:#A80036;stroke-width:1.0;"/><line style="stroke:#A80036;stroke-width:1.0;" x1="321.7902" x2="327.015" y1="178.4614" y2="172.4035"/><polygon fill="#FFFFFF" points="372.764,119.354,365.8163,121.2853,364.9268,128.4413,371.8745,126.51,372.764,119.354" style="stroke:#A80036;stroke-width:1.0;"/><!--MD5=[568fa04ac505afaa16e888458e87c102]
@startuml
class Product
{
	+Ean : string
	+Name : string
	+Price : decimal
	- - -
	+Product(string ean, string name, decimal price)
}

abstract class PaymentProvider <<abstract>>
{
	+Limit : decimal
	- - -
	+PaymentProvider(decimal limit)
	+bool Pay(decimal amount)
}

class CreditCard
{
	+Number : string
	- - -
	+CreditCard(decimal limit, string number)
}
CreditCard -up-|> PaymentProvider

class PrepaidCard
{
	+Credit	: decimal
	- - -
	+PrepaidCard(decimal limit, decimal credit)
	+void Charge(decimal amount)
	+bool Pay(decimal amount)
}
PrepaidCard -up-|> PaymentProvider

class Order
{
	+Products : IReadOnlyList<Product>
	+InvoiceAmount : decimal
	- - -
	+Order(PaymentProvider paymentProvider)
	+void AddProduct(Product p)
	+bool Checkout()
}
Order - -> Product
Order o- -> PaymentProvider
@enduml

PlantUML version 1.2021.13beta5(Unknown compile time)
(GPL source distribution)
Java Runtime: Java(TM) SE Runtime Environment
JVM: Java HotSpot(TM) 64-Bit Server VM
Default Encoding: UTF-8
Language: en
Country: US
--></g></svg>