<?xml version="1.0" encoding="UTF-8" standalone="no"?><svg xmlns="http://www.w3.org/2000/svg" xmlns:xlink="http://www.w3.org/1999/xlink" contentScriptType="application/ecmascript" contentStyleType="text/css" height="559px" preserveAspectRatio="none" style="width:944px;height:559px;background:#FFFFFF;" version="1.1" viewBox="0 0 944 559" width="944px" zoomAndPan="magnify"><defs><filter height="300%" id="fhl19yivgo4f4" width="300%" x="-1" y="-1"><feGaussianBlur result="blurOut" stdDeviation="2.0"/><feColorMatrix in="blurOut" result="blurOut2" type="matrix" values="0 0 0 0 0 0 0 0 0 0 0 0 0 0 0 0 0 0 .4 0"/><feOffset dx="4.0" dy="4.0" in="blurOut2" result="blurOut3"/><feBlend in="SourceGraphic" in2="blurOut3" mode="normal"/></filter></defs><g><!--MD5=[78f30b73a39fcd3906cfba4ecdbb4737]
class Salutation--><rect codeLine="1" fill="#FEFECE" filter="url(#fhl19yivgo4f4)" height="60.8047" id="Salutation" style="stroke:#A80036;stroke-width:1.5;" width="90" x="410" y="453"/><ellipse cx="425" cy="469" fill="#EB937F" rx="11" ry="11" style="stroke:#A80036;stroke-width:1.0;"/><path d="M423.7969,469.875 L425.25,469.875 L425.25,469.9844 C425.25,470.3906 425.2813,470.5469 425.3594,470.7031 C425.5156,470.9531 425.7969,471.1094 426.0938,471.1094 C426.3438,471.1094 426.6094,470.9688 426.7656,470.75 C426.8906,470.5938 426.9219,470.4375 426.9219,469.9844 L426.9219,468.0625 C426.9219,467.9063 426.9219,467.8594 426.9063,467.7031 C426.8438,467.2344 426.5313,466.9219 426.0781,466.9219 C425.8281,466.9219 425.5625,467.0625 425.3906,467.2813 C425.2813,467.4531 425.25,467.6094 425.25,468.0625 L425.25,468.1875 L423.7969,468.1875 L423.7969,465.7813 L427.7813,465.7813 L427.7813,466.6406 C427.7813,467.0469 427.8125,467.2188 427.8906,467.375 C428.0625,467.625 428.3438,467.7813 428.625,467.7813 C428.8906,467.7813 429.1563,467.6406 429.3281,467.4219 C429.4375,467.25 429.4688,467.1094 429.4688,466.6406 L429.4688,464.0938 L421.8438,464.0938 C421.4063,464.0938 421.2813,464.1094 421.125,464.2031 C420.875,464.3594 420.7188,464.6563 420.7188,464.9375 C420.7188,465.2188 420.8594,465.4688 421.0781,465.6406 C421.2344,465.75 421.4219,465.7813 421.8438,465.7813 L422.0938,465.7813 L422.0938,472.2969 L421.8438,472.2969 C421.4375,472.2969 421.2813,472.3125 421.125,472.4219 C420.875,472.5938 420.7188,472.8594 420.7188,473.1563 C420.7188,473.4219 420.8594,473.6719 421.0781,473.8281 C421.2188,473.9531 421.4531,474 421.8438,474 L429.8438,474 L429.8438,471.4219 C429.8438,470.9844 429.8125,470.8438 429.7344,470.6875 C429.5625,470.4375 429.2813,470.2813 429,470.2813 C428.7344,470.2813 428.4688,470.3906 428.2969,470.6406 C428.1875,470.7969 428.1563,470.9375 428.1563,471.4219 L428.1563,472.2969 L423.7969,472.2969 L423.7969,469.875 Z " fill="#000000"/><text fill="#000000" font-family="sans-serif" font-size="12" lengthAdjust="spacing" textLength="58" x="439" y="473.1543">Salutation</text><line style="stroke:#A80036;stroke-width:1.5;" x1="411" x2="499" y1="485" y2="485"/><text fill="#000000" font-family="sans-serif" font-size="11" lengthAdjust="spacing" textLength="77" x="416" y="499.2104">Female, Male</text><line style="stroke:#A80036;stroke-width:1.5;" x1="411" x2="499" y1="505.8047" y2="505.8047"/><!--MD5=[09ce52be0ee7de43c61b6e2d59bf108b]
class Person--><rect codeLine="5" fill="#FEFECE" filter="url(#fhl19yivgo4f4)" height="143.5703" id="Person" style="stroke:#A80036;stroke-width:1.5;" width="379" x="265.5" y="217"/><ellipse cx="420.75" cy="235.9688" fill="#A9DCDF" rx="11" ry="11" style="stroke:#A80036;stroke-width:1.0;"/><path d="M422.8281,237.7813 L423.2188,238.7656 L422.8281,238.7656 C422.375,238.7656 422.2656,238.7813 422.1094,238.8906 C421.8594,239.0469 421.7031,239.3281 421.7031,239.625 C421.7031,239.8906 421.8438,240.1406 422.0625,240.2969 C422.2031,240.4219 422.4063,240.4688 422.8281,240.4688 L425.1875,240.4688 C425.5469,240.4688 425.7656,240.4375 425.9063,240.3438 C426.1563,240.2031 426.3125,239.9063 426.3125,239.625 C426.3125,239.3438 426.1719,239.0938 425.9531,238.9375 C425.7813,238.7969 425.625,238.7656 425.1563,238.7656 L421.7656,230.5625 L418.0938,230.5625 C417.6406,230.5625 417.5156,230.5781 417.3594,230.6719 C417.1094,230.8438 416.9531,231.125 416.9531,231.4063 C416.9531,231.6875 417.0938,231.9375 417.3125,232.1094 C417.4844,232.2188 417.6563,232.25 418.0938,232.25 L419.1719,232.25 L416.5313,238.7656 C416.1094,238.7656 415.9531,238.7813 415.7969,238.8906 C415.5469,239.0469 415.3906,239.3281 415.3906,239.625 C415.3906,240.1875 415.7656,240.4688 416.5156,240.4688 L418.7813,240.4688 C419.1406,240.4688 419.3594,240.4375 419.4844,240.3438 C419.75,240.2031 419.8906,239.9063 419.8906,239.625 C419.8906,239.3438 419.7656,239.0938 419.5469,238.9219 C419.375,238.7969 419.2344,238.7656 418.7813,238.7656 L418.3906,238.7656 L418.7813,237.7813 L422.8281,237.7813 Z M422.125,236.0781 L419.4531,236.0781 L420.7969,232.8125 L422.125,236.0781 Z " fill="#000000"/><text fill="#000000" font-family="sans-serif" font-size="12" font-style="italic" lengthAdjust="spacing" textLength="64" x="439.25" y="233.1387">«abstract»</text><text fill="#000000" font-family="sans-serif" font-size="12" font-style="italic" lengthAdjust="spacing" textLength="40" x="451.25" y="247.1074">Person</text><line style="stroke:#A80036;stroke-width:1.5;" x1="266.5" x2="643.5" y1="254.9375" y2="254.9375"/><ellipse cx="276.5" cy="265.9375" rx="3" ry="3" style="stroke:#038048;stroke-width:1.0;fill:none;"/><text fill="#000000" font-family="sans-serif" font-size="11" lengthAdjust="spacing" textLength="98" x="285.5" y="269.1479">Firstname : string</text><ellipse cx="276.5" cy="278.7422" rx="3" ry="3" style="stroke:#038048;stroke-width:1.0;fill:none;"/><text fill="#000000" font-family="sans-serif" font-size="11" lengthAdjust="spacing" textLength="98" x="285.5" y="281.9526">Lastname : string</text><ellipse cx="276.5" cy="291.5469" rx="3" ry="3" style="stroke:#038048;stroke-width:1.0;fill:none;"/><text fill="#000000" font-family="sans-serif" font-size="11" lengthAdjust="spacing" textLength="125" x="285.5" y="294.7573">Salutation : Salutation</text><ellipse cx="276.5" cy="304.3516" rx="3" ry="3" style="stroke:#038048;stroke-width:1.0;fill:none;"/><text fill="#000000" font-family="sans-serif" font-size="11" font-style="italic" lengthAdjust="spacing" textLength="121" x="285.5" y="307.562">Accountname : string</text><line style="stroke:#A80036;stroke-width:1.0;" x1="266.5" x2="643.5" y1="314.1563" y2="314.1563"/><ellipse cx="276.5" cy="325.1563" fill="#84BE84" rx="3" ry="3" style="stroke:#038048;stroke-width:1.0;"/><text fill="#000000" font-family="sans-serif" font-size="11" lengthAdjust="spacing" textLength="353" x="285.5" y="328.3667">Person(string firstname, string lastname, Salutation salutation)</text><ellipse cx="276.5" cy="337.9609" fill="#84BE84" rx="3" ry="3" style="stroke:#038048;stroke-width:1.0;"/><text fill="#000000" font-family="sans-serif" font-size="11" lengthAdjust="spacing" textLength="95" x="285.5" y="341.1714">string GetEmail()</text><ellipse cx="276.5" cy="350.7656" fill="#84BE84" rx="3" ry="3" style="stroke:#038048;stroke-width:1.0;"/><text fill="#000000" font-family="sans-serif" font-size="11" lengthAdjust="spacing" textLength="88" x="285.5" y="353.9761">string Tostring()</text><!--MD5=[61a83f88cb8b7d3a80bc8c481f3736bf]
class Teacher--><rect codeLine="18" fill="#FEFECE" filter="url(#fhl19yivgo4f4)" height="124.8281" id="Teacher" style="stroke:#A80036;stroke-width:1.5;" width="368" x="7" y="421"/><ellipse cx="162.25" cy="437" fill="#ADD1B2" rx="11" ry="11" style="stroke:#A80036;stroke-width:1.0;"/><path d="M164.5938,432.6719 C163.6563,432.2344 163.0625,432.0938 162.1875,432.0938 C159.5625,432.0938 157.5625,434.1719 157.5625,436.8906 L157.5625,438.0156 C157.5625,440.5938 159.6719,442.4844 162.5625,442.4844 C163.7813,442.4844 164.9375,442.1875 165.6875,441.6406 C166.2656,441.2344 166.5938,440.7813 166.5938,440.3906 C166.5938,439.9375 166.2031,439.5469 165.7344,439.5469 C165.5156,439.5469 165.3125,439.625 165.125,439.8125 C164.6719,440.2969 164.6719,440.2969 164.4844,440.3906 C164.0625,440.6563 163.375,440.7813 162.6094,440.7813 C160.5625,440.7813 159.2656,439.6875 159.2656,437.9844 L159.2656,436.8906 C159.2656,435.1094 160.5156,433.7969 162.25,433.7969 C162.8281,433.7969 163.4375,433.9531 163.9063,434.2031 C164.3906,434.4844 164.5625,434.7031 164.6563,435.1094 C164.7188,435.5156 164.75,435.6406 164.8906,435.7656 C165.0313,435.9063 165.2656,436.0156 165.4844,436.0156 C165.75,436.0156 166.0156,435.875 166.1875,435.6563 C166.2969,435.5 166.3281,435.3125 166.3281,434.8906 L166.3281,433.4688 C166.3281,433.0313 166.3125,432.9063 166.2188,432.75 C166.0625,432.4844 165.7813,432.3438 165.4844,432.3438 C165.1875,432.3438 164.9844,432.4375 164.7656,432.75 L164.5938,432.6719 Z " fill="#000000"/><text fill="#000000" font-family="sans-serif" font-size="12" lengthAdjust="spacing" textLength="49" x="182.75" y="441.1543">Teacher</text><line style="stroke:#A80036;stroke-width:1.5;" x1="8" x2="374" y1="453" y2="453"/><ellipse cx="18" cy="464" rx="3" ry="3" style="stroke:#038048;stroke-width:1.0;fill:none;"/><text fill="#000000" font-family="sans-serif" font-size="11" lengthAdjust="spacing" textLength="105" x="27" y="467.2104">Shortname : string</text><ellipse cx="18" cy="476.8047" rx="3" ry="3" style="stroke:#038048;stroke-width:1.0;fill:none;"/><text fill="#000000" font-family="sans-serif" font-size="11" lengthAdjust="spacing" textLength="86" x="27" y="480.0151">IsFullAge : bool</text><ellipse cx="18" cy="489.6094" rx="3" ry="3" style="stroke:#038048;stroke-width:1.0;fill:none;"/><text fill="#000000" font-family="sans-serif" font-size="11" lengthAdjust="spacing" textLength="120" x="27" y="492.8198">Accountname : string</text><line style="stroke:#A80036;stroke-width:1.0;" x1="8" x2="374" y1="499.4141" y2="499.4141"/><ellipse cx="18" cy="510.4141" fill="#84BE84" rx="3" ry="3" style="stroke:#038048;stroke-width:1.0;"/><text fill="#000000" font-family="sans-serif" font-size="11" lengthAdjust="spacing" textLength="342" x="27" y="513.6245">Teacher(string firstname, string lastname, string shortname)</text><ellipse cx="18" cy="523.2188" fill="#84BE84" rx="3" ry="3" style="stroke:#038048;stroke-width:1.0;"/><text fill="#000000" font-family="sans-serif" font-size="11" lengthAdjust="spacing" textLength="95" x="27" y="526.4292">string GetEmail()</text><ellipse cx="18" cy="536.0234" fill="#84BE84" rx="3" ry="3" style="stroke:#038048;stroke-width:1.0;"/><text fill="#000000" font-family="sans-serif" font-size="11" lengthAdjust="spacing" textLength="88" x="27" y="539.2339">string Tostring()</text><!--MD5=[d6181cb537bdc20c0a3007a98a56832d]
class Student--><rect codeLine="29" fill="#FEFECE" filter="url(#fhl19yivgo4f4)" height="124.8281" id="Student" style="stroke:#A80036;stroke-width:1.5;" width="395" x="535.5" y="421"/><ellipse cx="705.75" cy="437" fill="#ADD1B2" rx="11" ry="11" style="stroke:#A80036;stroke-width:1.0;"/><path d="M708.0938,432.6719 C707.1563,432.2344 706.5625,432.0938 705.6875,432.0938 C703.0625,432.0938 701.0625,434.1719 701.0625,436.8906 L701.0625,438.0156 C701.0625,440.5938 703.1719,442.4844 706.0625,442.4844 C707.2813,442.4844 708.4375,442.1875 709.1875,441.6406 C709.7656,441.2344 710.0938,440.7813 710.0938,440.3906 C710.0938,439.9375 709.7031,439.5469 709.2344,439.5469 C709.0156,439.5469 708.8125,439.625 708.625,439.8125 C708.1719,440.2969 708.1719,440.2969 707.9844,440.3906 C707.5625,440.6563 706.875,440.7813 706.1094,440.7813 C704.0625,440.7813 702.7656,439.6875 702.7656,437.9844 L702.7656,436.8906 C702.7656,435.1094 704.0156,433.7969 705.75,433.7969 C706.3281,433.7969 706.9375,433.9531 707.4063,434.2031 C707.8906,434.4844 708.0625,434.7031 708.1563,435.1094 C708.2188,435.5156 708.25,435.6406 708.3906,435.7656 C708.5313,435.9063 708.7656,436.0156 708.9844,436.0156 C709.25,436.0156 709.5156,435.875 709.6875,435.6563 C709.7969,435.5 709.8281,435.3125 709.8281,434.8906 L709.8281,433.4688 C709.8281,433.0313 709.8125,432.9063 709.7188,432.75 C709.5625,432.4844 709.2813,432.3438 708.9844,432.3438 C708.6875,432.3438 708.4844,432.4375 708.2656,432.75 L708.0938,432.6719 Z " fill="#000000"/><text fill="#000000" font-family="sans-serif" font-size="12" lengthAdjust="spacing" textLength="46" x="726.25" y="441.1543">Student</text><line style="stroke:#A80036;stroke-width:1.5;" x1="536.5" x2="929.5" y1="453" y2="453"/><ellipse cx="546.5" cy="464" rx="3" ry="3" style="stroke:#038048;stroke-width:1.0;fill:none;"/><text fill="#000000" font-family="sans-serif" font-size="11" lengthAdjust="spacing" textLength="61" x="555.5" y="467.2104">PupilId : int</text><ellipse cx="546.5" cy="476.8047" rx="3" ry="3" style="stroke:#038048;stroke-width:1.0;fill:none;"/><text fill="#000000" font-family="sans-serif" font-size="11" lengthAdjust="spacing" textLength="72" x="555.5" y="480.0151">Class : string</text><ellipse cx="546.5" cy="489.6094" rx="3" ry="3" style="stroke:#038048;stroke-width:1.0;fill:none;"/><text fill="#000000" font-family="sans-serif" font-size="11" lengthAdjust="spacing" textLength="120" x="555.5" y="492.8198">Accountname : string</text><line style="stroke:#A80036;stroke-width:1.0;" x1="536.5" x2="929.5" y1="499.4141" y2="499.4141"/><ellipse cx="546.5" cy="510.4141" fill="#84BE84" rx="3" ry="3" style="stroke:#038048;stroke-width:1.0;"/><text fill="#000000" font-family="sans-serif" font-size="11" lengthAdjust="spacing" textLength="369" x="555.5" y="513.6245">Student(string firstname, string lastname, int pupilId, string class)</text><ellipse cx="546.5" cy="523.2188" fill="#84BE84" rx="3" ry="3" style="stroke:#038048;stroke-width:1.0;"/><text fill="#000000" font-family="sans-serif" font-size="11" lengthAdjust="spacing" textLength="299" x="555.5" y="526.4292">Student(string firstname, string lastname, int pupilId)</text><ellipse cx="546.5" cy="536.0234" fill="#84BE84" rx="3" ry="3" style="stroke:#038048;stroke-width:1.0;"/><text fill="#000000" font-family="sans-serif" font-size="11" lengthAdjust="spacing" textLength="88" x="555.5" y="539.2339">string Tostring()</text><!--MD5=[10a9fff9df9a76a22f65fd5d58adb785]
class School--><rect codeLine="43" fill="#FEFECE" filter="url(#fhl19yivgo4f4)" height="150.4375" id="School" style="stroke:#A80036;stroke-width:1.5;" width="174" x="368" y="7"/><ellipse cx="430.25" cy="23" fill="#ADD1B2" rx="11" ry="11" style="stroke:#A80036;stroke-width:1.0;"/><path d="M432.5938,18.6719 C431.6563,18.2344 431.0625,18.0938 430.1875,18.0938 C427.5625,18.0938 425.5625,20.1719 425.5625,22.8906 L425.5625,24.0156 C425.5625,26.5938 427.6719,28.4844 430.5625,28.4844 C431.7813,28.4844 432.9375,28.1875 433.6875,27.6406 C434.2656,27.2344 434.5938,26.7813 434.5938,26.3906 C434.5938,25.9375 434.2031,25.5469 433.7344,25.5469 C433.5156,25.5469 433.3125,25.625 433.125,25.8125 C432.6719,26.2969 432.6719,26.2969 432.4844,26.3906 C432.0625,26.6563 431.375,26.7813 430.6094,26.7813 C428.5625,26.7813 427.2656,25.6875 427.2656,23.9844 L427.2656,22.8906 C427.2656,21.1094 428.5156,19.7969 430.25,19.7969 C430.8281,19.7969 431.4375,19.9531 431.9063,20.2031 C432.3906,20.4844 432.5625,20.7031 432.6563,21.1094 C432.7188,21.5156 432.75,21.6406 432.8906,21.7656 C433.0313,21.9063 433.2656,22.0156 433.4844,22.0156 C433.75,22.0156 434.0156,21.875 434.1875,21.6563 C434.2969,21.5 434.3281,21.3125 434.3281,20.8906 L434.3281,19.4688 C434.3281,19.0313 434.3125,18.9063 434.2188,18.75 C434.0625,18.4844 433.7813,18.3438 433.4844,18.3438 C433.1875,18.3438 432.9844,18.4375 432.7656,18.75 L432.5938,18.6719 Z " fill="#000000"/><text fill="#000000" font-family="sans-serif" font-size="12" lengthAdjust="spacing" textLength="41" x="450.75" y="27.1543">School</text><line style="stroke:#A80036;stroke-width:1.5;" x1="369" x2="541" y1="39" y2="39"/><ellipse cx="379" cy="50" rx="3" ry="3" style="stroke:#038048;stroke-width:1.0;fill:none;"/><text fill="#000000" font-family="sans-serif" font-size="11" lengthAdjust="spacing" textLength="148" x="388" y="53.2104">Teachers : List&lt;Teacher&gt;</text><ellipse cx="379" cy="62.8047" rx="3" ry="3" style="stroke:#038048;stroke-width:1.0;fill:none;"/><text fill="#000000" font-family="sans-serif" font-size="11" lengthAdjust="spacing" textLength="144" x="388" y="66.0151">Students : List&lt;Student&gt;</text><ellipse cx="379" cy="75.6094" rx="3" ry="3" style="stroke:#038048;stroke-width:1.0;fill:none;"/><text fill="#000000" font-family="sans-serif" font-size="11" lengthAdjust="spacing" textLength="108" x="388" y="78.8198">Sga : List&lt;Person&gt;</text><ellipse cx="379" cy="88.4141" rx="3" ry="3" style="stroke:#038048;stroke-width:1.0;fill:none;"/><text fill="#000000" font-family="sans-serif" font-size="11" lengthAdjust="spacing" textLength="131" x="388" y="91.6245">SgaStudentsCount : int</text><ellipse cx="379" cy="101.2188" rx="3" ry="3" style="stroke:#038048;stroke-width:1.0;fill:none;"/><text fill="#000000" font-family="sans-serif" font-size="11" lengthAdjust="spacing" textLength="133" x="388" y="104.4292">SgaTeachersCount : int</text><ellipse cx="379" cy="114.0234" rx="3" ry="3" style="stroke:#038048;stroke-width:1.0;fill:none;"/><text fill="#000000" font-family="sans-serif" font-size="11" lengthAdjust="spacing" textLength="94" x="388" y="117.2339">IsValidSga : bool</text><line style="stroke:#A80036;stroke-width:1.0;" x1="369" x2="541" y1="123.8281" y2="123.8281"/><ellipse cx="379" cy="134.8281" fill="#84BE84" rx="3" ry="3" style="stroke:#038048;stroke-width:1.0;"/><text fill="#000000" font-family="sans-serif" font-size="11" lengthAdjust="spacing" textLength="143" x="388" y="138.0386">bool AddToSga(Person p)</text><ellipse cx="379" cy="147.6328" fill="#84BE84" rx="3" ry="3" style="stroke:#038048;stroke-width:1.0;"/><text fill="#000000" font-family="sans-serif" font-size="11" lengthAdjust="spacing" textLength="82" x="388" y="150.8433">void PrintSga()</text><!--MD5=[b1be07a1899811cefbf7f771a245df6d]
link Person to Salutation--><path codeLine="16" d="M455,373.133 C455,373.133 455,420.343 455,439.623 " fill="none" id="Person-Salutation" style="stroke:#A80036;stroke-width:1.0;"/><polygon fill="#A80036" points="455,452.8503,459,443.8503,455,447.8503,451,443.8503,455,452.8503" style="stroke:#A80036;stroke-width:1.0;"/><line style="stroke:#A80036;stroke-width:1.0;" x1="455" x2="455" y1="447.8503" y2="439.85"/><polygon fill="#FFFFFF" points="455,361.133,451,367.133,455,373.133,459,367.133,455,361.133" style="stroke:#A80036;stroke-width:1.0;"/><!--MD5=[15c8996a18b78152b9e33e7e4ee412f1]
reverse link Person to Teacher--><path codeLine="40" d="M341.176,372.996 C319.154,389.055 296.443,405.615 275.56,420.842 " fill="none" id="Person-backto-Teacher" style="stroke:#A80036;stroke-width:1.0;"/><polygon fill="none" points="337.162,367.26,357.446,361.133,345.41,378.573,337.162,367.26" style="stroke:#A80036;stroke-width:1.0;"/><!--MD5=[59fe9c8026b8fdee425aa7f650c1a023]
reverse link Person to Student--><path codeLine="41" d="M574.181,372.527 C597.583,388.731 621.751,405.466 643.956,420.842 " fill="none" id="Person-backto-Student" style="stroke:#A80036;stroke-width:1.0;"/><polygon fill="none" points="570.185,378.274,557.727,361.133,578.155,366.764,570.185,378.274" style="stroke:#A80036;stroke-width:1.0;"/><!--MD5=[c0d40c1ae05abfd68bea1746caec032a]
link School to Teacher--><path codeLine="56" d="M367.82,119.781 C325.466,141.96 277.475,174.273 248,217 C207.332,275.952 194.858,358.432 191.437,415.757 " fill="none" id="School-to-Teacher" style="stroke:#A80036;stroke-width:1.0;"/><polygon fill="#A80036" points="191.152,420.877,195.6473,412.1139,191.4306,415.8848,187.6597,411.6681,191.152,420.877" style="stroke:#A80036;stroke-width:1.0;"/><!--MD5=[bb1b348fe46af82213473b084a6c1e59]
link School to Student--><path codeLine="57" d="M542.085,120.818 C584.017,143.147 631.658,175.28 662,217 C704.701,275.714 721.724,358.426 728.509,415.867 " fill="none" id="School-to-Student" style="stroke:#A80036;stroke-width:1.0;"/><polygon fill="#A80036" points="729.095,420.998,732.0455,411.6015,728.5264,416.0304,724.0974,412.5113,729.095,420.998" style="stroke:#A80036;stroke-width:1.0;"/><!--MD5=[77bbf88ed7935e9aa09f3fcc82ee2db0]
link School to Person--><path codeLine="58" d="M455,157.01 C455,174.831 455,193.9 455,211.819 " fill="none" id="School-to-Person" style="stroke:#A80036;stroke-width:1.0;"/><polygon fill="#A80036" points="455,216.84,459,207.84,455,211.84,451,207.84,455,216.84" style="stroke:#A80036;stroke-width:1.0;"/><!--MD5=[6413336be829fe9f907fa3f32eaa8405]
@startuml
enum Salutation 
{
    Female, Male
}
abstract class Person <<abstract>>
{
    +Firstname : string
    +Lastname : string
    +Salutation : Salutation
    +{abstract} Accountname : string
    - - -
    +Person(string firstname, string lastname, Salutation salutation)
    +string GetEmail()
    +string Tostring()
}
Person o- -> Salutation

class Teacher
{
    +Shortname : string
    +IsFullAge : bool
    +Accountname : string
    - - -
    +Teacher(string firstname, string lastname, string shortname)
    +string GetEmail()
    +string Tostring()
}

class Student
{
    +PupilId : int
    +Class : string
    +Accountname : string
    - - -
    +Student(string firstname, string lastname, int pupilId, string class)
    +Student(string firstname, string lastname, int pupilId)
    +string Tostring()
}

Teacher -up-|> Person
Student -up-|> Person

class School
{
    +Teachers : List<Teacher>
    +Students : List<Student>
    +Sga : List<Person>
    +SgaStudentsCount : int
    +SgaTeachersCount : int
    +IsValidSga : bool
    - - -
    +bool AddToSga(Person p)
    +void PrintSga()
}

School - -> Teacher
School - -> Student
School - -> Person
@enduml

PlantUML version 1.2021.13beta5(Unknown compile time)
(GPL source distribution)
Java Runtime: Java(TM) SE Runtime Environment
JVM: Java HotSpot(TM) 64-Bit Server VM
Default Encoding: UTF-8
Language: en
Country: US
--></g></svg>