<?xml version="1.0" encoding="UTF-8" standalone="no"?><svg xmlns="http://www.w3.org/2000/svg" xmlns:xlink="http://www.w3.org/1999/xlink" contentScriptType="application/ecmascript" contentStyleType="text/css" height="464px" preserveAspectRatio="none" style="width:1099px;height:464px;background:#FFFFFF;" version="1.1" viewBox="0 0 1099 464" width="1099px" zoomAndPan="magnify"><defs><filter height="300%" id="fscc2zey3sfoq" width="300%" x="-1" y="-1"><feGaussianBlur result="blurOut" stdDeviation="2.0"/><feColorMatrix in="blurOut" result="blurOut2" type="matrix" values="0 0 0 0 0 0 0 0 0 0 0 0 0 0 0 0 0 0 .4 0"/><feOffset dx="4.0" dy="4.0" in="blurOut2" result="blurOut3"/><feBlend in="SourceGraphic" in2="blurOut3" mode="normal"/></filter></defs><g><!--MD5=[110d3e1b3848a9f83035e0cf17801c91]
class Applicant--><rect codeLine="3" fill="#FEFECE" filter="url(#fscc2zey3sfoq)" height="137.6328" id="Applicant" style="stroke:#A80036;stroke-width:1.5;" width="263" x="822.5" y="179"/><ellipse cx="922.25" cy="195" fill="#ADD1B2" rx="11" ry="11" style="stroke:#A80036;stroke-width:1.0;"/><path d="M924.5938,190.6719 C923.6563,190.2344 923.0625,190.0938 922.1875,190.0938 C919.5625,190.0938 917.5625,192.1719 917.5625,194.8906 L917.5625,196.0156 C917.5625,198.5938 919.6719,200.4844 922.5625,200.4844 C923.7813,200.4844 924.9375,200.1875 925.6875,199.6406 C926.2656,199.2344 926.5938,198.7813 926.5938,198.3906 C926.5938,197.9375 926.2031,197.5469 925.7344,197.5469 C925.5156,197.5469 925.3125,197.625 925.125,197.8125 C924.6719,198.2969 924.6719,198.2969 924.4844,198.3906 C924.0625,198.6563 923.375,198.7813 922.6094,198.7813 C920.5625,198.7813 919.2656,197.6875 919.2656,195.9844 L919.2656,194.8906 C919.2656,193.1094 920.5156,191.7969 922.25,191.7969 C922.8281,191.7969 923.4375,191.9531 923.9063,192.2031 C924.3906,192.4844 924.5625,192.7031 924.6563,193.1094 C924.7188,193.5156 924.75,193.6406 924.8906,193.7656 C925.0313,193.9063 925.2656,194.0156 925.4844,194.0156 C925.75,194.0156 926.0156,193.875 926.1875,193.6563 C926.2969,193.5 926.3281,193.3125 926.3281,192.8906 L926.3281,191.4688 C926.3281,191.0313 926.3125,190.9063 926.2188,190.75 C926.0625,190.4844 925.7813,190.3438 925.4844,190.3438 C925.1875,190.3438 924.9844,190.4375 924.7656,190.75 L924.5938,190.6719 Z " fill="#000000"/><text fill="#000000" font-family="sans-serif" font-size="12" lengthAdjust="spacing" textLength="55" x="942.75" y="199.1543">Applicant</text><line style="stroke:#A80036;stroke-width:1.5;" x1="823.5" x2="1084.5" y1="211" y2="211"/><ellipse cx="833.5" cy="222" rx="3" ry="3" style="stroke:#038048;stroke-width:1.0;fill:none;"/><text fill="#000000" font-family="sans-serif" font-size="11" lengthAdjust="spacing" textLength="98" x="842.5" y="225.2104">Firstname : string</text><ellipse cx="833.5" cy="234.8047" rx="3" ry="3" style="stroke:#038048;stroke-width:1.0;fill:none;"/><text fill="#000000" font-family="sans-serif" font-size="11" lengthAdjust="spacing" textLength="98" x="842.5" y="238.0151">Lastname : string</text><ellipse cx="833.5" cy="247.6094" rx="3" ry="3" style="stroke:#038048;stroke-width:1.0;fill:none;"/><text fill="#000000" font-family="sans-serif" font-size="11" lengthAdjust="spacing" textLength="73" x="842.5" y="250.8198">Email : string</text><ellipse cx="833.5" cy="260.4141" rx="3" ry="3" style="stroke:#038048;stroke-width:1.0;fill:none;"/><text fill="#000000" font-family="sans-serif" font-size="11" lengthAdjust="spacing" textLength="111" x="842.5" y="263.6245">Department : string</text><ellipse cx="833.5" cy="273.2188" rx="3" ry="3" style="stroke:#038048;stroke-width:1.0;fill:none;"/><text fill="#000000" font-family="sans-serif" font-size="11" lengthAdjust="spacing" textLength="237" x="842.5" y="276.4292">Grades : IReadOnlyDictionary&lt;string, int&gt;</text><line style="stroke:#A80036;stroke-width:1.0;" x1="823.5" x2="1084.5" y1="283.0234" y2="283.0234"/><polygon fill="#FFFF44" points="833.5,289.0234,837.5,293.0234,833.5,297.0234,829.5,293.0234" style="stroke:#B38D22;stroke-width:1.0;"/><text fill="#000000" font-family="sans-serif" font-size="11" lengthAdjust="spacing" textLength="146" x="842.5" y="297.2339">Applicant(Applicant other)</text><ellipse cx="833.5" cy="306.8281" fill="#84BE84" rx="3" ry="3" style="stroke:#038048;stroke-width:1.0;"/><text fill="#000000" font-family="sans-serif" font-size="11" lengthAdjust="spacing" textLength="226" x="842.5" y="310.0386">bool AddGrade(string subject, int value)</text><!--MD5=[2c44ce037e948b635b95c00e32b9ef4b]
class AcceptedApplicant--><rect codeLine="15" fill="#FEFECE" filter="url(#fscc2zey3sfoq)" height="73.6094" id="AcceptedApplicant" style="stroke:#A80036;stroke-width:1.5;" width="203" x="852.5" y="377"/><ellipse cx="893.6" cy="393" fill="#ADD1B2" rx="11" ry="11" style="stroke:#A80036;stroke-width:1.0;"/><path d="M895.9438,388.6719 C895.0063,388.2344 894.4125,388.0938 893.5375,388.0938 C890.9125,388.0938 888.9125,390.1719 888.9125,392.8906 L888.9125,394.0156 C888.9125,396.5938 891.0219,398.4844 893.9125,398.4844 C895.1313,398.4844 896.2875,398.1875 897.0375,397.6406 C897.6156,397.2344 897.9438,396.7813 897.9438,396.3906 C897.9438,395.9375 897.5531,395.5469 897.0844,395.5469 C896.8656,395.5469 896.6625,395.625 896.475,395.8125 C896.0219,396.2969 896.0219,396.2969 895.8344,396.3906 C895.4125,396.6563 894.725,396.7813 893.9594,396.7813 C891.9125,396.7813 890.6156,395.6875 890.6156,393.9844 L890.6156,392.8906 C890.6156,391.1094 891.8656,389.7969 893.6,389.7969 C894.1781,389.7969 894.7875,389.9531 895.2563,390.2031 C895.7406,390.4844 895.9125,390.7031 896.0063,391.1094 C896.0688,391.5156 896.1,391.6406 896.2406,391.7656 C896.3813,391.9063 896.6156,392.0156 896.8344,392.0156 C897.1,392.0156 897.3656,391.875 897.5375,391.6563 C897.6469,391.5 897.6781,391.3125 897.6781,390.8906 L897.6781,389.4688 C897.6781,389.0313 897.6625,388.9063 897.5688,388.75 C897.4125,388.4844 897.1313,388.3438 896.8344,388.3438 C896.5375,388.3438 896.3344,388.4375 896.1156,388.75 L895.9438,388.6719 Z " fill="#000000"/><text fill="#000000" font-family="sans-serif" font-size="12" lengthAdjust="spacing" textLength="113" x="913.4" y="397.1543">AcceptedApplicant</text><line style="stroke:#A80036;stroke-width:1.5;" x1="853.5" x2="1054.5" y1="409" y2="409"/><ellipse cx="863.5" cy="420" rx="3" ry="3" style="stroke:#038048;stroke-width:1.0;fill:none;"/><text fill="#000000" font-family="sans-serif" font-size="11" lengthAdjust="spacing" textLength="150" x="872.5" y="423.2104">DateAccepted : DateTime</text><line style="stroke:#A80036;stroke-width:1.0;" x1="853.5" x2="1054.5" y1="429.8047" y2="429.8047"/><ellipse cx="863.5" cy="440.8047" fill="#84BE84" rx="3" ry="3" style="stroke:#038048;stroke-width:1.0;"/><text fill="#000000" font-family="sans-serif" font-size="11" lengthAdjust="spacing" textLength="177" x="872.5" y="444.0151">AcceptedApplicant(Applicant a)</text><!--MD5=[c3a9ccd345cf2cc60bc0b27df3d774d3]
class RegistrationService--><rect codeLine="24" fill="#FEFECE" filter="url(#fscc2zey3sfoq)" height="112.0234" id="RegistrationService" style="stroke:#A80036;stroke-width:1.5;" width="469" x="543.5" y="7"/><ellipse cx="715.25" cy="23" fill="#ADD1B2" rx="11" ry="11" style="stroke:#A80036;stroke-width:1.0;"/><path d="M717.5938,18.6719 C716.6563,18.2344 716.0625,18.0938 715.1875,18.0938 C712.5625,18.0938 710.5625,20.1719 710.5625,22.8906 L710.5625,24.0156 C710.5625,26.5938 712.6719,28.4844 715.5625,28.4844 C716.7813,28.4844 717.9375,28.1875 718.6875,27.6406 C719.2656,27.2344 719.5938,26.7813 719.5938,26.3906 C719.5938,25.9375 719.2031,25.5469 718.7344,25.5469 C718.5156,25.5469 718.3125,25.625 718.125,25.8125 C717.6719,26.2969 717.6719,26.2969 717.4844,26.3906 C717.0625,26.6563 716.375,26.7813 715.6094,26.7813 C713.5625,26.7813 712.2656,25.6875 712.2656,23.9844 L712.2656,22.8906 C712.2656,21.1094 713.5156,19.7969 715.25,19.7969 C715.8281,19.7969 716.4375,19.9531 716.9063,20.2031 C717.3906,20.4844 717.5625,20.7031 717.6563,21.1094 C717.7188,21.5156 717.75,21.6406 717.8906,21.7656 C718.0313,21.9063 718.2656,22.0156 718.4844,22.0156 C718.75,22.0156 719.0156,21.875 719.1875,21.6563 C719.2969,21.5 719.3281,21.3125 719.3281,20.8906 L719.3281,19.4688 C719.3281,19.0313 719.3125,18.9063 719.2188,18.75 C719.0625,18.4844 718.7813,18.3438 718.4844,18.3438 C718.1875,18.3438 717.9844,18.4375 717.7656,18.75 L717.5938,18.6719 Z " fill="#000000"/><text fill="#000000" font-family="sans-serif" font-size="12" lengthAdjust="spacing" textLength="117" x="735.75" y="27.1543">RegistrationService</text><line style="stroke:#A80036;stroke-width:1.5;" x1="544.5" x2="1011.5" y1="39" y2="39"/><ellipse cx="554.5" cy="50" rx="3" ry="3" style="stroke:#038048;stroke-width:1.0;fill:none;"/><text fill="#000000" font-family="sans-serif" font-size="11" lengthAdjust="spacing" textLength="253" x="563.5" y="53.2104">Applicants : IReadOnlyCollection&lt;Applicant&gt;</text><line style="stroke:#A80036;stroke-width:1.0;" x1="544.5" x2="1011.5" y1="59.8047" y2="59.8047"/><ellipse cx="554.5" cy="70.8047" fill="#84BE84" rx="3" ry="3" style="stroke:#038048;stroke-width:1.0;"/><text fill="#000000" font-family="sans-serif" font-size="11" lengthAdjust="spacing" textLength="217" x="563.5" y="74.0151">bool AddApplicant(Applicant applicant)</text><ellipse cx="554.5" cy="83.6094" fill="#84BE84" rx="3" ry="3" style="stroke:#038048;stroke-width:1.0;"/><text fill="#000000" font-family="sans-serif" font-size="11" lengthAdjust="spacing" textLength="194" x="563.5" y="86.8198">bool AcceptApplicant(string email)</text><ellipse cx="554.5" cy="96.4141" fill="#84BE84" rx="3" ry="3" style="stroke:#038048;stroke-width:1.0;"/><text fill="#000000" font-family="sans-serif" font-size="11" lengthAdjust="spacing" textLength="215" x="563.5" y="99.6245">int CountAccepted(string department)</text><ellipse cx="554.5" cy="109.2188" fill="#84BE84" rx="3" ry="3" style="stroke:#038048;stroke-width:1.0;"/><text fill="#000000" font-family="sans-serif" font-size="11" lengthAdjust="spacing" textLength="443" x="563.5" y="112.4292">void RegisterGradeChecker(string department, IGradeChecker gradeChecker)</text><!--MD5=[1a2ce1d8e2a41bb47592be3607dd0e39]
class IGradeChecker--><rect codeLine="37" fill="#FEFECE" filter="url(#fscc2zey3sfoq)" height="52.8047" id="IGradeChecker" style="stroke:#A80036;stroke-width:1.5;" width="368" x="419" y="221.5"/><ellipse cx="554.25" cy="237.5" fill="#B4A7E5" rx="11" ry="11" style="stroke:#A80036;stroke-width:1.0;"/><path d="M555.2031,234.2813 L556.9219,234.2813 C557.3125,234.2813 557.5,234.25 557.625,234.1719 C557.8906,234.0156 558.0313,233.7344 558.0313,233.4375 C558.0313,233.1719 557.9219,232.9063 557.6875,232.7344 C557.5156,232.625 557.375,232.5938 556.9219,232.5938 L551.7813,232.5938 C551.3438,232.5938 551.2188,232.6094 551.0625,232.7031 C550.8125,232.8594 550.6563,233.1563 550.6563,233.4375 C550.6563,233.7188 550.7969,233.9688 551.0156,234.1406 C551.1719,234.25 551.3594,234.2813 551.7813,234.2813 L553.5,234.2813 L553.5,240.7969 L551.7813,240.7969 C551.3438,240.7969 551.2188,240.8125 551.0625,240.9219 C550.8125,241.0781 550.6563,241.3594 550.6563,241.6563 C550.6563,241.9063 550.7969,242.1719 551.0156,242.3281 C551.1719,242.4531 551.375,242.5 551.7813,242.5 L556.9219,242.5 C557.6719,242.5 558.0313,242.2188 558.0313,241.6563 C558.0313,241.375 557.9219,241.125 557.6875,240.9531 C557.5156,240.8281 557.375,240.7969 556.9219,240.7969 L555.2031,240.7969 L555.2031,234.2813 Z " fill="#000000"/><text fill="#000000" font-family="sans-serif" font-size="12" font-style="italic" lengthAdjust="spacing" textLength="89" x="574.75" y="241.6543">IGradeChecker</text><line style="stroke:#A80036;stroke-width:1.5;" x1="420" x2="786" y1="253.5" y2="253.5"/><text fill="#000000" font-family="sans-serif" font-size="11" lengthAdjust="spacing" textLength="356" x="425" y="267.7104">bool CanBeAccepted(IReadOnlyDictionary&lt;string, int&gt; grades)</text><!--MD5=[3becc39a0fba188c0f60f159f719a3d7]
class HtlGradeChecker--><rect codeLine="42" fill="#FEFECE" filter="url(#fscc2zey3sfoq)" height="52.8047" id="HtlGradeChecker" style="stroke:#A80036;stroke-width:1.5;" width="382" x="7" y="387.5"/><ellipse cx="142.25" cy="403.5" fill="#ADD1B2" rx="11" ry="11" style="stroke:#A80036;stroke-width:1.0;"/><path d="M144.5938,399.1719 C143.6563,398.7344 143.0625,398.5938 142.1875,398.5938 C139.5625,398.5938 137.5625,400.6719 137.5625,403.3906 L137.5625,404.5156 C137.5625,407.0938 139.6719,408.9844 142.5625,408.9844 C143.7813,408.9844 144.9375,408.6875 145.6875,408.1406 C146.2656,407.7344 146.5938,407.2813 146.5938,406.8906 C146.5938,406.4375 146.2031,406.0469 145.7344,406.0469 C145.5156,406.0469 145.3125,406.125 145.125,406.3125 C144.6719,406.7969 144.6719,406.7969 144.4844,406.8906 C144.0625,407.1563 143.375,407.2813 142.6094,407.2813 C140.5625,407.2813 139.2656,406.1875 139.2656,404.4844 L139.2656,403.3906 C139.2656,401.6094 140.5156,400.2969 142.25,400.2969 C142.8281,400.2969 143.4375,400.4531 143.9063,400.7031 C144.3906,400.9844 144.5625,401.2031 144.6563,401.6094 C144.7188,402.0156 144.75,402.1406 144.8906,402.2656 C145.0313,402.4063 145.2656,402.5156 145.4844,402.5156 C145.75,402.5156 146.0156,402.375 146.1875,402.1563 C146.2969,402 146.3281,401.8125 146.3281,401.3906 L146.3281,399.9688 C146.3281,399.5313 146.3125,399.4063 146.2188,399.25 C146.0625,398.9844 145.7813,398.8438 145.4844,398.8438 C145.1875,398.8438 144.9844,398.9375 144.7656,399.25 L144.5938,399.1719 Z " fill="#000000"/><text fill="#000000" font-family="sans-serif" font-size="12" lengthAdjust="spacing" textLength="103" x="162.75" y="407.6543">HtlGradeChecker</text><line style="stroke:#A80036;stroke-width:1.5;" x1="8" x2="388" y1="419.5" y2="419.5"/><ellipse cx="18" cy="430.5" fill="#84BE84" rx="3" ry="3" style="stroke:#038048;stroke-width:1.0;"/><text fill="#000000" font-family="sans-serif" font-size="11" lengthAdjust="spacing" textLength="356" x="27" y="433.7104">bool CanBeAccepted(IReadOnlyDictionary&lt;string, int&gt; grades)</text><!--MD5=[5af34436acb683494b924d5230ace4c6]
class FsGradeChecker--><rect codeLine="47" fill="#FEFECE" filter="url(#fscc2zey3sfoq)" height="52.8047" id="FsGradeChecker" style="stroke:#A80036;stroke-width:1.5;" width="382" x="424" y="387.5"/><ellipse cx="560.25" cy="403.5" fill="#ADD1B2" rx="11" ry="11" style="stroke:#A80036;stroke-width:1.0;"/><path d="M562.5938,399.1719 C561.6563,398.7344 561.0625,398.5938 560.1875,398.5938 C557.5625,398.5938 555.5625,400.6719 555.5625,403.3906 L555.5625,404.5156 C555.5625,407.0938 557.6719,408.9844 560.5625,408.9844 C561.7813,408.9844 562.9375,408.6875 563.6875,408.1406 C564.2656,407.7344 564.5938,407.2813 564.5938,406.8906 C564.5938,406.4375 564.2031,406.0469 563.7344,406.0469 C563.5156,406.0469 563.3125,406.125 563.125,406.3125 C562.6719,406.7969 562.6719,406.7969 562.4844,406.8906 C562.0625,407.1563 561.375,407.2813 560.6094,407.2813 C558.5625,407.2813 557.2656,406.1875 557.2656,404.4844 L557.2656,403.3906 C557.2656,401.6094 558.5156,400.2969 560.25,400.2969 C560.8281,400.2969 561.4375,400.4531 561.9063,400.7031 C562.3906,400.9844 562.5625,401.2031 562.6563,401.6094 C562.7188,402.0156 562.75,402.1406 562.8906,402.2656 C563.0313,402.4063 563.2656,402.5156 563.4844,402.5156 C563.75,402.5156 564.0156,402.375 564.1875,402.1563 C564.2969,402 564.3281,401.8125 564.3281,401.3906 L564.3281,399.9688 C564.3281,399.5313 564.3125,399.4063 564.2188,399.25 C564.0625,398.9844 563.7813,398.8438 563.4844,398.8438 C563.1875,398.8438 562.9844,398.9375 562.7656,399.25 L562.5938,399.1719 Z " fill="#000000"/><text fill="#000000" font-family="sans-serif" font-size="12" lengthAdjust="spacing" textLength="101" x="580.75" y="407.6543">FsGradeChecker</text><line style="stroke:#A80036;stroke-width:1.5;" x1="425" x2="805" y1="419.5" y2="419.5"/><ellipse cx="435" cy="430.5" fill="#84BE84" rx="3" ry="3" style="stroke:#038048;stroke-width:1.0;"/><text fill="#000000" font-family="sans-serif" font-size="11" lengthAdjust="spacing" textLength="356" x="444" y="433.7104">bool CanBeAccepted(IReadOnlyDictionary&lt;string, int&gt; grades)</text><!--MD5=[e78fb757dfce65169661bbd7076a3d3c]
reverse link Applicant to AcceptedApplicant--><path codeLine="22" d="M954,337.42 C954,351.2783 954,364.8905 954,376.6603 " fill="none" id="Applicant-backto-AcceptedApplicant" style="stroke:#A80036;stroke-width:1.0;"/><polygon fill="none" points="947,337.126,954,317.126,961,337.126,947,337.126" style="stroke:#A80036;stroke-width:1.0;"/><!--MD5=[6337ac33f421ec9a114745d5e9ca9d3c]
link RegistrationService to IGradeChecker--><path codeLine="34" d="M716.725,128.0754 C716.725,128.0754 659.017,188.423 636.642,211.82 " fill="none" id="RegistrationService-IGradeChecker" style="stroke:#A80036;stroke-width:1.0;"/><polygon fill="#A80036" points="627.556,221.321,636.6672,217.5813,631.0118,217.7075,630.8856,212.052,627.556,221.321" style="stroke:#A80036;stroke-width:1.0;"/><line style="stroke:#A80036;stroke-width:1.0;" x1="631.0118" x2="636.541" y1="217.7075" y2="211.9255"/><polygon fill="#FFFFFF" points="725.019,119.403,717.9812,120.9745,716.725,128.0754,723.7628,126.5038,725.019,119.403" style="stroke:#A80036;stroke-width:1.0;"/><!--MD5=[c0d2c1469e3dac9f9d9afaed1ab6f609]
link RegistrationService to Applicant--><path codeLine="35" d="M839.6012,128.0522 C839.6012,128.0522 866.193,155.7 879.126,169.148 " fill="none" id="RegistrationService-Applicant" style="stroke:#A80036;stroke-width:1.0;"/><polygon fill="#A80036" points="888.458,178.851,885.1024,169.5914,884.9921,175.2472,879.3363,175.1369,888.458,178.851" style="stroke:#A80036;stroke-width:1.0;"/><line style="stroke:#A80036;stroke-width:1.0;" x1="884.9921" x2="879.4465" y1="175.2472" y2="169.482"/><polygon fill="#FFFFFF" points="831.283,119.403,832.559,126.5003,839.6012,128.0522,838.3251,120.9549,831.283,119.403" style="stroke:#A80036;stroke-width:1.0;"/><!--MD5=[254c0c24f92609bb33729f127f1d9fc3]
reverse link IGradeChecker to HtlGradeChecker--><path codeLine="52" d="M521.033,282.192 C444.265,313.278 331.163,359.077 261.17,387.42 " fill="none" id="IGradeChecker-backto-HtlGradeChecker" style="stroke:#A80036;stroke-width:1.0;"/><polygon fill="none" points="518.554,275.643,539.719,274.625,523.808,288.62,518.554,275.643" style="stroke:#A80036;stroke-width:1.0;"/><!--MD5=[89e23fe0f2b40d9ed2ba2caa227b97c8]
reverse link IGradeChecker to FsGradeChecker--><path codeLine="53" d="M606.341,294.662 C608.529,324.558 611.307,362.5327 613.118,387.2849 " fill="none" id="IGradeChecker-backto-FsGradeChecker" style="stroke:#A80036;stroke-width:1.0;"/><polygon fill="none" points="599.353,295.083,604.875,274.625,613.316,294.061,599.353,295.083" style="stroke:#A80036;stroke-width:1.0;"/><!--MD5=[00acb2309b2ba1c2d3102187217fdea7]
@startuml
hide empty fields

class Applicant 
{
    +Firstname : string
    +Lastname : string
    +Email : string
    +Department : string
    +Grades : IReadOnlyDictionary<string, int>
    - - -
    #Applicant(Applicant other)
    +bool AddGrade(string subject, int value)
}

class AcceptedApplicant
{
    +DateAccepted : DateTime
    - - -
    +AcceptedApplicant(Applicant a)
}

AcceptedApplicant -up-|> Applicant

class RegistrationService
{
    +Applicants : IReadOnlyCollection<Applicant>
    - - -
    +bool AddApplicant(Applicant applicant)
    +bool AcceptApplicant(string email)
    +int CountAccepted(string department)
    +void RegisterGradeChecker(string department, IGradeChecker gradeChecker)
}

RegistrationService o- -> IGradeChecker
RegistrationService o- -> Applicant

interface IGradeChecker
{
     bool CanBeAccepted(IReadOnlyDictionary<string, int> grades)  
}

class HtlGradeChecker
{
    +bool CanBeAccepted(IReadOnlyDictionary<string, int> grades)  
}

class FsGradeChecker
{
    +bool CanBeAccepted(IReadOnlyDictionary<string, int> grades)  
}

HtlGradeChecker -up-|> IGradeChecker
FsGradeChecker -up-|> IGradeChecker
@enduml

PlantUML version 1.2021.13beta6(Unknown compile time)
(GPL source distribution)
Java Runtime: Java(TM) SE Runtime Environment
JVM: Java HotSpot(TM) 64-Bit Server VM
Default Encoding: UTF-8
Language: en
Country: US
--></g></svg>