<?xml version="1.0" encoding="UTF-8" standalone="no"?><svg xmlns="http://www.w3.org/2000/svg" xmlns:xlink="http://www.w3.org/1999/xlink" contentScriptType="application/ecmascript" contentStyleType="text/css" height="496px" preserveAspectRatio="none" style="width:928px;height:496px;background:#FFFFFF;" version="1.1" viewBox="0 0 928 496" width="928px" zoomAndPan="magnify"><defs><filter height="300%" id="fnk9neatq4inb" width="300%" x="-1" y="-1"><feGaussianBlur result="blurOut" stdDeviation="2.0"/><feColorMatrix in="blurOut" result="blurOut2" type="matrix" values="0 0 0 0 0 0 0 0 0 0 0 0 0 0 0 0 0 0 .4 0"/><feOffset dx="4.0" dy="4.0" in="blurOut2" result="blurOut3"/><feBlend in="SourceGraphic" in2="blurOut3" mode="normal"/></filter></defs><g><!--MD5=[3fd616f346a44cd59a91eb10b19e157c]
class User--><rect codeLine="3" fill="#FEFECE" filter="url(#fnk9neatq4inb)" height="112.0234" id="User" style="stroke:#A80036;stroke-width:1.5;" width="296" x="282" y="7"/><ellipse cx="411.25" cy="23" fill="#ADD1B2" rx="11" ry="11" style="stroke:#A80036;stroke-width:1.0;"/><path d="M413.5938,18.6719 C412.6563,18.2344 412.0625,18.0938 411.1875,18.0938 C408.5625,18.0938 406.5625,20.1719 406.5625,22.8906 L406.5625,24.0156 C406.5625,26.5938 408.6719,28.4844 411.5625,28.4844 C412.7813,28.4844 413.9375,28.1875 414.6875,27.6406 C415.2656,27.2344 415.5938,26.7813 415.5938,26.3906 C415.5938,25.9375 415.2031,25.5469 414.7344,25.5469 C414.5156,25.5469 414.3125,25.625 414.125,25.8125 C413.6719,26.2969 413.6719,26.2969 413.4844,26.3906 C413.0625,26.6563 412.375,26.7813 411.6094,26.7813 C409.5625,26.7813 408.2656,25.6875 408.2656,23.9844 L408.2656,22.8906 C408.2656,21.1094 409.5156,19.7969 411.25,19.7969 C411.8281,19.7969 412.4375,19.9531 412.9063,20.2031 C413.3906,20.4844 413.5625,20.7031 413.6563,21.1094 C413.7188,21.5156 413.75,21.6406 413.8906,21.7656 C414.0313,21.9063 414.2656,22.0156 414.4844,22.0156 C414.75,22.0156 415.0156,21.875 415.1875,21.6563 C415.2969,21.5 415.3281,21.3125 415.3281,20.8906 L415.3281,19.4688 C415.3281,19.0313 415.3125,18.9063 415.2188,18.75 C415.0625,18.4844 414.7813,18.3438 414.4844,18.3438 C414.1875,18.3438 413.9844,18.4375 413.7656,18.75 L413.5938,18.6719 Z " fill="#000000"/><text fill="#000000" font-family="sans-serif" font-size="12" lengthAdjust="spacing" textLength="29" x="431.75" y="27.1543">User</text><line style="stroke:#A80036;stroke-width:1.5;" x1="283" x2="577" y1="39" y2="39"/><ellipse cx="293" cy="50" rx="3" ry="3" style="stroke:#038048;stroke-width:1.0;fill:none;"/><text fill="#000000" font-family="sans-serif" font-size="11" lengthAdjust="spacing" textLength="101" x="302" y="53.2104">Username : string</text><ellipse cx="293" cy="62.8047" rx="3" ry="3" style="stroke:#038048;stroke-width:1.0;fill:none;"/><text fill="#000000" font-family="sans-serif" font-size="11" lengthAdjust="spacing" textLength="270" x="302" y="66.0151">CalendarItems :  IReadOnlyList&lt;CalendarItem&gt;</text><line style="stroke:#A80036;stroke-width:1.0;" x1="283" x2="577" y1="72.6094" y2="72.6094"/><ellipse cx="293" cy="83.6094" fill="#84BE84" rx="3" ry="3" style="stroke:#038048;stroke-width:1.0;"/><text fill="#000000" font-family="sans-serif" font-size="11" lengthAdjust="spacing" textLength="209" x="302" y="86.8198">bool TryAddItem(CalendarItem item)</text><ellipse cx="293" cy="96.4141" fill="#84BE84" rx="3" ry="3" style="stroke:#038048;stroke-width:1.0;"/><text fill="#000000" font-family="sans-serif" font-size="11" lengthAdjust="spacing" textLength="205" x="302" y="99.6245">void RemoveItem(PrivateItem item)</text><ellipse cx="293" cy="109.2188" fill="#84BE84" rx="3" ry="3" style="stroke:#038048;stroke-width:1.0;"/><text fill="#000000" font-family="sans-serif" font-size="11" lengthAdjust="spacing" textLength="219" x="302" y="112.4292">void CancelMeeting(Meeting meeting)</text><!--MD5=[77d3848261e203a5a2fe0e931c881151]
class CalendarItem--><rect codeLine="17" fill="#FEFECE" filter="url(#fnk9neatq4inb)" height="143.5703" id="CalendarItem" style="stroke:#A80036;stroke-width:1.5;" width="430" x="215" y="179"/><ellipse cx="385.25" cy="197.9688" fill="#A9DCDF" rx="11" ry="11" style="stroke:#A80036;stroke-width:1.0;"/><path d="M387.3281,199.7813 L387.7188,200.7656 L387.3281,200.7656 C386.875,200.7656 386.7656,200.7813 386.6094,200.8906 C386.3594,201.0469 386.2031,201.3281 386.2031,201.625 C386.2031,201.8906 386.3438,202.1406 386.5625,202.2969 C386.7031,202.4219 386.9063,202.4688 387.3281,202.4688 L389.6875,202.4688 C390.0469,202.4688 390.2656,202.4375 390.4063,202.3438 C390.6563,202.2031 390.8125,201.9063 390.8125,201.625 C390.8125,201.3438 390.6719,201.0938 390.4531,200.9375 C390.2813,200.7969 390.125,200.7656 389.6563,200.7656 L386.2656,192.5625 L382.5938,192.5625 C382.1406,192.5625 382.0156,192.5781 381.8594,192.6719 C381.6094,192.8438 381.4531,193.125 381.4531,193.4063 C381.4531,193.6875 381.5938,193.9375 381.8125,194.1094 C381.9844,194.2188 382.1563,194.25 382.5938,194.25 L383.6719,194.25 L381.0313,200.7656 C380.6094,200.7656 380.4531,200.7813 380.2969,200.8906 C380.0469,201.0469 379.8906,201.3281 379.8906,201.625 C379.8906,202.1875 380.2656,202.4688 381.0156,202.4688 L383.2813,202.4688 C383.6406,202.4688 383.8594,202.4375 383.9844,202.3438 C384.25,202.2031 384.3906,201.9063 384.3906,201.625 C384.3906,201.3438 384.2656,201.0938 384.0469,200.9219 C383.875,200.7969 383.7344,200.7656 383.2813,200.7656 L382.8906,200.7656 L383.2813,199.7813 L387.3281,199.7813 Z M386.625,198.0781 L383.9531,198.0781 L385.2969,194.8125 L386.625,198.0781 Z " fill="#000000"/><text fill="#000000" font-family="sans-serif" font-size="12" font-style="italic" lengthAdjust="spacing" textLength="64" x="414.25" y="195.1387">«abstract»</text><text fill="#000000" font-family="sans-serif" font-size="12" font-style="italic" lengthAdjust="spacing" textLength="81" x="405.75" y="209.1074">CalendarItem</text><line style="stroke:#A80036;stroke-width:1.5;" x1="216" x2="644" y1="216.9375" y2="216.9375"/><ellipse cx="226" cy="227.9375" rx="3" ry="3" style="stroke:#038048;stroke-width:1.0;fill:none;"/><text fill="#000000" font-family="sans-serif" font-size="11" lengthAdjust="spacing" textLength="74" x="235" y="231.1479">Owner : User</text><ellipse cx="226" cy="240.7422" rx="3" ry="3" style="stroke:#038048;stroke-width:1.0;fill:none;"/><text fill="#000000" font-family="sans-serif" font-size="11" lengthAdjust="spacing" textLength="67" x="235" y="243.9526">Title : string</text><ellipse cx="226" cy="253.5469" rx="3" ry="3" style="stroke:#038048;stroke-width:1.0;fill:none;"/><text fill="#000000" font-family="sans-serif" font-size="11" lengthAdjust="spacing" textLength="101" x="235" y="256.7573">Begin : DateTime</text><ellipse cx="226" cy="266.3516" rx="3" ry="3" style="stroke:#038048;stroke-width:1.0;fill:none;"/><text fill="#000000" font-family="sans-serif" font-size="11" lengthAdjust="spacing" textLength="89" x="235" y="269.562">End : DateTime</text><ellipse cx="226" cy="279.1563" rx="3" ry="3" style="stroke:#038048;stroke-width:1.0;fill:none;"/><text fill="#000000" font-family="sans-serif" font-size="11" lengthAdjust="spacing" textLength="112" x="235" y="282.3667">Description : string?</text><line style="stroke:#A80036;stroke-width:1.0;" x1="216" x2="644" y1="288.9609" y2="288.9609"/><ellipse cx="226" cy="299.9609" fill="#84BE84" rx="3" ry="3" style="stroke:#038048;stroke-width:1.0;"/><text fill="#000000" font-family="sans-serif" font-size="11" lengthAdjust="spacing" textLength="404" x="235" y="303.1714">CalendarItem(User owner, string title, DateTime begin, DateTime end)</text><ellipse cx="226" cy="312.7656" fill="#84BE84" rx="3" ry="3" style="stroke:#038048;stroke-width:1.0;"/><text fill="#000000" font-family="sans-serif" font-size="11" lengthAdjust="spacing" textLength="203" x="235" y="315.9761">bool IsCollision(CalendarItem other)</text><!--MD5=[37926b18e3539b5281fb48196d8a69cf]
class PrivateItem--><rect codeLine="30" fill="#FEFECE" filter="url(#fnk9neatq4inb)" height="60.8047" id="PrivateItem" style="stroke:#A80036;stroke-width:1.5;" width="418" x="7" y="402"/><ellipse cx="178.75" cy="418" fill="#ADD1B2" rx="11" ry="11" style="stroke:#A80036;stroke-width:1.0;"/><path d="M181.0938,413.6719 C180.1563,413.2344 179.5625,413.0938 178.6875,413.0938 C176.0625,413.0938 174.0625,415.1719 174.0625,417.8906 L174.0625,419.0156 C174.0625,421.5938 176.1719,423.4844 179.0625,423.4844 C180.2813,423.4844 181.4375,423.1875 182.1875,422.6406 C182.7656,422.2344 183.0938,421.7813 183.0938,421.3906 C183.0938,420.9375 182.7031,420.5469 182.2344,420.5469 C182.0156,420.5469 181.8125,420.625 181.625,420.8125 C181.1719,421.2969 181.1719,421.2969 180.9844,421.3906 C180.5625,421.6563 179.875,421.7813 179.1094,421.7813 C177.0625,421.7813 175.7656,420.6875 175.7656,418.9844 L175.7656,417.8906 C175.7656,416.1094 177.0156,414.7969 178.75,414.7969 C179.3281,414.7969 179.9375,414.9531 180.4063,415.2031 C180.8906,415.4844 181.0625,415.7031 181.1563,416.1094 C181.2188,416.5156 181.25,416.6406 181.3906,416.7656 C181.5313,416.9063 181.7656,417.0156 181.9844,417.0156 C182.25,417.0156 182.5156,416.875 182.6875,416.6563 C182.7969,416.5 182.8281,416.3125 182.8281,415.8906 L182.8281,414.4688 C182.8281,414.0313 182.8125,413.9063 182.7188,413.75 C182.5625,413.4844 182.2813,413.3438 181.9844,413.3438 C181.6875,413.3438 181.4844,413.4375 181.2656,413.75 L181.0938,413.6719 Z " fill="#000000"/><text fill="#000000" font-family="sans-serif" font-size="12" lengthAdjust="spacing" textLength="66" x="199.25" y="422.1543">PrivateItem</text><line style="stroke:#A80036;stroke-width:1.5;" x1="8" x2="424" y1="434" y2="434"/><line style="stroke:#A80036;stroke-width:1.0;" x1="8" x2="424" y1="442" y2="442"/><ellipse cx="18" cy="453" fill="#84BE84" rx="3" ry="3" style="stroke:#038048;stroke-width:1.0;"/><text fill="#000000" font-family="sans-serif" font-size="11" lengthAdjust="spacing" textLength="392" x="27" y="456.2104">PrivateItem(User owner, string title, DateTime begin, DateTime end)</text><!--MD5=[a78031611904abe1e5cbb3fd0b6ea028]
class Meeting--><rect codeLine="37" fill="#FEFECE" filter="url(#fnk9neatq4inb)" height="99.2188" id="Meeting" style="stroke:#A80036;stroke-width:1.5;" width="399" x="515.5" y="383"/><ellipse cx="686.75" cy="399" fill="#ADD1B2" rx="11" ry="11" style="stroke:#A80036;stroke-width:1.0;"/><path d="M689.0938,394.6719 C688.1563,394.2344 687.5625,394.0938 686.6875,394.0938 C684.0625,394.0938 682.0625,396.1719 682.0625,398.8906 L682.0625,400.0156 C682.0625,402.5938 684.1719,404.4844 687.0625,404.4844 C688.2813,404.4844 689.4375,404.1875 690.1875,403.6406 C690.7656,403.2344 691.0938,402.7813 691.0938,402.3906 C691.0938,401.9375 690.7031,401.5469 690.2344,401.5469 C690.0156,401.5469 689.8125,401.625 689.625,401.8125 C689.1719,402.2969 689.1719,402.2969 688.9844,402.3906 C688.5625,402.6563 687.875,402.7813 687.1094,402.7813 C685.0625,402.7813 683.7656,401.6875 683.7656,399.9844 L683.7656,398.8906 C683.7656,397.1094 685.0156,395.7969 686.75,395.7969 C687.3281,395.7969 687.9375,395.9531 688.4063,396.2031 C688.8906,396.4844 689.0625,396.7031 689.1563,397.1094 C689.2188,397.5156 689.25,397.6406 689.3906,397.7656 C689.5313,397.9063 689.7656,398.0156 689.9844,398.0156 C690.25,398.0156 690.5156,397.875 690.6875,397.6563 C690.7969,397.5 690.8281,397.3125 690.8281,396.8906 L690.8281,395.4688 C690.8281,395.0313 690.8125,394.9063 690.7188,394.75 C690.5625,394.4844 690.2813,394.3438 689.9844,394.3438 C689.6875,394.3438 689.4844,394.4375 689.2656,394.75 L689.0938,394.6719 Z " fill="#000000"/><text fill="#000000" font-family="sans-serif" font-size="12" lengthAdjust="spacing" textLength="48" x="707.25" y="403.1543">Meeting</text><line style="stroke:#A80036;stroke-width:1.5;" x1="516.5" x2="913.5" y1="415" y2="415"/><ellipse cx="526.5" cy="426" rx="3" ry="3" style="stroke:#038048;stroke-width:1.0;fill:none;"/><text fill="#000000" font-family="sans-serif" font-size="11" lengthAdjust="spacing" textLength="196" x="535.5" y="429.2104">Participants : IReadOnlyList&lt;User&gt;</text><line style="stroke:#A80036;stroke-width:1.0;" x1="516.5" x2="913.5" y1="435.8047" y2="435.8047"/><ellipse cx="526.5" cy="446.8047" fill="#84BE84" rx="3" ry="3" style="stroke:#038048;stroke-width:1.0;"/><text fill="#000000" font-family="sans-serif" font-size="11" lengthAdjust="spacing" textLength="373" x="535.5" y="450.0151">Meeting(User owner, string title, DateTime begin, DateTime end)</text><ellipse cx="526.5" cy="459.6094" fill="#84BE84" rx="3" ry="3" style="stroke:#038048;stroke-width:1.0;"/><text fill="#000000" font-family="sans-serif" font-size="11" lengthAdjust="spacing" textLength="146" x="535.5" y="462.8198">bool TryInvite(User other)</text><ellipse cx="526.5" cy="472.4141" fill="#84BE84" rx="3" ry="3" style="stroke:#038048;stroke-width:1.0;"/><text fill="#000000" font-family="sans-serif" font-size="11" lengthAdjust="spacing" textLength="197" x="535.5" y="475.6245">void RemoveParticipant(User user)</text><!--MD5=[58bec3159ec44a46a6b4cccbe26a4c55]
link User to CalendarItem--><path codeLine="13" d="M417.7136,131.0392 C417.7136,131.0392 417.171,154.497 417.3,165.755 " fill="none" id="User-CalendarItem" style="stroke:#A80036;stroke-width:1.0;"/><polygon fill="#A80036" points="417.568,178.853,421.3832,169.7731,417.4658,173.854,413.3849,169.9366,417.568,178.853" style="stroke:#A80036;stroke-width:1.0;"/><line style="stroke:#A80036;stroke-width:1.0;" x1="417.4658" x2="417.302" y1="173.854" y2="165.855"/><polygon fill="#FFFFFF" points="418.245,119.051,413.9832,124.868,417.7136,131.0392,421.9754,125.2223,418.245,119.051" style="stroke:#A80036;stroke-width:1.0;"/><!--MD5=[58bec3159ec44a46a6b4cccbe26a4c55]
link User to CalendarItem--><path codeLine="28" d="M443.061,132.13 C443.456,143.066 443.4228,166.8558 443.4228,166.8558 " fill="none" id="User-CalendarItem-1" style="stroke:#A80036;stroke-width:1.0;"/><polygon fill="#FFFFFF" points="443.163,178.853,447.292,172.941,443.4228,166.8558,439.2938,172.7678,443.163,178.853" style="stroke:#A80036;stroke-width:1.0;"/><polygon fill="#A80036" points="442.447,119.051,438.8737,128.2288,442.6816,124.0455,446.8649,127.8534,442.447,119.051" style="stroke:#A80036;stroke-width:1.0;"/><line style="stroke:#A80036;stroke-width:1.0;" x1="442.6816" x2="443.057" y1="124.0455" y2="132.0365"/><!--MD5=[16e0e860e2f68e9170136f84b7562280]
link User to PrivateItem--><path codeLine="14" d="M281.979,106.855 C248.397,123.793 216.826,147.106 197,179 C154.845,246.816 182.076,345.515 201.452,397.1303 " fill="none" id="User-to-PrivateItem" style="stroke:#A80036;stroke-width:1.0;"/><polygon fill="#A80036" points="203.3,401.9757,203.8298,392.1411,201.518,397.304,196.3551,394.9922,203.3,401.9757" style="stroke:#A80036;stroke-width:1.0;"/><!--MD5=[a7f2536356ea0e746aa343948fb860cc]
link User to Meeting--><path codeLine="15" d="M573.169,119.007 C600.221,134.669 625.944,154.383 645,179 C689.358,236.302 698.818,322.021 704.063,377.354 " fill="none" id="User-to-Meeting" style="stroke:#A80036;stroke-width:1.0;"/><polygon fill="#A80036" points="704.559,382.6125,707.6954,373.2764,704.0891,377.6346,699.7308,374.0283,704.559,382.6125" style="stroke:#A80036;stroke-width:1.0;"/><!--MD5=[a7f2536356ea0e746aa343948fb860cc]
link User to Meeting--><path codeLine="46" d="M590.236,109.897 C624.419,126.809 657.046,149.347 680,179 C722.301,233.645 730.5712,370.6347 730.5712,370.6347 " fill="none" id="User-Meeting" style="stroke:#A80036;stroke-width:1.0;"/><polygon fill="#FFFFFF" points="729.842,382.6125,734.1992,376.8667,730.5712,370.6347,726.214,376.3805,729.842,382.6125" style="stroke:#A80036;stroke-width:1.0;"/><polygon fill="#A80036" points="578.094,104.147,584.5157,111.6144,582.6128,106.2872,587.94,104.3843,578.094,104.147" style="stroke:#A80036;stroke-width:1.0;"/><line style="stroke:#A80036;stroke-width:1.0;" x1="582.6128" x2="589.8435" y1="106.2872" y2="109.711"/><!--MD5=[607f9f760979fc58dcc022ac42330262]
reverse link CalendarItem to PrivateItem--><path codeLine="35" d="M329.637,336.183 C301.575,359.721 272.903,383.7709 251.379,401.8246 " fill="none" id="CalendarItem-backto-PrivateItem" style="stroke:#A80036;stroke-width:1.0;"/><polygon fill="none" points="325.292,330.691,345.114,323.201,334.289,341.417,325.292,330.691" style="stroke:#A80036;stroke-width:1.0;"/><!--MD5=[3b9026946959258c3b1941c2c8d6398e]
reverse link CalendarItem to Meeting--><path codeLine="45" d="M560.298,334.065 C586.728,350.711 613.722,367.713 637.608,382.7564 " fill="none" id="CalendarItem-backto-Meeting" style="stroke:#A80036;stroke-width:1.0;"/><polygon fill="none" points="556.242,339.783,543.049,323.201,563.703,327.937,556.242,339.783" style="stroke:#A80036;stroke-width:1.0;"/><!--MD5=[e702b3f5bcda57c40b89fd69b331757e]
@startuml
hide empty methods
hide empty fields
class User
{
    +Username : string
    +CalendarItems :  IReadOnlyList<CalendarItem>
    - - -
    +bool TryAddItem(CalendarItem item)
    +void RemoveItem(PrivateItem item)
    +void CancelMeeting(Meeting meeting)
}

User o- -> CalendarItem
User -down- -> PrivateItem
User -down- -> Meeting

abstract class CalendarItem<<abstract>>
{
    +Owner : User
    +Title : string
    +Begin : DateTime
    +End : DateTime
    +Description : string?
    - - -
    +CalendarItem(User owner, string title, DateTime begin, DateTime end)
    +bool IsCollision(CalendarItem other) 
}
CalendarItem o-up-> User

class PrivateItem
{
    - - -
    +PrivateItem(User owner, string title, DateTime begin, DateTime end)
}
PrivateItem -up-|> CalendarItem

class Meeting
{
    +Participants : IReadOnlyList<User>
    - - -
    +Meeting(User owner, string title, DateTime begin, DateTime end)
    +bool TryInvite(User other)
    +void RemoveParticipant(User user)
}
Meeting -up-|> CalendarItem
Meeting o-up-> User
@enduml

PlantUML version 1.2021.13beta6(Unknown compile time)
(GPL source distribution)
Java Runtime: Java(TM) SE Runtime Environment
JVM: Java HotSpot(TM) 64-Bit Server VM
Default Encoding: UTF-8
Language: en
Country: US
--></g></svg>