<?xml version="1.0" encoding="UTF-8" standalone="no"?><svg xmlns="http://www.w3.org/2000/svg" xmlns:xlink="http://www.w3.org/1999/xlink" contentScriptType="application/ecmascript" contentStyleType="text/css" height="1005px" preserveAspectRatio="none" style="width:909px;height:1005px;background:#FFFFFF;" version="1.1" viewBox="0 0 909 1005" width="909px" zoomAndPan="magnify"><defs><filter height="300%" id="fe2um5o80f19x" width="300%" x="-1" y="-1"><feGaussianBlur result="blurOut" stdDeviation="2.0"/><feColorMatrix in="blurOut" result="blurOut2" type="matrix" values="0 0 0 0 0 0 0 0 0 0 0 0 0 0 0 0 0 0 .4 0"/><feOffset dx="4.0" dy="4.0" in="blurOut2" result="blurOut3"/><feBlend in="SourceGraphic" in2="blurOut3" mode="normal"/></filter></defs><g><!--MD5=[b4d3d50c0abf08df45181fececb9f04d]
class Store--><rect codeLine="2" fill="#FEFECE" filter="url(#fe2um5o80f19x)" height="52.8047" id="Store" style="stroke:#A80036;stroke-width:1.5;" width="102" x="33" y="756"/><ellipse cx="64.65" cy="772" fill="#ADD1B2" rx="11" ry="11" style="stroke:#A80036;stroke-width:1.0;"/><path d="M66.9938,767.6719 C66.0563,767.2344 65.4625,767.0938 64.5875,767.0938 C61.9625,767.0938 59.9625,769.1719 59.9625,771.8906 L59.9625,773.0156 C59.9625,775.5938 62.0719,777.4844 64.9625,777.4844 C66.1813,777.4844 67.3375,777.1875 68.0875,776.6406 C68.6656,776.2344 68.9938,775.7813 68.9938,775.3906 C68.9938,774.9375 68.6031,774.5469 68.1344,774.5469 C67.9156,774.5469 67.7125,774.625 67.525,774.8125 C67.0719,775.2969 67.0719,775.2969 66.8844,775.3906 C66.4625,775.6563 65.775,775.7813 65.0094,775.7813 C62.9625,775.7813 61.6656,774.6875 61.6656,772.9844 L61.6656,771.8906 C61.6656,770.1094 62.9156,768.7969 64.65,768.7969 C65.2281,768.7969 65.8375,768.9531 66.3063,769.2031 C66.7906,769.4844 66.9625,769.7031 67.0563,770.1094 C67.1188,770.5156 67.15,770.6406 67.2906,770.7656 C67.4313,770.9063 67.6656,771.0156 67.8844,771.0156 C68.15,771.0156 68.4156,770.875 68.5875,770.6563 C68.6969,770.5 68.7281,770.3125 68.7281,769.8906 L68.7281,768.4688 C68.7281,768.0313 68.7125,767.9063 68.6188,767.75 C68.4625,767.4844 68.1813,767.3438 67.8844,767.3438 C67.5875,767.3438 67.3844,767.4375 67.1656,767.75 L66.9938,767.6719 Z " fill="#000000"/><text fill="#000000" font-family="sans-serif" font-size="12" lengthAdjust="spacing" textLength="33" x="82.35" y="776.1543">Store</text><line style="stroke:#A80036;stroke-width:1.5;" x1="34" x2="134" y1="788" y2="788"/><ellipse cx="44" cy="799" rx="3" ry="3" style="stroke:#038048;stroke-width:1.0;fill:none;"/><text fill="#000000" font-family="sans-serif" font-size="11" lengthAdjust="spacing" textLength="76" x="53" y="802.2104">Name : string</text><!--MD5=[af8ed831b3fe9dbd380fec6c597723ab]
class Offer--><rect codeLine="6" fill="#FEFECE" filter="url(#fe2um5o80f19x)" height="112.0234" id="Offer" style="stroke:#A80036;stroke-width:1.5;" width="434" x="7" y="548"/><ellipse cx="204.25" cy="564" fill="#ADD1B2" rx="11" ry="11" style="stroke:#A80036;stroke-width:1.0;"/><path d="M206.5938,559.6719 C205.6563,559.2344 205.0625,559.0938 204.1875,559.0938 C201.5625,559.0938 199.5625,561.1719 199.5625,563.8906 L199.5625,565.0156 C199.5625,567.5938 201.6719,569.4844 204.5625,569.4844 C205.7813,569.4844 206.9375,569.1875 207.6875,568.6406 C208.2656,568.2344 208.5938,567.7813 208.5938,567.3906 C208.5938,566.9375 208.2031,566.5469 207.7344,566.5469 C207.5156,566.5469 207.3125,566.625 207.125,566.8125 C206.6719,567.2969 206.6719,567.2969 206.4844,567.3906 C206.0625,567.6563 205.375,567.7813 204.6094,567.7813 C202.5625,567.7813 201.2656,566.6875 201.2656,564.9844 L201.2656,563.8906 C201.2656,562.1094 202.5156,560.7969 204.25,560.7969 C204.8281,560.7969 205.4375,560.9531 205.9063,561.2031 C206.3906,561.4844 206.5625,561.7031 206.6563,562.1094 C206.7188,562.5156 206.75,562.6406 206.8906,562.7656 C207.0313,562.9063 207.2656,563.0156 207.4844,563.0156 C207.75,563.0156 208.0156,562.875 208.1875,562.6563 C208.2969,562.5 208.3281,562.3125 208.3281,561.8906 L208.3281,560.4688 C208.3281,560.0313 208.3125,559.9063 208.2188,559.75 C208.0625,559.4844 207.7813,559.3438 207.4844,559.3438 C207.1875,559.3438 206.9844,559.4375 206.7656,559.75 L206.5938,559.6719 Z " fill="#000000"/><text fill="#000000" font-family="sans-serif" font-size="12" lengthAdjust="spacing" textLength="31" x="224.75" y="568.1543">Offer</text><line style="stroke:#A80036;stroke-width:1.5;" x1="8" x2="440" y1="580" y2="580"/><ellipse cx="18" cy="591" rx="3" ry="3" style="stroke:#038048;stroke-width:1.0;fill:none;"/><text fill="#000000" font-family="sans-serif" font-size="11" lengthAdjust="spacing" textLength="93" x="27" y="594.2104">Product : Product</text><ellipse cx="18" cy="603.8047" rx="3" ry="3" style="stroke:#038048;stroke-width:1.0;fill:none;"/><text fill="#000000" font-family="sans-serif" font-size="11" lengthAdjust="spacing" textLength="73" x="27" y="607.0151">Store : Store</text><ellipse cx="18" cy="616.6094" rx="3" ry="3" style="stroke:#038048;stroke-width:1.0;fill:none;"/><text fill="#000000" font-family="sans-serif" font-size="11" lengthAdjust="spacing" textLength="83" x="27" y="619.8198">Price : decimal</text><ellipse cx="18" cy="629.4141" rx="3" ry="3" style="stroke:#038048;stroke-width:1.0;fill:none;"/><text fill="#000000" font-family="sans-serif" font-size="11" lengthAdjust="spacing" textLength="132" x="27" y="632.6245">LastUpdate : DateTime</text><line style="stroke:#A80036;stroke-width:1.0;" x1="8" x2="440" y1="639.2188" y2="639.2188"/><ellipse cx="18" cy="650.2188" fill="#84BE84" rx="3" ry="3" style="stroke:#038048;stroke-width:1.0;"/><text fill="#000000" font-family="sans-serif" font-size="11" lengthAdjust="spacing" textLength="408" x="27" y="653.4292">Offer(Product product, Store store, decimal price, DateTime lastUpdate)</text><!--MD5=[72136138052d025cffdce3c22fbd185f]
class Product--><rect codeLine="24" fill="#FEFECE" filter="url(#fe2um5o80f19x)" height="124.8281" id="Product" style="stroke:#A80036;stroke-width:1.5;" width="388" x="170" y="720"/><ellipse cx="337.25" cy="736" fill="#ADD1B2" rx="11" ry="11" style="stroke:#A80036;stroke-width:1.0;"/><path d="M339.5938,731.6719 C338.6563,731.2344 338.0625,731.0938 337.1875,731.0938 C334.5625,731.0938 332.5625,733.1719 332.5625,735.8906 L332.5625,737.0156 C332.5625,739.5938 334.6719,741.4844 337.5625,741.4844 C338.7813,741.4844 339.9375,741.1875 340.6875,740.6406 C341.2656,740.2344 341.5938,739.7813 341.5938,739.3906 C341.5938,738.9375 341.2031,738.5469 340.7344,738.5469 C340.5156,738.5469 340.3125,738.625 340.125,738.8125 C339.6719,739.2969 339.6719,739.2969 339.4844,739.3906 C339.0625,739.6563 338.375,739.7813 337.6094,739.7813 C335.5625,739.7813 334.2656,738.6875 334.2656,736.9844 L334.2656,735.8906 C334.2656,734.1094 335.5156,732.7969 337.25,732.7969 C337.8281,732.7969 338.4375,732.9531 338.9063,733.2031 C339.3906,733.4844 339.5625,733.7031 339.6563,734.1094 C339.7188,734.5156 339.75,734.6406 339.8906,734.7656 C340.0313,734.9063 340.2656,735.0156 340.4844,735.0156 C340.75,735.0156 341.0156,734.875 341.1875,734.6563 C341.2969,734.5 341.3281,734.3125 341.3281,733.8906 L341.3281,732.4688 C341.3281,732.0313 341.3125,731.9063 341.2188,731.75 C341.0625,731.4844 340.7813,731.3438 340.4844,731.3438 C340.1875,731.3438 339.9844,731.4375 339.7656,731.75 L339.5938,731.6719 Z " fill="#000000"/><text fill="#000000" font-family="sans-serif" font-size="12" lengthAdjust="spacing" textLength="45" x="357.75" y="740.1543">Product</text><line style="stroke:#A80036;stroke-width:1.5;" x1="171" x2="557" y1="752" y2="752"/><ellipse cx="181" cy="763" rx="3" ry="3" style="stroke:#038048;stroke-width:1.0;fill:none;"/><text fill="#000000" font-family="sans-serif" font-size="11" lengthAdjust="spacing" textLength="103" x="190" y="766.2104">Ean : int «unique»</text><ellipse cx="181" cy="775.8047" rx="3" ry="3" style="stroke:#038048;stroke-width:1.0;fill:none;"/><text fill="#000000" font-family="sans-serif" font-size="11" lengthAdjust="spacing" textLength="76" x="190" y="779.0151">Name : string</text><ellipse cx="181" cy="788.6094" rx="3" ry="3" style="stroke:#038048;stroke-width:1.0;fill:none;"/><text fill="#000000" font-family="sans-serif" font-size="11" lengthAdjust="spacing" textLength="197" x="190" y="791.8198">ProductCategory : ProductCategory</text><ellipse cx="181" cy="801.4141" rx="3" ry="3" style="stroke:#038048;stroke-width:1.0;fill:none;"/><text fill="#000000" font-family="sans-serif" font-size="11" lengthAdjust="spacing" textLength="152" x="190" y="804.6245">Offers : ICollection&lt;Offer&gt;</text><line style="stroke:#A80036;stroke-width:1.0;" x1="171" x2="557" y1="811.2188" y2="811.2188"/><ellipse cx="181" cy="822.2188" fill="#84BE84" rx="3" ry="3" style="stroke:#038048;stroke-width:1.0;"/><text fill="#000000" font-family="sans-serif" font-size="11" lengthAdjust="spacing" textLength="362" x="190" y="825.4292">Product(int ean, string name, ProductCategory productCategory)</text><ellipse cx="181" cy="835.0234" fill="#84BE84" rx="3" ry="3" style="stroke:#038048;stroke-width:1.0;"/><text fill="#000000" font-family="sans-serif" font-size="11" lengthAdjust="spacing" textLength="137" x="190" y="838.2339">CalculateAveragePrice()</text><!--MD5=[a1db4bf20df23ac2cd9366d22a9e2860]
class ProductCategory--><rect codeLine="17" fill="#FEFECE" filter="url(#fe2um5o80f19x)" height="86.4141" id="ProductCategory" style="stroke:#A80036;stroke-width:1.5;" width="195" x="266.5" y="905"/><ellipse cx="309.85" cy="921" fill="#ADD1B2" rx="11" ry="11" style="stroke:#A80036;stroke-width:1.0;"/><path d="M312.1938,916.6719 C311.2563,916.2344 310.6625,916.0938 309.7875,916.0938 C307.1625,916.0938 305.1625,918.1719 305.1625,920.8906 L305.1625,922.0156 C305.1625,924.5938 307.2719,926.4844 310.1625,926.4844 C311.3813,926.4844 312.5375,926.1875 313.2875,925.6406 C313.8656,925.2344 314.1938,924.7813 314.1938,924.3906 C314.1938,923.9375 313.8031,923.5469 313.3344,923.5469 C313.1156,923.5469 312.9125,923.625 312.725,923.8125 C312.2719,924.2969 312.2719,924.2969 312.0844,924.3906 C311.6625,924.6563 310.975,924.7813 310.2094,924.7813 C308.1625,924.7813 306.8656,923.6875 306.8656,921.9844 L306.8656,920.8906 C306.8656,919.1094 308.1156,917.7969 309.85,917.7969 C310.4281,917.7969 311.0375,917.9531 311.5063,918.2031 C311.9906,918.4844 312.1625,918.7031 312.2563,919.1094 C312.3188,919.5156 312.35,919.6406 312.4906,919.7656 C312.6313,919.9063 312.8656,920.0156 313.0844,920.0156 C313.35,920.0156 313.6156,919.875 313.7875,919.6563 C313.8969,919.5 313.9281,919.3125 313.9281,918.8906 L313.9281,917.4688 C313.9281,917.0313 313.9125,916.9063 313.8188,916.75 C313.6625,916.4844 313.3813,916.3438 313.0844,916.3438 C312.7875,916.3438 312.5844,916.4375 312.3656,916.75 L312.1938,916.6719 Z " fill="#000000"/><text fill="#000000" font-family="sans-serif" font-size="12" lengthAdjust="spacing" textLength="100" x="330.15" y="925.1543">ProductCategory</text><line style="stroke:#A80036;stroke-width:1.5;" x1="267.5" x2="460.5" y1="937" y2="937"/><ellipse cx="277.5" cy="948" rx="3" ry="3" style="stroke:#038048;stroke-width:1.0;fill:none;"/><text fill="#000000" font-family="sans-serif" font-size="11" lengthAdjust="spacing" textLength="76" x="286.5" y="951.2104">Name : string</text><ellipse cx="277.5" cy="960.8047" rx="3" ry="3" style="stroke:#038048;stroke-width:1.0;fill:none;"/><text fill="#000000" font-family="sans-serif" font-size="11" lengthAdjust="spacing" textLength="96" x="286.5" y="964.0151">NameEn : string?</text><line style="stroke:#A80036;stroke-width:1.0;" x1="267.5" x2="460.5" y1="970.6094" y2="970.6094"/><ellipse cx="277.5" cy="981.6094" fill="#84BE84" rx="3" ry="3" style="stroke:#038048;stroke-width:1.0;"/><text fill="#000000" font-family="sans-serif" font-size="11" lengthAdjust="spacing" textLength="169" x="286.5" y="984.8198">ProductCategory(string name)</text><!--MD5=[0f39e4cb6f03951afbf6d14bd2505654]
class Address--><rect codeLine="35" fill="#FEFECE" filter="url(#fe2um5o80f19x)" height="84.3516" id="Address" style="stroke:#A80036;stroke-width:1.5;" width="115" x="625.5" y="228"/><ellipse cx="640.5" cy="246.9688" fill="#ADD1B2" rx="11" ry="11" style="stroke:#A80036;stroke-width:1.0;"/><path d="M642.8438,242.6406 C641.9063,242.2031 641.3125,242.0625 640.4375,242.0625 C637.8125,242.0625 635.8125,244.1406 635.8125,246.8594 L635.8125,247.9844 C635.8125,250.5625 637.9219,252.4531 640.8125,252.4531 C642.0313,252.4531 643.1875,252.1563 643.9375,251.6094 C644.5156,251.2031 644.8438,250.75 644.8438,250.3594 C644.8438,249.9063 644.4531,249.5156 643.9844,249.5156 C643.7656,249.5156 643.5625,249.5938 643.375,249.7813 C642.9219,250.2656 642.9219,250.2656 642.7344,250.3594 C642.3125,250.625 641.625,250.75 640.8594,250.75 C638.8125,250.75 637.5156,249.6563 637.5156,247.9531 L637.5156,246.8594 C637.5156,245.0781 638.7656,243.7656 640.5,243.7656 C641.0781,243.7656 641.6875,243.9219 642.1563,244.1719 C642.6406,244.4531 642.8125,244.6719 642.9063,245.0781 C642.9688,245.4844 643,245.6094 643.1406,245.7344 C643.2813,245.875 643.5156,245.9844 643.7344,245.9844 C644,245.9844 644.2656,245.8438 644.4375,245.625 C644.5469,245.4688 644.5781,245.2813 644.5781,244.8594 L644.5781,243.4375 C644.5781,243 644.5625,242.875 644.4688,242.7188 C644.3125,242.4531 644.0313,242.3125 643.7344,242.3125 C643.4375,242.3125 643.2344,242.4063 643.0156,242.7188 L642.8438,242.6406 Z " fill="#000000"/><text fill="#000000" font-family="sans-serif" font-size="12" font-style="italic" lengthAdjust="spacing" textLength="87" x="652.5" y="244.1387">«value object»</text><text fill="#000000" font-family="sans-serif" font-size="12" lengthAdjust="spacing" textLength="51" x="670.5" y="258.1074">Address</text><line style="stroke:#A80036;stroke-width:1.5;" x1="626.5" x2="739.5" y1="265.9375" y2="265.9375"/><ellipse cx="636.5" cy="276.9375" rx="3" ry="3" style="stroke:#038048;stroke-width:1.0;fill:none;"/><text fill="#000000" font-family="sans-serif" font-size="11" lengthAdjust="spacing" textLength="78" x="645.5" y="280.1479">Street : string</text><ellipse cx="636.5" cy="289.7422" rx="3" ry="3" style="stroke:#038048;stroke-width:1.0;fill:none;"/><text fill="#000000" font-family="sans-serif" font-size="11" lengthAdjust="spacing" textLength="60" x="645.5" y="292.9526">Zip : string</text><ellipse cx="636.5" cy="302.5469" rx="3" ry="3" style="stroke:#038048;stroke-width:1.0;fill:none;"/><text fill="#000000" font-family="sans-serif" font-size="11" lengthAdjust="spacing" textLength="64" x="645.5" y="305.7573">City : string</text><!--MD5=[2ce0c9fb7f55b1e256ab28a8ea6b25ec]
class Customer--><rect codeLine="40" fill="#FEFECE" filter="url(#fe2um5o80f19x)" height="143.5703" id="Customer" style="stroke:#A80036;stroke-width:1.5;" width="375" x="373.5" y="7"/><ellipse cx="520.25" cy="25.9688" fill="#ADD1B2" rx="11" ry="11" style="stroke:#A80036;stroke-width:1.0;"/><path d="M522.5938,21.6406 C521.6563,21.2031 521.0625,21.0625 520.1875,21.0625 C517.5625,21.0625 515.5625,23.1406 515.5625,25.8594 L515.5625,26.9844 C515.5625,29.5625 517.6719,31.4531 520.5625,31.4531 C521.7813,31.4531 522.9375,31.1563 523.6875,30.6094 C524.2656,30.2031 524.5938,29.75 524.5938,29.3594 C524.5938,28.9063 524.2031,28.5156 523.7344,28.5156 C523.5156,28.5156 523.3125,28.5938 523.125,28.7813 C522.6719,29.2656 522.6719,29.2656 522.4844,29.3594 C522.0625,29.625 521.375,29.75 520.6094,29.75 C518.5625,29.75 517.2656,28.6563 517.2656,26.9531 L517.2656,25.8594 C517.2656,24.0781 518.5156,22.7656 520.25,22.7656 C520.8281,22.7656 521.4375,22.9219 521.9063,23.1719 C522.3906,23.4531 522.5625,23.6719 522.6563,24.0781 C522.7188,24.4844 522.75,24.6094 522.8906,24.7344 C523.0313,24.875 523.2656,24.9844 523.4844,24.9844 C523.75,24.9844 524.0156,24.8438 524.1875,24.625 C524.2969,24.4688 524.3281,24.2813 524.3281,23.8594 L524.3281,22.4375 C524.3281,22 524.3125,21.875 524.2188,21.7188 C524.0625,21.4531 523.7813,21.3125 523.4844,21.3125 C523.1875,21.3125 522.9844,21.4063 522.7656,21.7188 L522.5938,21.6406 Z " fill="#000000"/><text fill="#000000" font-family="sans-serif" font-size="12" font-style="italic" lengthAdjust="spacing" textLength="77" x="538.75" y="23.1387">«Aggregate»</text><text fill="#000000" font-family="sans-serif" font-size="12" lengthAdjust="spacing" textLength="58" x="548.25" y="37.1074">Customer</text><line style="stroke:#A80036;stroke-width:1.5;" x1="374.5" x2="747.5" y1="44.9375" y2="44.9375"/><ellipse cx="384.5" cy="55.9375" rx="3" ry="3" style="stroke:#038048;stroke-width:1.0;fill:none;"/><text fill="#000000" font-family="sans-serif" font-size="11" lengthAdjust="spacing" textLength="98" x="393.5" y="59.1479">Firstname : string</text><ellipse cx="384.5" cy="68.7422" rx="3" ry="3" style="stroke:#038048;stroke-width:1.0;fill:none;"/><text fill="#000000" font-family="sans-serif" font-size="11" lengthAdjust="spacing" textLength="98" x="393.5" y="71.9526">Lastname : string</text><ellipse cx="384.5" cy="81.5469" rx="3" ry="3" style="stroke:#038048;stroke-width:1.0;fill:none;"/><text fill="#000000" font-family="sans-serif" font-size="11" lengthAdjust="spacing" textLength="103" x="393.5" y="84.7573">Address : Address</text><ellipse cx="384.5" cy="94.3516" rx="3" ry="3" style="stroke:#038048;stroke-width:1.0;fill:none;"/><text fill="#000000" font-family="sans-serif" font-size="11" lengthAdjust="spacing" textLength="213" x="393.5" y="97.562">Orders : IReadOnlyCollection&lt;Order&gt;</text><line style="stroke:#A80036;stroke-width:1.0;" x1="374.5" x2="747.5" y1="104.1563" y2="104.1563"/><ellipse cx="384.5" cy="115.1563" fill="#84BE84" rx="3" ry="3" style="stroke:#038048;stroke-width:1.0;"/><text fill="#000000" font-family="sans-serif" font-size="11" lengthAdjust="spacing" textLength="349" x="393.5" y="118.3667">Customer(string firstname, string lastname, Address address)</text><ellipse cx="384.5" cy="127.9609" fill="#84BE84" rx="3" ry="3" style="stroke:#038048;stroke-width:1.0;"/><text fill="#000000" font-family="sans-serif" font-size="11" lengthAdjust="spacing" textLength="150" x="393.5" y="131.1714">ConfirmOrder(Order order)</text><ellipse cx="384.5" cy="140.7656" fill="#84BE84" rx="3" ry="3" style="stroke:#038048;stroke-width:1.0;"/><text fill="#000000" font-family="sans-serif" font-size="11" lengthAdjust="spacing" textLength="136" x="393.5" y="143.9761">PlaceOrder(Order order)</text><!--MD5=[cf4d6237fcae255cd2e1656cf84a30e2]
class Order--><rect codeLine="53" fill="#FEFECE" filter="url(#fe2um5o80f19x)" height="117.9609" id="Order" style="stroke:#A80036;stroke-width:1.5;" width="303" x="287.5" y="211"/><ellipse cx="398.25" cy="229.9688" fill="#ADD1B2" rx="11" ry="11" style="stroke:#A80036;stroke-width:1.0;"/><path d="M400.5938,225.6406 C399.6563,225.2031 399.0625,225.0625 398.1875,225.0625 C395.5625,225.0625 393.5625,227.1406 393.5625,229.8594 L393.5625,230.9844 C393.5625,233.5625 395.6719,235.4531 398.5625,235.4531 C399.7813,235.4531 400.9375,235.1563 401.6875,234.6094 C402.2656,234.2031 402.5938,233.75 402.5938,233.3594 C402.5938,232.9063 402.2031,232.5156 401.7344,232.5156 C401.5156,232.5156 401.3125,232.5938 401.125,232.7813 C400.6719,233.2656 400.6719,233.2656 400.4844,233.3594 C400.0625,233.625 399.375,233.75 398.6094,233.75 C396.5625,233.75 395.2656,232.6563 395.2656,230.9531 L395.2656,229.8594 C395.2656,228.0781 396.5156,226.7656 398.25,226.7656 C398.8281,226.7656 399.4375,226.9219 399.9063,227.1719 C400.3906,227.4531 400.5625,227.6719 400.6563,228.0781 C400.7188,228.4844 400.75,228.6094 400.8906,228.7344 C401.0313,228.875 401.2656,228.9844 401.4844,228.9844 C401.75,228.9844 402.0156,228.8438 402.1875,228.625 C402.2969,228.4688 402.3281,228.2813 402.3281,227.8594 L402.3281,226.4375 C402.3281,226 402.3125,225.875 402.2188,225.7188 C402.0625,225.4531 401.7813,225.3125 401.4844,225.3125 C401.1875,225.3125 400.9844,225.4063 400.7656,225.7188 L400.5938,225.6406 Z " fill="#000000"/><text fill="#000000" font-family="sans-serif" font-size="12" font-style="italic" lengthAdjust="spacing" textLength="77" x="416.75" y="227.1387">«Aggregate»</text><text fill="#000000" font-family="sans-serif" font-size="12" lengthAdjust="spacing" textLength="36" x="437.25" y="241.1074">Order</text><line style="stroke:#A80036;stroke-width:1.5;" x1="288.5" x2="589.5" y1="248.9375" y2="248.9375"/><ellipse cx="298.5" cy="259.9375" rx="3" ry="3" style="stroke:#038048;stroke-width:1.0;fill:none;"/><text fill="#000000" font-family="sans-serif" font-size="11" lengthAdjust="spacing" textLength="96" x="307.5" y="263.1479">Date : DateTime</text><ellipse cx="298.5" cy="272.7422" rx="3" ry="3" style="stroke:#038048;stroke-width:1.0;fill:none;"/><text fill="#000000" font-family="sans-serif" font-size="11" lengthAdjust="spacing" textLength="152" x="307.5" y="275.9526">ShippingAddress : Address</text><ellipse cx="298.5" cy="285.5469" rx="3" ry="3" style="stroke:#038048;stroke-width:1.0;fill:none;"/><text fill="#000000" font-family="sans-serif" font-size="11" lengthAdjust="spacing" textLength="265" x="307.5" y="288.7573">OrderItems : IReadOnlyCollection&lt;OrderItem&gt;</text><line style="stroke:#A80036;stroke-width:1.0;" x1="288.5" x2="589.5" y1="295.3516" y2="295.3516"/><ellipse cx="298.5" cy="306.3516" fill="#84BE84" rx="3" ry="3" style="stroke:#038048;stroke-width:1.0;"/><text fill="#000000" font-family="sans-serif" font-size="11" lengthAdjust="spacing" textLength="277" x="307.5" y="309.562">Order(DateTime date, Address shippingAddress)</text><ellipse cx="298.5" cy="319.1563" fill="#84BE84" rx="3" ry="3" style="stroke:#038048;stroke-width:1.0;"/><text fill="#000000" font-family="sans-serif" font-size="11" lengthAdjust="spacing" textLength="206" x="307.5" y="322.3667">AddOrderItem(OrderItem orderItem)</text><!--MD5=[003718b22fee2486eeba0fa029a176b7]
class OrderItem--><rect codeLine="72" fill="#FEFECE" filter="url(#fe2um5o80f19x)" height="99.2188" id="OrderItem" style="stroke:#A80036;stroke-width:1.5;" width="307" x="70.5" y="389"/><ellipse cx="188.75" cy="405" fill="#ADD1B2" rx="11" ry="11" style="stroke:#A80036;stroke-width:1.0;"/><path d="M191.0938,400.6719 C190.1563,400.2344 189.5625,400.0938 188.6875,400.0938 C186.0625,400.0938 184.0625,402.1719 184.0625,404.8906 L184.0625,406.0156 C184.0625,408.5938 186.1719,410.4844 189.0625,410.4844 C190.2813,410.4844 191.4375,410.1875 192.1875,409.6406 C192.7656,409.2344 193.0938,408.7813 193.0938,408.3906 C193.0938,407.9375 192.7031,407.5469 192.2344,407.5469 C192.0156,407.5469 191.8125,407.625 191.625,407.8125 C191.1719,408.2969 191.1719,408.2969 190.9844,408.3906 C190.5625,408.6563 189.875,408.7813 189.1094,408.7813 C187.0625,408.7813 185.7656,407.6875 185.7656,405.9844 L185.7656,404.8906 C185.7656,403.1094 187.0156,401.7969 188.75,401.7969 C189.3281,401.7969 189.9375,401.9531 190.4063,402.2031 C190.8906,402.4844 191.0625,402.7031 191.1563,403.1094 C191.2188,403.5156 191.25,403.6406 191.3906,403.7656 C191.5313,403.9063 191.7656,404.0156 191.9844,404.0156 C192.25,404.0156 192.5156,403.875 192.6875,403.6563 C192.7969,403.5 192.8281,403.3125 192.8281,402.8906 L192.8281,401.4688 C192.8281,401.0313 192.8125,400.9063 192.7188,400.75 C192.5625,400.4844 192.2813,400.3438 191.9844,400.3438 C191.6875,400.3438 191.4844,400.4375 191.2656,400.75 L191.0938,400.6719 Z " fill="#000000"/><text fill="#000000" font-family="sans-serif" font-size="12" lengthAdjust="spacing" textLength="62" x="209.25" y="409.1543">OrderItem</text><line style="stroke:#A80036;stroke-width:1.5;" x1="71.5" x2="376.5" y1="421" y2="421"/><ellipse cx="81.5" cy="432" rx="3" ry="3" style="stroke:#038048;stroke-width:1.0;fill:none;"/><text fill="#000000" font-family="sans-serif" font-size="11" lengthAdjust="spacing" textLength="69" x="90.5" y="435.2104">Offer : Offer</text><ellipse cx="81.5" cy="444.8047" rx="3" ry="3" style="stroke:#038048;stroke-width:1.0;fill:none;"/><text fill="#000000" font-family="sans-serif" font-size="11" lengthAdjust="spacing" textLength="83" x="90.5" y="448.0151">Price : decimal</text><ellipse cx="81.5" cy="457.6094" rx="3" ry="3" style="stroke:#038048;stroke-width:1.0;fill:none;"/><text fill="#000000" font-family="sans-serif" font-size="11" lengthAdjust="spacing" textLength="73" x="90.5" y="460.8198">Quantity : int</text><line style="stroke:#A80036;stroke-width:1.0;" x1="71.5" x2="376.5" y1="467.4141" y2="467.4141"/><ellipse cx="81.5" cy="478.4141" fill="#84BE84" rx="3" ry="3" style="stroke:#038048;stroke-width:1.0;"/><text fill="#000000" font-family="sans-serif" font-size="11" lengthAdjust="spacing" textLength="281" x="90.5" y="481.6245">OrderItem(Offer offer, decimal price, int quantity)</text><!--MD5=[8a8ee4eee26aad0843382c001e401026]
class ConfirmedOrder--><rect codeLine="63" fill="#FEFECE" filter="url(#fe2um5o80f19x)" height="99.2188" id="ConfirmedOrder" style="stroke:#A80036;stroke-width:1.5;" width="482" x="413" y="389"/><ellipse cx="600.75" cy="405" fill="#ADD1B2" rx="11" ry="11" style="stroke:#A80036;stroke-width:1.0;"/><path d="M603.0938,400.6719 C602.1563,400.2344 601.5625,400.0938 600.6875,400.0938 C598.0625,400.0938 596.0625,402.1719 596.0625,404.8906 L596.0625,406.0156 C596.0625,408.5938 598.1719,410.4844 601.0625,410.4844 C602.2813,410.4844 603.4375,410.1875 604.1875,409.6406 C604.7656,409.2344 605.0938,408.7813 605.0938,408.3906 C605.0938,407.9375 604.7031,407.5469 604.2344,407.5469 C604.0156,407.5469 603.8125,407.625 603.625,407.8125 C603.1719,408.2969 603.1719,408.2969 602.9844,408.3906 C602.5625,408.6563 601.875,408.7813 601.1094,408.7813 C599.0625,408.7813 597.7656,407.6875 597.7656,405.9844 L597.7656,404.8906 C597.7656,403.1094 599.0156,401.7969 600.75,401.7969 C601.3281,401.7969 601.9375,401.9531 602.4063,402.2031 C602.8906,402.4844 603.0625,402.7031 603.1563,403.1094 C603.2188,403.5156 603.25,403.6406 603.3906,403.7656 C603.5313,403.9063 603.7656,404.0156 603.9844,404.0156 C604.25,404.0156 604.5156,403.875 604.6875,403.6563 C604.7969,403.5 604.8281,403.3125 604.8281,402.8906 L604.8281,401.4688 C604.8281,401.0313 604.8125,400.9063 604.7188,400.75 C604.5625,400.4844 604.2813,400.3438 603.9844,400.3438 C603.6875,400.3438 603.4844,400.4375 603.2656,400.75 L603.0938,400.6719 Z " fill="#000000"/><text fill="#000000" font-family="sans-serif" font-size="12" lengthAdjust="spacing" textLength="98" x="621.25" y="409.1543">ConfirmedOrder</text><line style="stroke:#A80036;stroke-width:1.5;" x1="414" x2="894" y1="421" y2="421"/><ellipse cx="424" cy="432" rx="3" ry="3" style="stroke:#038048;stroke-width:1.0;fill:none;"/><text fill="#000000" font-family="sans-serif" font-size="11" lengthAdjust="spacing" textLength="145" x="433" y="435.2104">ShippingDate : DateTime</text><ellipse cx="424" cy="444.8047" rx="3" ry="3" style="stroke:#038048;stroke-width:1.0;fill:none;"/><text fill="#000000" font-family="sans-serif" font-size="11" lengthAdjust="spacing" textLength="130" x="433" y="448.0151">ShippingCost : decimal</text><line style="stroke:#A80036;stroke-width:1.0;" x1="414" x2="894" y1="454.6094" y2="454.6094"/><ellipse cx="424" cy="465.6094" fill="#84BE84" rx="3" ry="3" style="stroke:#038048;stroke-width:1.0;"/><text fill="#000000" font-family="sans-serif" font-size="11" lengthAdjust="spacing" textLength="456" x="433" y="468.8198">ConfirmedOrder(Order order, DeliveryDate deliveryDate, decimal shippingCost)</text><ellipse cx="424" cy="478.4141" fill="#84BE84" rx="3" ry="3" style="stroke:#038048;stroke-width:1.0;"/><text fill="#000000" font-family="sans-serif" font-size="11" lengthAdjust="spacing" textLength="116" x="433" y="481.6245">CalculateTotalPrice()</text><!--MD5=[70935dd098ed5da231aa315676372594]
link Offer to Store--><path codeLine="14" d="M172.6295,669.7624 C172.6295,669.7624 129.571,724.048 112.499,745.571 " fill="none" id="Offer-Store" style="stroke:#A80036;stroke-width:1.0;"/><polygon fill="#A80036" points="104.3221,755.88,113.0487,751.3142,107.4291,751.9626,106.7808,746.343,104.3221,755.88" style="stroke:#A80036;stroke-width:1.0;"/><line style="stroke:#A80036;stroke-width:1.0;" x1="107.4291" x2="112.401" y1="751.9626" y2="745.6945"/><polygon fill="#FFFFFF" points="180.087,660.361,173.2245,662.5758,172.6295,669.7624,179.492,667.5475,180.087,660.361" style="stroke:#A80036;stroke-width:1.0;"/><!--MD5=[48899a5fad677940e75da7b5e010d5cb]
link Offer to Product--><path codeLine="15" d="M271.102,664.383 C284.165,680.851 298.423,698.826 311.76,715.64 " fill="none" id="Offer-Product" style="stroke:#A80036;stroke-width:1.0;"/><polygon fill="#A80036" points="315.129,719.888,312.6698,710.3511,312.0218,715.9707,306.4021,715.3227,315.129,719.888" style="stroke:#A80036;stroke-width:1.0;"/><polygon fill="#A80036" points="267.913,660.361,270.3722,669.8979,271.0202,664.2783,276.6399,664.9263,267.913,660.361" style="stroke:#A80036;stroke-width:1.0;"/><!--MD5=[5c0c66984b48f13f6f1fd84ba8e61151]
link Product to ProductCategory--><path codeLine="33" d="M364,857.312 C364,857.312 364,881.119 364,891.8053 " fill="none" id="Product-ProductCategory" style="stroke:#A80036;stroke-width:1.0;"/><polygon fill="#A80036" points="364,904.9146,368,895.9146,364,899.9146,360,895.9146,364,904.9146" style="stroke:#A80036;stroke-width:1.0;"/><line style="stroke:#A80036;stroke-width:1.0;" x1="364" x2="364" y1="899.9146" y2="891.9146"/><polygon fill="#FFFFFF" points="364,845.312,360,851.312,364,857.312,368,851.312,364,845.312" style="stroke:#A80036;stroke-width:1.0;"/><!--MD5=[9d267913275094cee8b213adaba16fc1]
link Customer to Address--><path codeLine="50" d="M613.4571,161.2649 C613.4571,161.2649 638.254,199.681 649.113,216.503 " fill="none" id="Customer-Address" style="stroke:#A80036;stroke-width:1.0;"/><polygon fill="#A80036" points="656.378,227.758,654.8573,218.0273,653.6662,223.5573,648.1361,222.3662,656.378,227.758" style="stroke:#A80036;stroke-width:1.0;"/><line style="stroke:#A80036;stroke-width:1.0;" x1="653.6662" x2="649.328" y1="223.5573" y2="216.836"/><polygon fill="#A80036" points="606.949,151.183,606.8424,158.3933,613.4571,161.2649,613.5637,154.0546,606.949,151.183" style="stroke:#A80036;stroke-width:1.0;"/><!--MD5=[135794f54b59c9e5883929d048383f81]
link Customer to Order--><path codeLine="51" d="M508.5429,161.2649 C508.5429,161.2649 491.513,187.648 483.655,199.822 " fill="none" id="Customer-Order" style="stroke:#A80036;stroke-width:1.0;"/><polygon fill="#A80036" points="476.564,210.806,484.8057,205.4139,479.2757,206.6052,478.0844,201.0752,476.564,210.806" style="stroke:#A80036;stroke-width:1.0;"/><line style="stroke:#A80036;stroke-width:1.0;" x1="479.2757" x2="483.6145" y1="206.6052" y2="199.8835"/><polygon fill="#FFFFFF" points="515.051,151.183,508.4363,154.0546,508.5429,161.2649,515.1576,158.3933,515.051,151.183" style="stroke:#A80036;stroke-width:1.0;"/><!--MD5=[06a6064c5cdd443a62b5eb59fb550c27]
link Order to OrderItem--><path codeLine="61" d="M354.3154,336.5815 C354.3154,336.5815 315.218,366.859 297.147,380.853 " fill="none" id="Order-OrderItem" style="stroke:#A80036;stroke-width:1.0;"/><polygon fill="#A80036" points="286.693,388.95,296.2577,386.6013,290.646,385.8883,291.359,380.2766,286.693,388.95" style="stroke:#A80036;stroke-width:1.0;"/><line style="stroke:#A80036;stroke-width:1.0;" x1="290.646" x2="296.971" y1="385.8883" y2="380.99"/><polygon fill="#FFFFFF" points="363.803,329.234,356.61,329.7452,354.3154,336.5815,361.5083,336.0703,363.803,329.234" style="stroke:#A80036;stroke-width:1.0;"/><!--MD5=[f5a109dc68a5a291de32587bf3dd2a25]
reverse link Order to ConfirmedOrder--><path codeLine="70" d="M530.12,341.565 C550.736,357.53 572.175,374.133 591.307,388.95 " fill="none" id="Order-backto-ConfirmedOrder" style="stroke:#A80036;stroke-width:1.0;"/><polygon fill="none" points="525.723,347.014,514.197,329.234,534.295,335.945,525.723,347.014" style="stroke:#A80036;stroke-width:1.0;"/><!--MD5=[8a30c1d737f4fb0d0fcc76b30e249134]
link OrderItem to Offer--><path codeLine="79" d="M224,500.113 C224,500.113 224,523.613 224,534.692 " fill="none" id="OrderItem-Offer" style="stroke:#A80036;stroke-width:1.0;"/><polygon fill="#A80036" points="224,547.981,228,538.981,224,542.981,220,538.981,224,547.981" style="stroke:#A80036;stroke-width:1.0;"/><line style="stroke:#A80036;stroke-width:1.0;" x1="224" x2="224" y1="542.981" y2="534.981"/><polygon fill="#FFFFFF" points="224,488.113,220,494.113,224,500.113,228,494.113,224,488.113" style="stroke:#A80036;stroke-width:1.0;"/><!--MD5=[a9af73fe82a4eabb57a8d69785851a5c]
@startuml
hide empty methods
class Store {
    +Name : string
}

class Offer  {
    +Product : Product
    +Store : Store
    +Price : decimal
    +LastUpdate : DateTime
    - - -
    +Offer(Product product, Store store, decimal price, DateTime lastUpdate)
}
Offer o- -> Store
Offer <- -> Product

class ProductCategory {
    +Name : string
    +NameEn : string?
    - - -
    +ProductCategory(string name)
}

class Product {
    +Ean : int <<unique>>
    +Name : string
    +ProductCategory : ProductCategory
    +Offers : ICollection<Offer>
    - - -
    +Product(int ean, string name, ProductCategory productCategory)
    +CalculateAveragePrice()
}
Product o- -> ProductCategory

class Address<<value object>> {
    +Street : string
    +Zip : string
    +City : string
}
class Customer <<Aggregate>> {
    +Firstname : string
    +Lastname : string
    +Address : Address
    +Orders : IReadOnlyCollection<Order>
    - - -
    +Customer(string firstname, string lastname, Address address)
    +ConfirmOrder(Order order)
    +PlaceOrder(Order order)
}
Customer *- -> Address
Customer o- -> Order

class Order <<Aggregate>> {
    +Date : DateTime
    +ShippingAddress : Address
    +OrderItems : IReadOnlyCollection<OrderItem>
    - - -
    +Order(DateTime date, Address shippingAddress)
    +AddOrderItem(OrderItem orderItem)
}
Order o- -> OrderItem

class ConfirmedOrder {
    +ShippingDate : DateTime
    +ShippingCost : decimal
    - - -
    +ConfirmedOrder(Order order, DeliveryDate deliveryDate, decimal shippingCost)
    +CalculateTotalPrice()
}
ConfirmedOrder -up-|> Order 

class OrderItem {
    +Offer : Offer
    +Price : decimal
    +Quantity : int
    - - -
    +OrderItem(Offer offer, decimal price, int quantity)
}
OrderItem o- -> Offer
@enduml

PlantUML version 1.2021.16beta1(Unknown compile time)
(GPL source distribution)
Java Runtime: Java(TM) SE Runtime Environment
JVM: Java HotSpot(TM) 64-Bit Server VM
Default Encoding: UTF-8
Language: en
Country: US
--></g></svg>