<?xml version="1.0" encoding="UTF-8" standalone="no"?><svg xmlns="http://www.w3.org/2000/svg" xmlns:xlink="http://www.w3.org/1999/xlink" contentScriptType="application/ecmascript" contentStyleType="text/css" height="1005px" preserveAspectRatio="none" style="width:998px;height:1005px;background:#FFFFFF;" version="1.1" viewBox="0 0 998 1005" width="998px" zoomAndPan="magnify"><defs><filter height="300%" id="fob3p3cig40cs" width="300%" x="-1" y="-1"><feGaussianBlur result="blurOut" stdDeviation="2.0"/><feColorMatrix in="blurOut" result="blurOut2" type="matrix" values="0 0 0 0 0 0 0 0 0 0 0 0 0 0 0 0 0 0 .4 0"/><feOffset dx="4.0" dy="4.0" in="blurOut2" result="blurOut3"/><feBlend in="SourceGraphic" in2="blurOut3" mode="normal"/></filter></defs><g><!--MD5=[b4d3d50c0abf08df45181fececb9f04d]
class Store--><rect codeLine="2" fill="#FEFECE" filter="url(#fob3p3cig40cs)" height="52.8047" id="Store" style="stroke:#A80036;stroke-width:1.5;" width="102" x="122.5" y="756"/><ellipse cx="154.15" cy="772" fill="#ADD1B2" rx="11" ry="11" style="stroke:#A80036;stroke-width:1.0;"/><path d="M156.4938,767.6719 C155.5563,767.2344 154.9625,767.0938 154.0875,767.0938 C151.4625,767.0938 149.4625,769.1719 149.4625,771.8906 L149.4625,773.0156 C149.4625,775.5938 151.5719,777.4844 154.4625,777.4844 C155.6813,777.4844 156.8375,777.1875 157.5875,776.6406 C158.1656,776.2344 158.4938,775.7813 158.4938,775.3906 C158.4938,774.9375 158.1031,774.5469 157.6344,774.5469 C157.4156,774.5469 157.2125,774.625 157.025,774.8125 C156.5719,775.2969 156.5719,775.2969 156.3844,775.3906 C155.9625,775.6563 155.275,775.7813 154.5094,775.7813 C152.4625,775.7813 151.1656,774.6875 151.1656,772.9844 L151.1656,771.8906 C151.1656,770.1094 152.4156,768.7969 154.15,768.7969 C154.7281,768.7969 155.3375,768.9531 155.8063,769.2031 C156.2906,769.4844 156.4625,769.7031 156.5563,770.1094 C156.6188,770.5156 156.65,770.6406 156.7906,770.7656 C156.9313,770.9063 157.1656,771.0156 157.3844,771.0156 C157.65,771.0156 157.9156,770.875 158.0875,770.6563 C158.1969,770.5 158.2281,770.3125 158.2281,769.8906 L158.2281,768.4688 C158.2281,768.0313 158.2125,767.9063 158.1188,767.75 C157.9625,767.4844 157.6813,767.3438 157.3844,767.3438 C157.0875,767.3438 156.8844,767.4375 156.6656,767.75 L156.4938,767.6719 Z " fill="#000000"/><text fill="#000000" font-family="sans-serif" font-size="12" lengthAdjust="spacing" textLength="33" x="171.85" y="776.1543">Store</text><line style="stroke:#A80036;stroke-width:1.5;" x1="123.5" x2="223.5" y1="788" y2="788"/><ellipse cx="133.5" cy="799" rx="3" ry="3" style="stroke:#038048;stroke-width:1.0;fill:none;"/><text fill="#000000" font-family="sans-serif" font-size="11" lengthAdjust="spacing" textLength="76" x="142.5" y="802.2104">Name : string</text><!--MD5=[af8ed831b3fe9dbd380fec6c597723ab]
class Offer--><rect codeLine="6" fill="#FEFECE" filter="url(#fob3p3cig40cs)" height="112.0234" id="Offer" style="stroke:#A80036;stroke-width:1.5;" width="434" x="96.5" y="548"/><ellipse cx="293.75" cy="564" fill="#ADD1B2" rx="11" ry="11" style="stroke:#A80036;stroke-width:1.0;"/><path d="M296.0938,559.6719 C295.1563,559.2344 294.5625,559.0938 293.6875,559.0938 C291.0625,559.0938 289.0625,561.1719 289.0625,563.8906 L289.0625,565.0156 C289.0625,567.5938 291.1719,569.4844 294.0625,569.4844 C295.2813,569.4844 296.4375,569.1875 297.1875,568.6406 C297.7656,568.2344 298.0938,567.7813 298.0938,567.3906 C298.0938,566.9375 297.7031,566.5469 297.2344,566.5469 C297.0156,566.5469 296.8125,566.625 296.625,566.8125 C296.1719,567.2969 296.1719,567.2969 295.9844,567.3906 C295.5625,567.6563 294.875,567.7813 294.1094,567.7813 C292.0625,567.7813 290.7656,566.6875 290.7656,564.9844 L290.7656,563.8906 C290.7656,562.1094 292.0156,560.7969 293.75,560.7969 C294.3281,560.7969 294.9375,560.9531 295.4063,561.2031 C295.8906,561.4844 296.0625,561.7031 296.1563,562.1094 C296.2188,562.5156 296.25,562.6406 296.3906,562.7656 C296.5313,562.9063 296.7656,563.0156 296.9844,563.0156 C297.25,563.0156 297.5156,562.875 297.6875,562.6563 C297.7969,562.5 297.8281,562.3125 297.8281,561.8906 L297.8281,560.4688 C297.8281,560.0313 297.8125,559.9063 297.7188,559.75 C297.5625,559.4844 297.2813,559.3438 296.9844,559.3438 C296.6875,559.3438 296.4844,559.4375 296.2656,559.75 L296.0938,559.6719 Z " fill="#000000"/><text fill="#000000" font-family="sans-serif" font-size="12" lengthAdjust="spacing" textLength="31" x="314.25" y="568.1543">Offer</text><line style="stroke:#A80036;stroke-width:1.5;" x1="97.5" x2="529.5" y1="580" y2="580"/><ellipse cx="107.5" cy="591" rx="3" ry="3" style="stroke:#038048;stroke-width:1.0;fill:none;"/><text fill="#000000" font-family="sans-serif" font-size="11" lengthAdjust="spacing" textLength="93" x="116.5" y="594.2104">Product : Product</text><ellipse cx="107.5" cy="603.8047" rx="3" ry="3" style="stroke:#038048;stroke-width:1.0;fill:none;"/><text fill="#000000" font-family="sans-serif" font-size="11" lengthAdjust="spacing" textLength="73" x="116.5" y="607.0151">Store : Store</text><ellipse cx="107.5" cy="616.6094" rx="3" ry="3" style="stroke:#038048;stroke-width:1.0;fill:none;"/><text fill="#000000" font-family="sans-serif" font-size="11" lengthAdjust="spacing" textLength="83" x="116.5" y="619.8198">Price : decimal</text><ellipse cx="107.5" cy="629.4141" rx="3" ry="3" style="stroke:#038048;stroke-width:1.0;fill:none;"/><text fill="#000000" font-family="sans-serif" font-size="11" lengthAdjust="spacing" textLength="132" x="116.5" y="632.6245">LastUpdate : DateTime</text><line style="stroke:#A80036;stroke-width:1.0;" x1="97.5" x2="529.5" y1="639.2188" y2="639.2188"/><ellipse cx="107.5" cy="650.2188" fill="#84BE84" rx="3" ry="3" style="stroke:#038048;stroke-width:1.0;"/><text fill="#000000" font-family="sans-serif" font-size="11" lengthAdjust="spacing" textLength="408" x="116.5" y="653.4292">Offer(Product product, Store store, decimal price, DateTime lastUpdate)</text><!--MD5=[72136138052d025cffdce3c22fbd185f]
class Product--><rect codeLine="24" fill="#FEFECE" filter="url(#fob3p3cig40cs)" height="124.8281" id="Product" style="stroke:#A80036;stroke-width:1.5;" width="388" x="259.5" y="720"/><ellipse cx="426.75" cy="736" fill="#ADD1B2" rx="11" ry="11" style="stroke:#A80036;stroke-width:1.0;"/><path d="M429.0938,731.6719 C428.1563,731.2344 427.5625,731.0938 426.6875,731.0938 C424.0625,731.0938 422.0625,733.1719 422.0625,735.8906 L422.0625,737.0156 C422.0625,739.5938 424.1719,741.4844 427.0625,741.4844 C428.2813,741.4844 429.4375,741.1875 430.1875,740.6406 C430.7656,740.2344 431.0938,739.7813 431.0938,739.3906 C431.0938,738.9375 430.7031,738.5469 430.2344,738.5469 C430.0156,738.5469 429.8125,738.625 429.625,738.8125 C429.1719,739.2969 429.1719,739.2969 428.9844,739.3906 C428.5625,739.6563 427.875,739.7813 427.1094,739.7813 C425.0625,739.7813 423.7656,738.6875 423.7656,736.9844 L423.7656,735.8906 C423.7656,734.1094 425.0156,732.7969 426.75,732.7969 C427.3281,732.7969 427.9375,732.9531 428.4063,733.2031 C428.8906,733.4844 429.0625,733.7031 429.1563,734.1094 C429.2188,734.5156 429.25,734.6406 429.3906,734.7656 C429.5313,734.9063 429.7656,735.0156 429.9844,735.0156 C430.25,735.0156 430.5156,734.875 430.6875,734.6563 C430.7969,734.5 430.8281,734.3125 430.8281,733.8906 L430.8281,732.4688 C430.8281,732.0313 430.8125,731.9063 430.7188,731.75 C430.5625,731.4844 430.2813,731.3438 429.9844,731.3438 C429.6875,731.3438 429.4844,731.4375 429.2656,731.75 L429.0938,731.6719 Z " fill="#000000"/><text fill="#000000" font-family="sans-serif" font-size="12" lengthAdjust="spacing" textLength="45" x="447.25" y="740.1543">Product</text><line style="stroke:#A80036;stroke-width:1.5;" x1="260.5" x2="646.5" y1="752" y2="752"/><ellipse cx="270.5" cy="763" rx="3" ry="3" style="stroke:#038048;stroke-width:1.0;fill:none;"/><text fill="#000000" font-family="sans-serif" font-size="11" lengthAdjust="spacing" textLength="103" x="279.5" y="766.2104">Ean : int «unique»</text><ellipse cx="270.5" cy="775.8047" rx="3" ry="3" style="stroke:#038048;stroke-width:1.0;fill:none;"/><text fill="#000000" font-family="sans-serif" font-size="11" lengthAdjust="spacing" textLength="76" x="279.5" y="779.0151">Name : string</text><ellipse cx="270.5" cy="788.6094" rx="3" ry="3" style="stroke:#038048;stroke-width:1.0;fill:none;"/><text fill="#000000" font-family="sans-serif" font-size="11" lengthAdjust="spacing" textLength="197" x="279.5" y="791.8198">ProductCategory : ProductCategory</text><ellipse cx="270.5" cy="801.4141" rx="3" ry="3" style="stroke:#038048;stroke-width:1.0;fill:none;"/><text fill="#000000" font-family="sans-serif" font-size="11" lengthAdjust="spacing" textLength="152" x="279.5" y="804.6245">Offers : ICollection&lt;Offer&gt;</text><line style="stroke:#A80036;stroke-width:1.0;" x1="260.5" x2="646.5" y1="811.2188" y2="811.2188"/><ellipse cx="270.5" cy="822.2188" fill="#84BE84" rx="3" ry="3" style="stroke:#038048;stroke-width:1.0;"/><text fill="#000000" font-family="sans-serif" font-size="11" lengthAdjust="spacing" textLength="362" x="279.5" y="825.4292">Product(int ean, string name, ProductCategory productCategory)</text><ellipse cx="270.5" cy="835.0234" fill="#84BE84" rx="3" ry="3" style="stroke:#038048;stroke-width:1.0;"/><text fill="#000000" font-family="sans-serif" font-size="11" lengthAdjust="spacing" textLength="137" x="279.5" y="838.2339">CalculateAveragePrice()</text><!--MD5=[a1db4bf20df23ac2cd9366d22a9e2860]
class ProductCategory--><rect codeLine="17" fill="#FEFECE" filter="url(#fob3p3cig40cs)" height="86.4141" id="ProductCategory" style="stroke:#A80036;stroke-width:1.5;" width="195" x="356" y="905"/><ellipse cx="399.35" cy="921" fill="#ADD1B2" rx="11" ry="11" style="stroke:#A80036;stroke-width:1.0;"/><path d="M401.6938,916.6719 C400.7563,916.2344 400.1625,916.0938 399.2875,916.0938 C396.6625,916.0938 394.6625,918.1719 394.6625,920.8906 L394.6625,922.0156 C394.6625,924.5938 396.7719,926.4844 399.6625,926.4844 C400.8813,926.4844 402.0375,926.1875 402.7875,925.6406 C403.3656,925.2344 403.6938,924.7813 403.6938,924.3906 C403.6938,923.9375 403.3031,923.5469 402.8344,923.5469 C402.6156,923.5469 402.4125,923.625 402.225,923.8125 C401.7719,924.2969 401.7719,924.2969 401.5844,924.3906 C401.1625,924.6563 400.475,924.7813 399.7094,924.7813 C397.6625,924.7813 396.3656,923.6875 396.3656,921.9844 L396.3656,920.8906 C396.3656,919.1094 397.6156,917.7969 399.35,917.7969 C399.9281,917.7969 400.5375,917.9531 401.0063,918.2031 C401.4906,918.4844 401.6625,918.7031 401.7563,919.1094 C401.8188,919.5156 401.85,919.6406 401.9906,919.7656 C402.1313,919.9063 402.3656,920.0156 402.5844,920.0156 C402.85,920.0156 403.1156,919.875 403.2875,919.6563 C403.3969,919.5 403.4281,919.3125 403.4281,918.8906 L403.4281,917.4688 C403.4281,917.0313 403.4125,916.9063 403.3188,916.75 C403.1625,916.4844 402.8813,916.3438 402.5844,916.3438 C402.2875,916.3438 402.0844,916.4375 401.8656,916.75 L401.6938,916.6719 Z " fill="#000000"/><text fill="#000000" font-family="sans-serif" font-size="12" lengthAdjust="spacing" textLength="100" x="419.65" y="925.1543">ProductCategory</text><line style="stroke:#A80036;stroke-width:1.5;" x1="357" x2="550" y1="937" y2="937"/><ellipse cx="367" cy="948" rx="3" ry="3" style="stroke:#038048;stroke-width:1.0;fill:none;"/><text fill="#000000" font-family="sans-serif" font-size="11" lengthAdjust="spacing" textLength="76" x="376" y="951.2104">Name : string</text><ellipse cx="367" cy="960.8047" rx="3" ry="3" style="stroke:#038048;stroke-width:1.0;fill:none;"/><text fill="#000000" font-family="sans-serif" font-size="11" lengthAdjust="spacing" textLength="96" x="376" y="964.0151">NameEn : string?</text><line style="stroke:#A80036;stroke-width:1.0;" x1="357" x2="550" y1="970.6094" y2="970.6094"/><ellipse cx="367" cy="981.6094" fill="#84BE84" rx="3" ry="3" style="stroke:#038048;stroke-width:1.0;"/><text fill="#000000" font-family="sans-serif" font-size="11" lengthAdjust="spacing" textLength="169" x="376" y="984.8198">ProductCategory(string name)</text><!--MD5=[0f39e4cb6f03951afbf6d14bd2505654]
class Address--><rect codeLine="35" fill="#FEFECE" filter="url(#fob3p3cig40cs)" height="84.3516" id="Address" style="stroke:#A80036;stroke-width:1.5;" width="115" x="10" y="396.5"/><ellipse cx="25" cy="415.4688" fill="#ADD1B2" rx="11" ry="11" style="stroke:#A80036;stroke-width:1.0;"/><path d="M27.3438,411.1406 C26.4063,410.7031 25.8125,410.5625 24.9375,410.5625 C22.3125,410.5625 20.3125,412.6406 20.3125,415.3594 L20.3125,416.4844 C20.3125,419.0625 22.4219,420.9531 25.3125,420.9531 C26.5313,420.9531 27.6875,420.6563 28.4375,420.1094 C29.0156,419.7031 29.3438,419.25 29.3438,418.8594 C29.3438,418.4063 28.9531,418.0156 28.4844,418.0156 C28.2656,418.0156 28.0625,418.0938 27.875,418.2813 C27.4219,418.7656 27.4219,418.7656 27.2344,418.8594 C26.8125,419.125 26.125,419.25 25.3594,419.25 C23.3125,419.25 22.0156,418.1563 22.0156,416.4531 L22.0156,415.3594 C22.0156,413.5781 23.2656,412.2656 25,412.2656 C25.5781,412.2656 26.1875,412.4219 26.6563,412.6719 C27.1406,412.9531 27.3125,413.1719 27.4063,413.5781 C27.4688,413.9844 27.5,414.1094 27.6406,414.2344 C27.7813,414.375 28.0156,414.4844 28.2344,414.4844 C28.5,414.4844 28.7656,414.3438 28.9375,414.125 C29.0469,413.9688 29.0781,413.7813 29.0781,413.3594 L29.0781,411.9375 C29.0781,411.5 29.0625,411.375 28.9688,411.2188 C28.8125,410.9531 28.5313,410.8125 28.2344,410.8125 C27.9375,410.8125 27.7344,410.9063 27.5156,411.2188 L27.3438,411.1406 Z " fill="#000000"/><text fill="#000000" font-family="sans-serif" font-size="12" font-style="italic" lengthAdjust="spacing" textLength="87" x="37" y="412.6387">«value object»</text><text fill="#000000" font-family="sans-serif" font-size="12" lengthAdjust="spacing" textLength="51" x="55" y="426.6074">Address</text><line style="stroke:#A80036;stroke-width:1.5;" x1="11" x2="124" y1="434.4375" y2="434.4375"/><ellipse cx="21" cy="445.4375" rx="3" ry="3" style="stroke:#038048;stroke-width:1.0;fill:none;"/><text fill="#000000" font-family="sans-serif" font-size="11" lengthAdjust="spacing" textLength="78" x="30" y="448.6479">Street : string</text><ellipse cx="21" cy="458.2422" rx="3" ry="3" style="stroke:#038048;stroke-width:1.0;fill:none;"/><text fill="#000000" font-family="sans-serif" font-size="11" lengthAdjust="spacing" textLength="60" x="30" y="461.4526">Zip : string</text><ellipse cx="21" cy="471.0469" rx="3" ry="3" style="stroke:#038048;stroke-width:1.0;fill:none;"/><text fill="#000000" font-family="sans-serif" font-size="11" lengthAdjust="spacing" textLength="64" x="30" y="474.2573">City : string</text><!--MD5=[2ce0c9fb7f55b1e256ab28a8ea6b25ec]
class Customer--><rect codeLine="40" fill="#FEFECE" filter="url(#fob3p3cig40cs)" height="143.5703" id="Customer" style="stroke:#A80036;stroke-width:1.5;" width="375" x="7" y="7"/><ellipse cx="153.75" cy="25.9688" fill="#ADD1B2" rx="11" ry="11" style="stroke:#A80036;stroke-width:1.0;"/><path d="M156.0938,21.6406 C155.1563,21.2031 154.5625,21.0625 153.6875,21.0625 C151.0625,21.0625 149.0625,23.1406 149.0625,25.8594 L149.0625,26.9844 C149.0625,29.5625 151.1719,31.4531 154.0625,31.4531 C155.2813,31.4531 156.4375,31.1563 157.1875,30.6094 C157.7656,30.2031 158.0938,29.75 158.0938,29.3594 C158.0938,28.9063 157.7031,28.5156 157.2344,28.5156 C157.0156,28.5156 156.8125,28.5938 156.625,28.7813 C156.1719,29.2656 156.1719,29.2656 155.9844,29.3594 C155.5625,29.625 154.875,29.75 154.1094,29.75 C152.0625,29.75 150.7656,28.6563 150.7656,26.9531 L150.7656,25.8594 C150.7656,24.0781 152.0156,22.7656 153.75,22.7656 C154.3281,22.7656 154.9375,22.9219 155.4063,23.1719 C155.8906,23.4531 156.0625,23.6719 156.1563,24.0781 C156.2188,24.4844 156.25,24.6094 156.3906,24.7344 C156.5313,24.875 156.7656,24.9844 156.9844,24.9844 C157.25,24.9844 157.5156,24.8438 157.6875,24.625 C157.7969,24.4688 157.8281,24.2813 157.8281,23.8594 L157.8281,22.4375 C157.8281,22 157.8125,21.875 157.7188,21.7188 C157.5625,21.4531 157.2813,21.3125 156.9844,21.3125 C156.6875,21.3125 156.4844,21.4063 156.2656,21.7188 L156.0938,21.6406 Z " fill="#000000"/><text fill="#000000" font-family="sans-serif" font-size="12" font-style="italic" lengthAdjust="spacing" textLength="77" x="172.25" y="23.1387">«Aggregate»</text><text fill="#000000" font-family="sans-serif" font-size="12" lengthAdjust="spacing" textLength="58" x="181.75" y="37.1074">Customer</text><line style="stroke:#A80036;stroke-width:1.5;" x1="8" x2="381" y1="44.9375" y2="44.9375"/><ellipse cx="18" cy="55.9375" rx="3" ry="3" style="stroke:#038048;stroke-width:1.0;fill:none;"/><text fill="#000000" font-family="sans-serif" font-size="11" lengthAdjust="spacing" textLength="98" x="27" y="59.1479">Firstname : string</text><ellipse cx="18" cy="68.7422" rx="3" ry="3" style="stroke:#038048;stroke-width:1.0;fill:none;"/><text fill="#000000" font-family="sans-serif" font-size="11" lengthAdjust="spacing" textLength="98" x="27" y="71.9526">Lastname : string</text><ellipse cx="18" cy="81.5469" rx="3" ry="3" style="stroke:#038048;stroke-width:1.0;fill:none;"/><text fill="#000000" font-family="sans-serif" font-size="11" lengthAdjust="spacing" textLength="103" x="27" y="84.7573">Address : Address</text><ellipse cx="18" cy="94.3516" rx="3" ry="3" style="stroke:#038048;stroke-width:1.0;fill:none;"/><text fill="#000000" font-family="sans-serif" font-size="11" lengthAdjust="spacing" textLength="213" x="27" y="97.562">Orders : IReadOnlyCollection&lt;Order&gt;</text><line style="stroke:#A80036;stroke-width:1.0;" x1="8" x2="381" y1="104.1563" y2="104.1563"/><ellipse cx="18" cy="115.1563" fill="#84BE84" rx="3" ry="3" style="stroke:#038048;stroke-width:1.0;"/><text fill="#000000" font-family="sans-serif" font-size="11" lengthAdjust="spacing" textLength="349" x="27" y="118.3667">Customer(string firstname, string lastname, Address address)</text><ellipse cx="18" cy="127.9609" fill="#84BE84" rx="3" ry="3" style="stroke:#038048;stroke-width:1.0;"/><text fill="#000000" font-family="sans-serif" font-size="11" lengthAdjust="spacing" textLength="150" x="27" y="131.1714">ConfirmOrder(Order order)</text><ellipse cx="18" cy="140.7656" fill="#84BE84" rx="3" ry="3" style="stroke:#038048;stroke-width:1.0;"/><text fill="#000000" font-family="sans-serif" font-size="11" lengthAdjust="spacing" textLength="136" x="27" y="143.9761">PlaceOrder(Order order)</text><!--MD5=[cf4d6237fcae255cd2e1656cf84a30e2]
class Order--><rect codeLine="53" fill="#FEFECE" filter="url(#fob3p3cig40cs)" height="117.9609" id="Order" style="stroke:#A80036;stroke-width:1.5;" width="303" x="151" y="211"/><ellipse cx="261.75" cy="229.9688" fill="#ADD1B2" rx="11" ry="11" style="stroke:#A80036;stroke-width:1.0;"/><path d="M264.0938,225.6406 C263.1563,225.2031 262.5625,225.0625 261.6875,225.0625 C259.0625,225.0625 257.0625,227.1406 257.0625,229.8594 L257.0625,230.9844 C257.0625,233.5625 259.1719,235.4531 262.0625,235.4531 C263.2813,235.4531 264.4375,235.1563 265.1875,234.6094 C265.7656,234.2031 266.0938,233.75 266.0938,233.3594 C266.0938,232.9063 265.7031,232.5156 265.2344,232.5156 C265.0156,232.5156 264.8125,232.5938 264.625,232.7813 C264.1719,233.2656 264.1719,233.2656 263.9844,233.3594 C263.5625,233.625 262.875,233.75 262.1094,233.75 C260.0625,233.75 258.7656,232.6563 258.7656,230.9531 L258.7656,229.8594 C258.7656,228.0781 260.0156,226.7656 261.75,226.7656 C262.3281,226.7656 262.9375,226.9219 263.4063,227.1719 C263.8906,227.4531 264.0625,227.6719 264.1563,228.0781 C264.2188,228.4844 264.25,228.6094 264.3906,228.7344 C264.5313,228.875 264.7656,228.9844 264.9844,228.9844 C265.25,228.9844 265.5156,228.8438 265.6875,228.625 C265.7969,228.4688 265.8281,228.2813 265.8281,227.8594 L265.8281,226.4375 C265.8281,226 265.8125,225.875 265.7188,225.7188 C265.5625,225.4531 265.2813,225.3125 264.9844,225.3125 C264.6875,225.3125 264.4844,225.4063 264.2656,225.7188 L264.0938,225.6406 Z " fill="#000000"/><text fill="#000000" font-family="sans-serif" font-size="12" font-style="italic" lengthAdjust="spacing" textLength="77" x="280.25" y="227.1387">«Aggregate»</text><text fill="#000000" font-family="sans-serif" font-size="12" lengthAdjust="spacing" textLength="36" x="300.75" y="241.1074">Order</text><line style="stroke:#A80036;stroke-width:1.5;" x1="152" x2="453" y1="248.9375" y2="248.9375"/><ellipse cx="162" cy="259.9375" rx="3" ry="3" style="stroke:#038048;stroke-width:1.0;fill:none;"/><text fill="#000000" font-family="sans-serif" font-size="11" lengthAdjust="spacing" textLength="96" x="171" y="263.1479">Date : DateTime</text><ellipse cx="162" cy="272.7422" rx="3" ry="3" style="stroke:#038048;stroke-width:1.0;fill:none;"/><text fill="#000000" font-family="sans-serif" font-size="11" lengthAdjust="spacing" textLength="152" x="171" y="275.9526">ShippingAddress : Address</text><ellipse cx="162" cy="285.5469" rx="3" ry="3" style="stroke:#038048;stroke-width:1.0;fill:none;"/><text fill="#000000" font-family="sans-serif" font-size="11" lengthAdjust="spacing" textLength="265" x="171" y="288.7573">OrderItems : IReadOnlyCollection&lt;OrderItem&gt;</text><line style="stroke:#A80036;stroke-width:1.0;" x1="152" x2="453" y1="295.3516" y2="295.3516"/><ellipse cx="162" cy="306.3516" fill="#84BE84" rx="3" ry="3" style="stroke:#038048;stroke-width:1.0;"/><text fill="#000000" font-family="sans-serif" font-size="11" lengthAdjust="spacing" textLength="277" x="171" y="309.562">Order(DateTime date, Address shippingAddress)</text><ellipse cx="162" cy="319.1563" fill="#84BE84" rx="3" ry="3" style="stroke:#038048;stroke-width:1.0;"/><text fill="#000000" font-family="sans-serif" font-size="11" lengthAdjust="spacing" textLength="206" x="171" y="322.3667">AddOrderItem(OrderItem orderItem)</text><!--MD5=[003718b22fee2486eeba0fa029a176b7]
class OrderItem--><rect codeLine="73" fill="#FEFECE" filter="url(#fob3p3cig40cs)" height="99.2188" id="OrderItem" style="stroke:#A80036;stroke-width:1.5;" width="307" x="160" y="389"/><ellipse cx="278.25" cy="405" fill="#ADD1B2" rx="11" ry="11" style="stroke:#A80036;stroke-width:1.0;"/><path d="M280.5938,400.6719 C279.6563,400.2344 279.0625,400.0938 278.1875,400.0938 C275.5625,400.0938 273.5625,402.1719 273.5625,404.8906 L273.5625,406.0156 C273.5625,408.5938 275.6719,410.4844 278.5625,410.4844 C279.7813,410.4844 280.9375,410.1875 281.6875,409.6406 C282.2656,409.2344 282.5938,408.7813 282.5938,408.3906 C282.5938,407.9375 282.2031,407.5469 281.7344,407.5469 C281.5156,407.5469 281.3125,407.625 281.125,407.8125 C280.6719,408.2969 280.6719,408.2969 280.4844,408.3906 C280.0625,408.6563 279.375,408.7813 278.6094,408.7813 C276.5625,408.7813 275.2656,407.6875 275.2656,405.9844 L275.2656,404.8906 C275.2656,403.1094 276.5156,401.7969 278.25,401.7969 C278.8281,401.7969 279.4375,401.9531 279.9063,402.2031 C280.3906,402.4844 280.5625,402.7031 280.6563,403.1094 C280.7188,403.5156 280.75,403.6406 280.8906,403.7656 C281.0313,403.9063 281.2656,404.0156 281.4844,404.0156 C281.75,404.0156 282.0156,403.875 282.1875,403.6563 C282.2969,403.5 282.3281,403.3125 282.3281,402.8906 L282.3281,401.4688 C282.3281,401.0313 282.3125,400.9063 282.2188,400.75 C282.0625,400.4844 281.7813,400.3438 281.4844,400.3438 C281.1875,400.3438 280.9844,400.4375 280.7656,400.75 L280.5938,400.6719 Z " fill="#000000"/><text fill="#000000" font-family="sans-serif" font-size="12" lengthAdjust="spacing" textLength="62" x="298.75" y="409.1543">OrderItem</text><line style="stroke:#A80036;stroke-width:1.5;" x1="161" x2="466" y1="421" y2="421"/><ellipse cx="171" cy="432" rx="3" ry="3" style="stroke:#038048;stroke-width:1.0;fill:none;"/><text fill="#000000" font-family="sans-serif" font-size="11" lengthAdjust="spacing" textLength="69" x="180" y="435.2104">Offer : Offer</text><ellipse cx="171" cy="444.8047" rx="3" ry="3" style="stroke:#038048;stroke-width:1.0;fill:none;"/><text fill="#000000" font-family="sans-serif" font-size="11" lengthAdjust="spacing" textLength="83" x="180" y="448.0151">Price : decimal</text><ellipse cx="171" cy="457.6094" rx="3" ry="3" style="stroke:#038048;stroke-width:1.0;fill:none;"/><text fill="#000000" font-family="sans-serif" font-size="11" lengthAdjust="spacing" textLength="73" x="180" y="460.8198">Quantity : int</text><line style="stroke:#A80036;stroke-width:1.0;" x1="161" x2="466" y1="467.4141" y2="467.4141"/><ellipse cx="171" cy="478.4141" fill="#84BE84" rx="3" ry="3" style="stroke:#038048;stroke-width:1.0;"/><text fill="#000000" font-family="sans-serif" font-size="11" lengthAdjust="spacing" textLength="281" x="180" y="481.6245">OrderItem(Offer offer, decimal price, int quantity)</text><!--MD5=[8a8ee4eee26aad0843382c001e401026]
class ConfirmedOrder--><rect codeLine="64" fill="#FEFECE" filter="url(#fob3p3cig40cs)" height="99.2188" id="ConfirmedOrder" style="stroke:#A80036;stroke-width:1.5;" width="482" x="502.5" y="389"/><ellipse cx="690.25" cy="405" fill="#ADD1B2" rx="11" ry="11" style="stroke:#A80036;stroke-width:1.0;"/><path d="M692.5938,400.6719 C691.6563,400.2344 691.0625,400.0938 690.1875,400.0938 C687.5625,400.0938 685.5625,402.1719 685.5625,404.8906 L685.5625,406.0156 C685.5625,408.5938 687.6719,410.4844 690.5625,410.4844 C691.7813,410.4844 692.9375,410.1875 693.6875,409.6406 C694.2656,409.2344 694.5938,408.7813 694.5938,408.3906 C694.5938,407.9375 694.2031,407.5469 693.7344,407.5469 C693.5156,407.5469 693.3125,407.625 693.125,407.8125 C692.6719,408.2969 692.6719,408.2969 692.4844,408.3906 C692.0625,408.6563 691.375,408.7813 690.6094,408.7813 C688.5625,408.7813 687.2656,407.6875 687.2656,405.9844 L687.2656,404.8906 C687.2656,403.1094 688.5156,401.7969 690.25,401.7969 C690.8281,401.7969 691.4375,401.9531 691.9063,402.2031 C692.3906,402.4844 692.5625,402.7031 692.6563,403.1094 C692.7188,403.5156 692.75,403.6406 692.8906,403.7656 C693.0313,403.9063 693.2656,404.0156 693.4844,404.0156 C693.75,404.0156 694.0156,403.875 694.1875,403.6563 C694.2969,403.5 694.3281,403.3125 694.3281,402.8906 L694.3281,401.4688 C694.3281,401.0313 694.3125,400.9063 694.2188,400.75 C694.0625,400.4844 693.7813,400.3438 693.4844,400.3438 C693.1875,400.3438 692.9844,400.4375 692.7656,400.75 L692.5938,400.6719 Z " fill="#000000"/><text fill="#000000" font-family="sans-serif" font-size="12" lengthAdjust="spacing" textLength="98" x="710.75" y="409.1543">ConfirmedOrder</text><line style="stroke:#A80036;stroke-width:1.5;" x1="503.5" x2="983.5" y1="421" y2="421"/><ellipse cx="513.5" cy="432" rx="3" ry="3" style="stroke:#038048;stroke-width:1.0;fill:none;"/><text fill="#000000" font-family="sans-serif" font-size="11" lengthAdjust="spacing" textLength="145" x="522.5" y="435.2104">ShippingDate : DateTime</text><ellipse cx="513.5" cy="444.8047" rx="3" ry="3" style="stroke:#038048;stroke-width:1.0;fill:none;"/><text fill="#000000" font-family="sans-serif" font-size="11" lengthAdjust="spacing" textLength="130" x="522.5" y="448.0151">ShippingCost : decimal</text><line style="stroke:#A80036;stroke-width:1.0;" x1="503.5" x2="983.5" y1="454.6094" y2="454.6094"/><ellipse cx="513.5" cy="465.6094" fill="#84BE84" rx="3" ry="3" style="stroke:#038048;stroke-width:1.0;"/><text fill="#000000" font-family="sans-serif" font-size="11" lengthAdjust="spacing" textLength="456" x="522.5" y="468.8198">ConfirmedOrder(Order order, DeliveryDate deliveryDate, decimal shippingCost)</text><ellipse cx="513.5" cy="478.4141" fill="#84BE84" rx="3" ry="3" style="stroke:#038048;stroke-width:1.0;"/><text fill="#000000" font-family="sans-serif" font-size="11" lengthAdjust="spacing" textLength="116" x="522.5" y="481.6245">CalculateTotalPrice()</text><!--MD5=[70935dd098ed5da231aa315676372594]
link Offer to Store--><path codeLine="14" d="M262.1295,669.7624 C262.1295,669.7624 219.071,724.048 201.999,745.571 " fill="none" id="Offer-Store" style="stroke:#A80036;stroke-width:1.0;"/><polygon fill="#A80036" points="193.822,755.88,202.5486,751.3142,196.929,751.9626,196.2807,746.343,193.822,755.88" style="stroke:#A80036;stroke-width:1.0;"/><line style="stroke:#A80036;stroke-width:1.0;" x1="196.929" x2="201.901" y1="751.9626" y2="745.6945"/><polygon fill="#FFFFFF" points="269.587,660.361,262.7245,662.5758,262.1295,669.7624,268.992,667.5475,269.587,660.361" style="stroke:#A80036;stroke-width:1.0;"/><!--MD5=[48899a5fad677940e75da7b5e010d5cb]
link Offer to Product--><path codeLine="15" d="M360.602,664.383 C373.665,680.851 387.923,698.826 401.26,715.64 " fill="none" id="Offer-Product" style="stroke:#A80036;stroke-width:1.0;"/><polygon fill="#A80036" points="404.629,719.888,402.1698,710.3511,401.5218,715.9707,395.9021,715.3227,404.629,719.888" style="stroke:#A80036;stroke-width:1.0;"/><polygon fill="#A80036" points="357.413,660.361,359.8722,669.8979,360.5202,664.2783,366.1399,664.9263,357.413,660.361" style="stroke:#A80036;stroke-width:1.0;"/><!--MD5=[5c0c66984b48f13f6f1fd84ba8e61151]
link Product to ProductCategory--><path codeLine="33" d="M453.5,857.312 C453.5,857.312 453.5,881.119 453.5,891.8053 " fill="none" id="Product-ProductCategory" style="stroke:#A80036;stroke-width:1.0;"/><polygon fill="#A80036" points="453.5,904.9146,457.5,895.9146,453.5,899.9146,449.5,895.9146,453.5,904.9146" style="stroke:#A80036;stroke-width:1.0;"/><line style="stroke:#A80036;stroke-width:1.0;" x1="453.5" x2="453.5" y1="899.9146" y2="891.9146"/><polygon fill="#FFFFFF" points="453.5,845.312,449.5,851.312,453.5,857.312,457.5,851.312,453.5,845.312" style="stroke:#A80036;stroke-width:1.0;"/><!--MD5=[9d267913275094cee8b213adaba16fc1]
link Customer to Address--><path codeLine="50" d="M153.9401,162.1397 C153.9401,162.1397 139.411,195.281 133.5,211 C111.739,268.872 92.6928,337.249 80.7263,383.62 " fill="none" id="Customer-Address" style="stroke:#A80036;stroke-width:1.0;"/><polygon fill="#A80036" points="77.4681,396.382,83.5701,388.6511,78.7049,391.5374,75.8187,386.6722,77.4681,396.382" style="stroke:#A80036;stroke-width:1.0;"/><line style="stroke:#A80036;stroke-width:1.0;" x1="78.7049" x2="80.6838" y1="391.5374" y2="383.7865"/><polygon fill="#A80036" points="158.938,151.23,152.8025,155.0189,153.9401,162.1397,160.0756,158.3508,158.938,151.23" style="stroke:#A80036;stroke-width:1.0;"/><!--MD5=[135794f54b59c9e5883929d048383f81]
link Customer to Order--><path codeLine="51" d="M241.1298,161.6018 C241.1298,161.6018 255.848,187.359 262.609,199.19 " fill="none" id="Customer-Order" style="stroke:#A80036;stroke-width:1.0;"/><polygon fill="#A80036" points="269.246,210.806,268.2536,201.0073,266.7652,206.4648,261.3077,204.9765,269.246,210.806" style="stroke:#A80036;stroke-width:1.0;"/><line style="stroke:#A80036;stroke-width:1.0;" x1="266.7652" x2="262.7965" y1="206.4648" y2="199.5185"/><polygon fill="#FFFFFF" points="235.176,151.183,234.68,158.377,241.1298,161.6018,241.6259,154.4078,235.176,151.183" style="stroke:#A80036;stroke-width:1.0;"/><!--MD5=[06a6064c5cdd443a62b5eb59fb550c27]
link Order to OrderItem--><path codeLine="61" d="M307.1382,341.2079 C307.1382,341.2079 308.708,364.959 309.431,375.912 " fill="none" id="Order-OrderItem" style="stroke:#A80036;stroke-width:1.0;"/><polygon fill="#A80036" points="310.292,388.95,313.6899,379.7058,309.9623,383.9609,305.7073,380.2333,310.292,388.95" style="stroke:#A80036;stroke-width:1.0;"/><line style="stroke:#A80036;stroke-width:1.0;" x1="309.9623" x2="309.435" y1="383.9609" y2="375.978"/><polygon fill="#FFFFFF" points="306.347,329.234,302.7513,335.4847,307.1382,341.2079,310.7339,334.9572,306.347,329.234" style="stroke:#A80036;stroke-width:1.0;"/><!--MD5=[dd2bca8e69277b6dcf04d6bf8fed5dca]
link Order to Address--><path codeLine="62" d="M210.5161,336.1708 C210.5161,336.1708 158.916,372.731 135.922,389.022 " fill="none" id="Order-Address" style="stroke:#A80036;stroke-width:1.0;"/><polygon fill="#A80036" points="125.246,396.586,134.902,394.6465,129.3257,393.6953,130.2769,388.119,125.246,396.586" style="stroke:#A80036;stroke-width:1.0;"/><line style="stroke:#A80036;stroke-width:1.0;" x1="129.3257" x2="135.8535" y1="393.6953" y2="389.0705"/><polygon fill="#A80036" points="220.308,329.234,213.0998,329.4384,210.5161,336.1708,217.7243,335.9663,220.308,329.234" style="stroke:#A80036;stroke-width:1.0;"/><!--MD5=[f5a109dc68a5a291de32587bf3dd2a25]
reverse link Order to ConfirmedOrder--><path codeLine="71" d="M473.19,335.444 C520.313,353.236 570.639,372.236 614.935,388.96 " fill="none" id="Order-backto-ConfirmedOrder" style="stroke:#A80036;stroke-width:1.0;"/><polygon fill="none" points="470.506,341.913,454.267,328.3,475.451,328.815,470.506,341.913" style="stroke:#A80036;stroke-width:1.0;"/><!--MD5=[8a30c1d737f4fb0d0fcc76b30e249134]
link OrderItem to Offer--><path codeLine="80" d="M313.5,500.113 C313.5,500.113 313.5,523.613 313.5,534.692 " fill="none" id="OrderItem-Offer" style="stroke:#A80036;stroke-width:1.0;"/><polygon fill="#A80036" points="313.5,547.981,317.5,538.981,313.5,542.981,309.5,538.981,313.5,547.981" style="stroke:#A80036;stroke-width:1.0;"/><line style="stroke:#A80036;stroke-width:1.0;" x1="313.5" x2="313.5" y1="542.981" y2="534.981"/><polygon fill="#FFFFFF" points="313.5,488.113,309.5,494.113,313.5,500.113,317.5,494.113,313.5,488.113" style="stroke:#A80036;stroke-width:1.0;"/><!--MD5=[e56c998618aadb6128810b09742f4df8]
@startuml
hide empty methods
class Store {
    +Name : string
}

class Offer  {
    +Product : Product
    +Store : Store
    +Price : decimal
    +LastUpdate : DateTime
    - - -
    +Offer(Product product, Store store, decimal price, DateTime lastUpdate)
}
Offer o- -> Store
Offer <- -> Product

class ProductCategory {
    +Name : string
    +NameEn : string?
    - - -
    +ProductCategory(string name)
}

class Product {
    +Ean : int <<unique>>
    +Name : string
    +ProductCategory : ProductCategory
    +Offers : ICollection<Offer>
    - - -
    +Product(int ean, string name, ProductCategory productCategory)
    +CalculateAveragePrice()
}
Product o- -> ProductCategory

class Address<<value object>> {
    +Street : string
    +Zip : string
    +City : string
}
class Customer <<Aggregate>> {
    +Firstname : string
    +Lastname : string
    +Address : Address
    +Orders : IReadOnlyCollection<Order>
    - - -
    +Customer(string firstname, string lastname, Address address)
    +ConfirmOrder(Order order)
    +PlaceOrder(Order order)
}
Customer *- -> Address
Customer o- -> Order

class Order <<Aggregate>> {
    +Date : DateTime
    +ShippingAddress : Address
    +OrderItems : IReadOnlyCollection<OrderItem>
    - - -
    +Order(DateTime date, Address shippingAddress)
    +AddOrderItem(OrderItem orderItem)
}
Order o- -> OrderItem
Order *- -> Address

class ConfirmedOrder {
    +ShippingDate : DateTime
    +ShippingCost : decimal
    - - -
    +ConfirmedOrder(Order order, DeliveryDate deliveryDate, decimal shippingCost)
    +CalculateTotalPrice()
}
ConfirmedOrder -up-|> Order 

class OrderItem {
    +Offer : Offer
    +Price : decimal
    +Quantity : int
    - - -
    +OrderItem(Offer offer, decimal price, int quantity)
}
OrderItem o- -> Offer
@enduml

PlantUML version 1.2021.16beta1(Unknown compile time)
(GPL source distribution)
Java Runtime: Java(TM) SE Runtime Environment
JVM: Java HotSpot(TM) 64-Bit Server VM
Default Encoding: UTF-8
Language: en
Country: US
--></g></svg>