<?xml version="1.0" encoding="UTF-8" standalone="no"?><svg xmlns="http://www.w3.org/2000/svg" xmlns:xlink="http://www.w3.org/1999/xlink" contentScriptType="application/ecmascript" contentStyleType="text/css" height="699px" preserveAspectRatio="none" style="width:1129px;height:699px;background:#FFFFFF;" version="1.1" viewBox="0 0 1129 699" width="1129px" zoomAndPan="magnify"><defs><filter height="300%" id="fp06maye9skud" width="300%" x="-1" y="-1"><feGaussianBlur result="blurOut" stdDeviation="2.0"/><feColorMatrix in="blurOut" result="blurOut2" type="matrix" values="0 0 0 0 0 0 0 0 0 0 0 0 0 0 0 0 0 0 .4 0"/><feOffset dx="4.0" dy="4.0" in="blurOut2" result="blurOut3"/><feBlend in="SourceGraphic" in2="blurOut3" mode="normal"/></filter></defs><g><!--MD5=[53f6a92bd21ca2f2960392a061f3a1c6]
class Name--><rect codeLine="1" fill="#FEFECE" filter="url(#fp06maye9skud)" height="105.1563" id="Name" style="stroke:#A80036;stroke-width:1.5;" width="326" x="267" y="580"/><ellipse cx="384.25" cy="598.9688" fill="#ADD1B2" rx="11" ry="11" style="stroke:#A80036;stroke-width:1.0;"/><path d="M386.5938,594.6406 C385.6563,594.2031 385.0625,594.0625 384.1875,594.0625 C381.5625,594.0625 379.5625,596.1406 379.5625,598.8594 L379.5625,599.9844 C379.5625,602.5625 381.6719,604.4531 384.5625,604.4531 C385.7813,604.4531 386.9375,604.1563 387.6875,603.6094 C388.2656,603.2031 388.5938,602.75 388.5938,602.3594 C388.5938,601.9063 388.2031,601.5156 387.7344,601.5156 C387.5156,601.5156 387.3125,601.5938 387.125,601.7813 C386.6719,602.2656 386.6719,602.2656 386.4844,602.3594 C386.0625,602.625 385.375,602.75 384.6094,602.75 C382.5625,602.75 381.2656,601.6563 381.2656,599.9531 L381.2656,598.8594 C381.2656,597.0781 382.5156,595.7656 384.25,595.7656 C384.8281,595.7656 385.4375,595.9219 385.9063,596.1719 C386.3906,596.4531 386.5625,596.6719 386.6563,597.0781 C386.7188,597.4844 386.75,597.6094 386.8906,597.7344 C387.0313,597.875 387.2656,597.9844 387.4844,597.9844 C387.75,597.9844 388.0156,597.8438 388.1875,597.625 C388.2969,597.4688 388.3281,597.2813 388.3281,596.8594 L388.3281,595.4375 C388.3281,595 388.3125,594.875 388.2188,594.7188 C388.0625,594.4531 387.7813,594.3125 387.4844,594.3125 C387.1875,594.3125 386.9844,594.4063 386.7656,594.7188 L386.5938,594.6406 Z " fill="#000000"/><text fill="#000000" font-family="sans-serif" font-size="12" font-style="italic" lengthAdjust="spacing" textLength="87" x="402.75" y="596.1387">«value object»</text><text fill="#000000" font-family="sans-serif" font-size="12" lengthAdjust="spacing" textLength="34" x="429.25" y="610.1074">Name</text><line style="stroke:#A80036;stroke-width:1.5;" x1="268" x2="592" y1="617.9375" y2="617.9375"/><ellipse cx="278" cy="628.9375" rx="3" ry="3" style="stroke:#038048;stroke-width:1.0;fill:none;"/><text fill="#000000" font-family="sans-serif" font-size="11" lengthAdjust="spacing" textLength="98" x="287" y="632.1479">Firstname : string</text><ellipse cx="278" cy="641.7422" rx="3" ry="3" style="stroke:#038048;stroke-width:1.0;fill:none;"/><text fill="#000000" font-family="sans-serif" font-size="11" lengthAdjust="spacing" textLength="98" x="287" y="644.9526">Lastname : string</text><ellipse cx="278" cy="654.5469" rx="3" ry="3" style="stroke:#038048;stroke-width:1.0;fill:none;"/><text fill="#000000" font-family="sans-serif" font-size="11" lengthAdjust="spacing" textLength="73" x="287" y="657.7573">Email : string</text><line style="stroke:#A80036;stroke-width:1.0;" x1="268" x2="592" y1="664.3516" y2="664.3516"/><ellipse cx="278" cy="675.3516" fill="#84BE84" rx="3" ry="3" style="stroke:#038048;stroke-width:1.0;"/><text fill="#000000" font-family="sans-serif" font-size="11" lengthAdjust="spacing" textLength="300" x="287" y="678.562">Name(string firstname, string lastname, string email)</text><!--MD5=[d6181cb537bdc20c0a3007a98a56832d]
class Student--><rect codeLine="9" fill="#FEFECE" filter="url(#fp06maye9skud)" height="86.4141" id="Student" style="stroke:#A80036;stroke-width:1.5;" width="198" x="7" y="434"/><ellipse cx="78.75" cy="450" fill="#ADD1B2" rx="11" ry="11" style="stroke:#A80036;stroke-width:1.0;"/><path d="M81.0938,445.6719 C80.1563,445.2344 79.5625,445.0938 78.6875,445.0938 C76.0625,445.0938 74.0625,447.1719 74.0625,449.8906 L74.0625,451.0156 C74.0625,453.5938 76.1719,455.4844 79.0625,455.4844 C80.2813,455.4844 81.4375,455.1875 82.1875,454.6406 C82.7656,454.2344 83.0938,453.7813 83.0938,453.3906 C83.0938,452.9375 82.7031,452.5469 82.2344,452.5469 C82.0156,452.5469 81.8125,452.625 81.625,452.8125 C81.1719,453.2969 81.1719,453.2969 80.9844,453.3906 C80.5625,453.6563 79.875,453.7813 79.1094,453.7813 C77.0625,453.7813 75.7656,452.6875 75.7656,450.9844 L75.7656,449.8906 C75.7656,448.1094 77.0156,446.7969 78.75,446.7969 C79.3281,446.7969 79.9375,446.9531 80.4063,447.2031 C80.8906,447.4844 81.0625,447.7031 81.1563,448.1094 C81.2188,448.5156 81.25,448.6406 81.3906,448.7656 C81.5313,448.9063 81.7656,449.0156 81.9844,449.0156 C82.25,449.0156 82.5156,448.875 82.6875,448.6563 C82.7969,448.5 82.8281,448.3125 82.8281,447.8906 L82.8281,446.4688 C82.8281,446.0313 82.8125,445.9063 82.7188,445.75 C82.5625,445.4844 82.2813,445.3438 81.9844,445.3438 C81.6875,445.3438 81.4844,445.4375 81.2656,445.75 L81.0938,445.6719 Z " fill="#000000"/><text fill="#000000" font-family="sans-serif" font-size="12" lengthAdjust="spacing" textLength="46" x="99.25" y="454.1543">Student</text><line style="stroke:#A80036;stroke-width:1.5;" x1="8" x2="204" y1="466" y2="466"/><ellipse cx="18" cy="477" rx="3" ry="3" style="stroke:#038048;stroke-width:1.0;fill:none;"/><text fill="#000000" font-family="sans-serif" font-size="11" lengthAdjust="spacing" textLength="79" x="27" y="480.2104">Name : Name</text><ellipse cx="18" cy="489.8047" rx="3" ry="3" style="stroke:#038048;stroke-width:1.0;fill:none;"/><text fill="#000000" font-family="sans-serif" font-size="11" lengthAdjust="spacing" textLength="172" x="27" y="493.0151">HandIns : ICollection&lt;HandIn&gt;</text><line style="stroke:#A80036;stroke-width:1.0;" x1="8" x2="204" y1="499.6094" y2="499.6094"/><ellipse cx="18" cy="510.6094" fill="#84BE84" rx="3" ry="3" style="stroke:#038048;stroke-width:1.0;"/><text fill="#000000" font-family="sans-serif" font-size="11" lengthAdjust="spacing" textLength="121" x="27" y="513.8198">Student(string name)</text><!--MD5=[61a83f88cb8b7d3a80bc8c481f3736bf]
class Teacher--><rect codeLine="17" fill="#FEFECE" filter="url(#fp06maye9skud)" height="73.6094" id="Teacher" style="stroke:#A80036;stroke-width:1.5;" width="149" x="680.5" y="440"/><ellipse cx="726.25" cy="456" fill="#ADD1B2" rx="11" ry="11" style="stroke:#A80036;stroke-width:1.0;"/><path d="M728.5938,451.6719 C727.6563,451.2344 727.0625,451.0938 726.1875,451.0938 C723.5625,451.0938 721.5625,453.1719 721.5625,455.8906 L721.5625,457.0156 C721.5625,459.5938 723.6719,461.4844 726.5625,461.4844 C727.7813,461.4844 728.9375,461.1875 729.6875,460.6406 C730.2656,460.2344 730.5938,459.7813 730.5938,459.3906 C730.5938,458.9375 730.2031,458.5469 729.7344,458.5469 C729.5156,458.5469 729.3125,458.625 729.125,458.8125 C728.6719,459.2969 728.6719,459.2969 728.4844,459.3906 C728.0625,459.6563 727.375,459.7813 726.6094,459.7813 C724.5625,459.7813 723.2656,458.6875 723.2656,456.9844 L723.2656,455.8906 C723.2656,454.1094 724.5156,452.7969 726.25,452.7969 C726.8281,452.7969 727.4375,452.9531 727.9063,453.2031 C728.3906,453.4844 728.5625,453.7031 728.6563,454.1094 C728.7188,454.5156 728.75,454.6406 728.8906,454.7656 C729.0313,454.9063 729.2656,455.0156 729.4844,455.0156 C729.75,455.0156 730.0156,454.875 730.1875,454.6563 C730.2969,454.5 730.3281,454.3125 730.3281,453.8906 L730.3281,452.4688 C730.3281,452.0313 730.3125,451.9063 730.2188,451.75 C730.0625,451.4844 729.7813,451.3438 729.4844,451.3438 C729.1875,451.3438 728.9844,451.4375 728.7656,451.75 L728.5938,451.6719 Z " fill="#000000"/><text fill="#000000" font-family="sans-serif" font-size="12" lengthAdjust="spacing" textLength="49" x="746.75" y="460.1543">Teacher</text><line style="stroke:#A80036;stroke-width:1.5;" x1="681.5" x2="828.5" y1="472" y2="472"/><ellipse cx="691.5" cy="483" rx="3" ry="3" style="stroke:#038048;stroke-width:1.0;fill:none;"/><text fill="#000000" font-family="sans-serif" font-size="11" lengthAdjust="spacing" textLength="79" x="700.5" y="486.2104">Name : Name</text><line style="stroke:#A80036;stroke-width:1.0;" x1="681.5" x2="828.5" y1="492.8047" y2="492.8047"/><ellipse cx="691.5" cy="503.8047" fill="#84BE84" rx="3" ry="3" style="stroke:#038048;stroke-width:1.0;"/><text fill="#000000" font-family="sans-serif" font-size="11" lengthAdjust="spacing" textLength="123" x="700.5" y="507.0151">Teacher(string name)</text><!--MD5=[dfb0845b8492ffe07b1ce50e003034d7]
class Team--><rect codeLine="24" fill="#FEFECE" filter="url(#fp06maye9skud)" height="112.0234" id="Team" style="stroke:#A80036;stroke-width:1.5;" width="372" x="743" y="262"/><ellipse cx="908.25" cy="278" fill="#ADD1B2" rx="11" ry="11" style="stroke:#A80036;stroke-width:1.0;"/><path d="M910.5938,273.6719 C909.6563,273.2344 909.0625,273.0938 908.1875,273.0938 C905.5625,273.0938 903.5625,275.1719 903.5625,277.8906 L903.5625,279.0156 C903.5625,281.5938 905.6719,283.4844 908.5625,283.4844 C909.7813,283.4844 910.9375,283.1875 911.6875,282.6406 C912.2656,282.2344 912.5938,281.7813 912.5938,281.3906 C912.5938,280.9375 912.2031,280.5469 911.7344,280.5469 C911.5156,280.5469 911.3125,280.625 911.125,280.8125 C910.6719,281.2969 910.6719,281.2969 910.4844,281.3906 C910.0625,281.6563 909.375,281.7813 908.6094,281.7813 C906.5625,281.7813 905.2656,280.6875 905.2656,278.9844 L905.2656,277.8906 C905.2656,276.1094 906.5156,274.7969 908.25,274.7969 C908.8281,274.7969 909.4375,274.9531 909.9063,275.2031 C910.3906,275.4844 910.5625,275.7031 910.6563,276.1094 C910.7188,276.5156 910.75,276.6406 910.8906,276.7656 C911.0313,276.9063 911.2656,277.0156 911.4844,277.0156 C911.75,277.0156 912.0156,276.875 912.1875,276.6563 C912.2969,276.5 912.3281,276.3125 912.3281,275.8906 L912.3281,274.4688 C912.3281,274.0313 912.3125,273.9063 912.2188,273.75 C912.0625,273.4844 911.7813,273.3438 911.4844,273.3438 C911.1875,273.3438 910.9844,273.4375 910.7656,273.75 L910.5938,273.6719 Z " fill="#000000"/><text fill="#000000" font-family="sans-serif" font-size="12" lengthAdjust="spacing" textLength="33" x="928.75" y="282.1543">Team</text><line style="stroke:#A80036;stroke-width:1.5;" x1="744" x2="1114" y1="294" y2="294"/><ellipse cx="754" cy="305" rx="3" ry="3" style="stroke:#038048;stroke-width:1.0;fill:none;"/><text fill="#000000" font-family="sans-serif" font-size="11" lengthAdjust="spacing" textLength="76" x="763" y="308.2104">Name : string</text><ellipse cx="754" cy="317.8047" rx="3" ry="3" style="stroke:#038048;stroke-width:1.0;fill:none;"/><text fill="#000000" font-family="sans-serif" font-size="11" lengthAdjust="spacing" textLength="108" x="763" y="321.0151">Schoolclass : string</text><ellipse cx="754" cy="330.6094" rx="3" ry="3" style="stroke:#038048;stroke-width:1.0;fill:none;"/><text fill="#000000" font-family="sans-serif" font-size="11" lengthAdjust="spacing" textLength="146" x="763" y="333.8198">Tasks : ICollection&lt;Task&gt;</text><line style="stroke:#A80036;stroke-width:1.0;" x1="744" x2="1114" y1="340.4141" y2="340.4141"/><ellipse cx="754" cy="351.4141" fill="#84BE84" rx="3" ry="3" style="stroke:#038048;stroke-width:1.0;"/><text fill="#000000" font-family="sans-serif" font-size="11" lengthAdjust="spacing" textLength="215" x="763" y="354.6245">Team(string name, string schoolclass)</text><ellipse cx="754" cy="364.2188" fill="#84BE84" rx="3" ry="3" style="stroke:#038048;stroke-width:1.0;"/><text fill="#000000" font-family="sans-serif" font-size="11" lengthAdjust="spacing" textLength="346" x="763" y="367.4292">IReadOnlyCollection&lt;Task&gt; GetActiveTasks(DateTime date)</text><!--MD5=[b34797a66dc35cbf1d65f7e3ca75530e]
class Task--><rect codeLine="33" fill="#FEFECE" filter="url(#fp06maye9skud)" height="194.7891" id="Task" style="stroke:#A80036;stroke-width:1.5;" width="612" x="384" y="7"/><ellipse cx="649.75" cy="25.9688" fill="#ADD1B2" rx="11" ry="11" style="stroke:#A80036;stroke-width:1.0;"/><path d="M652.0938,21.6406 C651.1563,21.2031 650.5625,21.0625 649.6875,21.0625 C647.0625,21.0625 645.0625,23.1406 645.0625,25.8594 L645.0625,26.9844 C645.0625,29.5625 647.1719,31.4531 650.0625,31.4531 C651.2813,31.4531 652.4375,31.1563 653.1875,30.6094 C653.7656,30.2031 654.0938,29.75 654.0938,29.3594 C654.0938,28.9063 653.7031,28.5156 653.2344,28.5156 C653.0156,28.5156 652.8125,28.5938 652.625,28.7813 C652.1719,29.2656 652.1719,29.2656 651.9844,29.3594 C651.5625,29.625 650.875,29.75 650.1094,29.75 C648.0625,29.75 646.7656,28.6563 646.7656,26.9531 L646.7656,25.8594 C646.7656,24.0781 648.0156,22.7656 649.75,22.7656 C650.3281,22.7656 650.9375,22.9219 651.4063,23.1719 C651.8906,23.4531 652.0625,23.6719 652.1563,24.0781 C652.2188,24.4844 652.25,24.6094 652.3906,24.7344 C652.5313,24.875 652.7656,24.9844 652.9844,24.9844 C653.25,24.9844 653.5156,24.8438 653.6875,24.625 C653.7969,24.4688 653.8281,24.2813 653.8281,23.8594 L653.8281,22.4375 C653.8281,22 653.8125,21.875 653.7188,21.7188 C653.5625,21.4531 653.2813,21.3125 652.9844,21.3125 C652.6875,21.3125 652.4844,21.4063 652.2656,21.7188 L652.0938,21.6406 Z " fill="#000000"/><text fill="#000000" font-family="sans-serif" font-size="12" font-style="italic" lengthAdjust="spacing" textLength="76" x="668.25" y="23.1387">«aggregate»</text><text fill="#000000" font-family="sans-serif" font-size="12" lengthAdjust="spacing" textLength="28" x="692.25" y="37.1074">Task</text><line style="stroke:#A80036;stroke-width:1.5;" x1="385" x2="995" y1="44.9375" y2="44.9375"/><ellipse cx="395" cy="55.9375" rx="3" ry="3" style="stroke:#038048;stroke-width:1.0;fill:none;"/><text fill="#000000" font-family="sans-serif" font-size="11" lengthAdjust="spacing" textLength="85" x="404" y="59.1479">Subject : string</text><ellipse cx="395" cy="68.7422" rx="3" ry="3" style="stroke:#038048;stroke-width:1.0;fill:none;"/><text fill="#000000" font-family="sans-serif" font-size="11" lengthAdjust="spacing" textLength="67" x="404" y="71.9526">Title : string</text><ellipse cx="395" cy="81.5469" rx="3" ry="3" style="stroke:#038048;stroke-width:1.0;fill:none;"/><text fill="#000000" font-family="sans-serif" font-size="11" lengthAdjust="spacing" textLength="77" x="404" y="84.7573">Team : Team</text><ellipse cx="395" cy="94.3516" rx="3" ry="3" style="stroke:#038048;stroke-width:1.0;fill:none;"/><text fill="#000000" font-family="sans-serif" font-size="11" lengthAdjust="spacing" textLength="105" x="404" y="97.562">Teacher : Teacher</text><ellipse cx="395" cy="107.1563" rx="3" ry="3" style="stroke:#038048;stroke-width:1.0;fill:none;"/><text fill="#000000" font-family="sans-serif" font-size="11" lengthAdjust="spacing" textLength="152" x="404" y="110.3667">ExpirationDate : DateTime</text><ellipse cx="395" cy="119.9609" rx="3" ry="3" style="stroke:#038048;stroke-width:1.0;fill:none;"/><text fill="#000000" font-family="sans-serif" font-size="11" lengthAdjust="spacing" textLength="81" x="404" y="123.1714">MaxPoints : int</text><ellipse cx="395" cy="132.7656" rx="3" ry="3" style="stroke:#038048;stroke-width:1.0;fill:none;"/><text fill="#000000" font-family="sans-serif" font-size="11" lengthAdjust="spacing" textLength="227" x="404" y="135.9761">HandIns : IReadOnlyCollection&lt;HandIn&gt;</text><line style="stroke:#A80036;stroke-width:1.0;" x1="385" x2="995" y1="142.5703" y2="142.5703"/><ellipse cx="395" cy="153.5703" fill="#84BE84" rx="3" ry="3" style="stroke:#038048;stroke-width:1.0;"/><text fill="#000000" font-family="sans-serif" font-size="11" lengthAdjust="spacing" textLength="586" x="404" y="156.7808">Task(string subject, string title, Team team, Teacher teacher, DateTime expirationDate, int maxPoints)</text><ellipse cx="395" cy="166.375" fill="#84BE84" rx="3" ry="3" style="stroke:#038048;stroke-width:1.0;"/><text fill="#000000" font-family="sans-serif" font-size="11" lengthAdjust="spacing" textLength="174" x="404" y="169.5854">bool TryHandIn(HandIn handIn)</text><ellipse cx="395" cy="179.1797" fill="#84BE84" rx="3" ry="3" style="stroke:#038048;stroke-width:1.0;"/><text fill="#000000" font-family="sans-serif" font-size="11" lengthAdjust="spacing" textLength="364" x="404" y="182.3901">ReviewHandIn(HandIn handIn, DateTime reviewDate, int points)</text><ellipse cx="395" cy="191.9844" fill="#84BE84" rx="3" ry="3" style="stroke:#038048;stroke-width:1.0;"/><text fill="#000000" font-family="sans-serif" font-size="11" lengthAdjust="spacing" textLength="192" x="404" y="195.1948">decimal CalculateAveragePoints()</text><!--MD5=[5d694e73d8201b0682522ad17ed95015]
class HandIn--><rect codeLine="51" fill="#FEFECE" filter="url(#fp06maye9skud)" height="99.2188" id="HandIn" style="stroke:#A80036;stroke-width:1.5;" width="259" x="313.5" y="268.5"/><ellipse cx="418.25" cy="284.5" fill="#ADD1B2" rx="11" ry="11" style="stroke:#A80036;stroke-width:1.0;"/><path d="M420.5938,280.1719 C419.6563,279.7344 419.0625,279.5938 418.1875,279.5938 C415.5625,279.5938 413.5625,281.6719 413.5625,284.3906 L413.5625,285.5156 C413.5625,288.0938 415.6719,289.9844 418.5625,289.9844 C419.7813,289.9844 420.9375,289.6875 421.6875,289.1406 C422.2656,288.7344 422.5938,288.2813 422.5938,287.8906 C422.5938,287.4375 422.2031,287.0469 421.7344,287.0469 C421.5156,287.0469 421.3125,287.125 421.125,287.3125 C420.6719,287.7969 420.6719,287.7969 420.4844,287.8906 C420.0625,288.1563 419.375,288.2813 418.6094,288.2813 C416.5625,288.2813 415.2656,287.1875 415.2656,285.4844 L415.2656,284.3906 C415.2656,282.6094 416.5156,281.2969 418.25,281.2969 C418.8281,281.2969 419.4375,281.4531 419.9063,281.7031 C420.3906,281.9844 420.5625,282.2031 420.6563,282.6094 C420.7188,283.0156 420.75,283.1406 420.8906,283.2656 C421.0313,283.4063 421.2656,283.5156 421.4844,283.5156 C421.75,283.5156 422.0156,283.375 422.1875,283.1563 C422.2969,283 422.3281,282.8125 422.3281,282.3906 L422.3281,280.9688 C422.3281,280.5313 422.3125,280.4063 422.2188,280.25 C422.0625,279.9844 421.7813,279.8438 421.4844,279.8438 C421.1875,279.8438 420.9844,279.9375 420.7656,280.25 L420.5938,280.1719 Z " fill="#000000"/><text fill="#000000" font-family="sans-serif" font-size="12" lengthAdjust="spacing" textLength="41" x="438.75" y="288.6543">HandIn</text><line style="stroke:#A80036;stroke-width:1.5;" x1="314.5" x2="571.5" y1="300.5" y2="300.5"/><ellipse cx="324.5" cy="311.5" rx="3" ry="3" style="stroke:#038048;stroke-width:1.0;fill:none;"/><text fill="#000000" font-family="sans-serif" font-size="11" lengthAdjust="spacing" textLength="101" x="333.5" y="314.7104">Student : Student</text><ellipse cx="324.5" cy="324.3047" rx="3" ry="3" style="stroke:#038048;stroke-width:1.0;fill:none;"/><text fill="#000000" font-family="sans-serif" font-size="11" lengthAdjust="spacing" textLength="96" x="333.5" y="327.5151">Date : DateTime</text><line style="stroke:#A80036;stroke-width:1.0;" x1="314.5" x2="571.5" y1="334.1094" y2="334.1094"/><ellipse cx="324.5" cy="345.1094" fill="#84BE84" rx="3" ry="3" style="stroke:#038048;stroke-width:1.0;"/><text fill="#000000" font-family="sans-serif" font-size="11" lengthAdjust="spacing" textLength="233" x="333.5" y="348.3198">HandIn(Student student, DateTime date)</text><polygon fill="#FFFF44" points="324.5,352.9141,328.5,356.9141,324.5,360.9141,320.5,356.9141" style="stroke:#B38D22;stroke-width:1.0;"/><text fill="#000000" font-family="sans-serif" font-size="11" lengthAdjust="spacing" textLength="128" x="333.5" y="361.1245">HandIn(HandIn handIn)</text><!--MD5=[bae54f04f207ba20d0cb30ade9c93b6a]
class ReviewedHandIn--><rect codeLine="60" fill="#FEFECE" filter="url(#fp06maye9skud)" height="86.4141" id="ReviewedHandIn" style="stroke:#A80036;stroke-width:1.5;" width="405" x="240.5" y="434"/><ellipse cx="388.75" cy="450" fill="#ADD1B2" rx="11" ry="11" style="stroke:#A80036;stroke-width:1.0;"/><path d="M391.0938,445.6719 C390.1563,445.2344 389.5625,445.0938 388.6875,445.0938 C386.0625,445.0938 384.0625,447.1719 384.0625,449.8906 L384.0625,451.0156 C384.0625,453.5938 386.1719,455.4844 389.0625,455.4844 C390.2813,455.4844 391.4375,455.1875 392.1875,454.6406 C392.7656,454.2344 393.0938,453.7813 393.0938,453.3906 C393.0938,452.9375 392.7031,452.5469 392.2344,452.5469 C392.0156,452.5469 391.8125,452.625 391.625,452.8125 C391.1719,453.2969 391.1719,453.2969 390.9844,453.3906 C390.5625,453.6563 389.875,453.7813 389.1094,453.7813 C387.0625,453.7813 385.7656,452.6875 385.7656,450.9844 L385.7656,449.8906 C385.7656,448.1094 387.0156,446.7969 388.75,446.7969 C389.3281,446.7969 389.9375,446.9531 390.4063,447.2031 C390.8906,447.4844 391.0625,447.7031 391.1563,448.1094 C391.2188,448.5156 391.25,448.6406 391.3906,448.7656 C391.5313,448.9063 391.7656,449.0156 391.9844,449.0156 C392.25,449.0156 392.5156,448.875 392.6875,448.6563 C392.7969,448.5 392.8281,448.3125 392.8281,447.8906 L392.8281,446.4688 C392.8281,446.0313 392.8125,445.9063 392.7188,445.75 C392.5625,445.4844 392.2813,445.3438 391.9844,445.3438 C391.6875,445.3438 391.4844,445.4375 391.2656,445.75 L391.0938,445.6719 Z " fill="#000000"/><text fill="#000000" font-family="sans-serif" font-size="12" lengthAdjust="spacing" textLength="100" x="409.25" y="454.1543">ReviewedHandIn</text><line style="stroke:#A80036;stroke-width:1.5;" x1="241.5" x2="644.5" y1="466" y2="466"/><ellipse cx="251.5" cy="477" rx="3" ry="3" style="stroke:#038048;stroke-width:1.0;fill:none;"/><text fill="#000000" font-family="sans-serif" font-size="11" lengthAdjust="spacing" textLength="138" x="260.5" y="480.2104">ReviewDate : DateTime</text><ellipse cx="251.5" cy="489.8047" rx="3" ry="3" style="stroke:#038048;stroke-width:1.0;fill:none;"/><text fill="#000000" font-family="sans-serif" font-size="11" lengthAdjust="spacing" textLength="58" x="260.5" y="493.0151">Points : int</text><line style="stroke:#A80036;stroke-width:1.0;" x1="241.5" x2="644.5" y1="499.6094" y2="499.6094"/><ellipse cx="251.5" cy="510.6094" fill="#84BE84" rx="3" ry="3" style="stroke:#038048;stroke-width:1.0;"/><text fill="#000000" font-family="sans-serif" font-size="11" lengthAdjust="spacing" textLength="379" x="260.5" y="513.8198">ReviewedHandIn(HandIn handIn, DateTime reviewDate, int points)</text><!--MD5=[e968fe9e8e740779e8c23127dd7f26ea]
link Student to Name--><path codeLine="15" d="M205.8074,525.286 C205.8074,525.286 275.605,558.353 309.245,574.291 " fill="none" id="Student-Name" style="stroke:#A80036;stroke-width:1.0;"/><polygon fill="#A80036" points="321.028,579.873,314.607,572.405,316.5094,577.7324,311.182,579.6348,321.028,579.873" style="stroke:#A80036;stroke-width:1.0;"/><line style="stroke:#A80036;stroke-width:1.0;" x1="316.5094" x2="309.28" y1="577.7324" y2="574.307"/><polygon fill="#A80036" points="194.963,520.148,198.6725,526.3318,205.8074,525.286,202.0979,519.1022,194.963,520.148" style="stroke:#A80036;stroke-width:1.0;"/><!--MD5=[52db04c4bec5b8f9f15f5529b35b1151]
link Teacher to Name--><path codeLine="22" d="M669.5878,518.3418 C669.5878,518.3418 590.108,555.88 551.043,574.33 " fill="none" id="Teacher-Name" style="stroke:#A80036;stroke-width:1.0;"/><polygon fill="#A80036" points="539.04,579.999,548.8863,579.7729,543.5612,577.8639,545.4702,572.5389,539.04,579.999" style="stroke:#A80036;stroke-width:1.0;"/><line style="stroke:#A80036;stroke-width:1.0;" x1="543.5612" x2="550.795" y1="577.8639" y2="574.4475"/><polygon fill="#A80036" points="680.438,513.216,673.3043,512.1621,669.5878,518.3418,676.7215,519.3956,680.438,513.216" style="stroke:#A80036;stroke-width:1.0;"/><!--MD5=[7e4d6fb2ab054995a1b8a438b53a207a]
link Task to Team--><path codeLine="47" d="M803.153,205.633 C823.501,223.64 844.095,241.864 862.566,258.21 " fill="none" id="Task-Team" style="stroke:#A80036;stroke-width:1.0;"/><polygon fill="#A80036" points="866.72,261.886,862.6301,252.9265,862.9753,258.5728,857.329,258.918,866.72,261.886" style="stroke:#A80036;stroke-width:1.0;"/><polygon fill="#A80036" points="799.358,202.275,803.4479,211.2345,803.1027,205.5882,808.749,205.243,799.358,202.275" style="stroke:#A80036;stroke-width:1.0;"/><!--MD5=[087c6d06139a386268c168e65a133c6d]
link Task to Teacher--><path codeLine="48" d="M700.2404,214.0387 C700.2404,214.0387 714.093,322.28 725,374 C728.667,391.387 733.818,410.12 738.818,426.73 " fill="none" id="Task-Teacher" style="stroke:#A80036;stroke-width:1.0;"/><polygon fill="#A80036" points="742.765,439.528,743.9349,429.7489,741.2914,434.7501,736.2902,432.1066,742.765,439.528" style="stroke:#A80036;stroke-width:1.0;"/><line style="stroke:#A80036;stroke-width:1.0;" x1="741.2914" x2="738.934" y1="434.7501" y2="427.106"/><polygon fill="#FFFFFF" points="698.898,202.114,695.5943,208.5238,700.2404,214.0387,703.5441,207.6289,698.898,202.114" style="stroke:#A80036;stroke-width:1.0;"/><!--MD5=[4563ed30fcd58f956d6ebd69968fe104]
link Task to HandIn--><path codeLine="49" d="M567.8663,210.0803 C567.8663,210.0803 527.56,244.594 509.86,259.75 " fill="none" id="Task-HandIn" style="stroke:#A80036;stroke-width:1.0;"/><polygon fill="#A80036" points="499.682,268.465,509.1198,265.6493,503.4798,265.2128,503.9163,259.5728,499.682,268.465" style="stroke:#A80036;stroke-width:1.0;"/><line style="stroke:#A80036;stroke-width:1.0;" x1="503.4798" x2="509.5565" y1="265.2128" y2="260.009"/><polygon fill="#FFFFFF" points="576.981,202.275,569.8219,203.1394,567.8663,210.0803,575.0254,209.2159,576.981,202.275" style="stroke:#A80036;stroke-width:1.0;"/><!--MD5=[1b43816675246d6fe0a98d63d04b5c4c]
link HandIn to Student--><path codeLine="58" d="M334.111,369.729 C291.203,389.719 242.374,412.467 200.933,431.773 " fill="none" id="HandIn-Student" style="stroke:#A80036;stroke-width:1.0;"/><polygon fill="#A80036" points="196.175,433.99,206.0223,433.8157,200.7074,431.8788,202.6444,426.5639,196.175,433.99" style="stroke:#A80036;stroke-width:1.0;"/><polygon fill="#A80036" points="338.679,367.601,328.8317,367.7765,334.1468,369.7128,332.2105,375.0279,338.679,367.601" style="stroke:#A80036;stroke-width:1.0;"/><!--MD5=[00284e28614ab6ea53876b9bdc18fa2a]
reverse link HandIn to ReviewedHandIn--><path codeLine="67" d="M443,387.876 C443,403.526 443,419.694 443,433.841 " fill="none" id="HandIn-backto-ReviewedHandIn" style="stroke:#A80036;stroke-width:1.0;"/><polygon fill="none" points="436,387.815,443,367.815,450,387.815,436,387.815" style="stroke:#A80036;stroke-width:1.0;"/><!--MD5=[66eb3f33af007965138444368e6ab011]
@startuml
class Name<<value object>> {
  +Firstname : string
  +Lastname : string
  +Email : string
  - - -
  +Name(string firstname, string lastname, string email)
}

class Student {
  +Name : Name
  +HandIns : ICollection<HandIn>
  - - -
  +Student(string name)  
}
Student *- -> Name

class Teacher {
  +Name : Name
  - - -
  +Teacher(string name)  
}
Teacher *- -> Name

class Team {
  +Name : string
  +Schoolclass : string
  +Tasks : ICollection<Task>
  - - -
  +Team(string name, string schoolclass)
  +IReadOnlyCollection<Task> GetActiveTasks(DateTime date)
}

class Task<<aggregate>> {
  +Subject : string
  +Title : string
  +Team : Team
  +Teacher : Teacher
  +ExpirationDate : DateTime
  +MaxPoints : int
  +HandIns : IReadOnlyCollection<HandIn>
  - - -
  +Task(string subject, string title, Team team, Teacher teacher, DateTime expirationDate, int maxPoints)
  +bool TryHandIn(HandIn handIn)
  +ReviewHandIn(HandIn handIn, DateTime reviewDate, int points)
  +decimal CalculateAveragePoints()
}
Task <- -> Team
Task o- -> Teacher
Task o- -> HandIn

class HandIn {
  +Student : Student
  +Date : DateTime
  - - -
  +HandIn(Student student, DateTime date)
  #HandIn(HandIn handIn)
}
HandIn <- -> Student

class ReviewedHandIn {
  +ReviewDate : DateTime
  +Points : int
  - - -
  +ReviewedHandIn(HandIn handIn, DateTime reviewDate, int points)
}

ReviewedHandIn -up-|> HandIn
@enduml

PlantUML version 1.2021.16beta1(Unknown compile time)
(GPL source distribution)
Java Runtime: Java(TM) SE Runtime Environment
JVM: Java HotSpot(TM) 64-Bit Server VM
Default Encoding: UTF-8
Language: en
Country: US
--></g></svg>