<?xml version="1.0" encoding="UTF-8" standalone="no"?><svg xmlns="http://www.w3.org/2000/svg" xmlns:xlink="http://www.w3.org/1999/xlink" contentScriptType="application/ecmascript" contentStyleType="text/css" height="464px" preserveAspectRatio="none" style="width:838px;height:464px;background:#FFFFFF;" version="1.1" viewBox="0 0 838 464" width="838px" zoomAndPan="magnify"><defs><filter height="300%" id="f1ps12kdt9n7o6" width="300%" x="-1" y="-1"><feGaussianBlur result="blurOut" stdDeviation="2.0"/><feColorMatrix in="blurOut" result="blurOut2" type="matrix" values="0 0 0 0 0 0 0 0 0 0 0 0 0 0 0 0 0 0 .4 0"/><feOffset dx="4.0" dy="4.0" in="blurOut2" result="blurOut3"/><feBlend in="SourceGraphic" in2="blurOut3" mode="normal"/></filter></defs><g><!--MD5=[41e1c6cf192918703501b24b2053926c]
class Class--><rect codeLine="3" fill="#FEFECE" filter="url(#f1ps12kdt9n7o6)" height="99.2188" id="Class" style="stroke:#A80036;stroke-width:1.5;" width="219" x="343" y="351"/><ellipse cx="432.25" cy="367" fill="#ADD1B2" rx="11" ry="11" style="stroke:#A80036;stroke-width:1.0;"/><path d="M434.5938,362.6719 C433.6563,362.2344 433.0625,362.0938 432.1875,362.0938 C429.5625,362.0938 427.5625,364.1719 427.5625,366.8906 L427.5625,368.0156 C427.5625,370.5938 429.6719,372.4844 432.5625,372.4844 C433.7813,372.4844 434.9375,372.1875 435.6875,371.6406 C436.2656,371.2344 436.5938,370.7813 436.5938,370.3906 C436.5938,369.9375 436.2031,369.5469 435.7344,369.5469 C435.5156,369.5469 435.3125,369.625 435.125,369.8125 C434.6719,370.2969 434.6719,370.2969 434.4844,370.3906 C434.0625,370.6563 433.375,370.7813 432.6094,370.7813 C430.5625,370.7813 429.2656,369.6875 429.2656,367.9844 L429.2656,366.8906 C429.2656,365.1094 430.5156,363.7969 432.25,363.7969 C432.8281,363.7969 433.4375,363.9531 433.9063,364.2031 C434.3906,364.4844 434.5625,364.7031 434.6563,365.1094 C434.7188,365.5156 434.75,365.6406 434.8906,365.7656 C435.0313,365.9063 435.2656,366.0156 435.4844,366.0156 C435.75,366.0156 436.0156,365.875 436.1875,365.6563 C436.2969,365.5 436.3281,365.3125 436.3281,364.8906 L436.3281,363.4688 C436.3281,363.0313 436.3125,362.9063 436.2188,362.75 C436.0625,362.4844 435.7813,362.3438 435.4844,362.3438 C435.1875,362.3438 434.9844,362.4375 434.7656,362.75 L434.5938,362.6719 Z " fill="#000000"/><text fill="#000000" font-family="sans-serif" font-size="12" lengthAdjust="spacing" textLength="32" x="452.75" y="371.1543">Class</text><line style="stroke:#A80036;stroke-width:1.5;" x1="344" x2="561" y1="383" y2="383"/><ellipse cx="354" cy="394" rx="3" ry="3" style="stroke:#038048;stroke-width:1.0;fill:none;"/><text fill="#000000" font-family="sans-serif" font-size="11" lengthAdjust="spacing" textLength="76" x="363" y="397.2104">Name : string</text><ellipse cx="354" cy="406.8047" rx="3" ry="3" style="stroke:#038048;stroke-width:1.0;fill:none;"/><text fill="#000000" font-family="sans-serif" font-size="11" lengthAdjust="spacing" textLength="89" x="363" y="410.0151">Schoolyear : int</text><line style="stroke:#A80036;stroke-width:1.0;" x1="344" x2="561" y1="416.6094" y2="416.6094"/><ellipse cx="354" cy="427.6094" fill="#84BE84" rx="3" ry="3" style="stroke:#038048;stroke-width:1.0;"/><text fill="#000000" font-family="sans-serif" font-size="11" lengthAdjust="spacing" textLength="193" x="363" y="430.8198">Class(string name, int schoolyear)</text><polygon fill="#FFFF44" points="354,435.4141,358,439.4141,354,443.4141,350,439.4141" style="stroke:#B38D22;stroke-width:1.0;"/><text fill="#000000" font-family="sans-serif" font-size="11" lengthAdjust="spacing" textLength="38" x="363" y="443.6245">Class()</text><!--MD5=[d6181cb537bdc20c0a3007a98a56832d]
class Student--><rect codeLine="10" fill="#FEFECE" filter="url(#f1ps12kdt9n7o6)" height="124.8281" id="Student" style="stroke:#A80036;stroke-width:1.5;" width="463" x="9" y="166"/><ellipse cx="213.25" cy="182" fill="#ADD1B2" rx="11" ry="11" style="stroke:#A80036;stroke-width:1.0;"/><path d="M215.5938,177.6719 C214.6563,177.2344 214.0625,177.0938 213.1875,177.0938 C210.5625,177.0938 208.5625,179.1719 208.5625,181.8906 L208.5625,183.0156 C208.5625,185.5938 210.6719,187.4844 213.5625,187.4844 C214.7813,187.4844 215.9375,187.1875 216.6875,186.6406 C217.2656,186.2344 217.5938,185.7813 217.5938,185.3906 C217.5938,184.9375 217.2031,184.5469 216.7344,184.5469 C216.5156,184.5469 216.3125,184.625 216.125,184.8125 C215.6719,185.2969 215.6719,185.2969 215.4844,185.3906 C215.0625,185.6563 214.375,185.7813 213.6094,185.7813 C211.5625,185.7813 210.2656,184.6875 210.2656,182.9844 L210.2656,181.8906 C210.2656,180.1094 211.5156,178.7969 213.25,178.7969 C213.8281,178.7969 214.4375,178.9531 214.9063,179.2031 C215.3906,179.4844 215.5625,179.7031 215.6563,180.1094 C215.7188,180.5156 215.75,180.6406 215.8906,180.7656 C216.0313,180.9063 216.2656,181.0156 216.4844,181.0156 C216.75,181.0156 217.0156,180.875 217.1875,180.6563 C217.2969,180.5 217.3281,180.3125 217.3281,179.8906 L217.3281,178.4688 C217.3281,178.0313 217.3125,177.9063 217.2188,177.75 C217.0625,177.4844 216.7813,177.3438 216.4844,177.3438 C216.1875,177.3438 215.9844,177.4375 215.7656,177.75 L215.5938,177.6719 Z " fill="#000000"/><text fill="#000000" font-family="sans-serif" font-size="12" lengthAdjust="spacing" textLength="46" x="233.75" y="186.1543">Student</text><line style="stroke:#A80036;stroke-width:1.5;" x1="10" x2="471" y1="198" y2="198"/><ellipse cx="20" cy="209" rx="3" ry="3" style="stroke:#038048;stroke-width:1.0;fill:none;"/><text fill="#000000" font-family="sans-serif" font-size="11" lengthAdjust="spacing" textLength="120" x="29" y="212.2104">Accountname : string</text><ellipse cx="20" cy="221.8047" rx="3" ry="3" style="stroke:#038048;stroke-width:1.0;fill:none;"/><text fill="#000000" font-family="sans-serif" font-size="11" lengthAdjust="spacing" textLength="98" x="29" y="225.0151">Firstname : string</text><ellipse cx="20" cy="234.6094" rx="3" ry="3" style="stroke:#038048;stroke-width:1.0;fill:none;"/><text fill="#000000" font-family="sans-serif" font-size="11" lengthAdjust="spacing" textLength="98" x="29" y="237.8198">Lastname : string</text><ellipse cx="20" cy="247.4141" rx="3" ry="3" style="stroke:#038048;stroke-width:1.0;fill:none;"/><text fill="#000000" font-family="sans-serif" font-size="11" lengthAdjust="spacing" textLength="71" x="29" y="250.6245">Class : Class</text><line style="stroke:#A80036;stroke-width:1.0;" x1="10" x2="471" y1="257.2188" y2="257.2188"/><ellipse cx="20" cy="268.2188" fill="#84BE84" rx="3" ry="3" style="stroke:#038048;stroke-width:1.0;"/><text fill="#000000" font-family="sans-serif" font-size="11" lengthAdjust="spacing" textLength="437" x="29" y="271.4292">Student(string accountname, string firstname, string lastname, Class @class)</text><polygon fill="#FFFF44" points="20,276.0234,24,280.0234,20,284.0234,16,280.0234" style="stroke:#B38D22;stroke-width:1.0;"/><text fill="#000000" font-family="sans-serif" font-size="11" lengthAdjust="spacing" textLength="53" x="29" y="284.2339">Student()</text><!--MD5=[1c8e606990a0a149235f5108f9e5b1cd]
class Absence--><rect codeLine="21" fill="#FEFECE" filter="url(#f1ps12kdt9n7o6)" height="99.2188" id="Absence" style="stroke:#A80036;stroke-width:1.5;" width="270" x="105.5" y="7"/><ellipse cx="209.75" cy="23" fill="#ADD1B2" rx="11" ry="11" style="stroke:#A80036;stroke-width:1.0;"/><path d="M212.0938,18.6719 C211.1563,18.2344 210.5625,18.0938 209.6875,18.0938 C207.0625,18.0938 205.0625,20.1719 205.0625,22.8906 L205.0625,24.0156 C205.0625,26.5938 207.1719,28.4844 210.0625,28.4844 C211.2813,28.4844 212.4375,28.1875 213.1875,27.6406 C213.7656,27.2344 214.0938,26.7813 214.0938,26.3906 C214.0938,25.9375 213.7031,25.5469 213.2344,25.5469 C213.0156,25.5469 212.8125,25.625 212.625,25.8125 C212.1719,26.2969 212.1719,26.2969 211.9844,26.3906 C211.5625,26.6563 210.875,26.7813 210.1094,26.7813 C208.0625,26.7813 206.7656,25.6875 206.7656,23.9844 L206.7656,22.8906 C206.7656,21.1094 208.0156,19.7969 209.75,19.7969 C210.3281,19.7969 210.9375,19.9531 211.4063,20.2031 C211.8906,20.4844 212.0625,20.7031 212.1563,21.1094 C212.2188,21.5156 212.25,21.6406 212.3906,21.7656 C212.5313,21.9063 212.7656,22.0156 212.9844,22.0156 C213.25,22.0156 213.5156,21.875 213.6875,21.6563 C213.7969,21.5 213.8281,21.3125 213.8281,20.8906 L213.8281,19.4688 C213.8281,19.0313 213.8125,18.9063 213.7188,18.75 C213.5625,18.4844 213.2813,18.3438 212.9844,18.3438 C212.6875,18.3438 212.4844,18.4375 212.2656,18.75 L212.0938,18.6719 Z " fill="#000000"/><text fill="#000000" font-family="sans-serif" font-size="12" lengthAdjust="spacing" textLength="53" x="230.25" y="27.1543">Absence</text><line style="stroke:#A80036;stroke-width:1.5;" x1="106.5" x2="374.5" y1="39" y2="39"/><ellipse cx="116.5" cy="50" rx="3" ry="3" style="stroke:#038048;stroke-width:1.0;fill:none;"/><text fill="#000000" font-family="sans-serif" font-size="11" lengthAdjust="spacing" textLength="101" x="125.5" y="53.2104">Student : Student</text><ellipse cx="116.5" cy="62.8047" rx="3" ry="3" style="stroke:#038048;stroke-width:1.0;fill:none;"/><text fill="#000000" font-family="sans-serif" font-size="11" lengthAdjust="spacing" textLength="96" x="125.5" y="66.0151">Date : DateTime</text><line style="stroke:#A80036;stroke-width:1.0;" x1="106.5" x2="374.5" y1="72.6094" y2="72.6094"/><ellipse cx="116.5" cy="83.6094" fill="#84BE84" rx="3" ry="3" style="stroke:#038048;stroke-width:1.0;"/><text fill="#000000" font-family="sans-serif" font-size="11" lengthAdjust="spacing" textLength="244" x="125.5" y="86.8198">Absence(Student student, DateTime date)</text><polygon fill="#FFFF44" points="116.5,91.4141,120.5,95.4141,116.5,99.4141,112.5,95.4141" style="stroke:#B38D22;stroke-width:1.0;"/><text fill="#000000" font-family="sans-serif" font-size="11" lengthAdjust="spacing" textLength="58" x="125.5" y="99.6245">Absence()</text><!--MD5=[4ec975f1641a34b3290014bf4027a644]
class Exam--><rect codeLine="30" fill="#FEFECE" filter="url(#f1ps12kdt9n7o6)" height="112.0234" id="Exam" style="stroke:#A80036;stroke-width:1.5;" width="317" x="507" y="172.5"/><ellipse cx="645.25" cy="188.5" fill="#ADD1B2" rx="11" ry="11" style="stroke:#A80036;stroke-width:1.0;"/><path d="M647.5938,184.1719 C646.6563,183.7344 646.0625,183.5938 645.1875,183.5938 C642.5625,183.5938 640.5625,185.6719 640.5625,188.3906 L640.5625,189.5156 C640.5625,192.0938 642.6719,193.9844 645.5625,193.9844 C646.7813,193.9844 647.9375,193.6875 648.6875,193.1406 C649.2656,192.7344 649.5938,192.2813 649.5938,191.8906 C649.5938,191.4375 649.2031,191.0469 648.7344,191.0469 C648.5156,191.0469 648.3125,191.125 648.125,191.3125 C647.6719,191.7969 647.6719,191.7969 647.4844,191.8906 C647.0625,192.1563 646.375,192.2813 645.6094,192.2813 C643.5625,192.2813 642.2656,191.1875 642.2656,189.4844 L642.2656,188.3906 C642.2656,186.6094 643.5156,185.2969 645.25,185.2969 C645.8281,185.2969 646.4375,185.4531 646.9063,185.7031 C647.3906,185.9844 647.5625,186.2031 647.6563,186.6094 C647.7188,187.0156 647.75,187.1406 647.8906,187.2656 C648.0313,187.4063 648.2656,187.5156 648.4844,187.5156 C648.75,187.5156 649.0156,187.375 649.1875,187.1563 C649.2969,187 649.3281,186.8125 649.3281,186.3906 L649.3281,184.9688 C649.3281,184.5313 649.3125,184.4063 649.2188,184.25 C649.0625,183.9844 648.7813,183.8438 648.4844,183.8438 C648.1875,183.8438 647.9844,183.9375 647.7656,184.25 L647.5938,184.1719 Z " fill="#000000"/><text fill="#000000" font-family="sans-serif" font-size="12" lengthAdjust="spacing" textLength="32" x="665.75" y="192.6543">Exam</text><line style="stroke:#A80036;stroke-width:1.5;" x1="508" x2="823" y1="204.5" y2="204.5"/><ellipse cx="518" cy="215.5" rx="3" ry="3" style="stroke:#038048;stroke-width:1.0;fill:none;"/><text fill="#000000" font-family="sans-serif" font-size="11" lengthAdjust="spacing" textLength="71" x="527" y="218.7104">Class : Class</text><ellipse cx="518" cy="228.3047" rx="3" ry="3" style="stroke:#038048;stroke-width:1.0;fill:none;"/><text fill="#000000" font-family="sans-serif" font-size="11" lengthAdjust="spacing" textLength="85" x="527" y="231.5151">Subject : string</text><ellipse cx="518" cy="241.1094" rx="3" ry="3" style="stroke:#038048;stroke-width:1.0;fill:none;"/><text fill="#000000" font-family="sans-serif" font-size="11" lengthAdjust="spacing" textLength="96" x="527" y="244.3198">Date : DateTime</text><line style="stroke:#A80036;stroke-width:1.0;" x1="508" x2="823" y1="250.9141" y2="250.9141"/><ellipse cx="518" cy="261.9141" fill="#84BE84" rx="3" ry="3" style="stroke:#038048;stroke-width:1.0;"/><text fill="#000000" font-family="sans-serif" font-size="11" lengthAdjust="spacing" textLength="291" x="527" y="265.1245">Exam(Class @class, string subject, DateTime date)</text><polygon fill="#FFFF44" points="518,269.7188,522,273.7188,518,277.7188,514,273.7188" style="stroke:#B38D22;stroke-width:1.0;"/><text fill="#000000" font-family="sans-serif" font-size="11" lengthAdjust="spacing" textLength="40" x="527" y="277.9292">Exam()</text><!--MD5=[ff546ffb5c71ad99af99f528ed102e6d]
link Student to Class--><path codeLine="19" d="M326.6991,298.6208 C326.6991,298.6208 364.055,328.577 381.316,342.418 " fill="none" id="Student-Class" style="stroke:#A80036;stroke-width:1.0;"/><polygon fill="#A80036" points="391.865,350.8777,387.3457,342.1269,387.9641,347.7499,382.3412,348.3683,391.865,350.8777" style="stroke:#A80036;stroke-width:1.0;"/><line style="stroke:#A80036;stroke-width:1.0;" x1="387.9641" x2="381.7235" y1="347.7499" y2="342.745"/><polygon fill="#FFFFFF" points="317.337,291.114,319.5158,297.9881,326.6991,298.6208,324.5203,291.7467,317.337,291.114" style="stroke:#A80036;stroke-width:1.0;"/><!--MD5=[81adff0a9191b20c118c8c8806594708]
link Absence to Student--><path codeLine="28" d="M240.5,118.215 C240.5,118.215 240.5,141.539 240.5,152.512 " fill="none" id="Absence-Student" style="stroke:#A80036;stroke-width:1.0;"/><polygon fill="#A80036" points="240.5,165.734,244.5,156.734,240.5,160.734,236.5,156.734,240.5,165.734" style="stroke:#A80036;stroke-width:1.0;"/><line style="stroke:#A80036;stroke-width:1.0;" x1="240.5" x2="240.5" y1="160.734" y2="152.7345"/><polygon fill="#FFFFFF" points="240.5,106.215,236.5,112.215,240.5,118.215,244.5,112.215,240.5,106.215" style="stroke:#A80036;stroke-width:1.0;"/><!--MD5=[a929898c77b6a891e8823436c525ce8a]
link Exam to Class--><path codeLine="38" d="M586.966,292.1796 C586.966,292.1796 543.756,326.666 523.711,342.665 " fill="none" id="Exam-Class" style="stroke:#A80036;stroke-width:1.0;"/><polygon fill="#A80036" points="513.417,350.8808,522.9465,348.393,517.3249,347.7618,517.9561,342.1403,513.417,350.8808" style="stroke:#A80036;stroke-width:1.0;"/><line style="stroke:#A80036;stroke-width:1.0;" x1="517.3249" x2="523.5775" y1="347.7618" y2="342.7715"/><polygon fill="#FFFFFF" points="596.345,284.694,589.1603,285.3104,586.966,292.1796,594.1507,291.5631,596.345,284.694" style="stroke:#A80036;stroke-width:1.0;"/><!--MD5=[f0eb305d39f2fa1195c805c816f3a2d7]
@startuml
hide empty methods

class Class {
    +Name : string
    +Schoolyear : int
    - - -
    +Class(string name, int schoolyear)
    #Class()
}
class Student {
    +Accountname : string
    +Firstname : string
    +Lastname : string
    +Class : Class
    - - -
    +Student(string accountname, string firstname, string lastname, Class @class)
    #Student()
}
Student o- -> Class

class Absence {
    +Student : Student
    +Date : DateTime
    - - -
    +Absence(Student student, DateTime date)
    #Absence()
}
Absence o- -> Student

class Exam {
    +Class : Class
    +Subject : string
    +Date : DateTime
    - - -
    +Exam(Class @class, string subject, DateTime date)
    #Exam()
}
Exam o- -> Class
@enduml

PlantUML version 1.2022.1beta3(Unknown compile time)
(GPL source distribution)
Java Runtime: Java(TM) SE Runtime Environment
JVM: Java HotSpot(TM) 64-Bit Server VM
Default Encoding: UTF-8
Language: en
Country: US
--></g></svg>