<?xml version="1.0" encoding="UTF-8" standalone="no"?><svg xmlns="http://www.w3.org/2000/svg" xmlns:xlink="http://www.w3.org/1999/xlink" contentStyleType="text/css" height="646px" preserveAspectRatio="none" style="width:535px;height:646px;background:#FFFFFF;" version="1.1" viewBox="0 0 535 646" width="535px" zoomAndPan="magnify"><defs/><g><!--MD5=[a4ea2dcb44ebd57046df9af95d8b8c12]
class Gender--><g id="elem_Gender"><rect codeLine="3" fill="#F1F1F1" height="88.8906" id="Gender" rx="2.5" ry="2.5" style="stroke:#181818;stroke-width:0.5;" width="85" x="33" y="551"/><ellipse cx="48" cy="567" fill="#EB937F" rx="11" ry="11" style="stroke:#181818;stroke-width:1.0;"/><path d="M46.7969,567.875 L48.25,567.875 L48.25,567.9844 C48.25,568.3906 48.2813,568.5469 48.3594,568.7031 C48.5156,568.9531 48.7969,569.1094 49.0938,569.1094 C49.3438,569.1094 49.6094,568.9688 49.7656,568.75 C49.8906,568.5938 49.9219,568.4375 49.9219,567.9844 L49.9219,566.0625 C49.9219,565.9063 49.9219,565.8594 49.9063,565.7031 C49.8438,565.2344 49.5313,564.9219 49.0781,564.9219 C48.8281,564.9219 48.5625,565.0625 48.3906,565.2813 C48.2813,565.4531 48.25,565.6094 48.25,566.0625 L48.25,566.1875 L46.7969,566.1875 L46.7969,563.7813 L50.7813,563.7813 L50.7813,564.6406 C50.7813,565.0469 50.8125,565.2188 50.8906,565.375 C51.0625,565.625 51.3438,565.7813 51.625,565.7813 C51.8906,565.7813 52.1563,565.6406 52.3281,565.4219 C52.4375,565.25 52.4688,565.1094 52.4688,564.6406 L52.4688,562.0938 L44.8438,562.0938 C44.4063,562.0938 44.2813,562.1094 44.125,562.2031 C43.875,562.3594 43.7188,562.6563 43.7188,562.9375 C43.7188,563.2188 43.8594,563.4688 44.0781,563.6406 C44.2344,563.75 44.4219,563.7813 44.8438,563.7813 L45.0938,563.7813 L45.0938,570.2969 L44.8438,570.2969 C44.4375,570.2969 44.2813,570.3125 44.125,570.4219 C43.875,570.5938 43.7188,570.8594 43.7188,571.1563 C43.7188,571.4219 43.8594,571.6719 44.0781,571.8281 C44.2188,571.9531 44.4531,572 44.8438,572 L52.8438,572 L52.8438,569.4219 C52.8438,568.9844 52.8125,568.8438 52.7344,568.6875 C52.5625,568.4375 52.2813,568.2813 52,568.2813 C51.7344,568.2813 51.4688,568.3906 51.2969,568.6406 C51.1875,568.7969 51.1563,568.9375 51.1563,569.4219 L51.1563,570.2969 L46.7969,570.2969 L46.7969,567.875 Z " fill="#000000"/><text fill="#000000" font-family="sans-serif" font-size="14" lengthAdjust="spacing" textLength="53" x="62" y="571.8467">Gender</text><line style="stroke:#181818;stroke-width:0.5;" x1="34" x2="117" y1="583" y2="583"/><text fill="#000000" font-family="sans-serif" font-size="14" lengthAdjust="spacing" textLength="52" x="39" y="599.9951">Female</text><text fill="#000000" font-family="sans-serif" font-size="14" lengthAdjust="spacing" textLength="33" x="39" y="616.292">Male</text><text fill="#000000" font-family="sans-serif" font-size="14" lengthAdjust="spacing" textLength="42" x="39" y="632.5889">Other</text></g><!--MD5=[3fd616f346a44cd59a91eb10b19e157c]
class User--><g id="elem_User"><rect codeLine="9" fill="#F1F1F1" height="105.1875" id="User" rx="2.5" ry="2.5" style="stroke:#181818;stroke-width:0.5;" width="137" x="7" y="386"/><ellipse cx="55.75" cy="402" fill="#ADD1B2" rx="11" ry="11" style="stroke:#181818;stroke-width:1.0;"/><path d="M54.5469,402.875 L56,402.875 L56,402.9844 C56,403.3906 56.0313,403.5469 56.1094,403.7031 C56.2656,403.9531 56.5469,404.1094 56.8438,404.1094 C57.0938,404.1094 57.3594,403.9688 57.5156,403.75 C57.6406,403.5938 57.6719,403.4375 57.6719,402.9844 L57.6719,401.0625 C57.6719,400.9063 57.6719,400.8594 57.6563,400.7031 C57.5938,400.2344 57.2813,399.9219 56.8281,399.9219 C56.5781,399.9219 56.3125,400.0625 56.1406,400.2813 C56.0313,400.4531 56,400.6094 56,401.0625 L56,401.1875 L54.5469,401.1875 L54.5469,398.7813 L58.5313,398.7813 L58.5313,399.6406 C58.5313,400.0469 58.5625,400.2188 58.6406,400.375 C58.8125,400.625 59.0938,400.7813 59.375,400.7813 C59.6406,400.7813 59.9063,400.6406 60.0781,400.4219 C60.1875,400.25 60.2188,400.1094 60.2188,399.6406 L60.2188,397.0938 L52.5938,397.0938 C52.1563,397.0938 52.0313,397.1094 51.875,397.2031 C51.625,397.3594 51.4688,397.6563 51.4688,397.9375 C51.4688,398.2188 51.6094,398.4688 51.8281,398.6406 C51.9844,398.75 52.1719,398.7813 52.5938,398.7813 L52.8438,398.7813 L52.8438,405.2969 L52.5938,405.2969 C52.1875,405.2969 52.0313,405.3125 51.875,405.4219 C51.625,405.5938 51.4688,405.8594 51.4688,406.1563 C51.4688,406.4219 51.6094,406.6719 51.8281,406.8281 C51.9688,406.9531 52.2031,407 52.5938,407 L60.5938,407 L60.5938,404.4219 C60.5938,403.9844 60.5625,403.8438 60.4844,403.6875 C60.3125,403.4375 60.0313,403.2813 59.75,403.2813 C59.4844,403.2813 59.2188,403.3906 59.0469,403.6406 C58.9375,403.7969 58.9063,403.9375 58.9063,404.4219 L58.9063,405.2969 L54.5469,405.2969 L54.5469,402.875 Z " fill="#000000"/><text fill="#000000" font-family="sans-serif" font-size="14" lengthAdjust="spacing" textLength="31" x="76.25" y="406.8467">User</text><line style="stroke:#181818;stroke-width:0.5;" x1="8" x2="143" y1="418" y2="418"/><text fill="#000000" font-family="sans-serif" font-size="14" lengthAdjust="spacing" textLength="125" x="13" y="434.9951">firstname : string</text><text fill="#000000" font-family="sans-serif" font-size="14" lengthAdjust="spacing" textLength="121" x="13" y="451.292">lastname : string</text><text fill="#000000" font-family="sans-serif" font-size="14" lengthAdjust="spacing" textLength="94" x="13" y="467.5889">email : string</text><text fill="#000000" font-family="sans-serif" font-size="14" lengthAdjust="spacing" textLength="117" x="13" y="483.8857">gender : Gender</text></g><!--MD5=[f572c118330f78587a09a8d1323f8ced]
class Calendar--><g id="elem_Calendar"><rect codeLine="18" fill="#F1F1F1" height="96.8906" id="Calendar" rx="2.5" ry="2.5" style="stroke:#181818;stroke-width:0.5;" width="286" x="7.5" y="7"/><ellipse cx="114.75" cy="23" fill="#ADD1B2" rx="11" ry="11" style="stroke:#181818;stroke-width:1.0;"/><path d="M113.5469,23.875 L115,23.875 L115,23.9844 C115,24.3906 115.0313,24.5469 115.1094,24.7031 C115.2656,24.9531 115.5469,25.1094 115.8438,25.1094 C116.0938,25.1094 116.3594,24.9688 116.5156,24.75 C116.6406,24.5938 116.6719,24.4375 116.6719,23.9844 L116.6719,22.0625 C116.6719,21.9063 116.6719,21.8594 116.6563,21.7031 C116.5938,21.2344 116.2813,20.9219 115.8281,20.9219 C115.5781,20.9219 115.3125,21.0625 115.1406,21.2813 C115.0313,21.4531 115,21.6094 115,22.0625 L115,22.1875 L113.5469,22.1875 L113.5469,19.7813 L117.5313,19.7813 L117.5313,20.6406 C117.5313,21.0469 117.5625,21.2188 117.6406,21.375 C117.8125,21.625 118.0938,21.7813 118.375,21.7813 C118.6406,21.7813 118.9063,21.6406 119.0781,21.4219 C119.1875,21.25 119.2188,21.1094 119.2188,20.6406 L119.2188,18.0938 L111.5938,18.0938 C111.1563,18.0938 111.0313,18.1094 110.875,18.2031 C110.625,18.3594 110.4688,18.6563 110.4688,18.9375 C110.4688,19.2188 110.6094,19.4688 110.8281,19.6406 C110.9844,19.75 111.1719,19.7813 111.5938,19.7813 L111.8438,19.7813 L111.8438,26.2969 L111.5938,26.2969 C111.1875,26.2969 111.0313,26.3125 110.875,26.4219 C110.625,26.5938 110.4688,26.8594 110.4688,27.1563 C110.4688,27.4219 110.6094,27.6719 110.8281,27.8281 C110.9688,27.9531 111.2031,28 111.5938,28 L119.5938,28 L119.5938,25.4219 C119.5938,24.9844 119.5625,24.8438 119.4844,24.6875 C119.3125,24.4375 119.0313,24.2813 118.75,24.2813 C118.4844,24.2813 118.2188,24.3906 118.0469,24.6406 C117.9375,24.7969 117.9063,24.9375 117.9063,25.4219 L117.9063,26.2969 L113.5469,26.2969 L113.5469,23.875 Z " fill="#000000"/><text fill="#000000" font-family="sans-serif" font-size="14" lengthAdjust="spacing" textLength="63" x="135.25" y="27.8467">Calendar</text><line style="stroke:#181818;stroke-width:0.5;" x1="8.5" x2="292.5" y1="39" y2="39"/><text fill="#000000" font-family="sans-serif" font-size="14" lengthAdjust="spacing" textLength="88" x="13.5" y="55.9951">owner : User</text><text fill="#000000" font-family="sans-serif" font-size="14" lengthAdjust="spacing" textLength="274" x="13.5" y="72.292">meetings : List&lt;Meeting&gt; {readOnly}</text><line style="stroke:#181818;stroke-width:1.0;" x1="8.5" x2="292.5" y1="79.5938" y2="79.5938"/><text fill="#000000" font-family="sans-serif" font-size="14" lengthAdjust="spacing" textLength="243" x="13.5" y="96.5889">addMeeting(Meeting m) : boolean</text></g><!--MD5=[aae544dffeea62c749969bce21def9b2]
class MeetingState--><g id="elem_MeetingState"><rect codeLine="25" fill="#F1F1F1" height="40" id="MeetingState" rx="2.5" ry="2.5" style="stroke:#181818;stroke-width:0.5;" width="208" x="179.5" y="418.5"/><ellipse cx="194.5" cy="434.5" fill="#ADD1B2" rx="11" ry="11" style="stroke:#181818;stroke-width:1.0;"/><path d="M196.8438,430.1719 C195.9063,429.7344 195.3125,429.5938 194.4375,429.5938 C191.8125,429.5938 189.8125,431.6719 189.8125,434.3906 L189.8125,435.5156 C189.8125,438.0938 191.9219,439.9844 194.8125,439.9844 C196.0313,439.9844 197.1875,439.6875 197.9375,439.1406 C198.5156,438.7344 198.8438,438.2813 198.8438,437.8906 C198.8438,437.4375 198.4531,437.0469 197.9844,437.0469 C197.7656,437.0469 197.5625,437.125 197.375,437.3125 C196.9219,437.7969 196.9219,437.7969 196.7344,437.8906 C196.3125,438.1563 195.625,438.2813 194.8594,438.2813 C192.8125,438.2813 191.5156,437.1875 191.5156,435.4844 L191.5156,434.3906 C191.5156,432.6094 192.7656,431.2969 194.5,431.2969 C195.0781,431.2969 195.6875,431.4531 196.1563,431.7031 C196.6406,431.9844 196.8125,432.2031 196.9063,432.6094 C196.9688,433.0156 197,433.1406 197.1406,433.2656 C197.2813,433.4063 197.5156,433.5156 197.7344,433.5156 C198,433.5156 198.2656,433.375 198.4375,433.1563 C198.5469,433 198.5781,432.8125 198.5781,432.3906 L198.5781,430.9688 C198.5781,430.5313 198.5625,430.4063 198.4688,430.25 C198.3125,429.9844 198.0313,429.8438 197.7344,429.8438 C197.4375,429.8438 197.2344,429.9375 197.0156,430.25 L196.8438,430.1719 Z " fill="#000000"/><text fill="#000000" font-family="sans-serif" font-size="14" lengthAdjust="spacing" textLength="99" x="208.5" y="439.3467">MeetingState</text><rect fill="#FFFFFF" height="15.9688" style="stroke:#181818;stroke-width:1.0;stroke-dasharray:2.0,2.0;" width="75" x="315.5" y="415.5"/><text fill="#000000" font-family="sans-serif" font-size="12" font-style="italic" lengthAdjust="spacing" textLength="73" x="316.5" y="427.6387">value object</text><line style="stroke:#181818;stroke-width:0.5;" x1="180.5" x2="386.5" y1="450.5" y2="450.5"/></g><!--MD5=[f52e18df1debd3c45657156429c90cec]
class CancelledMeeting--><g id="elem_CancelledMeeting"><rect codeLine="29" fill="#F1F1F1" height="72.5938" id="CancelledMeeting" rx="2.5" ry="2.5" style="stroke:#181818;stroke-width:0.5;" width="173" x="175" y="559"/><ellipse cx="195.4" cy="575" fill="#ADD1B2" rx="11" ry="11" style="stroke:#181818;stroke-width:1.0;"/><path d="M197.7438,570.6719 C196.8063,570.2344 196.2125,570.0938 195.3375,570.0938 C192.7125,570.0938 190.7125,572.1719 190.7125,574.8906 L190.7125,576.0156 C190.7125,578.5938 192.8219,580.4844 195.7125,580.4844 C196.9313,580.4844 198.0875,580.1875 198.8375,579.6406 C199.4156,579.2344 199.7438,578.7813 199.7438,578.3906 C199.7438,577.9375 199.3531,577.5469 198.8844,577.5469 C198.6656,577.5469 198.4625,577.625 198.275,577.8125 C197.8219,578.2969 197.8219,578.2969 197.6344,578.3906 C197.2125,578.6563 196.525,578.7813 195.7594,578.7813 C193.7125,578.7813 192.4156,577.6875 192.4156,575.9844 L192.4156,574.8906 C192.4156,573.1094 193.6656,571.7969 195.4,571.7969 C195.9781,571.7969 196.5875,571.9531 197.0563,572.2031 C197.5406,572.4844 197.7125,572.7031 197.8063,573.1094 C197.8688,573.5156 197.9,573.6406 198.0406,573.7656 C198.1813,573.9063 198.4156,574.0156 198.6344,574.0156 C198.9,574.0156 199.1656,573.875 199.3375,573.6563 C199.4469,573.5 199.4781,573.3125 199.4781,572.8906 L199.4781,571.4688 C199.4781,571.0313 199.4625,570.9063 199.3688,570.75 C199.2125,570.4844 198.9313,570.3438 198.6344,570.3438 C198.3375,570.3438 198.1344,570.4375 197.9156,570.75 L197.7438,570.6719 Z " fill="#000000"/><text fill="#000000" font-family="sans-serif" font-size="14" lengthAdjust="spacing" textLength="129" x="210.6" y="579.8467">CancelledMeeting</text><line style="stroke:#181818;stroke-width:0.5;" x1="176" x2="347" y1="591" y2="591"/><text fill="#000000" font-family="sans-serif" font-size="14" lengthAdjust="spacing" textLength="161" x="181" y="607.9951">canceledAt : datetime</text><text fill="#000000" font-family="sans-serif" font-size="14" lengthAdjust="spacing" textLength="125" x="181" y="624.292">comment : string</text></g><!--MD5=[3471d732931b113a9c4cb72340ac78b9]
class RegularMeeting--><g id="elem_RegularMeeting"><rect fill="#F1F1F1" height="40" id="RegularMeeting" rx="2.5" ry="2.5" style="stroke:#181818;stroke-width:0.5;" width="145" x="383" y="575.5"/><ellipse cx="398" cy="591.5" fill="#ADD1B2" rx="11" ry="11" style="stroke:#181818;stroke-width:1.0;"/><path d="M400.3438,587.1719 C399.4063,586.7344 398.8125,586.5938 397.9375,586.5938 C395.3125,586.5938 393.3125,588.6719 393.3125,591.3906 L393.3125,592.5156 C393.3125,595.0938 395.4219,596.9844 398.3125,596.9844 C399.5313,596.9844 400.6875,596.6875 401.4375,596.1406 C402.0156,595.7344 402.3438,595.2813 402.3438,594.8906 C402.3438,594.4375 401.9531,594.0469 401.4844,594.0469 C401.2656,594.0469 401.0625,594.125 400.875,594.3125 C400.4219,594.7969 400.4219,594.7969 400.2344,594.8906 C399.8125,595.1563 399.125,595.2813 398.3594,595.2813 C396.3125,595.2813 395.0156,594.1875 395.0156,592.4844 L395.0156,591.3906 C395.0156,589.6094 396.2656,588.2969 398,588.2969 C398.5781,588.2969 399.1875,588.4531 399.6563,588.7031 C400.1406,588.9844 400.3125,589.2031 400.4063,589.6094 C400.4688,590.0156 400.5,590.1406 400.6406,590.2656 C400.7813,590.4063 401.0156,590.5156 401.2344,590.5156 C401.5,590.5156 401.7656,590.375 401.9375,590.1563 C402.0469,590 402.0781,589.8125 402.0781,589.3906 L402.0781,587.9688 C402.0781,587.5313 402.0625,587.4063 401.9688,587.25 C401.8125,586.9844 401.5313,586.8438 401.2344,586.8438 C400.9375,586.8438 400.7344,586.9375 400.5156,587.25 L400.3438,587.1719 Z " fill="#000000"/><text fill="#000000" font-family="sans-serif" font-size="14" lengthAdjust="spacing" textLength="113" x="412" y="596.3467">RegularMeeting</text><line style="stroke:#181818;stroke-width:0.5;" x1="384" x2="527" y1="607.5" y2="607.5"/></g><!--MD5=[a78031611904abe1e5cbb3fd0b6ea028]
class Meeting--><g id="elem_Meeting"><rect codeLine="37" fill="#F1F1F1" height="162.0781" id="Meeting" rx="2.5" ry="2.5" style="stroke:#181818;stroke-width:0.5;" width="193" x="129" y="164"/><ellipse cx="191.75" cy="180" fill="#ADD1B2" rx="11" ry="11" style="stroke:#181818;stroke-width:1.0;"/><path d="M194.0938,175.6719 C193.1563,175.2344 192.5625,175.0938 191.6875,175.0938 C189.0625,175.0938 187.0625,177.1719 187.0625,179.8906 L187.0625,181.0156 C187.0625,183.5938 189.1719,185.4844 192.0625,185.4844 C193.2813,185.4844 194.4375,185.1875 195.1875,184.6406 C195.7656,184.2344 196.0938,183.7813 196.0938,183.3906 C196.0938,182.9375 195.7031,182.5469 195.2344,182.5469 C195.0156,182.5469 194.8125,182.625 194.625,182.8125 C194.1719,183.2969 194.1719,183.2969 193.9844,183.3906 C193.5625,183.6563 192.875,183.7813 192.1094,183.7813 C190.0625,183.7813 188.7656,182.6875 188.7656,180.9844 L188.7656,179.8906 C188.7656,178.1094 190.0156,176.7969 191.75,176.7969 C192.3281,176.7969 192.9375,176.9531 193.4063,177.2031 C193.8906,177.4844 194.0625,177.7031 194.1563,178.1094 C194.2188,178.5156 194.25,178.6406 194.3906,178.7656 C194.5313,178.9063 194.7656,179.0156 194.9844,179.0156 C195.25,179.0156 195.5156,178.875 195.6875,178.6563 C195.7969,178.5 195.8281,178.3125 195.8281,177.8906 L195.8281,176.4688 C195.8281,176.0313 195.8125,175.9063 195.7188,175.75 C195.5625,175.4844 195.2813,175.3438 194.9844,175.3438 C194.6875,175.3438 194.4844,175.4375 194.2656,175.75 L194.0938,175.6719 Z " fill="#000000"/><text fill="#000000" font-family="sans-serif" font-size="14" lengthAdjust="spacing" textLength="59" x="212.25" y="184.8467">Meeting</text><line style="stroke:#181818;stroke-width:0.5;" x1="130" x2="321" y1="196" y2="196"/><text fill="#000000" font-family="sans-serif" font-size="14" lengthAdjust="spacing" textLength="92" x="135" y="212.9951">From : string</text><text fill="#000000" font-family="sans-serif" font-size="14" lengthAdjust="spacing" textLength="71" x="135" y="229.292">to : string</text><text fill="#000000" font-family="sans-serif" font-size="14" lengthAdjust="spacing" textLength="125" x="135" y="245.5889">comment : string</text><text fill="#000000" font-family="sans-serif" font-size="14" lengthAdjust="spacing" textLength="139" x="135" y="261.8857">guests : List&lt;User&gt;</text><text fill="#000000" font-family="sans-serif" font-size="14" lengthAdjust="spacing" textLength="150" x="135" y="278.1826">state : MeetingState</text><line style="stroke:#181818;stroke-width:1.0;" x1="130" x2="321" y1="285.4844" y2="285.4844"/><text fill="#000000" font-family="sans-serif" font-size="14" lengthAdjust="spacing" textLength="181" x="135" y="302.4795">cancel(comment : string)</text><text fill="#000000" font-family="sans-serif" font-size="14" lengthAdjust="spacing" textLength="167" x="135" y="318.7764">invite(other : Calendar)</text></g><!--MD5=[9f4cabdea25f9471991fc9697a223bc1]
link User to Gender--><g id="link_User_Gender"><path codeLine="16" d="M75.5,503.113 C75.5,503.113 75.5,526.893 75.5,537.863 " fill="none" id="User-Gender" style="stroke:#181818;stroke-width:1.0;"/><polygon fill="#181818" points="75.5,550.8791,79.5,541.8791,75.5,545.8791,71.5,541.8791,75.5,550.8791" style="stroke:#181818;stroke-width:1.0;"/><line style="stroke:#181818;stroke-width:1.0;" x1="75.5" x2="75.5001" y1="545.8791" y2="537.879"/><polygon fill="#181818" points="75.5,491.113,71.5,497.113,75.5,503.113,79.5,497.113,75.5,491.113" style="stroke:#181818;stroke-width:1.0;"/></g><!--MD5=[dfeb032f480b26fbe1cb931c2683d83b]
reverse link MeetingState to CancelledMeeting--><g id="link_MeetingState_CancelledMeeting"><path codeLine="34" d="M277.979,478.396 C274.477,503.071 269.979,534.758 266.568,558.7939 " fill="none" id="MeetingState-backto-CancelledMeeting" style="stroke:#181818;stroke-width:1.0;"/><polygon fill="none" points="271.061,477.324,280.802,458.506,284.922,479.291,271.061,477.324" style="stroke:#181818;stroke-width:1.0;"/></g><!--MD5=[a807854c2af64ee0ceb0b156bd12c932]
reverse link MeetingState to RegularMeeting--><g id="link_MeetingState_RegularMeeting"><path codeLine="35" d="M319.685,472.109 C354.402,503.394 405.647,549.5746 434.237,575.3385 " fill="none" id="MeetingState-backto-RegularMeeting" style="stroke:#181818;stroke-width:1.0;"/><polygon fill="none" points="314.762,477.095,304.591,458.506,324.134,466.695,314.762,477.095" style="stroke:#181818;stroke-width:1.0;"/></g><!--MD5=[e8514b756d8cad503407a1b7d296d978]
reverse link Calendar to User--><g id="link_Calendar_User"><path codeLine="48" d="M126.061,116.702 C120.6,131.936 115.307,148.405 111.5,164 C92.9289,240.07 83.395,330.533 78.9299,385.976 " fill="none" id="Calendar-backto-User" style="stroke:#181818;stroke-width:1.0;"/><polygon fill="none" points="130.658,104.242,124.8285,108.4866,126.5044,115.5002,132.3339,111.2556,130.658,104.242" style="stroke:#181818;stroke-width:1.0;"/><text fill="#000000" font-family="sans-serif" font-size="13" lengthAdjust="spacing" textLength="8" x="119.4542" y="123.8827">1</text><text fill="#000000" font-family="sans-serif" font-size="13" lengthAdjust="spacing" textLength="8" x="70.8533" y="374.9735">1</text></g><!--MD5=[2a235452ffdd0c4fff1fd18b867ae90a]
link Calendar to Meeting--><g id="link_Calendar_Meeting"><path codeLine="49" d="M174.076,115.441 C174.076,115.441 183.764,139.66 188.515,151.537 " fill="none" id="Calendar-Meeting" style="stroke:#181818;stroke-width:1.0;"/><polygon fill="#181818" points="193.449,163.872,193.82,154.0301,191.5919,159.2297,186.3923,157.0016,193.449,163.872" style="stroke:#181818;stroke-width:1.0;"/><line style="stroke:#181818;stroke-width:1.0;" x1="191.5919" x2="188.6205" y1="159.2297" y2="151.802"/><polygon fill="#181818" points="169.62,104.299,168.134,111.3553,174.076,115.441,175.562,108.3847,169.62,104.299" style="stroke:#181818;stroke-width:1.0;"/><text fill="#000000" font-family="sans-serif" font-size="13" lengthAdjust="spacing" textLength="8" x="163.6518" y="123.9473">1</text><text fill="#000000" font-family="sans-serif" font-size="13" lengthAdjust="spacing" textLength="7" x="183.2827" y="153.0479">*</text></g><!--MD5=[b6ea6a7b2da8d8abbac4220c9318c063]
link Meeting to User--><g id="link_Meeting_User"><path codeLine="50" d="M162.756,326.104 C148.176,344.717 132.961,364.142 119.396,381.46 " fill="none" id="Meeting-to-User" style="stroke:#181818;stroke-width:1.0;"/><polygon fill="#181818" points="115.984,385.815,124.6828,381.1964,119.0672,381.8788,118.3849,376.2633,115.984,385.815" style="stroke:#181818;stroke-width:1.0;"/><text fill="#000000" font-family="sans-serif" font-size="13" lengthAdjust="spacing" textLength="7" x="149.8561" y="346.0646">*</text><text fill="#000000" font-family="sans-serif" font-size="13" lengthAdjust="spacing" textLength="7" x="113.9537" y="374.7909">*</text></g><!--MD5=[800a09b7a3812a1313fd4c91ecef9373]
link Meeting to MeetingState--><g id="link_Meeting_MeetingState"><path codeLine="51" d="M253.2386,337.5891 C253.2386,337.5891 268.29,387.28 273.911,405.84 " fill="none" id="Meeting-MeetingState" style="stroke:#181818;stroke-width:1.0;"/><polygon fill="#181818" points="277.743,418.493,278.9625,408.7199,276.2937,413.7077,271.3059,411.0389,277.743,418.493" style="stroke:#181818;stroke-width:1.0;"/><line style="stroke:#181818;stroke-width:1.0;" x1="276.2937" x2="273.975" y1="413.7077" y2="406.051"/><polygon fill="#181818" points="249.761,326.104,247.6714,333.0057,253.2386,337.5891,255.3281,330.6873,249.761,326.104" style="stroke:#181818;stroke-width:1.0;"/><text fill="#000000" font-family="sans-serif" font-size="13" lengthAdjust="spacing" textLength="7" x="244.61" y="346.0646">*</text><text fill="#000000" font-family="sans-serif" font-size="13" lengthAdjust="spacing" textLength="8" x="266.8769" y="407.4992">1</text></g><!--MD5=[6512458391f5521159321ea0d70ac004]
@startuml
hide empty methods

enum Gender {
    Female
    Male
    Other
}

entity User {
    firstname : string
    lastname : string
    email : string
    gender : Gender
}

User *- -> Gender

entity Calendar {
    owner : User
    meetings : List<Meeting> {readOnly}
    - - -
    addMeeting(Meeting m) : boolean
}

class MeetingState <value object> {

}

class CancelledMeeting {
    canceledAt : datetime
    comment : string
}

CancelledMeeting -up-|> MeetingState
RegularMeeting -up-|> MeetingState

class Meeting {
    From : string
    to : string
    comment : string
    guests : List<User>
    state : MeetingState
    - - -
    cancel(comment : string)
    invite(other : Calendar)
}

Calendar "1" o- - "1" User
Calendar "1" *- -> "*" Meeting
Meeting "*" - -> "*" User
Meeting "*" *- -> "1" MeetingState
@enduml

PlantUML version 1.2022.10beta1(Unknown compile time)
(GPL source distribution)
Java Runtime: Java(TM) SE Runtime Environment
JVM: Java HotSpot(TM) 64-Bit Server VM
Default Encoding: UTF-8
Language: en
Country: US
--></g></svg>