<?xml version="1.0" encoding="UTF-8" standalone="no"?><svg xmlns="http://www.w3.org/2000/svg" xmlns:xlink="http://www.w3.org/1999/xlink" contentScriptType="application/ecmascript" contentStyleType="text/css" height="392px" preserveAspectRatio="none" style="width:675px;height:392px;background:#FFFFFF;" version="1.1" viewBox="0 0 675 392" width="675px" zoomAndPan="magnify"><defs><filter height="300%" id="f1bguw1yyhd8xi" width="300%" x="-1" y="-1"><feGaussianBlur result="blurOut" stdDeviation="2.0"/><feColorMatrix in="blurOut" result="blurOut2" type="matrix" values="0 0 0 0 0 0 0 0 0 0 0 0 0 0 0 0 0 0 .4 0"/><feOffset dx="4.0" dy="4.0" in="blurOut2" result="blurOut3"/><feBlend in="SourceGraphic" in2="blurOut3" mode="normal"/></filter></defs><g><!--MD5=[96570132b90bd87a04b25a55f113854d]
class ISafetyCheck--><rect codeLine="3" fill="#FEFECE" filter="url(#f1bguw1yyhd8xi)" height="52.8047" id="ISafetyCheck" style="stroke:#A80036;stroke-width:1.5;" width="186" x="230" y="179"/><ellipse cx="279.25" cy="195" fill="#B4A7E5" rx="11" ry="11" style="stroke:#A80036;stroke-width:1.0;"/><path d="M280.2031,191.7813 L281.9219,191.7813 C282.3125,191.7813 282.5,191.75 282.625,191.6719 C282.8906,191.5156 283.0313,191.2344 283.0313,190.9375 C283.0313,190.6719 282.9219,190.4063 282.6875,190.2344 C282.5156,190.125 282.375,190.0938 281.9219,190.0938 L276.7813,190.0938 C276.3438,190.0938 276.2188,190.1094 276.0625,190.2031 C275.8125,190.3594 275.6563,190.6563 275.6563,190.9375 C275.6563,191.2188 275.7969,191.4688 276.0156,191.6406 C276.1719,191.75 276.3594,191.7813 276.7813,191.7813 L278.5,191.7813 L278.5,198.2969 L276.7813,198.2969 C276.3438,198.2969 276.2188,198.3125 276.0625,198.4219 C275.8125,198.5781 275.6563,198.8594 275.6563,199.1563 C275.6563,199.4063 275.7969,199.6719 276.0156,199.8281 C276.1719,199.9531 276.375,200 276.7813,200 L281.9219,200 C282.6719,200 283.0313,199.7188 283.0313,199.1563 C283.0313,198.875 282.9219,198.625 282.6875,198.4531 C282.5156,198.3281 282.375,198.2969 281.9219,198.2969 L280.2031,198.2969 L280.2031,191.7813 Z " fill="#000000"/><text fill="#000000" font-family="sans-serif" font-size="12" font-style="italic" lengthAdjust="spacing" textLength="79" x="299.75" y="199.1543">ISafetyCheck</text><line style="stroke:#A80036;stroke-width:1.5;" x1="231" x2="415" y1="211" y2="211"/><ellipse cx="241" cy="222" fill="#84BE84" rx="3" ry="3" style="stroke:#038048;stroke-width:1.0;"/><text fill="#000000" font-family="sans-serif" font-size="11" lengthAdjust="spacing" textLength="160" x="250" y="225.2104">bool IsValid(DateTime date)</text><!--MD5=[df38be88ccee13e832d6fafd6288a4ca]
class Test--><rect codeLine="7" fill="#FEFECE" filter="url(#f1bguw1yyhd8xi)" height="73.6094" id="Test" style="stroke:#A80036;stroke-width:1.5;" width="186" x="7" y="298"/><ellipse cx="82.75" cy="314" fill="#ADD1B2" rx="11" ry="11" style="stroke:#A80036;stroke-width:1.0;"/><path d="M85.0938,309.6719 C84.1563,309.2344 83.5625,309.0938 82.6875,309.0938 C80.0625,309.0938 78.0625,311.1719 78.0625,313.8906 L78.0625,315.0156 C78.0625,317.5938 80.1719,319.4844 83.0625,319.4844 C84.2813,319.4844 85.4375,319.1875 86.1875,318.6406 C86.7656,318.2344 87.0938,317.7813 87.0938,317.3906 C87.0938,316.9375 86.7031,316.5469 86.2344,316.5469 C86.0156,316.5469 85.8125,316.625 85.625,316.8125 C85.1719,317.2969 85.1719,317.2969 84.9844,317.3906 C84.5625,317.6563 83.875,317.7813 83.1094,317.7813 C81.0625,317.7813 79.7656,316.6875 79.7656,314.9844 L79.7656,313.8906 C79.7656,312.1094 81.0156,310.7969 82.75,310.7969 C83.3281,310.7969 83.9375,310.9531 84.4063,311.2031 C84.8906,311.4844 85.0625,311.7031 85.1563,312.1094 C85.2188,312.5156 85.25,312.6406 85.3906,312.7656 C85.5313,312.9063 85.7656,313.0156 85.9844,313.0156 C86.25,313.0156 86.5156,312.875 86.6875,312.6563 C86.7969,312.5 86.8281,312.3125 86.8281,311.8906 L86.8281,310.4688 C86.8281,310.0313 86.8125,309.9063 86.7188,309.75 C86.5625,309.4844 86.2813,309.3438 85.9844,309.3438 C85.6875,309.3438 85.4844,309.4375 85.2656,309.75 L85.0938,309.6719 Z " fill="#000000"/><text fill="#000000" font-family="sans-serif" font-size="12" lengthAdjust="spacing" textLength="26" x="103.25" y="318.1543">Test</text><line style="stroke:#A80036;stroke-width:1.5;" x1="8" x2="192" y1="330" y2="330"/><ellipse cx="18" cy="341" rx="3" ry="3" style="stroke:#038048;stroke-width:1.0;fill:none;"/><text fill="#000000" font-family="sans-serif" font-size="11" lengthAdjust="spacing" textLength="121" x="27" y="344.2104">TestDate : DateTime</text><line style="stroke:#A80036;stroke-width:1.0;" x1="8" x2="192" y1="350.8047" y2="350.8047"/><ellipse cx="18" cy="361.8047" fill="#84BE84" rx="3" ry="3" style="stroke:#038048;stroke-width:1.0;"/><text fill="#000000" font-family="sans-serif" font-size="11" lengthAdjust="spacing" textLength="160" x="27" y="365.0151">bool IsValid(DateTime date)</text><!--MD5=[28cb1a53d525683e4ad822d658216541]
class Cured--><rect codeLine="14" fill="#FEFECE" filter="url(#f1bguw1yyhd8xi)" height="73.6094" id="Cured" style="stroke:#A80036;stroke-width:1.5;" width="190" x="228" y="298"/><ellipse cx="300.75" cy="314" fill="#ADD1B2" rx="11" ry="11" style="stroke:#A80036;stroke-width:1.0;"/><path d="M303.0938,309.6719 C302.1563,309.2344 301.5625,309.0938 300.6875,309.0938 C298.0625,309.0938 296.0625,311.1719 296.0625,313.8906 L296.0625,315.0156 C296.0625,317.5938 298.1719,319.4844 301.0625,319.4844 C302.2813,319.4844 303.4375,319.1875 304.1875,318.6406 C304.7656,318.2344 305.0938,317.7813 305.0938,317.3906 C305.0938,316.9375 304.7031,316.5469 304.2344,316.5469 C304.0156,316.5469 303.8125,316.625 303.625,316.8125 C303.1719,317.2969 303.1719,317.2969 302.9844,317.3906 C302.5625,317.6563 301.875,317.7813 301.1094,317.7813 C299.0625,317.7813 297.7656,316.6875 297.7656,314.9844 L297.7656,313.8906 C297.7656,312.1094 299.0156,310.7969 300.75,310.7969 C301.3281,310.7969 301.9375,310.9531 302.4063,311.2031 C302.8906,311.4844 303.0625,311.7031 303.1563,312.1094 C303.2188,312.5156 303.25,312.6406 303.3906,312.7656 C303.5313,312.9063 303.7656,313.0156 303.9844,313.0156 C304.25,313.0156 304.5156,312.875 304.6875,312.6563 C304.7969,312.5 304.8281,312.3125 304.8281,311.8906 L304.8281,310.4688 C304.8281,310.0313 304.8125,309.9063 304.7188,309.75 C304.5625,309.4844 304.2813,309.3438 303.9844,309.3438 C303.6875,309.3438 303.4844,309.4375 303.2656,309.75 L303.0938,309.6719 Z " fill="#000000"/><text fill="#000000" font-family="sans-serif" font-size="12" lengthAdjust="spacing" textLength="36" x="321.25" y="318.1543">Cured</text><line style="stroke:#A80036;stroke-width:1.5;" x1="229" x2="417" y1="330" y2="330"/><ellipse cx="239" cy="341" rx="3" ry="3" style="stroke:#038048;stroke-width:1.0;fill:none;"/><text fill="#000000" font-family="sans-serif" font-size="11" lengthAdjust="spacing" textLength="164" x="248" y="344.2104">DateOfDiagnosis : DateTime</text><line style="stroke:#A80036;stroke-width:1.0;" x1="229" x2="417" y1="350.8047" y2="350.8047"/><ellipse cx="239" cy="361.8047" fill="#84BE84" rx="3" ry="3" style="stroke:#038048;stroke-width:1.0;"/><text fill="#000000" font-family="sans-serif" font-size="11" lengthAdjust="spacing" textLength="160" x="248" y="365.0151">bool IsValid(DateTime date)</text><!--MD5=[53d58b469dab931cbea506cdf5ebe602]
class Vaccination--><rect codeLine="21" fill="#FEFECE" filter="url(#f1bguw1yyhd8xi)" height="86.4141" id="Vaccination" style="stroke:#A80036;stroke-width:1.5;" width="208" x="453" y="292"/><ellipse cx="518.75" cy="308" fill="#ADD1B2" rx="11" ry="11" style="stroke:#A80036;stroke-width:1.0;"/><path d="M521.0938,303.6719 C520.1563,303.2344 519.5625,303.0938 518.6875,303.0938 C516.0625,303.0938 514.0625,305.1719 514.0625,307.8906 L514.0625,309.0156 C514.0625,311.5938 516.1719,313.4844 519.0625,313.4844 C520.2813,313.4844 521.4375,313.1875 522.1875,312.6406 C522.7656,312.2344 523.0938,311.7813 523.0938,311.3906 C523.0938,310.9375 522.7031,310.5469 522.2344,310.5469 C522.0156,310.5469 521.8125,310.625 521.625,310.8125 C521.1719,311.2969 521.1719,311.2969 520.9844,311.3906 C520.5625,311.6563 519.875,311.7813 519.1094,311.7813 C517.0625,311.7813 515.7656,310.6875 515.7656,308.9844 L515.7656,307.8906 C515.7656,306.1094 517.0156,304.7969 518.75,304.7969 C519.3281,304.7969 519.9375,304.9531 520.4063,305.2031 C520.8906,305.4844 521.0625,305.7031 521.1563,306.1094 C521.2188,306.5156 521.25,306.6406 521.3906,306.7656 C521.5313,306.9063 521.7656,307.0156 521.9844,307.0156 C522.25,307.0156 522.5156,306.875 522.6875,306.6563 C522.7969,306.5 522.8281,306.3125 522.8281,305.8906 L522.8281,304.4688 C522.8281,304.0313 522.8125,303.9063 522.7188,303.75 C522.5625,303.4844 522.2813,303.3438 521.9844,303.3438 C521.6875,303.3438 521.4844,303.4375 521.2656,303.75 L521.0938,303.6719 Z " fill="#000000"/><text fill="#000000" font-family="sans-serif" font-size="12" lengthAdjust="spacing" textLength="68" x="539.25" y="312.1543">Vaccination</text><line style="stroke:#A80036;stroke-width:1.5;" x1="454" x2="660" y1="324" y2="324"/><ellipse cx="464" cy="335" rx="3" ry="3" style="stroke:#038048;stroke-width:1.0;fill:none;"/><text fill="#000000" font-family="sans-serif" font-size="11" lengthAdjust="spacing" textLength="156" x="473" y="338.2104">FirstVaccination : DateTime</text><ellipse cx="464" cy="347.8047" rx="3" ry="3" style="stroke:#038048;stroke-width:1.0;fill:none;"/><text fill="#000000" font-family="sans-serif" font-size="11" lengthAdjust="spacing" textLength="182" x="473" y="351.0151">SecondVaccination : DateTime?</text><line style="stroke:#A80036;stroke-width:1.0;" x1="454" x2="660" y1="357.6094" y2="357.6094"/><ellipse cx="464" cy="368.6094" fill="#84BE84" rx="3" ry="3" style="stroke:#038048;stroke-width:1.0;"/><text fill="#000000" font-family="sans-serif" font-size="11" lengthAdjust="spacing" textLength="160" x="473" y="371.8198">bool IsValid(DateTime date)</text><!--MD5=[7421f545a0d8420c5bec41e74b387d9c]
class Employee--><rect codeLine="29" fill="#FEFECE" filter="url(#f1bguw1yyhd8xi)" height="112.0234" id="Employee" style="stroke:#A80036;stroke-width:1.5;" width="308" x="169" y="7"/><ellipse cx="288.75" cy="23" fill="#ADD1B2" rx="11" ry="11" style="stroke:#A80036;stroke-width:1.0;"/><path d="M291.0938,18.6719 C290.1563,18.2344 289.5625,18.0938 288.6875,18.0938 C286.0625,18.0938 284.0625,20.1719 284.0625,22.8906 L284.0625,24.0156 C284.0625,26.5938 286.1719,28.4844 289.0625,28.4844 C290.2813,28.4844 291.4375,28.1875 292.1875,27.6406 C292.7656,27.2344 293.0938,26.7813 293.0938,26.3906 C293.0938,25.9375 292.7031,25.5469 292.2344,25.5469 C292.0156,25.5469 291.8125,25.625 291.625,25.8125 C291.1719,26.2969 291.1719,26.2969 290.9844,26.3906 C290.5625,26.6563 289.875,26.7813 289.1094,26.7813 C287.0625,26.7813 285.7656,25.6875 285.7656,23.9844 L285.7656,22.8906 C285.7656,21.1094 287.0156,19.7969 288.75,19.7969 C289.3281,19.7969 289.9375,19.9531 290.4063,20.2031 C290.8906,20.4844 291.0625,20.7031 291.1563,21.1094 C291.2188,21.5156 291.25,21.6406 291.3906,21.7656 C291.5313,21.9063 291.7656,22.0156 291.9844,22.0156 C292.25,22.0156 292.5156,21.875 292.6875,21.6563 C292.7969,21.5 292.8281,21.3125 292.8281,20.8906 L292.8281,19.4688 C292.8281,19.0313 292.8125,18.9063 292.7188,18.75 C292.5625,18.4844 292.2813,18.3438 291.9844,18.3438 C291.6875,18.3438 291.4844,18.4375 291.2656,18.75 L291.0938,18.6719 Z " fill="#000000"/><text fill="#000000" font-family="sans-serif" font-size="12" lengthAdjust="spacing" textLength="60" x="309.25" y="27.1543">Employee</text><line style="stroke:#A80036;stroke-width:1.5;" x1="170" x2="476" y1="39" y2="39"/><ellipse cx="180" cy="50" rx="3" ry="3" style="stroke:#038048;stroke-width:1.0;fill:none;"/><text fill="#000000" font-family="sans-serif" font-size="11" lengthAdjust="spacing" textLength="98" x="189" y="53.2104">Firstname : string</text><ellipse cx="180" cy="62.8047" rx="3" ry="3" style="stroke:#038048;stroke-width:1.0;fill:none;"/><text fill="#000000" font-family="sans-serif" font-size="11" lengthAdjust="spacing" textLength="98" x="189" y="66.0151">Lastname : string</text><ellipse cx="180" cy="75.6094" rx="3" ry="3" style="stroke:#038048;stroke-width:1.0;fill:none;"/><text fill="#000000" font-family="sans-serif" font-size="11" lengthAdjust="spacing" textLength="261" x="189" y="78.8198">SafetyChecks : IReadOnlyList&lt;ISafetyCheck&gt;</text><line style="stroke:#A80036;stroke-width:1.0;" x1="170" x2="476" y1="85.4141" y2="85.4141"/><ellipse cx="180" cy="96.4141" fill="#84BE84" rx="3" ry="3" style="stroke:#038048;stroke-width:1.0;"/><text fill="#000000" font-family="sans-serif" font-size="11" lengthAdjust="spacing" textLength="282" x="189" y="99.6245">void AddSafetyCheck(ISafetyCheck safetyCheck)</text><ellipse cx="180" cy="109.2188" fill="#84BE84" rx="3" ry="3" style="stroke:#038048;stroke-width:1.0;"/><text fill="#000000" font-family="sans-serif" font-size="11" lengthAdjust="spacing" textLength="159" x="189" y="112.4292">bool IsSafe(DateTime date)</text><!--MD5=[eb4eb94d9fff27cbdff99339037f8e71]
reverse link ISafetyCheck to Test--><path codeLine="12" d="M260.603,242.176 C230.257,259.526 193.848,280.3423 163.374,297.7657 " fill="none" id="ISafetyCheck-backto-Test" style="stroke:#A80036;stroke-width:1.0;"/><polygon fill="none" points="257.304,235.998,278.141,232.148,264.253,248.152,257.304,235.998" style="stroke:#A80036;stroke-width:1.0;"/><!--MD5=[3af75b4a062a6a6edd7072d7de3e15aa]
reverse link ISafetyCheck to Cured--><path codeLine="19" d="M323,252.339 C323,267.218 323,283.5136 323,297.6076 " fill="none" id="ISafetyCheck-backto-Cured" style="stroke:#A80036;stroke-width:1.0;"/><polygon fill="none" points="316,252.302,323,232.302,330,252.301,316,252.302" style="stroke:#A80036;stroke-width:1.0;"/><!--MD5=[d8b971500b2a82241c967dcc38cb79ec]
reverse link ISafetyCheck to Vaccination--><path codeLine="27" d="M387.91,241.867 C416.326,257.351 449.895,275.641 479.601,291.8276 " fill="none" id="ISafetyCheck-backto-Vaccination" style="stroke:#A80036;stroke-width:1.0;"/><polygon fill="none" points="384.285,247.864,370.072,232.148,390.983,235.571,384.285,247.864" style="stroke:#A80036;stroke-width:1.0;"/><!--MD5=[eba065c1c099fda44322ee96be76f175]
link Employee to ISafetyCheck--><path codeLine="37" d="M323,131.126 C323,131.126 323,155.227 323,165.568 " fill="none" id="Employee-ISafetyCheck" style="stroke:#A80036;stroke-width:1.0;"/><polygon fill="#A80036" points="323,178.85,327,169.85,323,173.85,319,169.85,323,178.85" style="stroke:#A80036;stroke-width:1.0;"/><line style="stroke:#A80036;stroke-width:1.0;" x1="323" x2="323" y1="173.85" y2="165.85"/><polygon fill="#FFFFFF" points="323,119.126,319,125.126,323,131.126,327,125.126,323,119.126" style="stroke:#A80036;stroke-width:1.0;"/><!--MD5=[a33f790d3b6735a61542248af9bb4b06]
@startuml
hide empty fields

interface ISafetyCheck {
    +bool IsValid(DateTime date)
}

class Test {
    +TestDate : DateTime
    - - -
    +bool IsValid(DateTime date)
}
Test -up-|> ISafetyCheck

class Cured {
    +DateOfDiagnosis : DateTime
    - - -
    +bool IsValid(DateTime date)
}
Cured -up-|> ISafetyCheck

class Vaccination {
    +FirstVaccination : DateTime
    +SecondVaccination : DateTime?
    - - -
    +bool IsValid(DateTime date)
}
Vaccination -up-|> ISafetyCheck

class Employee {
    +Firstname : string
    +Lastname : string
    +SafetyChecks : IReadOnlyList<ISafetyCheck>
    - - -
    +void AddSafetyCheck(ISafetyCheck safetyCheck)
    +bool IsSafe(DateTime date)
}
Employee o- -> ISafetyCheck
@enduml

PlantUML version 1.2021.15beta1(Unknown compile time)
(GPL source distribution)
Java Runtime: Java(TM) SE Runtime Environment
JVM: Java HotSpot(TM) 64-Bit Server VM
Default Encoding: UTF-8
Language: en
Country: US
--></g></svg>